<svg width="50" height="58" viewBox="0 0 50 58" fill="none" xmlns="http://www.w3.org/2000/svg">
<path d="M29.4882 25.1182V25.2453L29.5489 25.357L45.4974 54.7017C45.4326 56.2536 44.1408 57.5001 42.5506 57.5001H7.44945C5.85919 57.5001 4.56738 56.2536 4.50255 54.7017L20.4511 25.357L20.5118 25.2453V25.1182V14.8602V14.3602H20.0118H19.2103C18.3231 14.3602 17.6114 13.6455 17.6114 12.7787C17.6114 11.914 18.3254 11.2017 19.2103 11.2017H30.6701C31.5594 11.2017 32.269 11.9097 32.269 12.7787C32.269 13.6492 31.5581 14.3602 30.6701 14.3602H29.9882H29.4882V14.8602V25.1182Z" fill="#5EDAF8" stroke="#00587C"/>
<path d="M34.3113 38.6202L43.2153 55.0056C43.0716 55.22 42.8266 55.3614 42.5503 55.3614H7.44922C7.16825 55.3614 6.92424 55.2194 6.78329 55.0074L15.6992 38.599L22.0669 38.6069C22.3092 39.97 23.5103 41.0051 24.9489 41.0051C26.386 41.0051 27.5877 39.9749 27.8306 38.6124L34.3113 38.6202Z" fill="#00B398" stroke="#00587C"/>
<path d="M14.7441 51.8299C14.7441 52.6906 15.4482 53.3932 16.3205 53.3932C17.1928 53.3932 17.8969 52.695 17.8969 51.8299C17.8969 50.9648 17.1928 50.2666 16.3205 50.2666C15.4482 50.2666 14.7441 50.9648 14.7441 51.8299Z" fill="#5EDAF8" stroke="#00587C"/>
<path d="M15.7207 44.0965C15.7207 44.9572 16.4248 45.6598 17.2971 45.6598C18.1694 45.6598 18.8735 44.9616 18.8735 44.0965C18.8735 43.2314 18.1694 42.5332 17.2971 42.5332C16.4248 42.5332 15.7207 43.2314 15.7207 44.0965Z" fill="#5EDAF8" stroke="#00587C"/>
<path d="M20.1934 7.72882C20.1934 8.58951 20.8974 9.29212 21.7697 9.29212C22.6421 9.29212 23.3461 8.5939 23.3461 7.72882C23.3461 6.86374 22.6421 6.16553 21.7697 6.16553C20.8974 6.16553 20.1934 6.86374 20.1934 7.72882Z" fill="#00587C"/>
<path d="M21.1982 1.5633C21.1982 2.42399 21.9023 3.12659 22.7746 3.12659C23.647 3.12659 24.351 2.42838 24.351 1.5633C24.351 0.698213 23.647 0 22.7746 0C21.9023 0 21.1982 0.698213 21.1982 1.5633Z" fill="#00587C"/>
<path d="M29.3955 42.1634C29.3955 43.0241 30.0996 43.7267 30.9719 43.7267C31.8442 43.7267 32.5483 43.0285 32.5483 42.1634C32.5483 41.2983 31.8442 40.6001 30.9719 40.6001C30.0996 40.6001 29.3955 41.2983 29.3955 42.1634Z" fill="#5EDAF8" stroke="#00587C"/>
<path d="M21.5811 47.84C21.5811 49.1662 22.6659 50.2464 24.0076 50.2464C25.3493 50.2464 26.4342 49.1662 26.4342 47.84C26.4342 46.5138 25.3493 45.4336 24.0076 45.4336C22.6659 45.4336 21.5811 46.5095 21.5811 47.84Z" fill="#5EDAF8" stroke="#00587C"/>
<path d="M25.3301 5.66472C25.3301 6.99528 26.415 8.07114 27.7566 8.07114C29.0983 8.07114 30.1832 6.99528 30.1832 5.66472C30.1832 4.33416 29.0983 3.2583 27.7566 3.2583C26.415 3.2583 25.3301 4.33416 25.3301 5.66472Z" fill="#00587C"/>
<path d="M32.999 49.9509C32.999 51.277 34.0839 52.3573 35.4256 52.3573C36.7673 52.3573 37.8522 51.277 37.8522 49.9509C37.8522 48.6247 36.7673 47.5444 35.4256 47.5444C34.0839 47.5444 32.999 48.6247 32.999 49.9509Z" fill="#5EDAF8" stroke="#00587C"/>
</svg>
