<svg width="48" height="40" viewBox="0 0 48 40" fill="none" xmlns="http://www.w3.org/2000/svg">
<g clip-path="url(#clip0_5679_25960)">
<path d="M47.6056 40H0.394388C0.175957 40 0 39.7769 0 39.5C0 39.2231 0.175957 39 0.394388 39H47.6056C47.824 39 48 39.2231 48 39.5C48 39.7769 47.824 40 47.6056 40Z" fill="#00587C"/>
<rect x="3.5" y="24.5" width="6" height="13" fill="#00B398" stroke="#00587C"/>
<rect x="12.5" y="18.5" width="6" height="19" fill="#00B398" stroke="#00587C"/>
<rect x="21.5" y="13.5" width="6" height="24" fill="#00B398" stroke="#00587C"/>
<rect x="30.5" y="9.5" width="6" height="28" fill="#00B398" stroke="#00587C"/>
<rect x="39.5" y="5.5" width="6" height="32" fill="#00B398" stroke="#00587C"/>
<path d="M2.38801 19C2.22643 19 2.07682 18.8989 2.02297 18.7443C1.95116 18.5422 2.05289 18.3222 2.25635 18.2508C2.4658 18.1735 23.2012 10.6816 32.3152 0.133411C32.4588 -0.02713 32.7042 -0.0449679 32.8657 0.0917896C33.0273 0.228547 33.0453 0.472332 32.9076 0.63882C23.656 11.3416 2.72911 18.8989 2.51966 18.9762C2.47777 18.9941 2.42989 19 2.38801 19Z" fill="#00587C"/>
<path d="M32.8115 5.43276C32.5931 5.43276 32.4171 5.25713 32.4171 5.03912V0.787792L28.3944 0.80596C28.176 0.80596 28 0.630336 28 0.412319C28 0.194303 28.176 0.018678 28.3944 0.018678L32.8176 0.000509984C32.9025 -0.00554603 33.0239 0.0429021 33.0967 0.115574C33.1695 0.188247 33.212 0.291199 33.212 0.394151V5.04517C33.212 5.26319 33.03 5.43881 32.8115 5.43881V5.43276Z" fill="#00587C"/>
</g>
<defs>
<clipPath id="clip0_5679_25960">
<rect width="48" height="40" fill="white"/>
</clipPath>
</defs>
</svg>
