<svg width="50" height="58" viewBox="0 0 50 58" fill="none" xmlns="http://www.w3.org/2000/svg">
<path d="M21.0448 45.3915C16.8706 45.3915 12.9479 43.8017 10 40.9218L13.0737 37.9189C15.204 40.0002 18.034 41.1445 21.0526 41.1445C24.0713 41.1445 26.9013 40.0002 29.0238 37.9189C33.4181 33.6258 33.4181 26.6294 29.0238 22.3363L32.0974 19.3335C38.1897 25.2854 38.1897 34.9698 32.0974 40.9218C29.1495 43.8017 25.2269 45.3915 21.0526 45.3915H21.0448Z" fill="#00B398" stroke="#00587C"/>
<path d="M19.1667 37.8262H5V41.1885H19.1667V37.8262Z" fill="#5EDAF8" stroke="#00587C"/>
<path d="M21.2503 55.4781C18.7198 55.4781 16.667 53.3127 16.667 50.6433V46.8636C16.667 44.1942 18.7198 42.0288 21.2503 42.0288C23.7809 42.0288 25.8337 44.1942 25.8337 46.8636V50.6433C25.8337 53.3127 23.7809 55.4781 21.2503 55.4781Z" fill="#5EDAF8" stroke="#00587C"/>
<path d="M30 53.7971V50.9707C30 50.2091 29.4869 49.5942 28.8512 49.5942H13.6488C13.0131 49.5942 12.5 50.2091 12.5 50.9707V53.7971H29.9923H30Z" fill="#00B398" stroke="#00587C"/>
<path d="M32.5 57.1592V54.8981C32.5 54.2887 31.98 53.7969 31.3358 53.7969H11.1642C10.52 53.7969 10 54.2887 10 54.8981V57.1592H32.5Z" fill="#5EDAF8" stroke="#00587C"/>
<path d="M19.167 47.0723C19.167 46.1407 20.1029 45.3911 21.2458 45.3911C22.3887 45.3911 23.3337 46.148 23.3337 47.0723C23.3337 47.9965 22.3977 48.7534 21.2458 48.7534C20.0939 48.7534 19.167 47.9965 19.167 47.0723Z" fill="#5EDAF8" stroke="#00587C"/>
<path d="M39.9754 1.79458L34.335 7.44434L38.3748 11.4909L44.0153 5.8411L39.9754 1.79458Z" fill="#00B398" stroke="#00587C"/>
<path d="M17.1011 25.3831L12.4043 30.0894L15.7705 33.46L20.4673 28.7537L17.1011 25.3831Z" fill="#00B398" stroke="#00587C"/>
<path d="M34.4644 5.21213L15.7178 23.9897L21.868 30.1501L40.6147 11.3725L34.4644 5.21213Z" fill="#00B398" stroke="#00587C"/>
<path d="M21.7235 31.9422C21.3116 31.9422 20.8997 31.7835 20.5852 31.4663L14.6388 25.4682C14.0097 24.8336 14.0097 23.8063 14.6388 23.1717C15.2679 22.5372 16.2864 22.5372 16.9155 23.1717L22.8618 29.1698C23.4909 29.8043 23.4909 30.8317 22.8618 31.4663C22.5473 31.7835 22.1354 31.9422 21.7235 31.9422Z" fill="#5EDAF8" stroke="#00587C"/>
<path d="M40.7435 13.4493C40.2941 13.4493 39.8448 13.2762 39.5016 12.9301L33.0147 6.38674C32.3284 5.6945 32.3284 4.57373 33.0147 3.88149C33.701 3.18924 34.8121 3.18924 35.4984 3.88149L41.9853 10.4248C42.6716 11.1171 42.6716 12.2378 41.9853 12.9301C41.6422 13.2762 41.1928 13.4493 40.7435 13.4493Z" fill="#5EDAF8" stroke="#00587C"/>
<path d="M44.0745 6.72488C43.8412 6.72488 43.6003 6.63377 43.4197 6.45155L39.438 2.43521C39.0767 2.07078 39.0767 1.47858 39.438 1.11414C39.7993 0.749712 40.3863 0.749712 40.7476 1.11414L44.7294 5.13049C45.0906 5.49492 45.0906 6.08712 44.7294 6.45155C44.5487 6.63377 44.3154 6.72488 44.0745 6.72488Z" fill="#5EDAF8" stroke="#00587C"/>
</svg>
