<svg width="50" height="58" viewBox="0 0 50 58" fill="none" xmlns="http://www.w3.org/2000/svg">
<g clip-path="url(#clip0_5567_29826)">
<path d="M30.4732 7.36328H19.6162V10.0242H30.4732V7.36328Z" fill="#5EDAF8" stroke="#00587C"/>
<path d="M33.3027 10.0239V14.5193H25.004H16.6963V10.0239H19.6162H30.3828H33.3027Z" fill="white" stroke="#00587C"/>
<path d="M25.0044 34.5898L18.1611 27.8059L25.0044 20.9312L31.8476 27.8059L25.0044 34.5898Z" fill="#00B398" stroke="#00587C"/>
<path d="M25.0041 40.4565C28.9274 40.4565 32.1185 42.7451 32.1185 45.4968C32.1185 48.2485 28.9274 50.537 25.0041 50.537C21.0808 50.537 17.8896 48.2485 17.8896 45.4968C17.8896 42.7451 21.0808 40.4565 25.0041 40.4565Z" fill="white" stroke="#00587C"/>
<path d="M42.5236 40.4565C46.447 40.4565 49.6381 42.7451 49.6381 45.4968C49.6381 48.2485 46.447 50.537 42.5236 50.537C38.6003 50.537 35.4092 48.2485 35.4092 45.4968C35.4092 42.7451 38.6003 40.4565 42.5236 40.4565Z" fill="#00B398" stroke="#00587C"/>
<path d="M7.48481 40.4565C11.4082 40.4565 14.5993 42.7451 14.5993 45.4968C14.5993 48.2485 11.4082 50.537 7.48481 50.537C3.56147 50.537 0.361328 48.2485 0.361328 45.4968C0.361328 42.7451 3.55243 40.4565 7.47577 40.4565H7.48481Z" fill="#00B398" stroke="#00587C"/>
<path d="M42.1531 35.5978C41.9723 35.5978 41.7915 35.4162 41.7915 35.2345V28.269H37.3167C37.1359 28.269 36.9551 28.0874 36.9551 27.9057C36.9551 27.7241 37.1359 27.5425 37.3167 27.5425H42.1531C42.3339 27.5425 42.5146 27.7241 42.5146 27.9057V35.3344C42.5146 35.4252 42.3339 35.6069 42.1531 35.6069V35.5978Z" fill="#00587C"/>
<path d="M42.1534 35.5975C42.063 35.5975 41.9726 35.5975 41.8822 35.5067L40.0561 34.2262C39.8753 34.1354 39.7849 33.863 39.9657 33.6722C40.0561 33.4906 40.3273 33.3998 40.5172 33.5814L42.3432 34.8619C42.524 34.9527 42.6144 35.2252 42.4336 35.4159C42.3432 35.5067 42.2528 35.5975 42.1624 35.5975H42.1534Z" fill="#00587C"/>
<path d="M42.1534 35.5977C42.063 35.5977 41.8822 35.5069 41.7918 35.4161C41.7014 35.2345 41.7014 34.962 41.8822 34.8621L43.7987 33.5816C43.9795 33.4908 44.2507 33.4908 44.3501 33.6724C44.4405 33.8541 44.4405 34.1265 44.2597 34.2264L42.3432 35.5069C42.283 35.5675 42.2227 35.5977 42.1624 35.5977H42.1534Z" fill="#00587C"/>
<path d="M7.84695 35.5976C7.66615 35.5976 7.48535 35.416 7.48535 35.2343V27.8056C7.48535 27.624 7.66615 27.4424 7.84695 27.4424H12.6833C12.8641 27.4424 13.0449 27.624 13.0449 27.8056C13.0449 27.9873 12.8641 28.1689 12.6833 28.1689H8.20855V35.1344C8.29895 35.4069 8.11815 35.5885 7.84695 35.5885V35.5976Z" fill="#00587C"/>
<path d="M7.84676 35.5977C7.75636 35.5977 7.57556 35.5069 7.48516 35.4161C7.39476 35.2345 7.39476 34.962 7.57556 34.8621L9.49203 33.5816C9.67283 33.4908 9.94403 33.4908 10.0435 33.6724C10.1339 33.8541 10.1339 34.1265 9.95307 34.2264L8.127 35.5069C8.0366 35.5977 7.9462 35.5977 7.8558 35.5977H7.84676Z" fill="#00587C"/>
<path d="M7.84635 35.5975C7.75595 35.5975 7.66555 35.5975 7.57515 35.5067L5.65868 34.2262C5.47788 34.1354 5.38748 33.863 5.56828 33.6722C5.65868 33.4906 5.92988 33.3998 6.11971 33.5814L8.03619 34.8619C8.21699 34.9527 8.30738 35.2252 8.12659 35.4159C8.12659 35.5067 8.03619 35.5975 7.85539 35.5975H7.84635Z" fill="#00587C"/>
<path d="M25.0046 39.5389C24.9142 39.5389 24.8238 39.5389 24.7334 39.4481L22.8169 38.1676C22.6361 38.0768 22.5457 37.8044 22.7265 37.6136C22.8169 37.432 23.0881 37.3412 23.2779 37.5228L25.1944 38.8033C25.3752 38.8941 25.4656 39.1666 25.2848 39.3573C25.2848 39.4481 25.104 39.5389 25.0136 39.5389H25.0046Z" fill="#00587C"/>
<path d="M25.005 39.5391C24.9146 39.5391 24.7338 39.4483 24.6434 39.3575C24.553 39.1759 24.553 38.9034 24.7338 38.8035L26.5598 37.523C26.7406 37.4322 27.0118 37.4322 27.1113 37.6138C27.2017 37.7955 27.2017 38.0679 27.0209 38.1678L25.1948 39.4483C25.1948 39.5391 25.1044 39.5391 25.014 39.5391H25.005Z" fill="#00587C"/>
<path d="M25.0042 39.539C24.8234 39.539 24.6426 39.3573 24.6426 39.1757V29.2768C24.6426 29.0952 24.8234 28.9136 25.0042 28.9136C25.185 28.9136 25.3658 29.0952 25.3658 29.2768V39.0849C25.4562 39.3573 25.2754 39.539 25.0042 39.539Z" fill="#00587C"/>
<path d="M25.0046 19.2875C24.9142 19.2875 24.8238 19.2875 24.7334 19.1967L22.8169 17.9162C22.6361 17.8253 22.5457 17.5529 22.7265 17.3622C22.8169 17.1806 23.0881 17.0897 23.2779 17.2714L25.1944 18.5519C25.3752 18.6427 25.4656 18.9151 25.2848 19.1058C25.2848 19.2875 25.104 19.2875 25.0136 19.2875H25.0046Z" fill="#00587C"/>
<path d="M25.005 19.2872C24.9146 19.2872 24.7338 19.1964 24.6434 19.1055C24.553 18.9239 24.553 18.6515 24.7338 18.5516L26.5598 17.2711C26.7406 17.1803 27.0118 17.1803 27.1113 17.3619C27.2017 17.5435 27.2017 17.816 27.0209 17.9159L25.1948 19.1964C25.1948 19.2872 25.1044 19.2872 25.014 19.2872H25.005Z" fill="#00587C"/>
<path d="M25.0042 19.1874C24.8234 19.1874 24.6426 19.0058 24.6426 18.8242V14.5195C24.6426 14.3379 24.8234 14.1562 25.0042 14.1562C25.185 14.1562 25.3658 14.3379 25.3658 14.5195V18.8242C25.4562 19.0058 25.2754 19.1874 25.0042 19.1874Z" fill="#00587C"/>
<path d="M35.4009 45.9599H32.1194C31.9386 45.9599 31.7578 45.7783 31.7578 45.5967C31.7578 45.415 31.9386 45.2334 32.1194 45.2334H35.4009C35.5817 45.2334 35.7625 45.415 35.7625 45.5967C35.7625 45.7783 35.5817 45.9599 35.4009 45.9599Z" fill="#00587C"/>
<path d="M17.8814 45.9599H14.5999C14.4191 45.9599 14.2383 45.7783 14.2383 45.5967C14.2383 45.415 14.4191 45.2334 14.5999 45.2334H17.8814C18.0622 45.2334 18.243 45.415 18.243 45.5967C18.243 45.7783 18.1526 45.9599 17.8814 45.9599Z" fill="#00587C"/>
</g>
<defs>
<clipPath id="clip0_5567_29826">
<rect width="50" height="58" fill="white"/>
</clipPath>
</defs>
</svg>
