<svg width="50" height="58" viewBox="0 0 50 58" fill="none" xmlns="http://www.w3.org/2000/svg">
<path d="M40.4846 45.5646C39.4303 45.5646 38.2955 45.4795 37.0887 45.3049C31.7704 44.5384 25.5164 42.1667 19.4698 38.624C6.50437 31.0275 -1.11314 20.6974 2.1261 15.1066C3.7563 12.2877 7.76195 11.1849 13.402 11.9981C18.7161 12.7646 24.9744 15.1364 31.021 18.6791C37.0675 22.2218 42.2037 26.5267 45.4896 30.7976C48.9744 35.3325 49.9949 39.3776 48.3604 42.1965C47.0774 44.4107 44.3336 45.5646 40.4804 45.5646H40.4846ZM9.99766 13.8632C6.97437 13.8632 4.83605 14.6637 3.95955 16.1753C1.68573 20.1013 7.8043 29.32 20.5368 36.7802C26.3548 40.1867 32.3378 42.4648 37.3894 43.1971C42.0513 43.8699 45.3837 43.112 46.5354 41.1235C47.6872 39.1349 46.6963 35.8477 43.817 32.1006C40.6963 28.0384 35.7718 23.925 29.9582 20.5186C24.1445 17.1121 18.1572 14.834 13.1056 14.1059C11.992 13.9441 10.9504 13.8674 9.99766 13.8674V13.8632Z" fill="#00B398" stroke="#00587C"/>
<path d="M26.0294 55.5417C19.6822 55.5417 14.3174 43.998 13.7754 29.0692C13.2292 13.9956 17.8361 1.99627 24.268 1.75781C24.3315 1.75781 24.395 1.75781 24.4585 1.75781C30.8057 1.75781 36.1706 13.3015 36.7126 28.2303C36.9666 35.2604 36.0986 41.9286 34.2652 47.0042C32.3174 52.3907 29.4635 55.4182 26.2242 55.5374C26.1607 55.5374 26.0972 55.5374 26.0337 55.5374L26.0294 55.5417ZM24.3442 3.89111C19.8262 4.05718 15.3505 14.1829 15.8925 28.9968C16.426 43.6829 21.5411 53.4169 26.0337 53.4169C26.0718 53.4169 26.1099 53.4169 26.148 53.4169C28.4345 53.3317 30.6702 50.7343 32.2793 46.2846C34.0238 41.4602 34.8495 35.0773 34.6039 28.3155C34.0704 13.6294 28.9553 3.89537 24.4628 3.89537C24.4246 3.89537 24.3865 3.89537 24.3484 3.89537L24.3442 3.89111Z" fill="#5EDAF8" stroke="#00587C"/>
<path d="M9.96038 46.3441C6.58564 46.3441 4.11704 45.3264 2.83829 43.3592C1.06411 40.6298 1.88133 36.5335 5.13328 31.8283C8.19891 27.3956 13.1149 22.8352 18.9752 18.9859C31.5384 10.738 44.1354 8.52805 47.6541 13.9443C51.1686 19.3649 44.0846 30.0697 31.5172 38.3134C25.6569 42.1584 19.5257 44.8495 14.2582 45.8842C12.7042 46.1908 11.2645 46.3398 9.96038 46.3398V46.3441ZM40.4897 13.0799C35.5948 13.0799 28.1594 15.4985 20.1312 20.77C14.4953 24.4703 9.78677 28.8263 6.86934 33.0418C4.18056 36.9295 3.3591 40.2636 4.60822 42.1925C5.85734 44.1214 9.22784 44.7047 13.8475 43.7978C18.8566 42.8142 24.7211 40.2338 30.357 36.5335C42.7 28.4346 48.3485 18.9178 45.8757 15.111C45.0119 13.7825 43.1149 13.0799 40.4854 13.0799H40.4897Z" fill="#00B398" stroke="#00587C"/>
<path d="M20.6094 28.6519C20.6094 31.228 22.6842 33.3145 25.2459 33.3145C27.8077 33.3145 29.8825 31.228 29.8825 28.6519C29.8825 26.0757 27.8077 23.9893 25.2459 23.9893C22.6842 23.9893 20.6094 26.0757 20.6094 28.6519Z" fill="#00587C"/>
<path d="M0.876953 14.0124C0.876953 15.473 2.05409 16.6567 3.50645 16.6567C4.95882 16.6567 6.13172 15.473 6.13172 14.0124C6.13172 12.5519 4.95458 11.3682 3.50645 11.3682C2.05832 11.3682 0.876953 12.5519 0.876953 14.0124Z" fill="#5EDAF8" stroke="#00587C"/>
<path d="M43.7793 14.0124C43.7793 15.473 44.9564 16.6567 46.4046 16.6567C47.8527 16.6567 49.0341 15.473 49.0341 14.0124C49.0341 12.5519 47.8569 11.3682 46.4046 11.3682C44.9522 11.3682 43.7793 12.5519 43.7793 14.0124Z" fill="#5EDAF8" stroke="#00587C"/>
<path d="M22.9248 54.4812C22.9248 55.9417 24.1019 57.1255 25.5543 57.1255C27.0067 57.1255 28.1838 55.9417 28.1838 54.4812C28.1838 53.0207 27.0067 51.8369 25.5543 51.8369C24.1019 51.8369 22.9248 53.0207 22.9248 54.4812Z" fill="#00B398" stroke="#00587C"/>
</svg>
