<svg width="41" height="58" viewBox="0 0 41 58" fill="none" xmlns="http://www.w3.org/2000/svg">
<path d="M17.9355 37.5425C17.9355 37.5425 17.9036 37.5489 17.8845 37.5554C17.8208 37.5618 17.7571 37.5618 17.6933 37.5682C17.5787 37.581 17.464 37.5938 17.3493 37.5938C16.0812 37.5938 14.9279 37.0102 14.227 36.0416C14.125 35.9005 14.0358 35.7594 13.953 35.6055C13.4241 34.56 12.3345 33.9186 11.1876 34.0083C11.041 34.0148 10.92 34.0212 10.7989 34.0083L4 47.7667L9.73477 46.2273C9.773 46.2209 9.80486 46.2144 9.84309 46.2144C10.0088 46.2144 10.1617 46.3171 10.2254 46.471L12.4683 52L20 36.7472C19.7897 36.8177 19.5858 36.9011 19.3947 37.023C18.9423 37.2924 18.4452 37.4656 17.9355 37.5425Z" fill="#00B398" stroke="#00587C"/>
<path d="M27.0534 35.5967C26.4225 36.8728 25.1481 37.668 23.7208 37.668C22.9689 37.668 22.2298 37.4435 21.5862 37.0139C21.4333 36.9177 21.2676 36.8472 21.0956 36.783C21.0637 36.7702 21.0319 36.7574 21 36.751L28.5317 52L30.7746 46.4724C30.8511 46.28 31.0613 46.1774 31.2652 46.2287L37 47.7677L30.2011 34.0128C30.0737 34.0128 29.9526 34.0128 29.8252 34.0128C29.7423 34.0064 29.6659 34 29.5958 34C28.538 34 27.5376 34.6284 27.047 35.6031L27.0534 35.5967Z" fill="#00B398" stroke="#00587C"/>
<circle cx="20.5" cy="21.5" r="12.5" fill="#00B398"/>
<path d="M24.4431 28V27.9608L23.7582 23.5078C23.7386 23.3772 23.7842 23.2401 23.8756 23.1421L27 20.008C27 20.008 27 19.9558 27 19.9101L22.721 19.2245C22.584 19.2049 22.4666 19.1135 22.4079 18.9895L20.4772 15L18.5464 18.9895C18.4877 19.1135 18.3703 19.2049 18.2333 19.2245L14.0652 19.897C14.0652 19.897 14.0196 19.9297 14 19.9493L17.0723 23.0311C17.1701 23.1291 17.2092 23.2597 17.1897 23.3968L16.4917 27.9151L20.275 25.8518C20.4054 25.78 20.562 25.78 20.6924 25.8518L24.4104 28H24.4496H24.4431Z" fill="#5EDAF8" stroke="#00587C" stroke-linejoin="round"/>
<path d="M20.7273 36.9205C20.7273 36.9205 20.7527 36.9142 20.759 36.9142C20.8098 36.9142 20.8605 36.9269 20.9176 36.9332C20.9747 36.9396 21.0381 36.9459 21.0952 36.9586C21.2158 36.9777 21.33 37.0031 21.4442 37.0348C21.4886 37.0475 21.533 37.0539 21.5774 37.0666C21.7106 37.1047 21.8375 37.1555 21.9707 37.2063C21.9961 37.219 22.0278 37.2253 22.0532 37.238C22.1991 37.3015 22.345 37.3777 22.4782 37.4603C22.4909 37.4603 22.4973 37.473 22.5099 37.4793C23.0238 37.8222 23.6011 38 24.1911 38C25.2949 38 26.2782 37.3904 26.7667 36.4062C27.4328 35.0791 28.8475 34.2536 30.3257 34.3806C30.3828 34.3806 30.4462 34.3806 30.516 34.3806C31.2963 34.3743 32.0512 34.0441 32.5905 33.4726C33.1424 32.8947 33.4215 32.1264 33.3771 31.32C33.2566 29.8722 34.0686 28.4435 35.4072 27.7641C36.086 27.4022 36.5872 26.7672 36.8092 25.9734C37.0439 25.1416 36.9234 24.2399 36.4793 23.5034C35.718 22.2398 35.718 20.7285 36.4793 19.4712C36.9678 18.7347 37.12 17.852 36.9044 17.0329C36.695 16.2265 36.1621 15.5788 35.4072 15.2042C34.0686 14.5374 33.2566 13.1087 33.3771 11.6483C33.4215 10.8672 33.1361 10.0799 32.5841 9.49567C31.9941 8.87339 31.1948 8.5432 30.313 8.594C30.2242 8.60035 30.129 8.6067 30.0275 8.6067C28.6699 8.6067 27.3884 7.80662 26.7667 6.5684C26.2719 5.63498 25.2569 5.0508 24.1276 5.0508C23.5567 5.0508 22.9921 5.20319 22.5099 5.49529C21.2792 6.23821 19.7186 6.23821 18.4879 5.49529C17.993 5.1651 17.4411 5 16.8702 5C15.7727 5 14.7323 5.61593 14.2247 6.57475C13.5586 7.89552 12.1376 8.72099 10.6721 8.594C10.6277 8.594 10.5706 8.594 10.5199 8.594C9.72689 8.594 8.95927 8.92419 8.41369 9.50837C7.86177 10.0926 7.58263 10.8545 7.62704 11.6673C7.75392 13.1151 6.93555 14.5438 5.59698 15.2105C4.91817 15.5724 4.417 16.2138 4.19496 17.0012C3.96024 17.8393 4.08077 18.741 4.51851 19.4776C5.28612 20.7348 5.28612 22.2398 4.51851 23.5097C4.03002 24.2463 3.87777 25.1289 4.0998 25.948C4.3155 26.7481 4.84205 27.3958 5.59698 27.7704C6.93555 28.4435 7.74757 29.8786 7.6207 31.339C7.57629 32.1137 7.86811 32.9011 8.41369 33.4853C9.00368 34.1076 9.82204 34.4378 10.6785 34.387C10.7609 34.3806 10.8561 34.3743 10.9513 34.3743C12.3152 34.3743 13.5967 35.1743 14.2184 36.4125C14.7132 37.346 15.7283 37.9365 16.8638 37.9365C17.2952 37.9365 17.7139 37.8476 18.1072 37.6825C18.2341 37.6254 18.361 37.5619 18.4879 37.492C18.6401 37.3968 18.7987 37.3206 18.9573 37.2507C18.97 37.2507 18.9827 37.2444 18.989 37.238C19.135 37.1745 19.2809 37.1237 19.4268 37.0793C19.4648 37.0666 19.4966 37.0602 19.5346 37.0539C19.6552 37.0221 19.7757 36.9967 19.8962 36.9777C19.9597 36.965 20.0168 36.9586 20.0802 36.9523C20.131 36.9523 20.1817 36.9332 20.2325 36.9332C20.2451 36.9332 20.2515 36.9332 20.2642 36.9396C20.3403 36.9396 20.4164 36.9269 20.4926 36.9269C20.5687 36.9269 20.6448 36.9396 20.7273 36.9459V36.9205ZM8.2424 21.4714C8.2424 14.7152 13.7426 9.20993 20.4989 9.20993C27.2552 9.20993 32.7491 14.7089 32.7491 21.4714C32.7491 28.234 27.2552 33.7329 20.4989 33.7329C13.7426 33.7329 8.2424 28.234 8.2424 21.4714Z" fill="#5EDAF8" stroke="#00587C"/>
</svg>
