<svg width="50" height="58" viewBox="0 0 50 58" fill="none" xmlns="http://www.w3.org/2000/svg">
<path d="M30.3595 38.165L38.7717 51.1158H35.3156L31.5086 45.3039L26.9033 38.165H30.3595Z" fill="#00B398" stroke="#00587C"/>
<path d="M18.7624 45.4012L15.0431 51.1158H11.5869L19.9992 38.165H23.4553L18.7624 45.4012Z" fill="#00B398" stroke="#00587C"/>
<path d="M26.8157 45.4012V51.1158H23.4561V45.4012V38.165H26.8157V45.4012Z" fill="#00B398" stroke="#00587C"/>
<path d="M48.596 35.7499C48.8591 36.0153 49.0346 36.3779 49.0346 36.7318C49.0346 37.5368 48.4118 38.1649 47.6135 38.1649H2.64861C2.29773 38.1649 1.93808 37.9879 1.67492 37.7226C1.41177 37.4572 1.23633 37.0945 1.23633 36.7406C1.23633 35.9356 1.85914 35.3164 2.65738 35.3164H47.5346C47.9732 35.4049 48.3328 35.5818 48.596 35.7587V35.7499Z" fill="#00B398" stroke="#00587C" stroke-linejoin="round"/>
<path d="M48.5961 7.45115C48.8592 7.71654 49.0347 8.07923 49.0347 8.43308C49.0347 9.23808 48.4119 9.85731 47.6136 9.85731H2.6487C2.29782 9.85731 1.93817 9.68038 1.67502 9.415C1.41186 9.14962 1.23642 8.78692 1.23642 8.43308C1.22765 7.62808 1.85045 7 2.6487 7H47.6224C47.9733 7 48.3329 7.17692 48.5961 7.44231V7.45115Z" fill="#00B398" stroke="#00587C"/>
<path d="M47.447 9.85742V35.3963H2.82422V9.85742H47.447Z" fill="#5EDAF8" stroke="#00587C"/>
<path d="M31.4212 45.7551H26.9036C26.7282 45.7551 26.5527 45.5781 26.5527 45.4012C26.5527 45.2243 26.7282 45.0474 26.9036 45.0474H31.4212C31.5966 45.0474 31.772 45.2243 31.772 45.4012C31.772 45.5781 31.5966 45.7551 31.4212 45.7551Z" fill="#00587C"/>
<path d="M23.4558 45.7551H18.7628C18.5874 45.7551 18.3242 45.5781 18.3242 45.4012C18.3242 45.2243 18.4997 45.0474 18.6751 45.0474H23.3681C23.5435 45.0474 23.719 45.2243 23.719 45.4012C23.719 45.5781 23.6312 45.7551 23.4558 45.7551Z" fill="#00587C"/>
<g clip-path="url(#clip0_5567_29770)">
<path d="M44.4211 32.2999V31.5074H18.5325L24.8059 24.9997L27.962 29.4182L35.5443 20.9559L39.5439 26.82L44.7362 20.077L44.1059 19.5967L39.5827 25.4656L35.6267 19.6687L28.0347 28.1503L24.898 23.7558L16.666 32.2999H44.4211Z" fill="#00587C"/>
<path d="M28.2965 22.8339L35.2098 15.1159L35.3068 16.6576L36.1067 16.6096L35.9176 13.7231L32.9652 13.9153L33.0137 14.7029L34.6038 14.602L27.7002 22.3104L28.2965 22.8339Z" fill="#00587C"/>
</g>
<path d="M8.7722 13.7231H6.14062V16.377H8.7722V13.7231Z" fill="#00B398" stroke="#00587C"/>
<path d="M8.7722 19.0308H6.14062V21.6846H8.7722V19.0308Z" fill="#00B398" stroke="#00587C"/>
<path d="M8.7722 24.3384H6.14062V26.9922H8.7722V24.3384Z" fill="#00B398" stroke="#00587C"/>
<path d="M21.4965 14.6078H10.8663C10.6963 14.6078 10.5264 14.3866 10.5264 14.1655C10.5264 13.9443 10.6963 13.7231 10.8663 13.7231H21.59C21.7599 13.7231 21.9299 13.9443 21.9299 14.1655C21.9299 14.3866 21.7599 14.6078 21.505 14.6078H21.4965Z" fill="#00587C"/>
<path d="M21.4965 16.3768H10.8663C10.6963 16.3768 10.5264 16.1556 10.5264 15.9345C10.5264 15.7133 10.6963 15.4922 10.8663 15.4922H21.59C21.7599 15.4922 21.9299 15.7133 21.9299 15.9345C21.9299 16.1556 21.7599 16.3768 21.505 16.3768H21.4965Z" fill="#00587C"/>
<path d="M21.4965 19.9154H10.8663C10.6963 19.9154 10.5264 19.6942 10.5264 19.4731C10.5264 19.2519 10.6963 19.0308 10.8663 19.0308H21.59C21.7599 19.0308 21.9299 19.2519 21.9299 19.4731C21.9299 19.6942 21.7599 19.9154 21.505 19.9154H21.4965Z" fill="#00587C"/>
<path d="M21.4965 21.6844H10.8663C10.6963 21.6844 10.5264 21.4633 10.5264 21.2421C10.5264 21.021 10.6963 20.7998 10.8663 20.7998H21.59C21.7599 20.7998 21.9299 21.021 21.9299 21.2421C21.9299 21.4633 21.7599 21.6844 21.505 21.6844H21.4965Z" fill="#00587C"/>
<path d="M21.4965 25.223H10.8663C10.6963 25.223 10.5264 25.0018 10.5264 24.7807C10.5264 24.5595 10.6963 24.3384 10.8663 24.3384H21.59C21.7599 24.3384 21.9299 24.5595 21.9299 24.7807C21.9299 25.0018 21.7599 25.223 21.505 25.223H21.4965Z" fill="#00587C"/>
<path d="M18.9649 26.9925H10.7878C10.6571 26.9925 10.5264 26.7714 10.5264 26.5502C10.5264 26.3291 10.6571 26.1079 10.7878 26.1079H19.0368C19.1676 26.1079 19.2983 26.3291 19.2983 26.5502C19.2983 26.7714 19.1676 26.9925 18.9715 26.9925H18.9649Z" fill="#00587C"/>
<defs>
<clipPath id="clip0_5567_29770">
<rect width="28.0702" height="18.5769" fill="white" transform="translate(16.666 13.7231)"/>
</clipPath>
</defs>
</svg>
