<svg width="50" height="50" viewBox="0 0 50 50" fill="none" xmlns="http://www.w3.org/2000/svg">
<path d="M11.9803 40.2715H41.5371C40.1103 41.8671 38.4429 43.2051 36.6843 44.2938H13.1499C12.0632 43.6206 11.0595 42.8644 10.1387 42.1164L11.9803 40.2715Z" fill="white" stroke="#00587C"/>
<path d="M46.3074 32.2183C45.8013 33.6477 45.2206 34.9857 44.4658 36.2405H16.0039L19.0152 33.2238C20.6909 34.3956 22.6984 35.1519 24.8801 35.1519C27.6425 35.1519 30.156 34.0632 31.9976 32.2183H46.3157H46.3074Z" fill="white" stroke="#00587C"/>
<path d="M47.4859 24.1655V24.9218C47.4859 26.0105 47.4029 27.0991 47.237 28.1961H34.5117C34.8435 27.1905 35.0177 26.1019 35.0177 24.9218V24.1655H47.4942H47.4859Z" fill="white" stroke="#00587C"/>
<path d="M13.1504 44.2935H36.6764C33.2421 46.3877 29.2271 47.5678 24.9549 47.5678C20.6827 47.5678 16.5847 46.396 13.1504 44.2935Z" fill="#5EDAF8" stroke="#00587C"/>
<path d="M44.5486 36.2407C43.7108 37.6701 42.707 39.0081 41.6203 40.263H11.9805L15.9955 36.2407H44.5486Z" fill="#5EDAF8" stroke="#00587C"/>
<path d="M47.3198 28.188C47.1539 29.6174 46.8138 30.9554 46.399 32.2103H31.998C33.1677 31.1216 34.0056 29.6922 34.5116 28.188H47.3198Z" fill="#5EDAF8" stroke="#00587C"/>
<path d="M47.4852 24.1656H35.0088V23.9994L47.1451 20.7251C47.311 21.8969 47.4769 22.9856 47.4769 24.1656H47.4852Z" fill="#5EDAF8" stroke="#00587C"/>
<path d="M16.6676 30.8721L7.79146 39.7643C4.69724 36.1576 2.77268 31.6283 2.34961 26.6753H14.909C15.1579 28.1878 15.8298 29.6089 16.6676 30.8721Z" fill="#5EDAF8" stroke="#00587C"/>
<path d="M46.3078 17.5338L34.1632 20.8081C32.8193 17.7914 29.9739 15.5226 26.6309 15.024V2.43359C35.7559 3.02364 43.3795 9.14847 46.3078 17.5338Z" fill="#00B398" stroke="#00587C"/>
<path d="M23.2874 2.43359V15.024C19.0153 15.6971 15.6639 19.1377 14.9173 23.4093H2.34961C3.18745 12.1652 12.1466 3.18985 23.2874 2.43359Z" fill="#00B398" stroke="#00587C"/>
<circle cx="25" cy="25" r="5" fill="#00B398" stroke="#00587C"/>
</svg>
