<svg width="48" height="58" viewBox="0 0 48 58" fill="none" xmlns="http://www.w3.org/2000/svg">
<rect x="0.5" y="7.5" width="47" height="29" rx="4.5" fill="#00B398" stroke="#00587C"/>
<line x1="0.648438" y1="31.5811" x2="47.3511" y2="31.5811" stroke="#00587C"/>
<rect x="21.5" y="36.5" width="6" height="9" fill="#00B398" stroke="#00587C"/>
<path d="M17.5224 50.5C17.775 47.6967 20.131 45.5 23 45.5L26 45.5C28.869 45.5 31.225 47.6968 31.4776 50.5L17.5224 50.5Z" fill="#00B398" stroke="#00587C"/>
<line x1="7.7832" y1="50.5" x2="40.2156" y2="50.5" stroke="#00587C"/>
<g clip-path="url(#clip0_5572_29999)">
<path d="M18.7211 16.7045C18.8658 16.7209 18.9834 16.8152 19.0151 16.9423L19.7749 19.9609L21.5163 17.1392C21.5797 17.0367 21.7018 16.9751 21.833 16.9792C21.9641 16.9833 22.0772 17.0572 22.1315 17.1679L23.6015 20.2644L24.4609 18.6813C24.5197 18.5747 24.6373 18.509 24.7685 18.509C24.8996 18.509 25.0172 18.5788 25.076 18.6813L26.243 20.8427H28.8483C29.0383 20.8427 29.1921 20.9821 29.1921 21.1544C29.1921 21.3266 29.0383 21.4661 28.8483 21.4661H26.0304C25.8992 21.4661 25.7816 21.4005 25.7228 21.2938L24.7685 19.5262L23.8864 21.1503C23.8276 21.2569 23.71 21.3225 23.5789 21.3225H23.5698C23.4341 21.3225 23.3165 21.2446 23.2623 21.1339L21.7742 18.0005L19.9378 20.978C19.8699 21.0888 19.7297 21.1503 19.5895 21.1339C19.4493 21.1175 19.3362 21.0232 19.3045 20.896L18.5628 17.9431L17.2465 20.3751C18.8658 23.0041 21.7561 25.6576 24.6237 28.2579C28.9388 24.3452 33.3171 20.3095 33.3171 16.4174C33.3171 14.3298 31.4446 12.6318 29.1423 12.6318C27.2109 12.6318 26.1118 13.3906 24.9313 15.5315C24.8725 15.6381 24.7549 15.7037 24.6237 15.7037C24.4925 15.7037 24.3749 15.6381 24.3161 15.5315C23.1311 13.3906 22.032 12.6318 20.1006 12.6318C17.7983 12.6318 15.9258 14.3298 15.9258 16.4174C15.9258 17.5001 16.2741 18.5952 16.853 19.6902L18.3728 16.8808C18.4361 16.7619 18.5763 16.6921 18.7211 16.7086V16.7045Z" fill="#5EDAF8"/>
<path d="M29.1423 11.9999C26.8446 11.9999 25.6505 13.0252 24.6237 14.715C23.5925 13.0252 22.3984 11.9999 20.1006 11.9999C17.4229 11.9999 15.2383 13.9767 15.2383 16.4088C15.2383 17.6966 15.6725 18.9804 16.3962 20.26H16.5409L16.853 19.6858C16.2741 18.5866 15.9258 17.4916 15.9258 16.4129C15.9258 14.3213 17.7984 12.6192 20.1006 12.6192C22.0275 12.6192 23.1311 13.3779 24.3162 15.5188C24.375 15.6255 24.4926 15.6911 24.6237 15.6911C24.7549 15.6911 24.8725 15.6255 24.9313 15.5188C26.1118 13.3779 27.2155 12.6192 29.1423 12.6192C31.4446 12.6192 33.3171 14.3172 33.3171 16.4047C33.3171 20.2969 28.9388 24.3326 24.6237 28.2453C21.7561 25.6491 18.8703 22.9956 17.2465 20.3625L17.0656 20.6988C17.0113 20.8013 16.8983 20.8629 16.7761 20.8711C18.513 23.5861 21.4802 26.2725 24.384 28.9015C24.4519 28.963 24.5378 28.9917 24.6283 28.9917C24.7187 28.9917 24.8047 28.963 24.868 28.9015C29.3594 24.833 34.0047 20.625 34.0047 16.4006C34.0047 13.9726 31.8245 11.9917 29.1423 11.9917V11.9999Z" fill="#00587C"/>
<path fill-rule="evenodd" clip-rule="evenodd" d="M18.5628 17.9348L19.3046 20.8878C19.3362 21.0149 19.4493 21.1093 19.5895 21.1257C19.7297 21.1462 19.8699 21.0805 19.9378 20.9698L21.7742 17.9922L23.2623 21.1257C23.3165 21.2364 23.4341 21.3102 23.5698 21.3143H23.5789C23.7101 21.3143 23.8277 21.2487 23.8865 21.1421L24.7685 19.5179L25.7228 21.2856C25.7816 21.3922 25.8992 21.4579 26.0304 21.4579H28.8483C29.0383 21.4579 29.1921 21.3184 29.1921 21.1462C29.1921 20.9739 29.0383 20.8345 28.8483 20.8345H26.243L25.076 18.6731C25.0172 18.5664 24.8996 18.5008 24.7685 18.5008C24.6373 18.5008 24.5197 18.5705 24.4609 18.6731L23.6015 20.2562L22.1315 17.1597C22.0817 17.053 21.9641 16.9792 21.833 16.971C21.7018 16.9669 21.5797 17.0243 21.5164 17.131L19.775 19.9527L19.0151 16.9341C18.9834 16.807 18.8658 16.7085 18.7211 16.6962C18.5763 16.6798 18.4361 16.7495 18.3728 16.8685L16.853 19.6779C16.9752 19.9076 17.1018 20.1331 17.2465 20.3628L18.5628 17.9307V17.9348ZM11.3438 20.2562C11.1538 20.2562 11 20.3956 11 20.5679C11 20.7401 11.1538 20.8796 11.3438 20.8796H16.7579H16.776C16.7751 20.8782 16.7742 20.8768 16.7733 20.8754C16.8947 20.8707 17.0069 20.8052 17.0609 20.7032H17.0654L17.2463 20.3669C17.1061 20.1372 16.975 19.9117 16.8528 19.682L16.5407 20.2562H16.396C16.3968 20.2575 16.3976 20.2589 16.3984 20.2603H11.3438V20.2562Z" fill="#00587C"/>
</g>
<defs>
<clipPath id="clip0_5572_29999">
<rect width="23" height="17" fill="white" transform="translate(11 12)"/>
</clipPath>
</defs>
</svg>
