<svg width="44" height="52" viewBox="0 0 44 52" fill="none" xmlns="http://www.w3.org/2000/svg">
<path d="M1 5C1 2.79086 2.79086 1 5 1H28.3409C29.4716 1 30.5495 1.47858 31.3079 2.31732L37.5163 9.18377C38.1812 9.9191 38.5493 10.8751 38.5493 11.8664V47C38.5493 49.2091 36.7584 51 34.5493 51H5C2.79086 51 1 49.2091 1 47V5Z" stroke="#25A9C9" stroke-width="2"/>
<path d="M30.0284 1.61871V8.2554C30.0284 9.35997 30.9238 10.2554 32.0284 10.2554H37.9143" stroke="#25A9C9" stroke-width="2" stroke-linecap="round"/>
<rect x="11.8638" y="26.1067" width="31.6394" height="16.6107" rx="4" fill="#25A9C9"/>
<path d="M24.1521 34.4419C24.1521 35.5643 23.8618 36.4233 23.2812 37.0186C22.7005 37.6109 21.8642 37.907 20.7723 37.907H19V31.107H20.9586C21.9668 31.107 22.7511 31.3984 23.3115 31.9814C23.8719 32.5643 24.1521 33.3845 24.1521 34.4419ZM23.0602 34.4791C23.0602 32.8512 22.351 32.0372 20.9326 32.0372H20.0356V36.9721H20.7723C22.2975 36.9721 23.0602 36.1411 23.0602 34.4791Z" fill="white"/>
<path d="M31.1416 34.4977C31.1416 35.6047 30.883 36.4651 30.3659 37.0791C29.8517 37.693 29.1223 38 28.1777 38C27.2215 38 26.4863 37.6961 25.9721 37.0884C25.4608 36.4775 25.2051 35.6109 25.2051 34.4884C25.2051 33.3659 25.4622 32.5039 25.9764 31.9023C26.4935 31.3008 27.2301 31 28.1863 31C29.1281 31 29.856 31.3054 30.3702 31.9163C30.8844 32.5271 31.1416 33.3876 31.1416 34.4977ZM26.3057 34.4977C26.3057 35.3349 26.4632 35.9705 26.778 36.4047C27.0929 36.8357 27.5595 37.0512 28.1777 37.0512C28.793 37.0512 29.2566 36.8372 29.5686 36.4093C29.8835 35.9814 30.0409 35.3442 30.0409 34.4977C30.0409 33.6636 29.8849 33.031 29.5729 32.6C29.2638 32.169 28.8016 31.9535 28.1863 31.9535C27.5652 31.9535 27.0958 32.169 26.778 32.6C26.4632 33.031 26.3057 33.6636 26.3057 34.4977Z" fill="white"/>
<path d="M35.1974 31.9628C34.6023 31.9628 34.1343 32.1891 33.7935 32.6419C33.4526 33.0946 33.2821 33.7194 33.2821 34.5163C33.2821 35.3504 33.4454 35.9814 33.7718 36.4093C34.1011 36.8372 34.5763 37.0512 35.1974 37.0512C35.4661 37.0512 35.726 37.0233 35.9774 36.9674C36.2287 36.9085 36.4901 36.8341 36.7617 36.7442V37.6977C36.2648 37.8992 35.7015 38 35.0717 38C34.1444 38 33.4324 37.6992 32.9355 37.0977C32.4386 36.493 32.1902 35.6295 32.1902 34.507C32.1902 33.8 32.3101 33.1814 32.5498 32.6512C32.7925 32.1209 33.142 31.7147 33.5985 31.4326C34.0549 31.1504 34.5908 31.0093 35.2061 31.0093C35.8532 31.0093 36.4511 31.155 37 31.4465L36.6273 32.3721C36.4136 32.2636 36.1868 32.169 35.947 32.0884C35.7102 32.0047 35.4603 31.9628 35.1974 31.9628Z" fill="white"/>
</svg>
