<svg width="44" height="52" viewBox="0 0 44 52" fill="none" xmlns="http://www.w3.org/2000/svg">
<path d="M1 5C1 2.79086 2.79086 1 5 1H28.3409C29.4716 1 30.5495 1.47858 31.3079 2.31732L37.5163 9.18377C38.1812 9.9191 38.5493 10.8751 38.5493 11.8664V47C38.5493 49.2091 36.7584 51 34.5493 51H5C2.79086 51 1 49.2091 1 47V5Z" stroke="#00587C" stroke-width="2"/>
<path d="M30.0293 1.61719V8.25387C30.0293 9.35844 30.9247 10.2539 32.0293 10.2539H37.9152" stroke="#00587C" stroke-width="2" stroke-linecap="round"/>
<rect x="11.8633" y="26.1055" width="31.6394" height="16.6107" rx="4" fill="#00587C"/>
<path d="M24.1309 33.2399C24.1309 33.9475 23.8992 34.4898 23.4357 34.8667C22.9722 35.2437 22.3126 35.4321 21.4567 35.4321H20.7522V37.9673H19.6445V31.1914H21.5957C22.4423 31.1914 23.0757 31.3644 23.496 31.7105C23.9193 32.0565 24.1309 32.5664 24.1309 33.2399ZM20.7522 34.5006H21.3408C21.9093 34.5006 22.3265 34.4017 22.5922 34.2039C22.8579 34.0062 22.9908 33.6972 22.9908 33.277C22.9908 32.8877 22.8718 32.5973 22.6339 32.4057C22.396 32.2141 22.0252 32.1183 21.5216 32.1183H20.7522V34.5006Z" fill="white"/>
<path d="M30.9949 34.5145C30.9949 35.633 30.6843 36.4888 30.0633 37.0821C29.4422 37.6722 28.5478 37.9673 27.3798 37.9673H25.4842V31.1914H27.5791C28.6574 31.1914 29.4963 31.4818 30.0957 32.0627C30.6952 32.6436 30.9949 33.4609 30.9949 34.5145ZM29.8269 34.5516C29.8269 32.9294 29.0684 32.1183 27.5513 32.1183H26.5919V37.0357H27.3798C29.0112 37.0357 29.8269 36.2077 29.8269 34.5516Z" fill="white"/>
<path d="M33.5532 37.9673H32.4548V31.1914H36.2784V32.1276H33.5532V34.2457H36.1069V35.1865H33.5532V37.9673Z" fill="white"/>
</svg>
