<svg width="46" height="61" viewBox="0 0 46 61" fill="none" xmlns="http://www.w3.org/2000/svg">
<path d="M40.5493 30.5V55C40.5493 57.7614 38.3107 60 35.5493 60H6C3.23857 60 1 57.7614 1 55V13C1 10.2386 3.23858 8 6 8H13.5" stroke="#00587C" stroke-width="2" stroke-linecap="round"/>
<rect x="12.8633" y="34.1055" width="31.6394" height="16.6107" rx="4" fill="#00587C"/>
<path d="M25.1309 41.2399C25.1309 41.9475 24.8992 42.4898 24.4357 42.8667C23.9722 43.2437 23.3126 43.4321 22.4567 43.4321H21.7522V45.9673H20.6445V39.1914H22.5957C23.4423 39.1914 24.0757 39.3644 24.496 39.7105C24.9193 40.0565 25.1309 40.5664 25.1309 41.2399ZM21.7522 42.5006H22.3408C22.9093 42.5006 23.3265 42.4017 23.5922 42.2039C23.8579 42.0062 23.9908 41.6972 23.9908 41.277C23.9908 40.8877 23.8718 40.5973 23.6339 40.4057C23.396 40.2141 23.0252 40.1183 22.5216 40.1183H21.7522V42.5006Z" fill="white"/>
<path d="M31.9949 42.5145C31.9949 43.633 31.6843 44.4888 31.0633 45.0821C30.4422 45.6722 29.5478 45.9673 28.3798 45.9673H26.4842V39.1914H28.5791C29.6574 39.1914 30.4963 39.4818 31.0957 40.0627C31.6952 40.6436 31.9949 41.4609 31.9949 42.5145ZM30.8269 42.5516C30.8269 40.9294 30.0684 40.1183 28.5513 40.1183H27.5919V45.0357H28.3798C30.0112 45.0357 30.8269 44.2077 30.8269 42.5516Z" fill="white"/>
<path d="M34.5532 45.9673H33.4548V39.1914H37.2784V40.1276H34.5532V42.2457H37.1069V43.1865H34.5532V45.9673Z" fill="white"/>
<path d="M31 29C34.1033 28.9998 37.1187 27.969 39.5727 26.0694C42.0267 24.1697 43.7803 21.5089 44.5582 18.5047M31 29C27.8967 28.9998 24.8813 27.969 22.4273 26.0694C19.9733 24.1697 18.2197 21.5089 17.4418 18.5047M31 29C34.8655 29 38 22.7311 38 15C38 7.26889 34.8655 1 31 1M31 29C27.1344 29 24 22.7311 24 15C24 7.26889 27.1344 1 31 1M31 1C33.483 0.998965 35.9216 1.65856 38.0656 2.9111C40.2096 4.16364 41.9817 5.96404 43.2002 8.12756M31 1C28.517 0.998965 26.0783 1.65856 23.9344 2.9111C21.7904 4.16364 20.0183 5.96404 18.7998 8.12756M43.2002 8.12756C39.8133 11.0612 35.4808 12.6731 31 12.6667C26.3364 12.6667 22.0711 10.9556 18.7998 8.12756M43.2002 8.12756C44.3838 10.2244 45.0038 12.5922 45 15C45 16.2102 44.846 17.3847 44.5582 18.5047M44.5582 18.5047C40.4098 20.8044 35.7432 22.0074 31 22C26.0813 22 21.4598 20.7322 17.4418 18.5047M17.4418 18.5047C17.1474 17.3597 16.999 16.1822 17 15C17 12.5033 17.6533 10.1576 18.7998 8.12756" stroke="#00587C" stroke-width="2" stroke-linecap="round" stroke-linejoin="round"/>
</svg>
