<?xml version="1.0" encoding="UTF-8"?><svg id="Layer_1" xmlns="http://www.w3.org/2000/svg" viewBox="0 0 165 89"><defs><style>.cls-1{fill:#fff;}.cls-2{fill:#00587c;}</style></defs><rect class="cls-1" width="165" height="89.000000000000909"/><g><path class="cls-2" d="m37.080331543227658,4.130121111870722h-8.940101623535156l-16.600898742675781,13.148619771003723,5.244701385498047,6.517699241638184,5.926799774169922-4.722198486328125c.696498870849609-.565500259399414,1.961399078369141-1.753100395202637,3.766498565673828-3.548700332641602l-.170497894287109,5.330099105834961-.113800048828125,4.877700805664062v29.690298080444336h10.887298583984375V4.130121111870722Z"/><path class="cls-2" d="m78.144235351821408,28.998340606690363c0,8.966798782348633-1.473907470703125,15.60420036315918-4.421707153320312,19.912099838256836-2.924400329589844,4.30780029296875-7.439598083496094,6.461799621582031-13.545700073242188,6.461799621582031-5.918998718261719,0-10.387397766113281-2.224197387695312-13.4053955078125-6.672500610351562-2.994602203369141-4.448398590087891-4.491901397705078-11.015499114990234-4.491901397705078-19.701398849487305,0-9.060600280761719,1.462200164794922-15.733099937438965,4.386600494384766-20.017519474029541,2.924400329589844-4.307850122451782,7.428001403808594-6.461780071258545,13.510696411132812-6.461780071258545,5.918907165527344,0,10.387405395507812,2.247580051422119,13.405303955078125,6.742730140686035,3.041397094726562,4.495169639587402,4.562103271484375,11.073969841003418,4.562103271484375,19.736569404602051Zm-25.091201782226562,0c0,6.297800064086914.538101196289062,10.816400527954102,1.61419677734375,13.555601119995117,1.099601745605469,2.715900421142578,2.936103820800781,4.073799133300781,5.509597778320312,4.073799133300781,2.526603698730469,0,4.35150146484375-1.381298065185547,5.474403381347656-4.144001007080078,1.123001098632812-2.762599945068359,1.684501647949219-7.257797241210938,1.684501647949219-13.48539924621582,0-6.29789924621582-.573204040527344-10.816499710083008-1.7196044921875-13.555699348449707-1.122894287109375-2.762700080871582-2.93609619140625-4.144010543823242-5.439300537109375-4.144010543823242-2.550094604492188,0-4.374893188476562,1.38131046295166-5.474494934082031,4.144010543823242-1.099502563476562,2.739199638366699-1.649299621582031,7.257800102233887-1.649299621582031,13.555699348449707Z"/><path class="cls-2" d="m12.37763111498316,69.430265436582886c-3.521152750519832,0-5.281688395230958-1.928353492212409-5.281688395230958-5.784987001919944,0-1.918223565129665.478927363008552-3.382140186051402,1.436783686305716-4.391749862765209.957856323295346-1.016305459485011,2.330574849504046-1.524459786502121,4.118075714808583-1.524459786502121,1.30865656066635,0,2.482319304350312.255749511925387,3.521152750519832.767254924880035l-.910623262157969,2.382663630973184c-.485709398706604-.195206346345003-.93767473567641-.353314350462824-1.355886427252699-.474490129103287-.418214886129135-.127874755962694-.836429772258271-.191855260407465-1.254643061109164-.191855260407465-1.605358642831561,0-2.408121022619525,1.137484432676501-2.408121022619525,3.412456492582351,0,2.20764046952354.802762379787964,3.3114607042844,2.408121022619525,3.3114607042844.593654936725216,0,1.143348034429437-.077378459091051,1.649240618031399-.232218435645336.505975641975965-.161542148429362,1.011871420130774-.410512819211363,1.517764003732736-.747078129092188v2.635065251513879c-.499193606279732.316299066611464-1.005086189881695.535036489236518-1.517764003732736.656212267875162-.505892583601963.121175778640463-1.146697523090552.18172533332654-1.922411623914741.18172533332654Z"/><path class="cls-2" d="m20.907221391029452,63.564552084187198c0,1.117214994854294.182140625196553,1.961937826305075.546425070140685,2.534069463215928.370980227715336.572048578536851.971335739039205.858120786097061,1.800983475599423.858120786097061.822942370132296,0,1.413167954373421-.282634868695823,1.770750227444296-.848070722837292.364198192015465-.572048578535032.546342011764864-1.420119301372324.546342011764864-2.544119526475697,0-1.117304442333989-.182143819749399-1.955321907356847-.546342011764864-2.513892667426262-.364284444945952-.558650623890571-.961288870332282-.838017465022858-1.790933412339655-.838017465022858-.822945564685142,0-1.416602098686781.279366841132287-1.780800290704065.838017465022858-.364284444944133.551868588194338-.546425070140685,1.38980618939604-.546425070140685,2.513892667426262Zm7.821370687801391,0c0,1.837407767176046-.485626340332601,3.274445420431221-1.457048332296836,4.310937259364437-.971338933592051,1.036491838931397-2.323794411086055,1.554776093031251-4.057363237929167,1.554776093031251-1.08598185165647,0-2.043839772230058-.235572716135721-2.873567372609614-.70671175930147-.829644542009191-.477917884309136-1.467098395558423-1.161015508956552-1.912278502280969-2.049446212477051-.445263165092911-.888520151002012-.667853218454184-1.925005600827717-.667853218454184-3.109555380617167,0-1.844196191977971.48227844894609-3.277879564742761,1.446918405215911-4.300890390655695.964553703342972-1.023090689732271,2.320443325148517-1.534592908135892,4.067493165010092-1.534592908135892,1.086068104583319,0,2.043839772228239.235569521582875,2.873567372611433.706708564748624.829730794932402.471139043165749,1.467098395558423,1.14753449593627,1.912361560651334,2.029266222134538.445180106722546.881734920751114.667770160082,1.914875673744973.667770160082,3.099508511908425Z"/><path class="cls-2" d="m39.291968869292759,69.22836330746668l-.414863800189778-1.44373982513207h-.161874381927191c-.330533994103462.524986425976749-.799331430031089.932234412177422-1.406385918677188,1.221648122016632-.607137547021921.282634868695823-1.298521841757974.423993832231645-2.074235942580344.423993832231645-1.328838148287105,0-2.330576446782288-.3533942142858-3.005128642560521-1.060105973585451-.674552195776414-.713407542072673-1.011785167202106-1.73650142635779-1.011785167202106-3.069109147005292v-7.359946279846554h3.08602110978245v6.592608296590697c0,.814400135815958.145045477522217,1.42689814251753.435046985085137,1.837494020102895.290087760491588.403810647334467.752183024544138.605712776450673,1.386202733783648.605712776450673.863394992848043,0,1.487364638827785-.286065818456336,1.871915327041279-.858114396991368.384464435286645-.57883380878593.576738182116969-1.534592908135892.576738182116969-2.867286881710243v-5.310413814442654h3.086024304337116v11.287259271321091h-2.36767478900947Z"/><path class="cls-2" d="m55.339364254183238,69.22836330746668h-3.086027498889962v-6.592694549517546c0-.814403330368805-.145045477522217-1.423550251131019-.435046985085137-1.827360898467305-.290084565938741-.410592683032519-.752099966170135-.61584909263911-1.386199539230802-.61584909263911-.86339818740089,0-1.487364638827785.289416904393875-1.87182907411443.868250713179805-.38455388276634.572134831461881-.576744571222662,1.524462981054967-.576744571222662,2.857153760076471v5.310500067367684h-3.086104168158272v-11.287259271321091h2.357541667375699l.414863800189778,1.443650377652375h.172007503560963c.344015007121925-.545166416319262.816163528988909-.955676040977778,1.416515845759932-1.231694990725373.607137547021921-.282634868695823,1.295173950371463-.42399063767698,2.064102820944754-.42399063767698,1.315357135266822,0,2.313744347824468.356745300221519,2.99499552092675,1.070152842294192.681340620580158.706711759299651,1.021924677943389,1.729802449033741,1.021924677943389,3.069192205377476v7.3599494743994Z"/><path class="cls-2" d="m63.282159895745281,66.976919129289854c.539643034444452,0,1.187230009629275-.117738439776076,1.942677867184102-.353311155911797v2.29180415886367c-.768928870573291.343261092650209-1.71330258357375.514853304341159-2.833038080625556.514853304341159-1.234458278937382,0-2.134951614012607-.309596894736387-2.701556674495805-.928797073311216-.559909277711995-.625979019720035-.839860722016965-1.561561323282149-.839860722016965-2.806740521578831v-5.441722714716889h-1.477231517192195v-1.302374472490555l1.699821570553468-1.02978966705632.890443271815457-2.382580572599181h1.97298778460754v2.402843621315697h3.167009413591586v2.311901090830361h-3.167009413591586v5.441722714716889c0,.43755790362593.121431342868163.76055914211247.364287639496979.969246501475936.249552079400019.208687359365285.576738182116969.312944786121079.981468860672976.312944786121079Z"/><path class="cls-2" d="m73.835154389451418,57.729068785395611c.418716430925997,0,.766251835286312.030313111976284,1.042606213082763.090859472109514l-.232806233369047,2.887470066605601c-.249558468505711-.06733159038231-.553545728438621-.100995788296132-.911131196060524-.100995788296132-.984816752057668,0-1.753579505884773.252401620538876-2.306288261477675.757208056173113-.546843556561726.504803241079571-.819843653867792,1.211511805828195-.819843653867792,2.120128888796899v5.744623826682073h-3.086027498889962v-11.287259271321091h2.337275424104519l.455645461852328,1.898043574787152h.151575143543596c.350889684852518-.63268119159693.823197934359996-1.140918576988042,1.416100553889919-1.524546039428969.600441764250718-.390329634316004,1.251964428545762-.585532786108161,1.952894047191876-.585532786108161Z"/><path class="cls-2" d="m76.799667487099214,55.023320857561885c0-1.002824446464729.560241511208005-1.504279796159608,1.679887560780116-1.504279796159608,1.119652438677804,0,1.679893949885809.501455349694879,1.679893949885809,1.504279796159608,0,.477924273414828-.141525080282008.851418614221984-.425418602801074,1.120652333718681-.276354377796451.262537936727313-.694227446771038.393760584074698-1.254475347084735.393760584074698-1.119646049572111,0-1.679887560780116-.504803241079571-1.679887560780116-1.514412917793379Zm3.218256430383917,14.205042449904795h-3.085944440515959v-11.287259271321091h3.085944440515959v11.287259271321091Z"/><path class="cls-2" d="m87.950088087165568,59.919873961408484c-.654039971937891,0-1.166548474488081.208690553916313-1.537531896756263.625982214272881-.370977033160671.410509624658516-.583689529115873.996125469140679-.637281347697353,1.75668461125133h4.330363335233415c-.013397954644461-.760559142110651-.212706106847691-1.346174986592814-.597087483760333-1.75668461125133-.384381376912643-.417291660356568-.903592051339729-.625982214272881-1.558462607019464-.625982214272881Zm.435462276956969,9.510391475174401c-1.821419030169636,0-3.245052339674658-.501455349694879-4.270069344775038-1.504282990712454-1.0250170051022-1.002904310285885-1.538362480498108-2.423023611658209-1.538362480498108-4.260520826312131,0-1.891258344538073.472308249507478-3.351823879522271,1.416931137629945-4.381616741131438.951325059997544-1.036491838931397,2.262746506155963-1.554776093031251,3.935938284166696-1.554776093031251,1.598656470954666,0,2.843081754779632.454306944207929,3.733275851471262,1.362920832623786.891024680435294.908613888415857,1.335706436910186,2.16392620834813,1.335706436910186,3.765767648492329v1.494232927452686h-7.294882821985084c.033498081165817.875029554321372.293106612931297,1.558127178968789.778812817085054,2.049449407029897.48571259325945.491405286435111,1.167385447335619.737021676724908,2.044175200278914.737021676724908.68083588123045,0,1.325656373648599-.070676287214155,1.93279392067052-.211952192375975.607143936127613-.141358963534003,1.241077392438456-.366881616409955,1.90181314714755-.676478511144524v2.382663630973184c-.539304411840931.269236914049543-1.1162981581856.467791151781057-1.730137877082598.595669102294778-.613839718896998.134573733286743-1.362502346200927.201902129116206-2.245994271019299.201902129116206Z"/><path class="cls-2" d="m103.400721832686031,65.876453175019378c0,1.157667617570041-.404481503433999,2.039396149215463-1.214275094042023,2.64519837314765-.802267224098614.605712776450673-2.006485865775176.908613888415857-3.61185089771061.908613888415857-.823197934359996,0-1.524964525853648-.057195274195692-2.104469190737291-.17159221169095-.580335248623669-.107694765620181-1.123830913802522-.269230524945669-1.629643633583328-.484620056186031v-2.544205779402546c.573639465854285.269236914051362,1.217622985428534.4946701194458,1.93279392067052.676395452770521.721866718015008.18172533332654,1.355806563431543.272584805436054,1.902650119995087.272584805436054,1.119652438677804,0,1.679056977040091-.32300123848654,1.679056977040091-.969163443101934,0-.242351557279108-.073704723314222-.437474845250108-.222762559213152-.585612649929317-.148227252158904-.154756918180283-.404481503433999-.326432188245235-.768762753825285-.514853304341159-.364281250393105-.195206346345003-.849993843652555-.420645940846953-1.45713777977835-.67639545277234-.870093970172093-.363530530470598-1.510729598359831-.700012781977421-1.921906884565033-1.009609676711989-.405312087174025-.309600089289233-.701766591491833-.66299749812606-.891024680433475-1.06010597358727-.181718944219028-.403810647336286-.273006486411759-.898567019708935-.273006486411759-1.484099805817095,0-1.00282444646291.387729268299154-1.776864601593843,1.164031166845234-2.322034212465951.782167097577258-.551951646566522,1.888415192503089-.827884343387268,3.318744284779314-.827884343387268,1.362502346200927,0,2.688165108957037.296115881716105,3.976132148101897.888430703520498l-.931224933476187,2.221124677094849c-.566100321131671-.242354751831954-1.095361058818526-.440908989561649-1.588612796800589-.595665907741932-.492408376028834-.154843171108951-.994860426213563-.232221630198183-1.507368928763754-.232221630198183-.910294223212986,0-1.365863015797004.245702643216646-1.365863015797004.737024871277754,0,.275932696820746.144879360774212.514853304341159.435468666062661.716758628008392.296454504315989.201988382043055.940438023890238.501455349696698,1.931963336930494.898567019708935.884328897662272.356745300223338,1.531660308621213.689876465790803,1.942837594824596.99947336052719.412020648156613.309683147661417.715170935243805.666345389510752.911124806954831,1.070242289772068.195123287971001.403810647336286.293106612933116.885082812137625.293106612933116,1.443650377654194Z"/><g><path class="cls-2" d="m17.442636395568115,78.858600955624752c0,1.662530673615038-.421890174891814,2.962177131931639-1.265670524684538,3.898944247453983-.843780349787266.930510827154649-2.009569523039318,1.395707770746412-3.497109277323034,1.395707770746412-.918760796470451,0-1.734441446094024-.213951419162186-2.447044385116897-.641971197457678-.712476254058856-.428019778294583-1.262481474267588-1.042276202985704-1.650013224379109-1.84249641414408-.38753175011243-.800229956156727-.581296407041918-1.73699707167907-.581296407041918-2.810184406598637,0-1.662525801111769.418825373194522-2.955915971062495,1.256349434615913-3.880297194817103.837521625172485-.930510827154649,2.000116875508866-1.395702898246782,3.487656629788034-1.395702898246782,1.437596642316748,0,2.578224232136563.47451803365766,3.422004581924739,1.42367591344555.850041510655501.949157879789709,1.275123172216809,2.233226959671811,1.275123172216809,3.852324179618336Zm-7.828546256901973,0c0,1.302716132518071.262483942748077,2.295307465971746.78758094945897,2.97775938286577.524967885491606.682334976923812,1.296837462800795,1.023497592886997,2.315737853136852,1.023497592886997,1.018771269118588,0,1.790643282675774-.338092941764444,2.315737853137762-1.014298315290944.531229046358021-.682334976921993.796906912021768-1.677981367077336.796906912021768-2.986958660461823,0-1.296454971648927-.265677865663747-2.279715470037445-.796906912021768-2.949786367661545-.525094570461988-.676073816057396-1.303227744882861-1.014171630321471-2.334514026987563-1.014171630321471-1.018771269120407,0-1.787576044726848.33184152589547-2.306414326820232.995651262653155-.518711597128458.663683051794578-.77812830192579,1.653204711046783-.77812830192579,2.968306735329861Z"/><path class="cls-2" d="m24.811745002375574,74.969109355706678h-2.615776579831618v8.998043401687028h-1.556383288814686v-8.998043401687028h-1.837521592943631v-.697917227856124l1.837521592943631-.558305521792136v-.56763148436039c0-2.506184338432831,1.103197054585507-3.759337413885987,3.309600908757602-3.759337413885987.543746495593041,0,1.181244739219437.108569016666479,1.912621415843205.32571192249452l-.40324312226312,1.237570824519025c-.599945895925885-.192361377296947-1.112523017151034-.288412944729316-1.537477993746506-.288412944729316-.587555131661247,0-1.021967628284983.195299494031133-1.303227744882861.586151852025978-.281260116597878.38459119712752-.421890174893633,1.00497722522141-.421890174893633,1.861021654308388v.660744935060393h2.615776579831618v1.200403404215649Z"/><path class="cls-2" d="m36.015422403434059,84.153252973825147c-1.518835813612895,0-2.7188542904305-.459057595193372-3.600186987921916-1.377182530582104-.875076409122812-.918124935386913-1.312553707448387-2.192863180203858-1.312553707448387-3.824351164420477,0-1.644010305943993.406307923962231-2.949791240161176,1.21879708691813-3.917596172582307.818745451322684-.967683119954017,1.915691090041946-1.451522243679392,3.290827171157616-1.451522243679392,1.287513936483265,0,2.306285205603672.421763489925979,3.056313807361221,1.26541715474832.75002860175664.837524061424119,1.125045338885684,1.944814014940675,1.125045338885684,3.321996545525508v.977130894986658h-7.078395842675491c.031164501864623,1.197207045052892.334394715227972,2.106006017874279.909437270152011,2.72639204596635.581293970794832.6203762830919,1.396847935450751.930501082156297,2.446915263903975.930501082156297,1.106393413752812,0,2.20014269330477-.229523925098874,3.28150120859209-.688581520294974v1.377172785585572c-.550129468926571.23578995846492-1.072032552719975.403247994761841-1.565709251380213.502491048859156-.487542222762386.105509087466999-1.078167028618736.158132073731394-1.771991357544721.158132073731394Zm-.421895047393264-9.277261941316283c-.825001739689469,0-1.484470080083156.266701090397873-1.978273463709229.800229956155817-.487547095261107.533523993261042-.775063500223951,1.271673443117834-.862558959890521,2.214701719508412h5.372178345468456c0-.973939408323531-.218799555398618-1.718345146547108-.656271981226382-2.233226959671811-.437472425827764-.521133228995495-1.062584777686425-.781704715992419-1.875073940642324-.781704715992419Z"/><path class="cls-2" d="m44.931461651522113,78.746967137260981l-3.572087287755494-4.978261185769952h1.771991357544721l2.709528327864064,3.908143525050036,2.700207237800896-3.908143525050036h1.753212747446014l-3.572082415257682,4.978261185769952,3.759590783821295,5.220185620132725h-1.762670267477006l-2.878258086333517-4.131420906779567-2.906357786495391,4.131420906779567h-1.762670267478825l3.759595656320926-5.220185620132725Z"/><path class="cls-2" d="m57.307057829230871,84.153252973825147c-.668789430458673,0-1.281262520615201-.120964653431656-1.837516720443091-.362884215293889-.550007656459456-.248049165265002-1.012514980751803-.626515631492111-1.387658402847592-1.135262968718052h-.112403673166227c.074982882931181.595604499557339.112403673166227,1.160044497248236.112403673166227,1.693573363010728v4.196683154746097h-1.556256603847942v-14.776656356079002h1.265670524684538l.215608068729125,1.39569802574897h.074978010434279c.400051635592718-.558305521793955.865755319052369-.961548644054346,1.396974620415676-1.209597809319348.531355731328404-.248175850230837,1.140759147284371-.372205305359785,1.828200502875006-.372205305359785,1.362613759383748,0,2.412685960336603.462127269393022,3.150197112861861,1.386508493145811.743767440888405.924249666290052,1.115714503819618,2.220831322907543,1.115714503819618,3.889491599918074,0,1.674921437879675-.378203351295269,2.97775938286577-1.134493113921053,3.908270210019509-.75003347425627.924254538787864-1.793839641842169,1.386381808180886-3.131418502760425,1.386381808180886Zm-.224934031295561-9.258610016183411c-1.050062455955413,0-1.809548577743044.288412944729316-2.278312190404904.865365519158331-.468773357658392.576957446923188-.709406579858296,1.49507750981229-.721928901590218,2.754365061162389v.344227417662296c0,1.433001876015624.240642967194617,2.459695828069016.721928901590218,3.080072111161826.481285934393782.614129739725286,1.253284632918621.921184864590941,2.31573298063995.921184864590941.887593858353284,0,1.581427932276711-.356744866897316,2.081356046806832-1.070117660719916.506320832858364-.713372793826238.759486121787631-1.696628419715125.759486121787631-2.94965968269662,0-1.271805000584209-.253165288929267-2.2457395364072-.759486121787631-2.92194003743225-.499928114530121-.682334976923812-1.206274765186208-1.023497592886997-2.118776837041878-1.023497592886997Z"/><path class="cls-2" d="m72.51571513633462,78.858600955624752c0,1.662530673615038-.421899919891075,2.962177131931639-1.265680269683799,3.898944247453983-.843780349787266.930510827154649-2.009564650541506,1.395707770746412-3.497109277323034,1.395707770746412-.918758360221545,0-1.734434137345488-.213951419162186-2.447037076370179-.641971197457678-.712476254055218-.428019778294583-1.262483910514675-1.042276202985704-1.65001322437729-1.84249641414408-.387539058860966-.800229956156727-.581298843292643-1.73699707167907-.581298843292643-2.810184406598637,0-1.662525801111769.418820500696711-2.955915971062495,1.256344562118102-3.880297194817103.83752406142321-.930510827154649,2.000121748005768-1.395702898246782,3.487656629788034-1.395702898246782,1.437601514816379,0,2.578224232132925.47451803365766,3.422004581924739,1.42367591344555.850046383155131.949157879789709,1.275132917216069,2.233226959671811,1.275132917216069,3.852324179618336Zm-7.828556001901234,0c0,1.302716132518071.262491251494794,2.295307465971746.78758094945897,2.97775938286577.524972757991236.682334976923812,1.296844771546603,1.023497592886997,2.315742725632845,1.023497592886997,1.018771269120407,0,1.790643282677593-.338092941764444,2.315732980641769-1.014298315290944.531229046358021-.682334976921993.796906912021768-1.677981367077336.796906912021768-2.986958660461823,0-1.296454971648927-.265677865663747-2.279715470037445-.796906912021768-2.949786367661545-.525089697964177-.676073816057396-1.303217999886328-1.014171630321471-2.334511590738657-1.014171630321471-1.018771269120407,0-1.787573608478851.33184152589547-2.306416763069137.995651262653155-.518706724630647.663683051794578-.77812830192579,1.653204711046783-.77812830192579,2.968306735329861Z"/><path class="cls-2" d="m79.28981771213239,73.582600862560867c.45625103592829,0,.865755319056916.037172292799369,1.22824973445131.111638690863401l-.215608068730035,1.432997003515993c-.425086534060028-.093113450700002-.800093526191631-.139606833565267-1.125167151352798-.139606833565267-.831267773055515,0-1.543744027115281.335033012562235-2.137555447140585,1.004977225218681-.587555131660338.669939340158635-.881337569989228,1.504398599882734-.881337569989228,2.503114664237728v5.471431144562303h-1.556256603847032v-10.198446805902677h1.284449134784154l.178060593528244,1.888989797010254h.075104695399205c.381273025498558-.663809736760413.840583990627238-1.175621875685465,1.378069325350225-1.535436416781522.537612019696098-.359814541096966,1.128236825556087-.539658469158894,1.77199135754654-.539658469158894Z"/><path class="cls-2" d="m86.595201994043236,82.878509856508572c.275003828227455,0,.540681693891202-.018651925131053.79690691201813-.055819345430791.256225218135114-.043423708668342.459437650098153-.086857162334127.609393670961254-.13028087100065v1.181756351586046c-.168734630959989.080591128964443-.418830245692334.145736436962579-.750023729257009.195426178994239-.325073625162076.055809600436078-.618729378525131.083660803167732-.881337569989228.083660803167732-1.987599426272027,0-2.981335796927851-1.039079843821128-2.981335796927851-3.117239531461564v-6.066904086656905h-1.471962375845578v-.744537295689042l1.471962375845578-.641971197456769.656267108726752-2.1774076142392h.89998949512028v2.363512703169363h2.981462481897324v1.200403404215649h-2.981462481897324v6.001758778658768c0,.614246679692769.14688634666436,1.085699911654046.44066878499234,1.414476635849496.293772693333267.32877672419545.696894003123816.493165086293629,1.209471124355332.493165086293629Z"/></g></g></svg>