<svg width="144" height="89" viewBox="0 0 144 89" fill="none" xmlns="http://www.w3.org/2000/svg">
<path d="M47.9844 68.9527V65.8989C47.4342 66.2651 46.8365 66.5553 46.2078 66.7613C45.5858 66.9484 44.9386 67.039 44.289 67.03C42.4128 67.03 41.4464 65.7434 41.4464 63.1844C41.4464 60.6253 42.3844 59.2115 44.289 59.2115C44.7703 59.2166 45.2486 59.288 45.7103 59.4236C46.1935 59.565 46.7194 59.7629 47.288 59.9891L48.3539 57.1615C47.0724 56.5525 45.6664 56.2477 44.2463 56.2708C43.3655 56.2104 42.4818 56.3368 41.6536 56.6414C40.8255 56.9461 40.0718 57.4221 39.4423 58.038C38.2302 59.4537 37.6276 61.2874 37.7652 63.1419C37.7652 67.6379 39.8119 69.8717 43.9194 69.8717C44.6784 69.887 45.4366 69.8159 46.1793 69.6597C46.8159 69.524 47.4257 69.2852 47.9844 68.9527Z" fill="#00587C"/>
<path d="M57.6508 59.2519H61.9716V56.5657H49.7056V59.2519H54.0406V69.7001H57.6508V59.2519Z" fill="#00587C"/>
<path d="M75.4203 58.1215C75.0104 57.5427 74.4615 57.0752 73.8235 56.7616C73.1854 56.448 72.4787 56.2982 71.7675 56.3259C71.0268 56.2964 70.2911 56.4596 69.6331 56.7992C68.9751 57.1389 68.4175 57.6434 68.0153 58.2628H67.8589L67.3472 56.5662H64.4193V75.4125H68.0153V70.0965C68.0153 69.9269 68.0153 69.2907 67.8305 68.1879H68.0153C68.4436 68.7394 68.9992 69.1803 69.635 69.4731C70.2708 69.766 70.9681 69.9022 71.668 69.8703C72.6312 69.8921 73.5765 69.6099 74.3685 69.0644C75.1709 68.4612 75.7825 67.6418 76.131 66.7034C76.5633 65.5365 76.7706 64.299 76.7421 63.0557C76.7423 62.4883 76.7043 61.9215 76.6284 61.3591C76.5051 60.1962 76.0897 59.0828 75.4203 58.1215ZM70.6589 67.0286C70.2738 67.0585 69.8873 66.9898 69.5365 66.8289C69.1856 66.668 68.8821 66.4204 68.6549 66.1096C68.1521 65.1837 67.93 64.1328 68.0153 63.084V62.6881C67.9612 61.7454 68.1834 60.8073 68.6549 59.9877C68.8884 59.7044 69.1876 59.4817 69.5268 59.3389C69.866 59.196 70.235 59.1373 70.602 59.1677C70.9747 59.1431 71.3469 59.2212 71.6779 59.3933C72.0088 59.5654 72.2857 59.8249 72.4782 60.1432C72.92 61.0185 73.1256 61.9928 73.0751 62.9709C73.0751 65.7137 72.265 67.0286 70.6305 67.0286H70.6589Z" fill="#00587C"/>
<path d="M85.1255 56.2986C83.6632 56.2835 82.2129 56.5624 80.8616 57.1186C80.5794 57.224 80.304 57.3467 80.0372 57.4862L80.6484 58.7304L81.2169 59.9038C82.3793 59.3362 83.6471 59.0137 84.9407 58.9566C85.216 58.9153 85.497 58.9379 85.762 59.0225C86.027 59.1072 86.2688 59.2518 86.4683 59.4448C86.6679 59.6378 86.8198 59.8741 86.9124 60.1352C87.0049 60.3964 87.0354 60.6752 87.0016 60.9501V61.5297H84.6991C83.1519 61.4873 81.6228 61.8688 80.2788 62.6325C80.1557 62.7202 80.0415 62.8197 79.9377 62.9294C79.5499 63.2879 79.2468 63.7274 79.0502 64.2163C78.8535 64.7052 78.7683 65.2314 78.8007 65.7571C78.802 66.2342 78.8641 66.7093 78.9854 67.1709C79.1401 67.7911 79.4535 68.3609 79.8951 68.8251C80.2954 69.1973 80.7678 69.4845 81.2834 69.6693C81.799 69.854 82.347 69.9324 82.894 69.8996C83.7498 69.9332 84.6029 69.7838 85.3955 69.4613C86.1351 69.0841 86.7771 68.5422 87.2717 67.8778H87.357L88.0534 69.6734H90.5691V60.9218C90.6209 60.2678 90.5195 59.6108 90.2729 59.0024C90.0263 58.394 89.6412 57.8508 89.1478 57.4155C87.9724 56.602 86.5546 56.2083 85.1255 56.2986ZM87.0443 64.6967C87.0602 65.0475 87.0013 65.3976 86.8715 65.7242C86.7416 66.0507 86.5438 66.3462 86.291 66.5912C86.0217 66.8377 85.7059 67.0283 85.3618 67.1521C85.0177 67.2759 84.6524 67.3304 84.2869 67.3123C83.1214 67.3123 82.5387 66.8033 82.5387 65.7995C82.5177 65.494 82.5775 65.1884 82.7122 64.9131C82.8469 64.6377 83.0517 64.4023 83.3062 64.2301C84.019 63.8261 84.8318 63.6301 85.6514 63.6646H87.0727L87.0443 64.6967Z" fill="#00587C"/>
<path d="M102.96 56.5657V61.613H97.929V56.5657H94.3188V69.7001H97.929V64.2852H102.96V69.7001H106.556V56.5657H102.96Z" fill="#00587C"/>
<path d="M64.6987 1.61133H55.7586L39.1577 14.7599L44.4024 21.2776L50.3292 16.5554C51.0257 15.9899 52.2906 14.8023 54.0957 13.0067L53.9251 18.3369L53.8114 23.2146V52.9049H64.6987V1.61133Z" fill="#00587C"/>
<path d="M105.763 26.4793C105.763 35.4461 104.289 42.0835 101.341 46.3914C98.4165 50.6992 93.9013 52.8531 87.7952 52.8531C81.8762 52.8531 77.4078 50.629 74.3898 46.1807C71.3952 41.7323 69.8979 35.1652 69.8979 26.4793C69.8979 17.4187 71.3601 10.7462 74.2845 6.46178C77.2089 2.15393 81.7125 0 87.7952 0C93.7141 0 98.1826 2.24758 101.201 6.74273C104.242 11.2379 105.763 17.8167 105.763 26.4793ZM80.6714 26.4793C80.6714 32.7771 81.2095 37.2957 82.2856 40.0349C83.3852 42.7508 85.2217 44.1087 87.7952 44.1087C90.3218 44.1087 92.1467 42.7274 93.2696 39.9647C94.3926 37.2021 94.9541 32.7069 94.9541 26.4793C94.9541 20.1814 94.3809 15.6628 93.2345 12.9236C92.1116 10.1609 90.2984 8.77959 87.7952 8.77959C85.2451 8.77959 83.4203 10.1609 82.3207 12.9236C81.2212 15.6628 80.6714 20.1814 80.6714 26.4793Z" fill="#00587C"/>
<path d="M72.5878 83.7455C71.722 83.755 70.8629 83.5941 70.06 83.272V84.0884C70.4003 84.2381 70.7591 84.3425 71.1269 84.3986C71.6243 84.4942 72.1305 84.538 72.637 84.5292C73.2758 84.5631 73.9143 84.4596 74.5092 84.2257C75.1041 83.9919 75.6412 83.6331 76.0841 83.174C76.9609 82.1298 77.4068 80.7934 77.3316 79.4349C77.4119 78.1315 76.9892 76.8467 76.1497 75.8428C75.7227 75.4136 75.2098 75.0785 74.6443 74.8591C74.0787 74.6397 73.4732 74.5409 72.8668 74.5692C72.4128 74.578 71.9612 74.6382 71.5209 74.7488C71.0964 74.8365 70.6793 74.9566 70.2733 75.108L70.5196 75.9081C71.2698 75.5926 72.0698 75.4102 72.8832 75.3693C73.3411 75.3426 73.7997 75.4084 74.2313 75.5627C74.6629 75.7171 75.0586 75.9567 75.3946 76.2673C76.0449 76.9932 76.4169 77.9241 76.4452 78.8961H70.9792V79.6798H76.478C76.5282 80.7635 76.1513 81.8238 75.4275 82.6352C75.0636 83.0143 74.6211 83.31 74.1307 83.5018C73.6403 83.6935 73.1138 83.7767 72.5878 83.7455Z" fill="#00587C"/>
<path d="M80.007 74.7632V84.364H80.9098V79.4983L85.4566 84.364H86.6385L82.0096 79.4003L86.3266 74.7632H85.2432L80.9098 79.4166V74.7632H80.007Z" fill="#00587C"/>
<path d="M92.3193 75.3673C93.0594 75.3952 93.7905 75.5384 94.486 75.7919L94.7322 75.0081C93.968 74.7137 93.1552 74.5642 92.3357 74.5673C91.7241 74.5442 91.1146 74.6518 90.5483 74.8828C89.9821 75.1137 89.4721 75.4627 89.0528 75.9061C88.2795 76.9736 87.8634 78.256 87.8634 79.5718C87.8634 80.8875 88.2795 82.1699 89.0528 83.2374C89.4712 83.6791 89.9822 84.0236 90.5496 84.2466C91.117 84.4695 91.7268 84.5653 92.3357 84.5273C93.1629 84.5607 93.9873 84.4101 94.7486 84.0865V83.2701C93.9789 83.5882 93.1528 83.7492 92.3193 83.7436C91.8352 83.768 91.352 83.6804 90.9077 83.4878C90.4634 83.2951 90.0701 83.0026 89.7586 82.6333C89.1041 81.7592 88.7788 80.6844 88.8394 79.5963C88.7638 78.4761 89.0895 77.3655 89.7586 76.4613C90.0786 76.1033 90.4739 75.8197 90.9164 75.6306C91.359 75.4416 91.8379 75.3517 92.3193 75.3673Z" fill="#00587C"/>
<path d="M104.679 84.364V74.7632H96.9807V84.364H97.8671V75.5959H103.809V84.364H104.679Z" fill="#00587C"/>
<path d="M108.487 75.8913C107.675 76.9329 107.273 78.2332 107.355 79.5487C107.335 80.451 107.508 81.3472 107.864 82.1775C108.174 82.8908 108.688 83.4981 109.341 83.9246C110.016 84.337 110.797 84.5467 111.59 84.5287C112.181 84.5581 112.772 84.4544 113.317 84.2255C113.863 83.9965 114.35 83.6481 114.741 83.2062C115.566 82.1704 115.975 80.8673 115.89 79.5487C115.968 78.2387 115.566 76.9449 114.758 75.9076C114.373 75.4643 113.893 75.1136 113.353 74.8817C112.813 74.6498 112.227 74.5428 111.639 74.5687C111.047 74.5405 110.457 74.6447 109.912 74.8736C109.366 75.1025 108.88 75.4503 108.487 75.8913ZM114.971 79.5487C115.032 80.6472 114.72 81.7343 114.085 82.6347C113.794 83.0023 113.418 83.295 112.989 83.4883C112.561 83.6815 112.092 83.7695 111.622 83.745C111.15 83.7681 110.68 83.6795 110.249 83.4865C109.818 83.2935 109.439 83.0016 109.144 82.6347C108.514 81.7322 108.208 80.6453 108.274 79.5487C108.196 78.4509 108.503 77.3601 109.144 76.4628C109.436 76.0971 109.812 75.8067 110.24 75.6163C110.669 75.4259 111.137 75.341 111.606 75.3688C112.077 75.3437 112.546 75.4298 112.977 75.6199C113.408 75.8101 113.787 76.0989 114.085 76.4628C114.72 77.3632 115.032 78.4502 114.971 79.5487Z" fill="#00587C"/>
<path d="M122.704 84.5281C123.261 84.5544 123.816 84.4516 124.326 84.2277C124.836 84.0039 125.286 83.6651 125.642 83.2382C126.423 82.177 126.807 80.8773 126.725 79.5644C126.818 78.2476 126.452 76.9392 125.691 75.858C125.336 75.4225 124.88 75.0781 124.363 74.8537C123.847 74.6292 123.283 74.5313 122.72 74.5681C122.091 74.5293 121.462 74.6605 120.902 74.948C120.341 75.2354 119.869 75.6683 119.536 76.2009L119.372 74.8294H118.633V88.7734H119.421V85.0506C119.421 84.5281 119.421 84.0546 119.421 83.6138V82.879C119.764 83.4262 120.252 83.8693 120.831 84.1601C121.409 84.4509 122.057 84.5781 122.704 84.5281ZM119.421 79.3032C119.326 78.2412 119.604 77.1794 120.209 76.2989C120.527 75.9704 120.914 75.7165 121.343 75.5555C121.771 75.3945 122.231 75.3305 122.687 75.3682C124.739 75.3682 125.757 76.7724 125.757 79.5971C125.823 80.6793 125.541 81.7543 124.953 82.6667C124.688 83.0215 124.341 83.3067 123.94 83.4973C123.54 83.688 123.098 83.7784 122.655 83.7607C122.195 83.8029 121.731 83.7377 121.301 83.5705C120.871 83.4033 120.485 83.1386 120.176 82.7974C119.573 81.8199 119.308 80.6731 119.421 79.5318V79.3032Z" fill="#00587C"/>
<path d="M132.29 84.364V75.5143H135.507V74.7632H128.137V75.5143H131.42V84.364H132.29Z" fill="#00587C"/>
<path d="M139.735 84.5323C140.358 84.5445 140.975 84.4161 141.541 84.1568C142.126 83.8316 142.636 83.3864 143.035 82.8505H143.117L143.33 84.369H143.987V77.9848C144.066 77.0612 143.784 76.1427 143.199 75.4213C142.882 75.1253 142.507 74.8983 142.097 74.7549C141.687 74.6115 141.252 74.5548 140.819 74.5886C139.731 74.6062 138.66 74.8627 137.684 75.3397L138.012 76.0908C138.864 75.6282 139.815 75.3763 140.786 75.356C141.121 75.3255 141.459 75.3731 141.772 75.495C142.085 75.6168 142.366 75.8097 142.592 76.0581C143.004 76.6625 143.2 77.3869 143.15 78.1154V78.7522H141.311C140.122 78.7052 138.944 78.9939 137.913 79.5849C137.541 79.8103 137.235 80.1302 137.027 80.5117C136.82 80.8933 136.718 81.3229 136.732 81.7565C136.711 82.1279 136.77 82.4994 136.906 82.8459C137.042 83.1924 137.251 83.5058 137.519 83.7649C138.129 84.2994 138.924 84.5749 139.735 84.5323ZM138.521 80.1891C139.425 79.7505 140.421 79.5322 141.426 79.5523H143.068V80.483C143.097 80.9193 143.032 81.3567 142.877 81.766C142.722 82.1753 142.481 82.547 142.17 82.8562C141.86 83.1654 141.486 83.4049 141.074 83.5588C140.663 83.7127 140.223 83.7774 139.785 83.7486C139.193 83.794 138.606 83.6129 138.143 83.2424C137.957 83.0606 137.812 82.8411 137.719 82.5988C137.626 82.3566 137.585 82.0972 137.602 81.8382C137.584 81.5053 137.661 81.1742 137.824 80.8826C137.986 80.591 138.228 80.3507 138.521 80.1891Z" fill="#00587C"/>
<path d="M0.00925766 33.8283C0.00925766 29.899 1.12758 27.6472 3.34915 27.1031C4.11989 26.9067 4.86041 26.7404 5.58582 26.6044L7.4749 26.2417L7.62604 26.952L6.6286 27.1485C4.98131 27.4658 3.8932 27.6925 3.36425 27.8588C2.98082 27.9742 2.6256 28.1682 2.3212 28.4284C2.01679 28.6886 1.76985 29.0092 1.59607 29.37C1.11838 30.4294 0.871124 31.5781 0.870668 32.7402C1.35019 32.132 1.93973 31.6193 2.60862 31.2289C3.14027 30.9332 3.73825 30.7772 4.34659 30.7755C4.82573 30.7496 5.30449 30.8328 5.74687 31.0186C6.18925 31.2045 6.58373 31.4882 6.90064 31.8485C7.52923 32.7265 7.83853 33.793 7.77718 34.871C7.85149 36.0558 7.4915 37.2271 6.76461 38.1656C6.40506 38.5649 5.96028 38.8781 5.46323 39.0822C4.96618 39.2863 4.42959 39.3759 3.8932 39.3444C3.32078 39.3611 2.75361 39.2309 2.2457 38.9664C1.73779 38.7019 1.30604 38.3117 0.991573 37.8331C0.279506 36.623 -0.0620191 35.2306 0.00925766 33.8283ZM4.01411 38.6946C4.42641 38.7202 4.83888 38.6472 5.21734 38.4816C5.5958 38.316 5.92935 38.0627 6.19034 37.7424C6.74182 36.9412 7.00795 35.9778 6.94597 35.0071C7.0077 34.1061 6.77427 33.2095 6.28101 32.453C6.04267 32.1631 5.73895 31.9338 5.39479 31.7841C5.05063 31.6343 4.67586 31.5683 4.30125 31.5916C3.62942 31.5964 2.97526 31.8074 2.42727 32.1961C1.81275 32.6384 1.29789 33.2047 0.916005 33.8585C0.905212 34.7493 1.03267 35.6364 1.29382 36.4881C1.47271 37.1391 1.84729 37.7194 2.36683 38.1505C2.85681 38.5112 3.45107 38.7022 4.05944 38.6946H4.01411Z" fill="#00587C"/>
<path d="M17.8243 34.7323C17.9002 35.9805 17.5127 37.2128 16.7362 38.1931C16.3622 38.6198 15.8951 38.9548 15.3711 39.1723C14.847 39.3898 14.2799 39.4839 13.7137 39.4475C12.9729 39.4611 12.2438 39.2618 11.613 38.8732C10.9892 38.4717 10.4997 37.8927 10.2076 37.2108C9.87368 36.4279 9.70887 35.5833 9.72395 34.7323C9.64813 33.4841 10.0356 32.2517 10.8121 31.2715C11.1938 30.878 11.6507 30.5652 12.1556 30.3515C12.6606 30.1379 13.2032 30.0278 13.7515 30.0278C14.2997 30.0278 14.8424 30.1379 15.3473 30.3515C15.8522 30.5652 16.3091 30.878 16.6909 31.2715C17.4785 32.248 17.8817 33.479 17.8243 34.7323ZM10.6609 34.7323C10.6002 35.7683 10.8874 36.795 11.477 37.649C11.7691 37.9778 12.1275 38.2409 12.5287 38.4211C12.9298 38.6013 13.3646 38.6945 13.8044 38.6945C14.2441 38.6945 14.6789 38.6013 15.0801 38.4211C15.4812 38.2409 15.8396 37.9778 16.1317 37.649C16.7213 36.795 17.0085 35.7683 16.9478 34.7323C17.0138 33.6934 16.7203 32.6635 16.1166 31.8155C15.8384 31.4714 15.4821 31.1987 15.0774 31.0199C14.6726 30.8412 14.231 30.7616 13.7893 30.7879C13.3497 30.7616 12.9103 30.8412 12.5079 31.02C12.1056 31.1989 11.752 31.4717 11.477 31.8155C10.8787 32.6655 10.5906 33.6952 10.6609 34.7323Z" fill="#00587C"/>
<path d="M26.6084 39.2798H25.7923V30.9678H22.5733C22.4743 32.656 22.2724 34.3367 21.9688 36.0003C21.8235 36.8993 21.5053 37.7615 21.0318 38.5392C20.8722 38.7945 20.6489 39.004 20.384 39.147C20.1191 39.2901 19.8215 39.3619 19.5205 39.3553C19.3299 39.38 19.1369 39.38 18.9463 39.3553V38.5997C19.0966 38.6208 19.2492 38.6208 19.3996 38.5997C20.0344 38.5997 20.5331 37.9347 20.9109 36.6048C21.4135 34.5081 21.7071 32.3668 21.7874 30.2122H26.563L26.6084 39.2798Z" fill="#00587C"/>
<path d="M33.3166 39.4457C32.7423 39.479 32.1676 39.3867 31.6325 39.1753C31.0975 38.9639 30.615 38.6385 30.2185 38.2216C29.437 37.2609 29.0434 36.0424 29.1153 34.8061C29.0572 33.5579 29.4367 32.3285 30.1883 31.3302C30.5361 30.9051 30.9778 30.5665 31.4787 30.341C31.9796 30.1154 32.5259 30.0092 33.0748 30.0305C33.553 30.0115 34.0292 30.1024 34.4667 30.2962C34.9043 30.4901 35.2915 30.7818 35.5986 31.1488C36.2584 32.0132 36.5856 33.0859 36.5205 34.1714V34.8363H29.9918C29.9254 35.8611 30.2313 36.8754 30.8532 37.6926C31.1662 38.0277 31.5492 38.2894 31.9751 38.4592C32.4009 38.629 32.859 38.7027 33.3166 38.675C33.7723 38.6821 34.2276 38.6467 34.6767 38.5692C35.1947 38.4633 35.7009 38.3063 36.188 38.1007V38.8563C35.7364 39.0556 35.2654 39.2075 34.7825 39.3097C34.2987 39.3974 33.8083 39.443 33.3166 39.4457ZM33.0748 30.771C32.681 30.7546 32.2883 30.8231 31.9232 30.9717C31.5582 31.1203 31.2294 31.3457 30.959 31.6325C30.382 32.3374 30.0574 33.2152 30.0371 34.126H35.6439C35.6946 33.2477 35.4557 32.3771 34.9639 31.6476C34.7428 31.3602 34.4556 31.1304 34.1267 30.9778C33.7978 30.8252 33.437 30.7543 33.0748 30.771Z" fill="#00587C"/>
<path d="M42.6881 39.4458C42.1263 39.4681 41.5662 39.3704 41.045 39.1594C40.5239 38.9483 40.0536 38.6287 39.6656 38.2217C38.8775 37.2646 38.483 36.0435 38.5624 34.8062C38.5043 33.558 38.8838 32.3286 39.6354 31.3303C39.9801 30.9055 40.4191 30.5669 40.9176 30.3413C41.416 30.1157 41.9601 30.0093 42.5068 30.0306C42.9873 30.0104 43.4661 30.1006 43.9063 30.2945C44.3465 30.4884 44.7363 30.7807 45.0457 31.149C45.6949 32.0187 46.0209 33.0875 45.9676 34.1715V34.8365H39.4238C39.3631 35.863 39.6743 36.877 40.3003 37.6927C40.611 38.0266 40.9915 38.2877 41.4147 38.4575C41.8379 38.6273 42.2934 38.7016 42.7486 38.6751C43.2043 38.6829 43.6597 38.6475 44.1087 38.5693C44.626 38.4606 45.132 38.3037 45.62 38.1008V38.8564C45.1641 39.0581 44.6878 39.21 44.1994 39.3098C43.7008 39.4009 43.195 39.4465 42.6881 39.4458ZM42.4463 30.7711C42.0547 30.7539 41.664 30.8221 41.3013 30.9708C40.9385 31.1195 40.6125 31.3454 40.3457 31.6326C39.7686 32.3376 39.4441 33.2154 39.4238 34.1262H45.0306C45.0812 33.2478 44.8423 32.3772 44.3505 31.6477C44.1263 31.36 43.8364 31.1303 43.505 30.9778C43.1737 30.8253 42.8107 30.7544 42.4463 30.7711Z" fill="#00587C"/>
</svg>
