<svg width="73" height="64" viewBox="0 0 73 64" fill="none" xmlns="http://www.w3.org/2000/svg">
<path d="M7.58267 51.5776V49.2933C7.17329 49.5673 6.72858 49.7843 6.26074 49.9384C5.79799 50.0783 5.31645 50.1461 4.83306 50.1394C3.43711 50.1394 2.71798 49.177 2.71798 47.2628C2.71798 45.3487 3.41596 44.2912 4.83306 44.2912C5.19121 44.295 5.5471 44.3484 5.8906 44.4498C6.25017 44.5661 6.64146 44.7036 7.06447 44.8728L7.85763 42.7577C6.9041 42.3023 5.85792 42.0742 4.80134 42.0915C4.14598 42.047 3.48863 42.1419 2.87255 42.3697C2.25646 42.5975 1.6956 42.9532 1.22685 43.4134C0.32941 44.4895 -0.104203 45.8778 0.0212498 47.2734C0.0212498 50.6364 1.55468 52.3073 4.61098 52.3073C5.17216 52.318 5.73274 52.2647 6.28189 52.1487C6.74412 52.0317 7.1837 51.8387 7.58267 51.5776Z" fill="#00587C"/>
<path d="M14.7634 44.3238H17.9783V42.3145H8.8623V44.3238H12.0878V52.139H14.7634V44.3238Z" fill="#00587C"/>
<path d="M27.993 43.4773C27.688 43.0444 27.2796 42.6947 26.8048 42.4601C26.3301 42.2255 25.8042 42.1135 25.2751 42.1342C24.7235 42.1076 24.1748 42.2288 23.6858 42.4854C23.1968 42.742 22.7853 43.1246 22.4938 43.5936H22.3669L21.9862 42.3034H19.8076V56.4533H22.4938V52.477C22.4938 52.3501 22.4409 51.8742 22.3457 51.0599H22.4938C22.8125 51.469 23.2247 51.7958 23.6957 52.0129C24.1668 52.23 24.6829 52.3311 25.2011 52.3078C25.9177 52.324 26.6211 52.113 27.2104 51.705L27.6228 51.356C28.0331 50.9532 28.357 50.471 28.5746 49.9389C28.8963 49.066 29.0506 48.1404 29.0294 47.2104C29.0295 46.786 29.0012 46.362 28.9448 45.9414C28.8471 45.0512 28.5191 44.202 27.993 43.4773ZM24.4502 50.1398C24.1635 50.1633 23.8756 50.1123 23.6144 49.9919C23.3532 49.8715 23.1274 49.6857 22.9591 49.4524C22.5893 48.7586 22.4277 47.9727 22.4938 47.1893V46.9037C22.4466 46.1993 22.6085 45.4966 22.9591 44.8838C23.134 44.6733 23.3569 44.5077 23.6089 44.401C23.861 44.2943 24.135 44.2495 24.4079 44.2705C24.6852 44.2521 24.9621 44.3105 25.2084 44.4392C25.4547 44.5679 25.6607 44.762 25.8039 45.0002C26.1417 45.6706 26.295 46.4189 26.248 47.1681C26.248 49.1563 25.6452 50.1398 24.4502 50.1398Z" fill="#00587C"/>
<path d="M35.2159 42.1138C34.1279 42.1026 33.0487 42.3112 32.0433 42.7272C31.8333 42.806 31.6285 42.8978 31.4299 43.0022L31.8847 43.9328L32.3183 44.8106C33.1789 44.3848 34.1191 44.1434 35.0784 44.102C35.2836 44.0689 35.4937 44.0842 35.6919 44.1467C35.8901 44.2092 36.0709 44.3173 36.22 44.4621C36.369 44.607 36.482 44.7848 36.5501 44.9812C36.6181 45.1775 36.6393 45.3871 36.6119 45.5931V46.0267H34.9092C33.7563 45.9973 32.6166 46.2786 31.6097 46.841C31.5203 46.9094 31.4355 46.9836 31.3559 47.0631C31.0673 47.3312 30.8418 47.66 30.6955 48.0257C30.5492 48.3914 30.4858 48.785 30.5099 49.1782C30.5109 49.5351 30.5571 49.8904 30.6473 50.2358C30.7624 50.6997 30.9956 51.1259 31.3242 51.4731C31.6221 51.7515 31.9735 51.9663 32.3572 52.1045C32.7408 52.2427 33.1486 52.3013 33.5556 52.2768C34.1923 52.302 34.827 52.1902 35.4168 51.949C35.9771 51.6686 36.4656 51.2634 36.8445 50.7645H36.908L37.4262 52.097H39.298V45.5931C39.3366 45.104 39.2611 44.6125 39.0776 44.1574C38.8941 43.7024 38.6076 43.2961 38.2405 42.9704C37.3599 42.3475 36.2924 42.0451 35.2159 42.1138ZM36.6436 48.3956C36.6554 48.658 36.6116 48.9199 36.515 49.1642C36.4184 49.4084 36.2712 49.6294 36.0831 49.8127C35.8828 49.9971 35.6477 50.1397 35.3917 50.2323C35.1357 50.3249 34.8639 50.3656 34.592 50.3521C33.7248 50.3521 33.2912 49.9714 33.2912 49.2205C33.2756 48.992 33.3201 48.7634 33.4203 48.5575C33.5205 48.3515 33.6729 48.1754 33.8623 48.0466C34.3926 47.7444 34.9974 47.5978 35.6072 47.6236H36.6647L36.6436 48.3956Z" fill="#00587C"/>
<path d="M48.4884 42.3145V46.0899H44.7342V42.3145H42.0586V52.139H44.7342V48.0886H48.4884V52.139H51.164V42.3145H48.4884Z" fill="#00587C"/>
<path d="M20.0297 1.20923H13.3672L1.01514 11.0444L4.91746 15.9196L9.32741 12.3874C9.84561 11.9644 10.7868 11.0867 12.1299 9.73301L12.003 13.7517L11.9184 17.4002V39.6085H20.0297V1.20923Z" fill="#00587C"/>
<path d="M50.9312 32.6173H33.9365V32.2471L38.9492 27.4988C41.4461 25.3116 43.7856 22.9509 45.9502 20.4344C47.1641 18.974 48.1549 17.3418 48.8901 15.5909C49.5187 13.9947 49.8381 12.2936 49.8313 10.5781C49.8688 8.63308 49.3318 6.72018 48.2873 5.07891C47.2229 3.44658 45.7151 2.15158 43.9408 1.34579C41.9187 0.419196 39.7138 -0.0398646 37.4898 0.00271301C35.8028 -0.017418 34.1196 0.167239 32.4771 0.552634C31.0373 0.894698 29.6475 1.42074 28.3421 2.1178C26.6367 3.11114 25.0353 4.27321 23.562 5.58653L28.046 10.8742C29.41 9.71755 30.9041 8.7238 32.4982 7.91312C33.8631 7.22495 35.3691 6.86294 36.8976 6.85558C38.1522 6.79341 39.385 7.20057 40.3558 7.99772C40.811 8.45112 41.1621 8.99807 41.3849 9.60069C41.6077 10.2033 41.6968 10.8471 41.646 11.4876C41.6495 12.5308 41.452 13.5649 41.0643 14.5333C40.5704 15.6737 39.9228 16.7411 39.1396 17.706C38.2513 18.8587 36.3583 20.8786 33.4606 23.882L23.6783 33.844V39.5548H50.9312V32.6173Z" fill="#00587C"/>
<path d="M27.041 60.2828C26.4825 60.3038 25.9254 60.214 25.4019 60.0184V60.5472C25.6211 60.6442 25.8523 60.7118 26.0893 60.7481C26.4097 60.8101 26.7358 60.8384 27.0622 60.8327C27.4739 60.8561 27.8857 60.7897 28.2692 60.6382C28.6526 60.4866 28.9986 60.2535 29.283 59.955C29.8518 59.2808 30.1395 58.4137 30.0868 57.5332C30.1385 56.689 29.8662 55.8569 29.3253 55.2066C29.0482 54.9322 28.7171 54.7181 28.3531 54.578C27.989 54.4378 27.5999 54.3746 27.2102 54.3923C26.9181 54.3941 26.6271 54.4296 26.3431 54.4981C26.0679 54.5529 25.7987 54.6344 25.5393 54.7413L25.7085 55.2489C26.188 55.0439 26.7 54.9257 27.2208 54.8999C27.5156 54.8851 27.8104 54.9288 28.0881 55.0287C28.3659 55.1285 28.621 55.2824 28.8389 55.4816C29.2617 55.9536 29.5018 56.5613 29.5157 57.1948H25.9624V57.6918H29.5051C29.538 58.397 29.2953 59.0872 28.8283 59.6166C28.5928 59.8454 28.3124 60.0228 28.0047 60.1375C27.697 60.2522 27.3689 60.3017 27.041 60.2828Z" fill="#00587C"/>
<path d="M31.8213 54.5068V60.7252H32.3924V57.5737L35.3323 60.7252H36.0938L33.1115 57.5103L35.8928 54.5068H35.1948L32.3924 57.5208V54.5068H31.8213Z" fill="#00587C"/>
<path d="M39.7531 54.8994C40.23 54.9174 40.701 55.0102 41.1491 55.1743L41.3077 54.6667C40.8147 54.4796 40.291 54.3864 39.7637 54.3918C39.3705 54.3755 38.9783 54.4435 38.6135 54.5913C38.2487 54.739 37.9197 54.963 37.6486 55.2484C37.1504 55.9398 36.8823 56.7704 36.8823 57.6226C36.8823 58.4747 37.1504 59.3053 37.6486 59.9967C37.9182 60.2828 38.2474 60.506 38.613 60.6504C38.9786 60.7948 39.3715 60.8568 39.7637 60.8322C40.279 60.8461 40.7912 60.7487 41.2654 60.5467V60.0179C40.7695 60.2239 40.2373 60.3282 39.7003 60.3246C39.3895 60.34 39.0792 60.2842 38.7933 60.1614C38.5074 60.0386 38.2533 59.8521 38.0505 59.616C37.6273 59.0467 37.4177 58.3467 37.4583 57.6384C37.4176 56.9138 37.6267 56.1971 38.0505 55.6079C38.2624 55.3689 38.5257 55.181 38.8205 55.0583C39.1154 54.9356 39.4343 54.8813 39.7531 54.8994Z" fill="#00587C"/>
<path d="M47.7162 60.7252V54.5068H42.7563V60.7252H43.3274V55.0462H47.1451V60.7252H47.7162Z" fill="#00587C"/>
<path d="M50.18 55.2388C49.6486 55.9097 49.3849 56.7537 49.4397 57.6077C49.4121 58.1891 49.5095 58.7697 49.7253 59.3104C49.9221 59.7743 50.2537 60.1685 50.6771 60.4419C51.1123 60.709 51.6154 60.8449 52.1259 60.8332C52.5062 60.8543 52.8864 60.7892 53.238 60.6427C53.5896 60.4962 53.9035 60.2721 54.1564 59.9872C54.6292 59.2877 54.8819 58.4626 54.8819 57.6183C54.8819 56.7739 54.6292 55.9489 54.1564 55.2494C53.8943 54.9805 53.581 54.7667 53.235 54.6208C52.889 54.4748 52.5173 54.3997 52.1418 54.3997C51.7662 54.3997 51.3945 54.4748 51.0485 54.6208C50.7025 54.7667 50.3892 54.9805 50.1271 55.2494L50.18 55.2388ZM54.3467 57.6077C54.3862 58.3192 54.1851 59.0233 53.7757 59.6065C53.5881 59.8446 53.3462 60.0342 53.0701 60.1593C52.7941 60.2844 52.492 60.3415 52.1893 60.3256C51.8853 60.3406 51.582 60.2832 51.3044 60.1582C51.0268 60.0332 50.7828 59.8441 50.5925 59.6065C50.2253 59.0044 50.0311 58.3129 50.0311 57.6077C50.0311 56.9025 50.2253 56.211 50.5925 55.609C50.7822 55.3741 51.0249 55.1875 51.3006 55.0643C51.5763 54.9412 51.8772 54.885 52.1788 54.9004C52.4816 54.8867 52.7836 54.9436 53.0607 55.0665C53.3378 55.1895 53.5826 55.3752 53.7757 55.609C54.1851 56.1922 54.3862 56.8962 54.3467 57.6077Z" fill="#00587C"/>
<path d="M59.3177 60.8319C59.6765 60.8498 60.0345 60.7835 60.3632 60.6385C60.6919 60.4934 60.9821 60.2736 61.2107 59.9964C61.7157 59.3099 61.9628 58.4675 61.9087 57.617C61.9644 56.766 61.7335 55.9209 61.253 55.2163C61.0184 54.9386 60.7223 54.7195 60.3882 54.5763C60.0541 54.4331 59.6911 54.3698 59.3283 54.3915C58.9238 54.3636 58.5194 54.4475 58.1594 54.634C57.7995 54.8205 57.4977 55.1025 57.2872 55.449L57.1815 54.5607H56.7056V63.5921H57.2661V61.1703C57.2661 60.8319 57.2661 60.5252 57.2661 60.2397V59.7638C57.4812 60.1091 57.785 60.3903 58.1459 60.5782C58.5068 60.7661 58.9114 60.8537 59.3177 60.8319ZM57.2026 57.4478C57.1414 56.7599 57.3208 56.0722 57.7102 55.5019C57.9149 55.2891 58.1645 55.1247 58.4407 55.0204C58.7169 54.9161 59.0129 54.8747 59.3071 54.8991C60.629 54.8991 61.2847 55.8191 61.2847 57.6381C61.3287 58.3392 61.1471 59.0359 60.7665 59.6263C60.5981 59.8582 60.3745 60.0444 60.116 60.1681C59.8575 60.2918 59.5722 60.3491 59.286 60.3348C58.9896 60.3621 58.691 60.32 58.4138 60.2117C58.1366 60.1033 57.8884 59.9319 57.6891 59.7109C57.3063 59.0755 57.1359 58.3346 57.2026 57.5958V57.4478Z" fill="#00587C"/>
<path d="M65.5042 60.7252V54.9933H67.577V54.5068H62.8286V54.9933H64.9437V60.7252H65.5042Z" fill="#00587C"/>
<path d="M70.3055 60.8325C70.7072 60.8454 71.106 60.762 71.4688 60.5892C71.8483 60.382 72.177 60.093 72.4312 59.7432L72.5687 60.7267H72.9917V56.5917C73.0431 55.9935 72.8612 55.3986 72.4841 54.9314C72.2796 54.741 72.0375 54.5955 71.7734 54.5045C71.5093 54.4134 71.229 54.3787 70.9506 54.4026C70.2504 54.41 69.5606 54.5726 68.9307 54.8785L69.1422 55.3755C69.6887 55.0683 70.3027 54.9012 70.9295 54.8891C71.1455 54.8685 71.3632 54.8989 71.5653 54.9779C71.7673 55.0569 71.948 55.1822 72.0928 55.3438C72.3583 55.7353 72.4849 56.2044 72.4523 56.6763V57.1099H71.2679C70.5025 57.0715 69.7423 57.2552 69.0788 57.6387C68.8394 57.7855 68.643 57.9928 68.5093 58.2398C68.3756 58.4867 68.3094 58.7645 68.3174 59.0452C68.3032 59.2858 68.3412 59.5266 68.4288 59.7512C68.5164 59.9757 68.6516 60.1786 68.825 60.346C69.0266 60.5221 69.2616 60.6559 69.5159 60.7395C69.7702 60.823 70.0387 60.8547 70.3055 60.8325ZM69.523 58.0194C70.1057 57.7365 70.7471 57.5951 71.3948 57.607H72.4523V58.1675C72.471 58.4501 72.4291 58.7334 72.3295 58.9985C72.2298 59.2636 72.0746 59.5043 71.8744 59.7046C71.6741 59.9048 71.4334 60.06 71.1683 60.1597C70.9032 60.2593 70.6199 60.3012 70.3373 60.2825C69.9725 60.308 69.6121 60.1904 69.3326 59.9547C69.2099 59.8408 69.114 59.7011 69.0518 59.5456C68.9896 59.3902 68.9627 59.2229 68.973 59.0558C68.9635 58.8496 69.0095 58.6447 69.1063 58.4624C69.203 58.2801 69.3469 58.1271 69.523 58.0194Z" fill="#00587C"/>
<path d="M7.58267 51.5776V49.2933C7.17329 49.5673 6.72858 49.7843 6.26074 49.9384C5.79799 50.0783 5.31645 50.1461 4.83306 50.1394C3.43711 50.1394 2.71798 49.177 2.71798 47.2628C2.71798 45.3487 3.41596 44.2912 4.83306 44.2912C5.19121 44.295 5.5471 44.3484 5.8906 44.4498C6.25017 44.5661 6.64146 44.7036 7.06447 44.8728L7.85763 42.7577C6.9041 42.3023 5.85792 42.0742 4.80134 42.0915C4.14598 42.047 3.48863 42.1419 2.87255 42.3697C2.25646 42.5975 1.6956 42.9532 1.22685 43.4134C0.32941 44.4895 -0.104203 45.8778 0.0212498 47.2734C0.0212498 50.6364 1.55468 52.3073 4.61098 52.3073C5.17216 52.318 5.73274 52.2647 6.28189 52.1487C6.74412 52.0317 7.1837 51.8387 7.58267 51.5776Z" fill="#00587C"/>
<path d="M14.7634 44.3238H17.9783V42.3145H8.8623V44.3238H12.0878V52.139H14.7634V44.3238Z" fill="#00587C"/>
<path d="M27.993 43.4773C27.688 43.0444 27.2796 42.6947 26.8048 42.4601C26.3301 42.2255 25.8042 42.1135 25.2751 42.1342C24.7235 42.1076 24.1748 42.2288 23.6858 42.4854C23.1968 42.742 22.7853 43.1246 22.4938 43.5936H22.3669L21.9862 42.3034H19.8076V56.4533H22.4938V52.477C22.4938 52.3501 22.4409 51.8742 22.3457 51.0599H22.4938C22.8125 51.469 23.2247 51.7958 23.6957 52.0129C24.1668 52.23 24.6829 52.3311 25.2011 52.3078C25.9177 52.324 26.6211 52.113 27.2104 51.705L27.6228 51.356C28.0331 50.9532 28.357 50.471 28.5746 49.9389C28.8963 49.066 29.0506 48.1404 29.0294 47.2104C29.0295 46.786 29.0012 46.362 28.9448 45.9414C28.8471 45.0512 28.5191 44.202 27.993 43.4773ZM24.4502 50.1398C24.1635 50.1633 23.8756 50.1123 23.6144 49.9919C23.3532 49.8715 23.1274 49.6857 22.9591 49.4524C22.5893 48.7586 22.4277 47.9727 22.4938 47.1893V46.9037C22.4466 46.1993 22.6085 45.4966 22.9591 44.8838C23.134 44.6733 23.3569 44.5077 23.6089 44.401C23.861 44.2943 24.135 44.2495 24.4079 44.2705C24.6852 44.2521 24.9621 44.3105 25.2084 44.4392C25.4547 44.5679 25.6607 44.762 25.8039 45.0002C26.1417 45.6706 26.295 46.4189 26.248 47.1681C26.248 49.1563 25.6452 50.1398 24.4502 50.1398Z" fill="#00587C"/>
<path d="M35.2159 42.1138C34.1279 42.1026 33.0487 42.3112 32.0433 42.7272C31.8333 42.806 31.6285 42.8978 31.4299 43.0022L31.8847 43.9328L32.3183 44.8106C33.1789 44.3848 34.1191 44.1434 35.0784 44.102C35.2836 44.0689 35.4937 44.0842 35.6919 44.1467C35.8901 44.2092 36.0709 44.3173 36.22 44.4621C36.369 44.607 36.482 44.7848 36.5501 44.9812C36.6181 45.1775 36.6393 45.3871 36.6119 45.5931V46.0267H34.9092C33.7563 45.9973 32.6166 46.2786 31.6097 46.841C31.5203 46.9094 31.4355 46.9836 31.3559 47.0631C31.0673 47.3312 30.8418 47.66 30.6955 48.0257C30.5492 48.3914 30.4858 48.785 30.5099 49.1782C30.5109 49.5351 30.5571 49.8904 30.6473 50.2358C30.7624 50.6997 30.9956 51.1259 31.3242 51.4731C31.6221 51.7515 31.9735 51.9663 32.3572 52.1045C32.7408 52.2427 33.1486 52.3013 33.5556 52.2768C34.1923 52.302 34.827 52.1902 35.4168 51.949C35.9771 51.6686 36.4656 51.2634 36.8445 50.7645H36.908L37.4262 52.097H39.298V45.5931C39.3366 45.104 39.2611 44.6125 39.0776 44.1574C38.8941 43.7024 38.6076 43.2961 38.2405 42.9704C37.3599 42.3475 36.2924 42.0451 35.2159 42.1138ZM36.6436 48.3956C36.6554 48.658 36.6116 48.9199 36.515 49.1642C36.4184 49.4084 36.2712 49.6294 36.0831 49.8127C35.8828 49.9971 35.6477 50.1397 35.3917 50.2323C35.1357 50.3249 34.8639 50.3656 34.592 50.3521C33.7248 50.3521 33.2912 49.9714 33.2912 49.2205C33.2756 48.992 33.3201 48.7634 33.4203 48.5575C33.5205 48.3515 33.6729 48.1754 33.8623 48.0466C34.3926 47.7444 34.9974 47.5978 35.6072 47.6236H36.6647L36.6436 48.3956Z" fill="#00587C"/>
<path d="M48.4884 42.3145V46.0899H44.7342V42.3145H42.0586V52.139H44.7342V48.0886H48.4884V52.139H51.164V42.3145H48.4884Z" fill="#00587C"/>
<path d="M20.0297 1.20923H13.3672L1.01514 11.0444L4.91746 15.9196L9.32741 12.3874C9.84561 11.9644 10.7868 11.0867 12.1299 9.73301L12.003 13.7517L11.9184 17.4002V39.6085H20.0297V1.20923Z" fill="#00587C"/>
<path d="M50.9312 32.6173H33.9365V32.2471L38.9492 27.4988C41.4461 25.3116 43.7856 22.9509 45.9502 20.4344C47.1641 18.974 48.1549 17.3418 48.8901 15.5909C49.5187 13.9947 49.8381 12.2936 49.8313 10.5781C49.8688 8.63308 49.3318 6.72018 48.2873 5.07891C47.2229 3.44658 45.7151 2.15158 43.9408 1.34579C41.9187 0.419196 39.7138 -0.0398646 37.4898 0.00271301C35.8028 -0.017418 34.1196 0.167239 32.4771 0.552634C31.0373 0.894698 29.6475 1.42074 28.3421 2.1178C26.6367 3.11114 25.0353 4.27321 23.562 5.58653L28.046 10.8742C29.41 9.71755 30.9041 8.7238 32.4982 7.91312C33.8631 7.22495 35.3691 6.86294 36.8976 6.85558C38.1522 6.79341 39.385 7.20057 40.3558 7.99772C40.811 8.45112 41.1621 8.99807 41.3849 9.60069C41.6077 10.2033 41.6968 10.8471 41.646 11.4876C41.6495 12.5308 41.452 13.5649 41.0643 14.5333C40.5704 15.6737 39.9228 16.7411 39.1396 17.706C38.2513 18.8587 36.3583 20.8786 33.4606 23.882L23.6783 33.844V39.5548H50.9312V32.6173Z" fill="#00587C"/>
<path d="M27.041 60.2828C26.4825 60.3038 25.9254 60.214 25.4019 60.0184V60.5472C25.6211 60.6442 25.8523 60.7118 26.0893 60.7481C26.4097 60.8101 26.7358 60.8384 27.0622 60.8327C27.4739 60.8561 27.8857 60.7897 28.2692 60.6382C28.6526 60.4866 28.9986 60.2535 29.283 59.955C29.8518 59.2808 30.1395 58.4137 30.0868 57.5332C30.1385 56.689 29.8662 55.8569 29.3253 55.2066C29.0482 54.9322 28.7171 54.7181 28.3531 54.578C27.989 54.4378 27.5999 54.3746 27.2102 54.3923C26.9181 54.3941 26.6271 54.4296 26.3431 54.4981C26.0679 54.5529 25.7987 54.6344 25.5393 54.7413L25.7085 55.2489C26.188 55.0439 26.7 54.9257 27.2208 54.8999C27.5156 54.8851 27.8104 54.9288 28.0881 55.0287C28.3659 55.1285 28.621 55.2824 28.8389 55.4816C29.2617 55.9536 29.5018 56.5613 29.5157 57.1948H25.9624V57.6918H29.5051C29.538 58.397 29.2953 59.0872 28.8283 59.6166C28.5928 59.8454 28.3124 60.0228 28.0047 60.1375C27.697 60.2522 27.3689 60.3017 27.041 60.2828Z" fill="#00587C"/>
<path d="M31.8213 54.5068V60.7252H32.3924V57.5737L35.3323 60.7252H36.0938L33.1115 57.5103L35.8928 54.5068H35.1948L32.3924 57.5208V54.5068H31.8213Z" fill="#00587C"/>
<path d="M39.7531 54.8994C40.23 54.9174 40.701 55.0102 41.1491 55.1743L41.3077 54.6667C40.8147 54.4796 40.291 54.3864 39.7637 54.3918C39.3705 54.3755 38.9783 54.4435 38.6135 54.5913C38.2487 54.739 37.9197 54.963 37.6486 55.2484C37.1504 55.9398 36.8823 56.7704 36.8823 57.6226C36.8823 58.4747 37.1504 59.3053 37.6486 59.9967C37.9182 60.2828 38.2474 60.506 38.613 60.6504C38.9786 60.7948 39.3715 60.8568 39.7637 60.8322C40.279 60.8461 40.7912 60.7487 41.2654 60.5467V60.0179C40.7695 60.2239 40.2373 60.3282 39.7003 60.3246C39.3895 60.34 39.0792 60.2842 38.7933 60.1614C38.5074 60.0386 38.2533 59.8521 38.0505 59.616C37.6273 59.0467 37.4177 58.3467 37.4583 57.6384C37.4176 56.9138 37.6267 56.1971 38.0505 55.6079C38.2624 55.3689 38.5257 55.181 38.8205 55.0583C39.1154 54.9356 39.4343 54.8813 39.7531 54.8994Z" fill="#00587C"/>
<path d="M47.7162 60.7252V54.5068H42.7563V60.7252H43.3274V55.0462H47.1451V60.7252H47.7162Z" fill="#00587C"/>
<path d="M50.18 55.2388C49.6486 55.9097 49.3849 56.7537 49.4397 57.6077C49.4121 58.1891 49.5095 58.7697 49.7253 59.3104C49.9221 59.7743 50.2537 60.1685 50.6771 60.4419C51.1123 60.709 51.6154 60.8449 52.1259 60.8332C52.5062 60.8543 52.8864 60.7892 53.238 60.6427C53.5896 60.4962 53.9035 60.2721 54.1564 59.9872C54.6292 59.2877 54.8819 58.4626 54.8819 57.6183C54.8819 56.7739 54.6292 55.9489 54.1564 55.2494C53.8943 54.9805 53.581 54.7667 53.235 54.6208C52.889 54.4748 52.5173 54.3997 52.1418 54.3997C51.7662 54.3997 51.3945 54.4748 51.0485 54.6208C50.7025 54.7667 50.3892 54.9805 50.1271 55.2494L50.18 55.2388ZM54.3467 57.6077C54.3862 58.3192 54.1851 59.0233 53.7757 59.6065C53.5881 59.8446 53.3462 60.0342 53.0701 60.1593C52.7941 60.2844 52.492 60.3415 52.1893 60.3256C51.8853 60.3406 51.582 60.2832 51.3044 60.1582C51.0268 60.0332 50.7828 59.8441 50.5925 59.6065C50.2253 59.0044 50.0311 58.3129 50.0311 57.6077C50.0311 56.9025 50.2253 56.211 50.5925 55.609C50.7822 55.3741 51.0249 55.1875 51.3006 55.0643C51.5763 54.9412 51.8772 54.885 52.1788 54.9004C52.4816 54.8867 52.7836 54.9436 53.0607 55.0665C53.3378 55.1895 53.5826 55.3752 53.7757 55.609C54.1851 56.1922 54.3862 56.8962 54.3467 57.6077Z" fill="#00587C"/>
<path d="M59.3177 60.8319C59.6765 60.8498 60.0345 60.7835 60.3632 60.6385C60.6919 60.4934 60.9821 60.2736 61.2107 59.9964C61.7157 59.3099 61.9628 58.4675 61.9087 57.617C61.9644 56.766 61.7335 55.9209 61.253 55.2163C61.0184 54.9386 60.7223 54.7195 60.3882 54.5763C60.0541 54.4331 59.6911 54.3698 59.3283 54.3915C58.9238 54.3636 58.5194 54.4475 58.1594 54.634C57.7995 54.8205 57.4977 55.1025 57.2872 55.449L57.1815 54.5607H56.7056V63.5921H57.2661V61.1703C57.2661 60.8319 57.2661 60.5252 57.2661 60.2397V59.7638C57.4812 60.1091 57.785 60.3903 58.1459 60.5782C58.5068 60.7661 58.9114 60.8537 59.3177 60.8319ZM57.2026 57.4478C57.1414 56.7599 57.3208 56.0722 57.7102 55.5019C57.9149 55.2891 58.1645 55.1247 58.4407 55.0204C58.7169 54.9161 59.0129 54.8747 59.3071 54.8991C60.629 54.8991 61.2847 55.8191 61.2847 57.6381C61.3287 58.3392 61.1471 59.0359 60.7665 59.6263C60.5981 59.8582 60.3745 60.0444 60.116 60.1681C59.8575 60.2918 59.5722 60.3491 59.286 60.3348C58.9896 60.3621 58.691 60.32 58.4138 60.2117C58.1366 60.1033 57.8884 59.9319 57.6891 59.7109C57.3063 59.0755 57.1359 58.3346 57.2026 57.5958V57.4478Z" fill="#00587C"/>
<path d="M65.5042 60.7252V54.9933H67.577V54.5068H62.8286V54.9933H64.9437V60.7252H65.5042Z" fill="#00587C"/>
<path d="M70.3055 60.8325C70.7072 60.8454 71.106 60.762 71.4688 60.5892C71.8483 60.382 72.177 60.093 72.4312 59.7432L72.5687 60.7267H72.9917V56.5917C73.0431 55.9935 72.8612 55.3986 72.4841 54.9314C72.2796 54.741 72.0375 54.5955 71.7734 54.5045C71.5093 54.4134 71.229 54.3787 70.9506 54.4026C70.2504 54.41 69.5606 54.5726 68.9307 54.8785L69.1422 55.3755C69.6887 55.0683 70.3027 54.9012 70.9295 54.8891C71.1455 54.8685 71.3632 54.8989 71.5653 54.9779C71.7673 55.0569 71.948 55.1822 72.0928 55.3438C72.3583 55.7353 72.4849 56.2044 72.4523 56.6763V57.1099H71.2679C70.5025 57.0715 69.7423 57.2552 69.0788 57.6387C68.8394 57.7855 68.643 57.9928 68.5093 58.2398C68.3756 58.4867 68.3094 58.7645 68.3174 59.0452C68.3032 59.2858 68.3412 59.5266 68.4288 59.7512C68.5164 59.9757 68.6516 60.1786 68.825 60.346C69.0266 60.5221 69.2616 60.6559 69.5159 60.7395C69.7702 60.823 70.0387 60.8547 70.3055 60.8325ZM69.523 58.0194C70.1057 57.7365 70.7471 57.5951 71.3948 57.607H72.4523V58.1675C72.471 58.4501 72.4291 58.7334 72.3295 58.9985C72.2298 59.2636 72.0746 59.5043 71.8744 59.7046C71.6741 59.9048 71.4334 60.06 71.1683 60.1597C70.9032 60.2593 70.6199 60.3012 70.3373 60.2825C69.9725 60.308 69.6121 60.1904 69.3326 59.9547C69.2099 59.8408 69.114 59.7011 69.0518 59.5456C68.9896 59.3902 68.9627 59.2229 68.973 59.0558C68.9635 58.8496 69.0095 58.6447 69.1063 58.4624C69.203 58.2801 69.3469 58.1271 69.523 58.0194Z" fill="#00587C"/>
</svg>
