<?xml version="1.0" encoding="UTF-8"?><svg id="Layer_1" xmlns="http://www.w3.org/2000/svg" viewBox="0 0 165 89"><defs><style>.cls-1{fill:#fff;}.cls-2{fill:#00587c;}</style></defs><rect class="cls-1" y="-.000000000000909" width="165" height="89.000000000000909"/><g><g><path class="cls-2" d="m41.414167451779576,74.573868642763046h-1.484832356907646v-9.577753287427186h1.484832356907646v9.577753287427186Zm-1.610032267735733-12.173134673790628c0-.332064078174881.083466607218725-.573909080303565.250399821659812-.725350056905882.167034755322675-.157333974373614.375701273373124-.235952004350111.626195382998048-.235952004350111.238519538150285,0,.44424137054375.078618029976496.617165497180395.235952004350111.172924126638463.157333974377252.259342672434286.399084688535368.259342672434286.725350056905882,0,.326171080403583-.086418545795823.570866480218683-.259342672434286.73399916440394-.172924126636644.157333974377252-.378645959030109.235955630811077-.617165497180395.235955630811077-.250494109624924,0-.459160627675374-.078621656433825-.626195382998048-.235955630811077-.166933214441087-.163132684185257-.250399821659812-.407828084000357-.250399821659812-.73399916440394Z"/><path class="cls-2" d="m51.2710312460149,74.573868642763046v-6.195796317148051c0-.78067895967979-.181866977411119-1.363335061905673-.54558642639131-1.747779730743787-.363813736943484-.384538956805045-.93325501831896-.576763104454585-1.7084181320879-.576763104454585-1.02566447631034,0-1.776965482175001.270842177626037-2.254004558475572.812715108804696-.477039076300571.541778643215366-.715558614450856,1.436060094110871-.715558614450856,2.682746438262257v5.024877605279471h-1.484825103987532v-9.577753287427186h1.207524200803164l.241464223805451,1.310860183282784h.071586323711017c.304107696743813-.471907635164825.730477871580661-.836007862460974,1.279008983628955-1.092398596316343.548618147089655-.26218944367065,1.159894272959718-.39319169076407,1.833719583801212-.39319169076407,1.180615866356675,0,2.069098607445994.279589199548354,2.665440970344207.838858260151028.596255327855033.553470350794669.894473653284876,1.441953091885807.894473653284876,2.66535030884188v6.248274822231906h-1.484825103985713Z"/><path class="cls-2" d="m68.489290052199067,74.573868642763046h-8.595726006311452v-1.249732570693595l3.443650310653538-3.381859055854875c1.049519331294505-1.036971779114538,1.741215837842901-1.77686756775438,2.075089519641551-2.219683739451284.333960716845468-.442718257272645.584367791425393-.873839094929281.751395293829773-1.293268225006614.166933214439268-.419527044501592.250407074579925-.870992323700193.250407074579925-1.354588039983355,0-.681622200201673-.211712744590841-1.220452531302726-.635043945807411-1.616683195687074-.423418236259749-.401938712686388-1.010730713342127-.602906255800917-1.76203171920497-.602906255800917-.542634487814212,0-1.058462182070798.087365051902452-1.547475829844188.262095155700081-.482935700534654.174824391768198-1.0226255026937.492342738209118-1.618967865590093.952555039333674l-.78705065019858-.987445212605962c1.204485227182886-.9787924786433,2.516386204531955-1.468190531195432,3.935521609040734-1.468190531195432,1.228434370130344,0,2.191448120584027.308771324518602,2.8891355393298.926317600016773.697687418743953.611747565690166,1.046480357674227,1.436154382077802,1.046480357674227,2.473129787653306,0,.809766796686745-.232528625952909,1.6107901979085-.697687418743953,2.40316086517123-.465057251907638.792272752842109-1.335668797288236,1.794357985141687-2.611733095262025,3.00615778248175l-2.862321492848423,2.735224943353387v.069874634511507h6.726358319061546v1.345841018057399Z"/><path class="cls-2" d="m79.043362572438127,68.168259846153887c0,2.207992031871981-.357445672891117,3.856711376673047-1.073287151233671,4.946161660878715-.709190550398489,1.08945028420203-1.797694328497528,1.634177239531709-3.264553948811226,1.634177239531709-1.406965004185622,0-2.47740175772924-.556324374949327-3.211310260629034-1.669063786346669-.732951117415723-1.118636035633244-1.099905368864711-2.755663672855007-1.099905368864711-4.911275114063756,0-2.225482449259289.354595275199244-3.877052191757684,1.06472870523794-4.954810768376774.70919055039667-1.077852864586021,1.791986280190031-1.616683195683436,3.246486924255805-1.616683195683436,1.419331233357298,0,2.495468782284661.562123084753694,3.229377285182636,1.686557830194943.739609298285359,1.124336831013352,1.108463814862262,2.752715360740694,1.108463814862262,4.884936133865267Zm-7.146070313032396,0c0,1.858437536306155.223404452170143,3.21302557628951.670206103592136,4.063575544023479.447759036909702.844751257925964,1.159799984998244,1.26712870011761,2.138023109395363,1.26712870011761.989631968086542,0,1.705480699349209-.428176152003289,2.146581555389275-1.284619117508555.447759036907883-.862245301774237.671163489078026-2.210940343986294.671163489078026-4.046085126632534,0-1.835141156185273-.223404452170143-3.177943200626032-.671163489078026-4.028587456323294-.441100856040066-.856348677541973-1.156949587302734-1.284524829545262-2.146581555389275-1.284524829545262-.978223124397118,0-1.690264072485661.422373815734318-2.138023109395363,1.26712870011761-.446801651421993.8388546336937-.670206103592136,2.187549675905757-.670206103592136,4.045983585750946Z"/><path class="cls-2" d="m89.454929713925594,74.573868642763046h-8.595820294276564v-1.249732570693595l3.444223291358867-3.381859055854875c1.049526584214618-1.036971779114538,1.740650110055867-1.77686756775438,2.075278095571775-2.219683739451284.333685105870245-.442718257272645.583707775673247-.873839094929281.751018141971144-1.293268225006614.167317619218011-.419527044501592.250022669801183-.870992323700193.250022669801183-1.354588039983355,0-.681622200201673-.211045475918581-1.220452531302726-.635036692887297-1.616683195687074-.423041084402939-.401938712686388-1.010542137411903-.602906255800917-1.761560279383048-.602906255800917-.542823063744436,0-1.058077777292056.087365051902452-1.547664405774412.262095155700081-.482935700532835.174824391768198-1.022908366583579.492342738209118-1.618967865588274.952555039333674l-.787144938161873-.987445212605962c1.204485227181067-.9787924786433,2.516386204531955-1.468190531195432,3.93571018496732-1.468190531195432,1.228245794201939,0,2.191259544657441.308771324518602,2.889041251364688.926317600016773.697781706710884.611747565690166,1.04666893360627,1.436154382077802,1.04666893360627,2.473129787653306,0,.809766796686745-.232905777811538,1.6107901979085-.697774453788952,2.40316086517123-.464875928899346.792272752842109-1.335676050210168,1.794357985141687-2.611450231368508,3.00615778248175l-2.862423033733648,2.735224943353387v.069874634511507h6.72587962632133v1.345841018057399Z"/><path class="cls-2" d="m100.350635235397931,74.573868642763046h-8.595820294276564v-1.249732570693595l3.444223291358867-3.381859055854875c1.049526584214618-1.036971779114538,1.740650110055867-1.77686756775438,2.075278095571775-2.219683739451284.333685105870245-.442718257272645.583707775673247-.873839094929281.751018141971144-1.293268225006614.167317619218011-.419527044501592.250022669801183-.870992323700193.250022669801183-1.354588039983355,0-.681622200201673-.211045475918581-1.220452531302726-.635036692887297-1.616683195687074-.423041084402939-.401938712686388-1.010542137411903-.602906255800917-1.761560279383048-.602906255800917-.542823063744436,0-1.058077777292056.087365051902452-1.547664405774412.262095155700081-.482935700532835.174824391768198-1.022908366583579.492342738209118-1.618967865588274.952555039333674l-.787144938161873-.987445212605962c1.204485227181067-.9787924786433,2.516386204531955-1.468190531195432,3.93571018496732-1.468190531195432,1.228245794201939,0,2.191259544657441.308771324518602,2.889041251364688.926317600016773.697781706710884.611747565690166,1.04666893360627,1.436154382077802,1.04666893360627,2.473129787653306,0,.809766796686745-.232905777811538,1.6107901979085-.697774453788952,2.40316086517123-.464875928899346.792272752842109-1.335676050210168,1.794357985141687-2.611450231368508,3.00615778248175l-2.862423033733648,2.735224943353387v.069874634511507h6.72587962632133v1.345841018057399Z"/></g><g><path class="cls-2" d="m45.790440484659484,26.902651925559439c1.402619539065199,0,2.500617030484136.547165283855065,3.293992474256811,1.641377016076149.793375443772675,1.087094335160145,1.190116217218019,2.580168903155936,1.190116217218019,4.479215215739714,0,1.955454973467567-.410869464445568,3.469665282282222-1.232616881587091,4.542741273682623-.81462577595812,1.073075991400401-1.926751958377281,1.609558813481271-3.336493138625883,1.609558813481271-1.395497897881796,0-2.489934568709941-.504770722600369-3.283307890420474-1.514210308814654h-.223071192258431l-.541934400207538,1.302377558662556h-2.475805877707899v-16.476744482493814h3.240811470173867v3.833255197990184c0,.487085455134547-.042500664369072,1.267219229959665-.127501993107217,2.340295221361885h.127501993107217c.757994298524864-1.171870725293957,1.880800820657896-1.757865505685913,3.368309219158618-1.757865505685913Zm-1.04125354468124,2.583725479624263c-.800497084957897,0-1.384930027474184.247105670219753-1.753192724432665.741308522414329-.368370922138638.487085455133638-.559623911802191,1.295366264719632-.573862950044713,2.424961264253398v.349346633338428c0,1.270780050552275.187690047010619,2.181416414619889.56318261033266,2.732032171825267.382501735201004.550615757209016.984626311372267.825974565304932,1.80637372851379.825974565304932.665873450663639,0,1.193566690568332-.303514331106271,1.583185822828455-.91064485231982.396745017569629-.614133326904266.595115404292301-1.503633950153016.595115404292301-2.668501869753527,0-1.164749084110554-.198370386722672-2.036670543012406-.595115404292301-2.61554368222005-.396630426203046-.585880189026284-.938562704350261-.878932752842957-1.625686487197527-.878932752842957Z"/><path class="cls-2" d="m56.192989506151207,38.963711494387098h-3.240813592236009v-16.476744482493814h3.240813592236009v16.476744482493814Z"/><path class="cls-2" d="m70.569639246681618,38.963711494387098h-3.240919695354023v-6.914744350397086c0-.854121600067629-.152313145885273-1.4930745679967-.456820602164953-1.916629721058598-.304622047646262-.430566447004821-.789929214546646-.645960017747711-1.455802665210285-.645960017747711-.906634154514904,0-1.561939734769112.303620434226104-1.965691802155561.910750955437834-.403752067388268.600013124150792-.605683274701732,1.598990943072749-.605683274701732,2.996712762277639v5.569870371487923h-3.240809348111725v-11.838654704141845h2.475805877707899l.435570269981326,1.514210308814654h.180680875128019c.361251403017377-.571751498024241.857126440327193-1.002428292270451,1.487620867805163-1.291809688254034.637505721420894-.296498793041792,1.360008527455648-.444805485246434,2.167623009469025-.444805485246434,1.381369206881573,0,2.429744392748034.374157786115575,3.145240148964149,1.122473358347634.715385408975635.74119817517203,1.073186338642699,1.814274166572432,1.073186338642699,3.219117626962543v7.719468583517482Z"/></g><g><path class="cls-2" d="m86.189371880214821,26.902651925559439c.439131090573937,0,.803939070057822.031822446719161,1.094432426703861.095348504666617l-.244427627560071,3.028420617629308c-.262125627401474-.07053735189038-.58087636604796-.105806027833751-.956260704191664-.105806027833751-1.034242250740135,0-1.841856732755332.264680590447824-2.422622751562812.794156362710055-.573865072106855.529471528137947-.860683016793701,1.270665459186603-.860683016793701,2.223696384510731v6.025243727144698h-3.240923939478307v-11.838654704141845h2.454555545522453l.478185525716981,1.990723649414576h.15931595157781c.368373044202599-.663539182100067.864248081510596-1.196571530828805,1.487625111929447-1.598986698947556.630490183353686-.409426462059855,1.314057389734444-.614141815152834,2.050803478136004-.614141815152834Z"/><path class="cls-2" d="m97.856351741764229,38.963711494387098l-.435676373099341-1.514210308814654h-.170002657478108c-.347126956139618.55060726895681-.839436928734358.977727486737422-1.476938406029149,1.281352165085991-.637509965545178.296494548918417-1.363679695286919.444690893880761-2.178305471245039.444690893880761-1.39550214200608,0-2.44743390433905-.370596965523873-3.155812263497864-1.111901243813918-.708369870908427-.74831557222933-1.062508120990969-1.821281216391071-1.062508120990969-3.219117626958905v-7.71946858352112h3.240813592236009v6.914748594525918c0,.854121600063081.152313145887092,1.496631144462299.456820602166772,1.927189103214914.304626291770546.423563641314104.789924970422362.635396391462564,1.455802665210285.635396391462564.906748745879668,0,1.561939734769112-.300059613633493,1.965691802155561-.900076981910388.403752067386449-.607130521209911.605679030575629-1.609550325229065.605679030575629-3.007390979924821v-5.569866127368186h3.240813592237828v11.838654704141845h-2.486377992241614Z"/><path class="cls-2" d="m110.352209149885311,26.902651925559439c1.402504947698617,0,2.500502439119373.547165283855065,3.293873638765945,1.641377016076149.793379687896959,1.087094335160145,1.190120461342303,2.580168903155936,1.190120461342303,4.479215215739714,0,1.955454973467567-.410873708569852,3.469665282282222-1.232621125711375,4.542741273682623-.81462577595812,1.073075991400401-1.926747714252997,1.609558813481271-3.336374303136836,1.609558813481271-1.39561248924656,0-2.490053404198989-.504770722600369-3.283424603847379-1.514210308814654h-.223071192256612l-.541932278147215,1.302377558662556h-2.475810121832183v-16.476744482493814h3.240813592236009v3.833255197990184c0,.487085455134547-.042500664369072,1.267219229959665-.127501993109036,2.340295221361885h.127501993109036c.757992176462722-1.171870725293957,1.880800820657896-1.757865505685913,3.368425932587343-1.757865505685913Zm-1.041372380172106,2.583725479624263c-.800492840831794,0-1.384925783348081.247105670219753-1.753188480308381.741308522414329-.36837304420078.487085455133638-.559621789740049,1.295366264719632-.573865072106855,2.424961264253398v.349346633338428c0,1.270780050552275.187802516313241,2.181416414619889.563186854456944,2.732032171825267.38249749107672.550615757209016.984619945185841.825974565304932,1.806367362327364.825974565304932.665877694787923,0,1.193677037808811-.303514331106271,1.583194311078842-.91064485231982.396740773443526-.614133326904266.595111160166198-1.503633950153016.595111160166198-2.668501869753527,0-1.164749084110554-.198370386722672-2.036670543012406-.595111160166198-2.61554368222005-.396638914453433-.585880189026284-.938571192600648-.878932752842957-1.625694975447914-.878932752842957Z"/></g><path class="cls-2" d="m38.259131767823419,55.441442491141061H1.705031731200506v-7.704502105712891l13.103298187255859-13.243799209598365c3.880302429199219-3.978700637816473,6.424999237060547-6.734399795531317,7.606002807617188-8.266799926756903,1.048198699951172-1.280500411987305,1.913997650146484-2.699899673461914,2.572898864746094-4.217800140380859.5198974609375-1.291500091552734.787200927734375-2.670900344848633.787300109863281-4.06309986114502.068099975585938-.859100341796875-.051200866699219-1.722700119018555-.349800109863281-2.531100273132324-.298599243164062-.808300018310547-.769302368164062-1.542200088500977-1.379501342773438-2.150599479675293-1.295200347900391-1.072750091552734-2.946098327636719-1.619709968566895-4.625499725341797-1.532510757446289-2.045700073242188.008379936218262-4.061798095703125.489540100097656-5.890800476074219,1.405910491943359-2.138298034667969,1.078700065612793-4.139598846435547,2.409799575805664-5.961198806762695,3.964699745178223L1.564431526732733,9.987891198718899c1.970098495483398-1.758739948272705,4.113399505615234-3.313210010528564,6.396999359130859-4.639560222625732,1.747499465942383-.925199866294861,3.603601455688477-1.628899931907654,5.525300979614258-2.094821929931641,2.203998565673828-.504547983407974,4.459400177001953-.74991028290242,6.720298767089844-.731086583342403,2.979000091552734-.054717598948628,5.93280029296875.555251629557461,8.646400451660156,1.785528631415218,2.367000579835803,1.096130013465881,4.382301330568225,2.829089999198914,5.820598602296741,5.005090117454529,1.393699645996094,2.195879459381104,2.112300872802734,4.752500057220459,2.066699981689453,7.353000164031982.016399383544922,2.319100379943848-.413200378417969,4.61970043182373-1.265296936035156,6.776598930358887-.993503570556641,2.338600158691406-2.319400787353516,4.521501541137695-3.936603546142578,6.481300354003906-2.901199340822131,3.368900299071356-6.034698486329944,6.530601501467572-9.377498626710803,9.46179962158476l-6.706298828125,6.312599182128906v.506202697753906h22.804100036622913v9.236900329589844Z"/><path class="cls-2" d="m38.259131767823419,55.441442491141061H1.705031731200506v-7.704502105712891l13.103298187255859-13.243799209598365c3.880302429199219-3.978700637816473,6.424999237060547-6.734399795531317,7.606002807617188-8.266799926756903,1.048198699951172-1.280500411987305,1.913997650146484-2.699899673461914,2.572898864746094-4.217800140380859.5198974609375-1.291500091552734.787200927734375-2.670900344848633.787300109863281-4.06309986114502.068099975585938-.859100341796875-.051200866699219-1.722700119018555-.349800109863281-2.531100273132324-.298599243164062-.808300018310547-.769302368164062-1.542200088500977-1.379501342773438-2.150599479675293-1.295200347900391-1.072750091552734-2.946098327636719-1.619709968566895-4.625499725341797-1.532510757446289-2.045700073242188.008379936218262-4.061798095703125.489540100097656-5.890800476074219,1.405910491943359-2.138298034667969,1.078700065612793-4.139598846435547,2.409799575805664-5.961198806762695,3.964699745178223L1.564431526732733,9.987891198718899c1.970098495483398-1.758739948272705,4.113399505615234-3.313210010528564,6.396999359130859-4.639560222625732,1.747499465942383-.925199866294861,3.603601455688477-1.628899931907654,5.525300979614258-2.094821929931641,2.203998565673828-.504547983407974,4.459400177001953-.74991028290242,6.720298767089844-.731086583342403,2.979000091552734-.054717598948628,5.93280029296875.555251629557461,8.646400451660156,1.785528631415218,2.367000579835803,1.096130013465881,4.382301330568225,2.829089999198914,5.820598602296741,5.005090117454529,1.393699645996094,2.195879459381104,2.112300872802734,4.752500057220459,2.066699981689453,7.353000164031982.016399383544922,2.319100379943848-.413200378417969,4.61970043182373-1.265296936035156,6.776598930358887-.993503570556641,2.338600158691406-2.319400787353516,4.521501541137695-3.936603546142578,6.481300354003906-2.901199340822131,3.368900299071356-6.034698486329944,6.530601501467572-9.377498626710803,9.46179962158476l-6.706298828125,6.312599182128906v.506202697753906h22.804100036622913v9.236900329589844Z"/><g><path class="cls-2" d="m49.831558639452851,50.044662248124041c0,1.662530673615947-.421890174891814,2.96217713193073-1.265670524684538,3.898944247453983-.843780349787266.930510827153739-2.009569523039318,1.395707770745503-3.497109277323034,1.395707770745503-.918760796470451,0-1.734441446093115-.213951419160367-2.447044385116897-.64197119745495-.712476254058856-.428019778295493-1.262481474266679-1.042276202985704-1.650013224380018-1.842496414146808-.387531750111521-.800229956155817-.581296407041009-1.73699707167907-.581296407041009-2.810184406597728,0-1.66252580111086.418825373193613-2.955915971060676,1.256349434615913-3.880297194816194.837521625171576-.930510827153739,2.000116875507956-1.395702898248601,3.487656629788034-1.395702898248601,1.437596642317658,0,2.578224232136563.474518033658569,3.422004581923829,1.423675913446459.850041510655501.949157879791528,1.275123172217718,2.233226959671811,1.275123172217718,3.852324179618336Zm-7.828546256901973,0c0,1.302716132518071.262483942748077,2.295307465970836.787580949458061,2.97775938286668.524967885492515.682334976921993,1.296837462801705,1.023497592885178,2.315737853137762,1.023497592885178,1.018771269118588,0,1.790643282674864-.338092941764444,2.315737853137762-1.014298315290944.531229046358931-.682334976921084.796906912022678-1.677981367077336.796906912022678-2.986958660460914,0-1.296454971648018-.265677865663747-2.279715470035626-.796906912022678-2.949786367661545-.525094570462898-.676073816055577-1.30322774488377-1.014171630321471-2.334514026986653-1.014171630321471-1.018771269120407,0-1.787576044727757.331841525897289-2.30641432682205.995651262653155-.518711597127549.663683051794578-.77812830192488,1.653204711048602-.77812830192488,2.968306735329861Z"/><path class="cls-2" d="m57.2006672462594,46.155170648207786h-2.615776579830708v8.998043401685209h-1.556383288814686v-8.998043401685209h-1.837521592942721v-.697917227857943l1.837521592942721-.558305521790317v-.567631484362209c0-2.506184338431012,1.103197054584598-3.759337413884168,3.309600908756693-3.759337413884168.54374649559395,0,1.181244739220347.108569016666479,1.912621415844114.32571192249452l-.40324312226403,1.237570824516297c-.599945895924975-.192361377296947-1.112523017151034-.288412944729316-1.537477993746506-.288412944729316-.587555131660338,0-1.021967628284983.195299494033861-1.303227744881951.586151852026887-.281260116598787.38459119712661-.421890174893633,1.0049772252205-.421890174893633,1.861021654308388v.660744935062212h2.615776579830708v1.200403404215649Z"/><path class="cls-2" d="m68.404344647318794,55.339314266323527c-1.518835813612895,0-2.718854290431409-.459057595193372-3.600186987921916-1.377182530580285-.875076409123722-.918124935386004-1.312553707448387-2.192863180205677-1.312553707448387-3.824351164421387,0-1.644010305943993.406307923960412-2.949791240159357,1.21879708691813-3.917596172580488.818745451322684-.967683119954017,1.915691090040127-1.45152224368212,3.290827171156707-1.45152224368212,1.287513936484174,0,2.306285205604581.421763489926889,3.056313807361221,1.26541715474923.75002860175664.83752406142321,1.125045338885684,1.944814014942494,1.125045338885684,3.321996545527327v.977130894984839h-7.078395842674581c.031164501864623,1.197207045054711.334394715227972,2.106006017873369.909437270151102,2.726392045967259.581293970795741.620376283090081,1.39684793545166.930501082155388,2.446915263904884.930501082155388,1.106393413750993,0,2.200142693305679-.229523925097965,3.28150120859209-.688581520294974v1.377172785584662c-.55012946892748.23578995846492-1.072032552721794.40324799476457-1.565709251381122.502491048859156-.487542222761476.105509087466999-1.078167028617827.158132073731394-1.771991357543811.158132073731394Zm-.421895047395083-9.277261941313554c-.82500173968765,0-1.484470080082247.266701090397873-1.978273463708319.800229956155817-.487547095261107.533523993260133-.775063500223041,1.271673443117834-.862558959890521,2.214701719506593h5.372178345467546c0-.973939408322622-.218799555397709-1.718345146548018-.656271981224563-2.233226959671811-.437472425828673-.521133228995495-1.062584777686425-.7817047159906-1.875073940644143-.7817047159906Z"/><path class="cls-2" d="m77.32038389540503,49.933028429759361l-3.572087287755494-4.978261185767224h1.77199135754563l2.709528327864973,3.908143525047308,2.700207237798168-3.908143525047308h1.753212747446014l-3.572082415255863,4.978261185767224,3.759590783820386,5.220185620133634h-1.762670267478825l-2.878258086329879-4.131420906779567-2.906357786496301,4.131420906779567h-1.762670267478825l3.759595656320016-5.220185620133634Z"/><path class="cls-2" d="m89.695980073114697,55.339314266323527c-.668789430457764,0-1.281262520613382-.120964653429837-1.837516720441272-.362884215292979-.550007656460366-.248049165263183-1.012514980755441-.626515631493021-1.38765840285123-1.135262968717143h-.112403673165318c.07498288293209.59560449955552.112403673165318,1.160044497247327.112403673165318,1.693573363008909v4.196683154746097h-1.556256603847942v-14.776656356076273h1.265670524688176l.215608068729125,1.395698025747151h.074978010430641c.400051635595446-.558305521794864.865755319056916-.961548644052527,1.396974620420224-1.209597809320258.531355731323856-.248175850228108,1.140759147279823-.372205305359785,1.828200502872278-.372205305359785,1.362613759385567,0,2.412685960336603.462127269393022,3.150197112858223,1.38650849314854.743767440893862.924249666288233,1.115714503821437,2.220831322904814,1.115714503821437,3.889491599916255,0,1.674921437881494-.378203351296179,2.97775938286668-1.134493113917415,3.908270210021328-.75003347425627.924254538785135-1.793839641844897,1.386381808178157-3.131418502762244,1.386381808178157Zm-.224934031295561-9.258610016182502c-1.050062455953594,0-1.809548577743044.288412944729316-2.278312190404904.865365519157422-.468773357661121.576957446925917-.709406579861025,1.495077509815019-.721928901592037,2.754365061165117v.344227417660477c0,1.433001876017443.240642967197346,2.459695828070835.721928901592037,3.080072111160916.481285934392872.614129739725286,1.253284632915893.921184864590941,2.315732980638131.921184864590941.887593858356922,0,1.58142793227853-.356744866895497,2.081356046806832-1.070117660719916.506320832859274-.713372793824419.75948612178945-1.696628419715125.75948612178945-2.94965968269571,0-1.271805000585118-.253165288930177-2.245739536405381-.75948612178945-2.921940037430431-.499928114528302-.682334976925631-1.206274765187118-1.023497592888816-2.118776837040059-1.023497592888816Z"/><path class="cls-2" d="m104.904637380215718,50.044662248124041c0,1.662530673615947-.421899919891075,2.96217713193073-1.265680269683799,3.898944247453983-.843780349787266.930510827153739-2.009564650541506,1.395707770745503-3.497109277319396,1.395707770745503-.918758360221545,0-1.734434137348217-.213951419160367-2.447037076370179-.64197119745495-.712476254058856-.428019778295493-1.262483910517403-1.042276202985704-1.650013224381837-1.842496414146808-.387539058858238-.800229956155817-.581298843291734-1.73699707167907-.581298843291734-2.810184406597728,0-1.66252580111086.418820500695801-2.955915971060676,1.256344562119921-3.880297194816194.837524061424119-.930510827153739,2.000121748009406-1.395702898248601,3.487656629789853-1.395702898248601,1.43760151481365,0,2.578224232132925.474518033658569,3.422004581925648,1.423675913446459.850046383149675.949157879791528,1.275132917211522,2.233226959671811,1.275132917211522,3.852324179618336Zm-7.828556001897596,0c0,1.302716132518071.262491251494794,2.295307465970836.787580949454423,2.97775938286668.524972757993964.682334976921993,1.29684477155206,1.023497592885178,2.315742725637392,1.023497592885178,1.018771269120407,0,1.790643282678502-.338092941764444,2.315732980638131-1.014298315290944.531229046358931-.682334976921084.796906912022678-1.677981367077336.796906912022678-2.986958660460914,0-1.296454971648018-.265677865663747-2.279715470035626-.796906912022678-2.949786367661545-.525089697959629-.676073816055577-1.303217999886328-1.014171630321471-2.33451159073411-1.014171630321471-1.018771269120407,0-1.787573608478851.331841525897289-2.306416763074594.995651262653155-.518706724626099.663683051794578-.778128301921242,1.653204711048602-.778128301921242,2.968306735329861Z"/><path class="cls-2" d="m111.678739956016216,44.768662155059246c.456251035930109,0,.865755319053278.037172292799369,1.22824973445131.11163869086613l-.215608068729125,1.432997003515993c-.425086534060028-.093113450700002-.800093526191631-.139606833565267-1.125167151352798-.139606833565267-.831267773055515,0-1.543744027114371.335033012559506-2.137555447139675,1.004977225215953-.587555131662157.669939340159544-.881337569990137,1.504398599885462-.881337569990137,2.503114664240456v5.471431144560484h-1.556256603846123v-10.198446805900858h1.284449134784154l.178060593527334,1.888989797008435h.075104695399205c.381273025494011-.663809736760413.84058399062269-1.175621875685465,1.378069325350225-1.535436416779703.537612019696098-.359814541098785,1.128236825552449-.539658469161623,1.77199135754563-.539658469161623Z"/><path class="cls-2" d="m118.984124237924334,54.064571149006952c.275003828230183,0,.540681693890292-.018651925131053.796906912020859-.055819345428972.256225218132386-.043423708670161.459437650099062-.086857162335946.609393670962163-.13028087100156v1.181756351585136c-.168734630964536.080591128964443-.418830245696881.145736436965308-.750023729262466.195426178995149-.32507362515571.055809600437897-.618729378518765.083660803166822-.88133756998468.083660803166822-1.987599426274755,0-2.98133579693058-1.039079843821128-2.98133579693058-3.117239531458836v-6.066904086656905h-1.471962375846488v-.744537295689042l1.471962375846488-.641971197459497.656267108726752-2.177407614238291h.899989495119371v2.363512703171182h2.981462481897324v1.200403404215649h-2.981462481897324v6.00175877865604c0,.614246679695498.146886346665269,1.085699911655865.440668784996888,1.414476635852225.293772693328719.32877672419545.696894003123816.493165086290901,1.209471124351694.493165086290901Z"/></g></g></svg>