<svg width="122" height="64" viewBox="0 0 122 64" fill="none" xmlns="http://www.w3.org/2000/svg">
<path d="M0.00745185 21.7227C0.00745185 18.5599 0.907635 16.7473 2.69586 16.3094C3.31626 16.1512 3.91233 16.0174 4.49624 15.9079L6.01684 15.616L6.1385 16.1877L5.33562 16.3459C4.00965 16.6013 3.13378 16.7838 2.70802 16.9176C2.39938 17.0105 2.11345 17.1667 1.86842 17.3761C1.62339 17.5856 1.42462 17.8437 1.28474 18.1341C0.900224 18.9868 0.701202 19.9114 0.700835 20.8468V20.8468C1.08682 20.3573 1.56137 19.9446 2.09978 19.6304C2.52773 19.3924 3.00906 19.2668 3.49874 19.2654C3.88441 19.2446 4.26979 19.3115 4.62588 19.4611C4.98197 19.6107 5.2995 19.8391 5.55459 20.1291C6.06057 20.8358 6.30954 21.6943 6.26015 22.5621C6.31997 23.5157 6.0302 24.4585 5.44509 25.214C5.15568 25.5354 4.79766 25.7875 4.39757 25.9518C3.99747 26.116 3.56555 26.1882 3.13379 26.1628C2.67302 26.1763 2.21649 26.0715 1.80765 25.8586C1.39881 25.6456 1.05128 25.3316 0.798155 24.9464C0.224986 23.9723 -0.0499216 22.8515 0.00745185 21.7227V21.7227ZM3.23111 25.6398C3.56299 25.6604 3.895 25.6016 4.19964 25.4684C4.50428 25.3351 4.77276 25.1311 4.98285 24.8734C5.42675 24.2284 5.64097 23.4529 5.59108 22.6715C5.64077 21.9463 5.45288 21.2246 5.05583 20.6157C4.86398 20.3823 4.6195 20.1978 4.34247 20.0772C4.06545 19.9567 3.76378 19.9036 3.46225 19.9223C2.92146 19.9261 2.3949 20.096 1.95381 20.4089C1.45915 20.7649 1.04472 21.2208 0.737328 21.747C0.72864 22.464 0.831233 23.1781 1.04145 23.8637C1.18544 24.3877 1.48695 24.8548 1.90516 25.2018C2.29956 25.4922 2.7779 25.6459 3.26761 25.6398H3.23111Z" fill="#00587C"/>
<path d="M14.3491 22.4516C14.4102 23.4563 14.0983 24.4483 13.4733 25.2373C13.1722 25.5808 12.7963 25.8505 12.3744 26.0256C11.9526 26.2006 11.4961 26.2764 11.0403 26.247C10.444 26.258 9.85716 26.0976 9.34941 25.7847C8.84724 25.4616 8.45324 24.9955 8.2181 24.4466C7.94934 23.8164 7.81668 23.1366 7.82881 22.4516C7.76778 21.4468 8.07966 20.4549 8.70468 19.6659C9.01198 19.3491 9.37975 19.0973 9.78617 18.9254C10.1926 18.7534 10.6294 18.6648 11.0707 18.6648C11.512 18.6648 11.9489 18.7534 12.3553 18.9254C12.7617 19.0973 13.1295 19.3491 13.4368 19.6659C14.0708 20.4519 14.3953 21.4428 14.3491 22.4516ZM8.58302 22.4516C8.53413 23.2855 8.76535 24.1119 9.23993 24.7994C9.47504 25.064 9.76355 25.2758 10.0865 25.4209C10.4094 25.5659 10.7593 25.6409 11.1133 25.6409C11.4673 25.6409 11.8173 25.5659 12.1402 25.4209C12.4631 25.2758 12.7516 25.064 12.9867 24.7994C13.4613 24.1119 13.6925 23.2855 13.6436 22.4516C13.6967 21.6154 13.4604 20.7864 12.9745 20.1038C12.7506 19.8268 12.4638 19.6073 12.138 19.4634C11.8122 19.3195 11.4567 19.2555 11.1011 19.2766C10.7473 19.2554 10.3936 19.3195 10.0698 19.4635C9.74589 19.6074 9.4613 19.827 9.23993 20.1038C8.75831 20.788 8.52638 21.6168 8.58302 22.4516V22.4516Z" fill="#00587C"/>
<path d="M21.4175 26.1126H20.7606V19.422H18.1695C18.0899 20.7809 17.9274 22.1337 17.683 23.4728C17.566 24.1964 17.3099 24.8905 16.9287 25.5165C16.8002 25.722 16.6206 25.8906 16.4073 26.0057C16.1941 26.1209 15.9545 26.1787 15.7122 26.1734C15.5588 26.1933 15.4034 26.1933 15.25 26.1734V25.5652C15.3711 25.5822 15.4939 25.5822 15.6149 25.5652C16.1258 25.5652 16.5273 25.0299 16.8314 23.9594C17.236 22.2717 17.4723 20.548 17.537 18.8137H21.381L21.4175 26.1126Z" fill="#00587C"/>
<path d="M26.8187 26.2473C26.3564 26.2741 25.8938 26.1998 25.4631 26.0297C25.0325 25.8595 24.6441 25.5975 24.3249 25.262C23.6959 24.4887 23.3791 23.5079 23.4369 22.5127C23.3902 21.508 23.6956 20.5184 24.3006 19.7148C24.5806 19.3726 24.9362 19.1001 25.3393 18.9186C25.7425 18.737 26.1823 18.6515 26.6241 18.6687C27.009 18.6533 27.3923 18.7265 27.7445 18.8826C28.0967 19.0386 28.4084 19.2734 28.6556 19.5689C29.1867 20.2646 29.4501 21.1281 29.3976 22.0018V22.5371H24.1425C24.089 23.362 24.3353 24.1784 24.8358 24.8362C25.0877 25.1059 25.3961 25.3166 25.7389 25.4533C26.0816 25.59 26.4504 25.6492 26.8187 25.6269C27.1855 25.6327 27.552 25.6042 27.9135 25.5418C28.3305 25.4565 28.738 25.3302 29.13 25.1647V25.7729C28.7665 25.9333 28.3874 26.0556 27.9987 26.1378C27.6093 26.2085 27.2145 26.2451 26.8187 26.2473V26.2473ZM26.6241 19.2647C26.3071 19.2515 25.991 19.3066 25.6971 19.4263C25.4033 19.5459 25.1386 19.7273 24.921 19.9581C24.4565 20.5256 24.1953 21.2322 24.1789 21.9653H28.6921C28.7328 21.2583 28.5405 20.5575 28.1447 19.9703C27.9667 19.739 27.7356 19.554 27.4708 19.4312C27.2061 19.3083 26.9156 19.2512 26.6241 19.2647Z" fill="#00587C"/>
<path d="M34.3608 26.2474C33.9085 26.2653 33.4577 26.1867 33.0382 26.0168C32.6187 25.8469 32.2401 25.5896 31.9278 25.2621C31.2934 24.4917 30.9759 23.5088 31.0398 22.5128C30.9931 21.5081 31.2985 20.5185 31.9035 19.7149C32.181 19.373 32.5344 19.1004 32.9356 18.9188C33.3368 18.7372 33.7748 18.6516 34.2148 18.6687C34.6016 18.6524 34.987 18.7251 35.3413 18.8812C35.6956 19.0372 36.0094 19.2725 36.2585 19.5689C36.781 20.2691 37.0434 21.1293 37.0005 22.0019V22.5372H31.7332C31.6843 23.3634 31.9348 24.1797 32.4387 24.8363C32.6888 25.105 32.9951 25.3152 33.3357 25.4519C33.6764 25.5886 34.043 25.6484 34.4095 25.627C34.7763 25.6333 35.1428 25.6048 35.5043 25.5419C35.9206 25.4543 36.3279 25.3281 36.7208 25.1648V25.773C36.3538 25.9353 35.9704 26.0576 35.5773 26.1379C35.1759 26.2113 34.7688 26.248 34.3608 26.2474V26.2474ZM34.1661 19.2648C33.8509 19.251 33.5364 19.3058 33.2444 19.4255C32.9525 19.5453 32.69 19.727 32.4752 19.9582C32.0107 20.5257 31.7495 21.2323 31.7332 21.9654H36.2463C36.2871 21.2584 36.0948 20.5576 35.6989 19.9704C35.5184 19.7388 35.285 19.554 35.0183 19.4312C34.7517 19.3084 34.4594 19.2514 34.1661 19.2648V19.2648Z" fill="#00587C"/>
<path d="M36.3777 53.343L36.0685 54.4021C35.7283 55.5617 35.5351 56.2652 35.5041 56.5125C35.45 56.1724 35.3109 55.5694 35.079 54.6959C34.8471 53.8223 34.6615 53.1807 34.5301 52.7787L33.8344 50.676H29.5903V59.6588H32.3656V52.9565L32.5434 53.5518C32.8835 54.75 33.2159 55.8322 33.5251 56.7908L34.4528 59.6588H36.5632C37.3363 57.3242 37.8387 55.7936 38.0475 55.0669C38.2639 54.3403 38.4495 53.6368 38.6195 52.9565V59.6588H41.3948V50.676H37.2435L36.3777 53.343V53.343Z" fill="#00587C"/>
<path d="M44.5718 53.7914C44.479 54.634 44.3785 55.3298 44.2626 55.8709C44.1466 56.412 44.0152 56.8063 43.8683 57.0459C43.7214 57.2933 43.5282 57.417 43.2885 57.417C42.9948 57.417 42.7628 57.3706 42.5928 57.2778V59.5815C42.9793 59.7439 43.4431 59.8212 43.992 59.8212C44.7805 59.8212 45.4067 59.6202 45.8705 59.2105C46.3343 58.8008 46.6977 58.1437 46.9682 57.2392C47.2311 56.3347 47.4475 54.9123 47.6253 52.9874H49.4497V59.6588H52.5496V50.676H44.8346C44.7496 51.9052 44.6645 52.9488 44.5718 53.7914V53.7914Z" fill="#00587C"/>
<path d="M63.8437 50.676H56.4225C56.2988 52.0057 56.0823 53.2503 55.7654 54.4176C55.4484 55.5849 55.0619 56.5666 54.6058 57.3474H53.8096V62.952H56.523V59.6511H62.46V62.952H65.1734V57.3474H63.8437V50.676V50.676ZM60.7438 57.3474H57.8758C58.185 56.5048 58.4247 55.7395 58.587 55.0669C58.7493 54.3944 58.8808 53.6986 58.9735 52.9797H60.7438V57.3474Z" fill="#00587C"/>
<path d="M71.9301 50.5213C70.9174 50.5213 70.1212 50.9542 69.5414 51.82H69.4023L68.9694 50.6759H66.4492V63.5549H69.5491V59.9448C69.5491 59.7902 69.5028 59.4036 69.41 58.7697H69.5491C69.9047 59.164 70.2603 59.4346 70.6159 59.5814C70.9715 59.7283 71.3813 59.8056 71.8374 59.8056C72.8423 59.8056 73.6463 59.3882 74.2338 58.5533C74.8213 57.7184 75.1151 56.582 75.1151 55.1364C75.1151 53.6908 74.829 52.5699 74.2647 51.7427C73.7004 50.9156 72.9196 50.5059 71.9301 50.5059V50.5213ZM71.6905 56.8139C71.5127 57.1541 71.2266 57.3241 70.8247 57.3241C70.384 57.3241 70.0593 57.1541 69.8506 56.8062C69.6419 56.4661 69.5414 55.9017 69.5414 55.1364V54.889C69.5569 54.2474 69.6574 53.7681 69.8352 53.4434C70.0207 53.1188 70.3376 52.9564 70.7937 52.9564C71.2112 52.9564 71.5127 53.1265 71.6905 53.4589C71.8683 53.7913 71.961 54.3479 71.961 55.121C71.961 55.894 71.8683 56.4738 71.6905 56.8139V56.8139Z" fill="#00587C"/>
<path d="M86.5869 50.5213C85.5742 50.5213 84.7779 50.9542 84.1981 51.82H84.059L83.6261 50.6759H81.106V63.5549H84.2059V59.9448C84.2059 59.7902 84.1595 59.4036 84.0667 58.7697H84.2059C84.5615 59.164 84.9171 59.4346 85.2727 59.5814C85.6283 59.7283 86.038 59.8056 86.4941 59.8056C87.4991 59.8056 88.303 59.3882 88.8905 58.5533C89.4781 57.7184 89.7718 56.582 89.7718 55.1364C89.7718 53.6908 89.4858 52.5699 88.9215 51.7427C88.3571 50.9156 87.5764 50.5059 86.5869 50.5059V50.5213ZM86.3472 56.8139C86.1694 57.1541 85.8834 57.3241 85.4814 57.3241C85.0408 57.3241 84.7161 57.1541 84.5074 56.8062C84.2986 56.4661 84.1981 55.9017 84.1981 55.1364V54.889C84.2136 54.2474 84.3141 53.7681 84.4919 53.4434C84.6774 53.1188 84.9944 52.9564 85.4505 52.9564C85.8679 52.9564 86.1694 53.1265 86.3472 53.4589C86.525 53.7913 86.6178 54.3479 86.6178 55.121C86.6178 55.894 86.525 56.4738 86.3472 56.8139V56.8139Z" fill="#00587C"/>
<path d="M95.6471 55.8478C95.5621 56.1261 95.5002 56.443 95.4538 56.8064H95.392C95.3688 56.4276 95.3147 56.1029 95.2451 55.8323L93.7222 50.6838H90.46L93.9928 59.5352C93.815 59.9759 93.6526 60.2928 93.498 60.4861C93.3434 60.6793 93.1656 60.8262 92.9569 60.9344C92.7482 61.0427 92.5085 61.0968 92.238 61.0968C91.8746 61.0968 91.5577 61.0659 91.2794 61.004V63.4391C91.7123 63.5319 92.1375 63.5705 92.5472 63.5705C93.614 63.5705 94.4798 63.3154 95.1446 62.8207C95.8095 62.3182 96.366 61.4601 96.8221 60.2464L100.37 50.6916H97.2087L95.6471 55.8633V55.8478Z" fill="#00587C"/>
<path d="M104.808 50.7687C105.024 50.5832 105.303 50.4286 105.651 50.3204C105.998 50.2122 106.694 50.0962 107.753 49.9802C108.812 49.8643 109.647 49.787 110.258 49.7406L109.964 47.1741C107.931 47.3441 106.501 47.5219 105.666 47.7152C104.839 47.9085 104.128 48.1868 103.54 48.5501C102.953 48.9134 102.473 49.3695 102.102 49.9107C101.739 50.4518 101.468 51.0857 101.306 51.8201C101.144 52.5545 101.066 53.3739 101.066 54.2784C101.066 56.0255 101.468 57.3783 102.28 58.3523C103.092 59.3264 104.205 59.8134 105.62 59.8134C107.034 59.8134 108.178 59.4037 108.99 58.5765C109.802 57.7494 110.204 56.6052 110.204 55.1442C110.204 53.8919 109.902 52.9333 109.292 52.2685C108.681 51.6036 107.823 51.2712 106.702 51.2712C106.153 51.2712 105.658 51.3949 105.21 51.6423C104.762 51.8897 104.452 52.1989 104.267 52.5699H104.135C104.159 52.1138 104.228 51.7428 104.329 51.4645C104.429 51.1785 104.592 50.9465 104.808 50.761V50.7687ZM104.908 53.8609C105.256 53.6136 105.589 53.4899 105.89 53.4899C106.671 53.4899 107.065 54.1547 107.065 55.4843C107.065 56.814 106.64 57.5097 105.782 57.5097C105.303 57.5097 104.924 57.2391 104.638 56.7057C104.36 56.1723 104.22 55.4689 104.22 54.6031C104.329 54.3479 104.561 54.1006 104.908 53.8532V53.8609Z" fill="#00587C"/>
<path d="M65.7303 26.7503C67.0908 26.7503 68.1654 26.3251 68.9461 25.4747C69.7269 24.6244 70.1212 23.4494 70.1212 21.9651C70.1212 20.4809 69.7501 19.3831 69.0157 18.5869C68.2813 17.7907 67.2377 17.3887 65.8849 17.3887C65.5061 17.3887 65.0809 17.4428 64.6171 17.5433C64.1532 17.6438 63.7667 17.7675 63.4575 17.8912L63.6972 18.6333C64.5862 18.3009 65.3206 18.1385 65.9081 18.1385C66.8976 18.1385 67.6783 18.4168 68.2427 18.9811C68.807 19.5455 69.1394 20.3726 69.2322 21.4626H64.1146V22.197H69.2631C69.2554 23.3643 68.923 24.292 68.2736 24.98C67.6242 25.668 66.7584 26.0159 65.6762 26.0159C64.8103 26.0159 64.0218 25.869 63.3184 25.5752V26.3406C63.5425 26.4565 63.8672 26.557 64.3079 26.642C64.7485 26.7271 65.2201 26.7657 65.7303 26.7657V26.7503Z" fill="#00587C"/>
<path d="M73.0356 22.0039L77.3028 26.5803H78.4083L74.0715 21.9266L78.1222 17.5588H77.0941L73.0356 21.942V17.5588H72.2007V26.5803H73.0356V22.0039Z" fill="#00587C"/>
<path d="M83.1862 26.75C84.1216 26.75 84.8792 26.6109 85.4512 26.3248V25.5595C84.7477 25.8533 83.9901 26.0002 83.1707 26.0002C82.1426 26.0002 81.3463 25.6523 80.782 24.9643C80.2099 24.2763 79.9239 23.3254 79.9239 22.104C79.9239 20.8208 80.2099 19.839 80.782 19.151C81.3541 18.4707 82.1889 18.1228 83.2944 18.1228C83.8742 18.1228 84.5467 18.2542 85.3275 18.5093L85.5517 17.7749C84.8405 17.5044 84.0906 17.3652 83.3099 17.3652C81.9957 17.3652 80.9521 17.7827 80.1945 18.6176C79.4369 19.4525 79.0581 20.612 79.0581 22.1117C79.0581 23.6115 79.4214 24.7014 80.1558 25.5131C80.8902 26.3248 81.8952 26.7346 83.1862 26.7346V26.75Z" fill="#00587C"/>
<path d="M88.0562 18.3396H93.6145V26.5803H94.4339V17.5588H87.2368V26.5803H88.0562V18.3396Z" fill="#00587C"/>
<path d="M98.3761 26.1784C98.9791 26.5572 99.6749 26.7504 100.471 26.7504C101.723 26.7504 102.713 26.333 103.424 25.5058C104.135 24.6787 104.499 23.5268 104.499 22.058C104.499 20.5892 104.143 19.4683 103.44 18.6334C102.736 17.7985 101.762 17.3811 100.517 17.3811C99.2729 17.3811 98.2911 17.7908 97.5799 18.618C96.8687 19.4374 96.5054 20.5892 96.5054 22.058C96.5054 22.9934 96.6677 23.8206 96.9847 24.5318C97.3093 25.243 97.7654 25.7919 98.3684 26.1784H98.3761ZM98.1829 19.1591C98.724 18.4788 99.4893 18.131 100.487 18.131C101.484 18.131 102.257 18.4711 102.806 19.1591C103.355 19.8471 103.633 20.8134 103.633 22.058C103.633 23.3026 103.362 24.269 102.813 24.957C102.265 25.6527 101.499 26.0006 100.502 26.0006C99.5048 26.0006 98.7317 25.6527 98.1906 24.957C97.6418 24.2612 97.3712 23.2949 97.3712 22.058C97.3712 20.8212 97.6418 19.8394 98.1829 19.1591Z" fill="#00587C"/>
<path d="M110.451 17.3811C109.091 17.3811 108.101 17.8681 107.475 18.8422H107.428L107.274 17.5512H106.578V30.6621H107.398V27.222C107.398 26.735 107.39 26.2866 107.367 25.8769L107.343 25.1811H107.405C108.039 26.2248 109.052 26.7427 110.443 26.7427C111.603 26.7427 112.523 26.333 113.195 25.5213C113.868 24.7019 114.208 23.5577 114.208 22.0735C114.208 20.5892 113.891 19.3833 113.25 18.5793C112.608 17.7754 111.68 17.3811 110.467 17.3811H110.451ZM112.562 24.9879C112.051 25.6759 111.34 26.016 110.412 26.016C109.346 26.016 108.573 25.7145 108.101 25.1116C107.629 24.5086 107.39 23.5036 107.39 22.089V21.8261C107.39 20.5197 107.637 19.5766 108.132 18.9968C108.627 18.417 109.4 18.131 110.451 18.131C112.368 18.131 113.327 19.4529 113.327 22.1122C113.327 23.349 113.072 24.3076 112.569 24.9956L112.562 24.9879Z" fill="#00587C"/>
<path d="M115.097 17.5588V18.27H118.181V26.5803H118.993V18.27H122V17.5588H115.097Z" fill="#00587C"/>
<path d="M64.2695 35.3386V44.3678H68.0807C69.1784 44.3678 70.021 44.1359 70.5931 43.6643C71.1651 43.2005 71.4511 42.528 71.4511 41.6621C71.4511 41.036 71.2888 40.5567 70.9641 40.2243C70.6394 39.8919 70.1138 39.6831 69.3871 39.5981V39.5363C70.021 39.4049 70.4848 39.1807 70.7631 38.856C71.0492 38.5313 71.1883 38.0829 71.1883 37.5109C71.1883 36.7997 70.9332 36.2586 70.4153 35.8952C69.8973 35.5319 69.1243 35.3386 68.0961 35.3386H64.2695V35.3386ZM70.5776 41.639C70.5776 42.9377 69.7659 43.5793 68.1425 43.5793H65.089V39.9769H68.0265C69.7272 39.9769 70.5776 40.5335 70.5776 41.639V41.639ZM70.3225 37.5805C70.3225 38.1448 70.137 38.5545 69.7736 38.8173C69.4103 39.0802 68.8073 39.2039 67.9647 39.2039H65.089V36.1117H68.0652C68.815 36.1117 69.3794 36.2276 69.7582 36.4441C70.137 36.6683 70.3225 37.0471 70.3225 37.5727V37.5805Z" fill="#00587C"/>
<path d="M84.4848 43.5638H77.9912V43.5329L81.1066 40.3325C82.1888 39.2347 82.931 38.3071 83.333 37.5572C83.7427 36.8074 83.9437 36.0266 83.9437 35.2304C83.9437 34.2409 83.6422 33.4601 83.0315 32.8958C82.4208 32.3314 81.5936 32.0454 80.5345 32.0454C79.2977 32.0454 78.1767 32.4706 77.164 33.3209L77.6124 33.893C78.5401 33.1586 79.5064 32.7875 80.5191 32.7875C81.2766 32.7875 81.8951 33.0117 82.3744 33.4678C82.8537 33.9239 83.0856 34.5114 83.0856 35.2381C83.0856 35.7328 83.0005 36.2121 82.8305 36.6682C82.6604 37.1243 82.3898 37.5959 82.0265 38.0984C81.6632 38.6009 81.0215 39.3198 80.1171 40.2552L76.8857 43.6257V44.3601H84.4848V43.5638V43.5638Z" fill="#00587C"/>
<path d="M93.0188 42.9918C93.6682 41.9637 93.9928 40.3867 93.9928 38.2608C93.9928 36.1349 93.6604 34.6661 92.9879 33.6148C92.3153 32.5634 91.3413 32.03 90.0658 32.03C88.7902 32.03 87.7853 32.5402 87.1436 33.5607C86.502 34.5811 86.1851 36.1426 86.1851 38.2608C86.1851 40.3789 86.5175 41.8941 87.1746 42.9455C87.8316 44.0045 88.798 44.5302 90.0658 44.5302C91.3336 44.5302 92.3694 44.02 93.0188 42.9918ZM90.0658 43.7803C89.0608 43.7803 88.3187 43.332 87.8239 42.4275C87.3292 41.5308 87.0818 40.1393 87.0818 38.2531C87.0818 36.3668 87.3137 35.099 87.7853 34.1636C88.2568 33.2283 89.0144 32.7722 90.058 32.7722C91.1016 32.7722 91.867 33.236 92.3462 34.1636C92.8255 35.0913 93.0652 36.4519 93.0652 38.2531C93.0652 40.0543 92.8255 41.4535 92.3462 42.3811C91.867 43.3088 91.1016 43.7726 90.058 43.7726L90.0658 43.7803Z" fill="#00587C"/>
<path d="M103.053 43.5638H96.5591V43.5329L99.6745 40.3325C100.757 39.2347 101.499 38.3071 101.901 37.5572C102.311 36.8074 102.512 36.0266 102.512 35.2304C102.512 34.2409 102.21 33.4601 101.599 32.8958C100.989 32.3314 100.161 32.0454 99.1024 32.0454C97.8655 32.0454 96.7446 32.4706 95.7319 33.3209L96.1803 33.893C97.1079 33.1586 98.0742 32.7875 99.0869 32.7875C99.8445 32.7875 100.463 33.0117 100.942 33.4678C101.422 33.9239 101.653 34.5114 101.653 35.2381C101.653 35.7328 101.568 36.2121 101.398 36.6682C101.228 37.1243 100.958 37.5959 100.594 38.0984C100.231 38.6009 99.5894 39.3198 98.685 40.2552L95.4536 43.6257V44.3601H103.053V43.5638V43.5638Z" fill="#00587C"/>
<path d="M108.649 44.3601H109.461V32.2156H108.75L105.457 34.6816L105.928 35.2691C107.552 34.0013 108.402 33.3288 108.495 33.2515C108.58 33.1742 108.672 33.0968 108.75 33.0118C108.68 33.8776 108.649 34.7125 108.649 35.5088V44.3524V44.3601Z" fill="#00587C"/>
<path d="M60.4118 37.4647H40.9156V37.0395L46.6671 31.6205C50.5014 28.1108 53.1838 25.4052 54.699 23.5112C56.2219 21.6172 57.3428 19.7619 58.0695 17.953C58.7962 16.1441 59.1518 14.2115 59.1518 12.1552C59.1518 9.78963 58.5565 7.68694 57.3738 5.85482C56.191 4.01497 54.5289 2.59256 52.3876 1.57214C50.2463 0.551715 47.7725 0.0415039 44.9818 0.0415039C42.8559 0.0415039 40.9388 0.250227 39.2303 0.667672C37.5142 1.08512 35.9372 1.68036 34.4838 2.46114C33.0305 3.24192 31.2061 4.56383 29.0029 6.44233L34.1437 12.5339C35.9217 11.0652 37.6224 9.92878 39.2535 9.14027C40.8847 8.35176 42.5699 7.94977 44.3015 7.94977C46.0332 7.94977 47.2778 8.39041 48.2673 9.26395C49.2568 10.1375 49.7515 11.4749 49.7515 13.2761C49.7515 14.482 49.5273 15.6416 49.079 16.7625C48.6306 17.8834 47.8962 19.1048 46.8758 20.419C45.8554 21.7332 43.6831 24.0987 40.359 27.5001L29.1266 38.8562V45.4348H60.4118V37.4802V37.4647Z" fill="#00587C"/>
</svg>
