<svg width="116" height="59" viewBox="0 0 116 59" fill="none" xmlns="http://www.w3.org/2000/svg">
<path d="M95.0302 44.5167H92.4207V36.9115H90.011C89.9117 38.5211 89.6877 40.1206 89.341 41.6956C89.1829 42.5295 88.8238 43.3122 88.2949 43.976C88.0761 44.2096 87.8096 44.3935 87.5135 44.5152C87.2174 44.6369 86.8986 44.6935 86.5787 44.6812C86.071 44.7026 85.565 44.6102 85.0977 44.4109V42.3186C85.3608 42.434 85.6449 42.4941 85.9322 42.4949C86.2613 42.4949 86.5317 42.2598 86.7433 41.7896C87.0438 41.0352 87.2453 40.245 87.3427 39.4387C87.5073 38.3456 87.6601 36.8527 87.7894 34.9368H95.0302V44.5167Z" fill="#00587C"/>
<path d="M102.095 44.6814C101.439 44.7198 100.783 44.6274 100.163 44.4094C99.5436 44.1915 98.9736 43.8524 98.4864 43.4119C98.0355 42.9309 97.6881 42.3624 97.4657 41.7417C97.2433 41.121 97.1507 40.4612 97.1935 39.8033C97.1001 38.4573 97.5201 37.1259 98.3689 36.0771C98.7984 35.6352 99.3174 35.2902 99.8911 35.0652C100.465 34.8402 101.08 34.7403 101.695 34.7724C102.275 34.7389 102.855 34.8261 103.4 35.0284C103.944 35.2307 104.44 35.5438 104.857 35.9478C105.256 36.3732 105.566 36.8743 105.768 37.4214C105.97 37.9686 106.06 38.5507 106.033 39.1333V40.4028H99.8617C99.8532 41.045 100.088 41.6667 100.52 42.1424C100.751 42.3569 101.024 42.5226 101.321 42.6297C101.617 42.7367 101.933 42.7829 102.248 42.7654C102.797 42.7687 103.346 42.7096 103.882 42.5891C104.437 42.4547 104.977 42.2616 105.492 42.0131V44.0349C105.03 44.2643 104.54 44.4341 104.035 44.5403C103.395 44.6581 102.745 44.7054 102.095 44.6814ZM101.731 36.6296C101.489 36.6182 101.248 36.6585 101.023 36.7476C100.798 36.8368 100.594 36.9729 100.426 37.1468C100.085 37.5704 99.8944 38.0957 99.8852 38.6396H103.553C103.571 38.0971 103.391 37.5664 103.047 37.1468C102.876 36.9732 102.671 36.8374 102.444 36.7483C102.217 36.6592 101.974 36.6188 101.731 36.6296Z" fill="#00587C"/>
<path d="M116 34.95V36.9129H112.862V44.5181H110.252V36.9129H107.114V34.95H116Z" fill="#00587C"/>
<path d="M86.1793 22.3599C86.1793 29.9141 84.9411 35.5054 82.4648 39.1336C79.9886 42.7618 76.1801 44.5759 71.0395 44.5759C66.0556 44.5759 62.2942 42.703 59.7552 38.9572C57.2163 35.2115 55.9507 29.6791 55.9585 22.3599C55.9585 14.7274 57.1928 9.10483 59.6612 5.49229C62.1296 1.87976 65.9224 0.0734863 71.0395 0.0734863C76.0234 0.0734863 79.7927 1.96596 82.3473 5.75089C84.9019 9.53583 86.1793 15.0722 86.1793 22.3599ZM65.0212 22.3599C65.0212 27.673 65.4797 31.4736 66.3965 33.7618C66.6758 34.7689 67.2828 35.6543 68.1215 36.278C68.9602 36.9017 69.9828 37.2282 71.0278 37.2058C73.1592 37.2058 74.6952 36.0304 75.6355 33.6795C76.5759 31.3286 77.05 27.5437 77.0578 22.3247C77.0578 17.0195 76.5798 13.2111 75.6237 10.8993C74.6716 8.54845 73.1318 7.37301 71.0278 7.37301C69.976 7.36066 68.9504 7.70137 68.1151 8.34065C67.2797 8.97993 66.6829 9.88085 66.42 10.8993C65.5032 13.2424 65.0408 17.0626 65.033 22.3599H65.0212Z" fill="#00587C"/>
<path d="M30.6512 55.3536C30.2809 55.354 29.9112 55.3226 29.5463 55.2596C29.2784 55.2159 29.0176 55.1368 28.7705 55.0245V54.425C29.3565 54.6615 29.9842 54.7774 30.616 54.7659C30.992 54.7822 31.3672 54.7195 31.7175 54.5818C32.0677 54.4442 32.3852 54.2346 32.6495 53.9666C33.1789 53.365 33.453 52.5807 33.4135 51.7803H29.3935V51.216H33.39C33.3766 50.4966 33.1007 49.8068 32.6142 49.2765C32.3722 49.0473 32.0855 48.8706 31.772 48.7573C31.4584 48.644 31.1249 48.5967 30.7923 48.6183C30.1983 48.6473 29.6138 48.7785 29.0644 49.0062L28.8763 48.4302C29.1693 48.3132 29.4722 48.2227 29.7814 48.1599C30.1087 48.0801 30.4437 48.0367 30.7805 48.0306C31.2316 48.0035 31.6832 48.0734 32.105 48.2357C32.5267 48.3979 32.9088 48.6486 33.2255 48.9709C33.838 49.7064 34.1452 50.6488 34.0835 51.6039C34.1401 52.6042 33.812 53.5882 33.1667 54.3545C32.845 54.6936 32.4534 54.9586 32.019 55.1311C31.5846 55.3036 31.1179 55.3796 30.6512 55.3536Z" fill="#00587C"/>
<path d="M39.8665 48.1719H40.6658L37.5039 51.5807L40.9009 55.2246H40.0311L36.6928 51.6982V55.2246H36.0698V48.1719H36.7163V51.5924L39.8665 48.1719Z" fill="#00587C"/>
<path d="M44.9564 55.3535C44.5188 55.3755 44.0818 55.3017 43.6757 55.1372C43.2697 54.9728 42.9044 54.7217 42.6055 54.4014C41.9928 53.6522 41.6862 52.699 41.7474 51.7331C41.6869 50.7435 42.0064 49.7681 42.6408 49.0061C42.9515 48.6771 43.3301 48.4194 43.7502 48.251C44.1703 48.0825 44.6219 48.0073 45.0739 48.0305C45.6722 48.0288 46.2657 48.1363 46.8253 48.3478L46.649 48.9238C46.1406 48.7351 45.6044 48.6318 45.0622 48.6182C44.694 48.5938 44.3252 48.653 43.9832 48.7915C43.6412 48.9299 43.3349 49.1439 43.0874 49.4175C42.5909 50.0962 42.3533 50.9299 42.4174 51.7684C42.3705 52.5722 42.6077 53.3669 43.0874 54.0135C43.3193 54.2781 43.6076 54.4872 43.9311 54.6256C44.2545 54.7639 44.6049 54.8279 44.9564 54.8128C45.569 54.8226 46.1771 54.7066 46.7431 54.4719V55.0714C46.177 55.3012 45.5657 55.3977 44.9564 55.3535Z" fill="#00587C"/>
<path d="M49.1055 55.2246H48.459V48.1719H54.0894V55.2246H53.4429V48.7831H49.1055V55.2246Z" fill="#00587C"/>
<path d="M62.2823 51.6868C62.3391 52.6555 62.0426 53.6119 61.4477 54.3786C61.1574 54.7112 60.7942 54.9722 60.3864 55.1414C59.9787 55.3107 59.5373 55.3835 59.0968 55.3542C58.5209 55.3628 57.9544 55.208 57.463 54.9075C56.9815 54.5993 56.6045 54.1527 56.3815 53.6263C56.1229 53.0129 55.9948 52.3524 56.0054 51.6868C55.9486 50.7181 56.2451 49.7617 56.84 48.995C57.1326 48.666 57.4965 48.4081 57.9039 48.241C58.3113 48.074 58.7515 48.0022 59.1909 48.0312C59.62 48.011 60.048 48.0884 60.443 48.2573C60.8379 48.4263 61.1895 48.6825 61.4712 49.0068C62.0531 49.7745 62.3408 50.7252 62.2823 51.6868ZM56.7107 51.6868C56.6669 52.494 56.8944 53.2926 57.3572 53.9554C57.5833 54.2108 57.861 54.4153 58.1721 54.5554C58.4831 54.6955 58.8204 54.7679 59.1615 54.7679C59.5026 54.7679 59.8398 54.6955 60.1509 54.5554C60.4619 54.4153 60.7397 54.2108 60.9658 53.9554C61.4353 53.2958 61.6636 52.4948 61.6123 51.6868C61.6579 50.8794 61.4302 50.0802 60.9658 49.4182C60.7451 49.1525 60.4656 48.9419 60.1493 48.8032C59.833 48.6644 59.4888 48.6013 59.1439 48.6189C58.8024 48.6013 58.4615 48.6646 58.149 48.8034C57.8366 48.9423 57.5612 49.1529 57.3454 49.4182C56.88 50.0793 56.6559 50.8802 56.7107 51.6868Z" fill="#00587C"/>
<path d="M67.2542 55.3531C66.793 55.3852 66.3317 55.2931 65.9182 55.0863C65.5048 54.8796 65.1543 54.5658 64.9033 54.1777V54.7301C64.9033 55.0475 64.9033 55.4001 64.9033 55.7763V58.468H64.2803V48.2182H64.8327L64.9503 49.2173C65.1995 48.8273 65.5496 48.5121 65.9635 48.3052C66.3775 48.0982 66.8397 48.0072 67.3012 48.0418C67.7136 48.0178 68.126 48.0902 68.5055 48.2535C68.8851 48.4167 69.2213 48.6662 69.4875 48.9822C70.0318 49.7831 70.2925 50.743 70.228 51.7092C70.2897 52.6748 70.011 53.6314 69.4405 54.4128C69.1761 54.7309 68.8402 54.9819 68.4602 55.1454C68.0802 55.3088 67.6669 55.38 67.2542 55.3531ZM67.2542 54.7771C67.5787 54.7945 67.9025 54.7304 68.196 54.5908C68.4896 54.4512 68.7436 54.2405 68.935 53.9778C69.3666 53.3075 69.5726 52.5167 69.5228 51.721C69.5228 49.6522 68.7822 48.6178 67.2777 48.6178C66.9441 48.5885 66.6083 48.6345 66.2949 48.7525C65.9816 48.8705 65.6988 49.0575 65.4675 49.2996C65.0235 49.9464 64.8198 50.7282 64.8915 51.5094V51.7092C64.8241 52.5314 65.0174 53.354 65.444 54.0601C65.668 54.3104 65.947 54.5054 66.259 54.6298C66.571 54.7542 66.9076 54.8047 67.2424 54.7771H67.2542Z" fill="#00587C"/>
<path d="M76.6344 48.7243H74.2836V55.2246H73.6841V48.7243H71.2744V48.1719H76.6697L76.6344 48.7243Z" fill="#00587C"/>
<path d="M82.3591 55.2244L82.1945 54.1077C81.9074 54.5072 81.5337 54.8367 81.1014 55.0716C80.6866 55.2676 80.2318 55.3642 79.7731 55.3537C79.1881 55.392 78.611 55.2025 78.1628 54.8247C77.9636 54.6349 77.808 54.4043 77.7065 54.1486C77.6051 53.8929 77.5602 53.6183 77.575 53.3436C77.566 53.0241 77.6417 52.7079 77.7944 52.4271C77.9472 52.1463 78.1716 51.911 78.4449 51.745C79.1982 51.3145 80.0583 51.1067 80.9251 51.1456H82.2768V50.6871C82.3147 50.1461 82.1698 49.608 81.8654 49.1591C81.6998 48.979 81.4948 48.8397 81.2664 48.7521C81.038 48.6644 80.7925 48.6307 80.5489 48.6536C79.8373 48.6666 79.1395 48.8521 78.5154 49.1943L78.2685 48.6419C79.0002 48.2821 79.8041 48.0932 80.6194 48.0894C80.936 48.0638 81.2545 48.105 81.5542 48.2103C81.8539 48.3156 82.1281 48.4826 82.3591 48.7006C82.7836 49.2313 82.9896 49.904 82.9351 50.5813V55.2831L82.3591 55.2244ZM79.7614 54.7659C80.0874 54.7842 80.4137 54.7364 80.7208 54.6253C81.0278 54.5142 81.3092 54.3421 81.548 54.1194C81.7742 53.883 81.9485 53.602 82.0598 53.2943C82.1712 52.9867 82.217 52.6592 82.1945 52.3328V51.6393H80.9603C80.2274 51.6223 79.5013 51.7836 78.8445 52.1094C78.6681 52.2316 78.5204 52.3906 78.4115 52.5756C78.3026 52.7605 78.2353 52.9668 78.214 53.1804C78.1928 53.3939 78.2182 53.6095 78.2885 53.8122C78.3588 54.015 78.4723 54.2 78.6212 54.3545C78.9338 54.6339 79.3424 54.7813 79.7614 54.7659Z" fill="#00587C"/>
<path d="M0.00720049 19.7743C0.00720049 16.7181 0.877021 14.9667 2.60493 14.5435C3.2044 14.3907 3.78037 14.2614 4.34458 14.1556L5.81389 13.8735L5.93144 14.426L5.15564 14.5788C3.87441 14.8256 3.02808 15.002 2.61667 15.1313C2.31844 15.2211 2.04216 15.372 1.8054 15.5743C1.56863 15.7767 1.37657 16.0261 1.2414 16.3067C0.869859 17.1307 0.67755 18.0241 0.677196 18.928C1.05016 18.4549 1.5087 18.0562 2.02895 17.7525C2.44247 17.5225 2.90757 17.4012 3.38073 17.3999C3.75339 17.3798 4.12577 17.4444 4.46985 17.589C4.81392 17.7335 5.12075 17.9542 5.36723 18.2344C5.85614 18.9173 6.09672 19.7469 6.04899 20.5853C6.10679 21.5068 5.8268 22.4178 5.26143 23.1478C4.98178 23.4584 4.63584 23.702 4.24924 23.8607C3.86263 24.0194 3.44528 24.0891 3.02809 24.0647C2.58286 24.0776 2.14172 23.9764 1.74668 23.7707C1.35163 23.5649 1.01582 23.2615 0.771233 22.8892C0.217397 21.948 -0.0482377 20.865 0.00720049 19.7743ZM3.12213 23.5592C3.44281 23.5792 3.76362 23.5224 4.05798 23.3936C4.35235 23.2648 4.61178 23.0677 4.81477 22.8187C5.2437 22.1955 5.4507 21.4462 5.40249 20.6911C5.45051 19.9904 5.26895 19.293 4.8853 18.7046C4.69992 18.4791 4.46368 18.3008 4.196 18.1843C3.92832 18.0678 3.63683 18.0165 3.34546 18.0346C2.82292 18.0383 2.31412 18.2025 1.8879 18.5048C1.40993 18.8488 1.00948 19.2893 0.712457 19.7978C0.704063 20.4906 0.803196 21.1806 1.00632 21.8431C1.14546 22.3494 1.4368 22.8007 1.84089 23.1361C2.22199 23.4166 2.6842 23.5652 3.15739 23.5592H3.12213Z" fill="#00587C"/>
<path d="M13.8658 20.4784C13.9247 21.4493 13.6234 22.4077 13.0194 23.1702C12.7285 23.5021 12.3653 23.7626 11.9576 23.9318C11.55 24.101 11.109 24.1742 10.6686 24.1458C10.0924 24.1564 9.5253 24.0014 9.03468 23.6991C8.54945 23.3869 8.16874 22.9365 7.94153 22.4061C7.68184 21.7972 7.55365 21.1403 7.56538 20.4784C7.50641 19.5075 7.80776 18.5491 8.4117 17.7866C8.70863 17.4806 9.064 17.2373 9.45671 17.0711C9.84943 16.905 10.2715 16.8193 10.6979 16.8193C11.1244 16.8193 11.5464 16.905 11.9392 17.0711C12.3319 17.2373 12.6872 17.4806 12.9842 17.7866C13.5968 18.5462 13.9104 19.5036 13.8658 20.4784ZM8.29415 20.4784C8.2469 21.2842 8.47033 22.0827 8.9289 22.747C9.15608 23.0027 9.43485 23.2074 9.74686 23.3476C10.0589 23.4877 10.397 23.5602 10.7391 23.5602C11.0811 23.5602 11.4193 23.4877 11.7313 23.3476C12.0433 23.2074 12.3221 23.0027 12.5493 22.747C13.0078 22.0827 13.2312 21.2842 13.184 20.4784C13.2353 19.6704 13.007 18.8694 12.5375 18.2098C12.3211 17.9422 12.044 17.73 11.7292 17.591C11.4144 17.452 11.0709 17.3901 10.7273 17.4105C10.3855 17.39 10.0437 17.452 9.73074 17.5911C9.41779 17.7302 9.1428 17.9423 8.9289 18.2098C8.46352 18.8709 8.23942 19.6718 8.29415 20.4784Z" fill="#00587C"/>
<path d="M20.6953 24.0156H20.0606V17.5506H17.5569C17.4799 18.8637 17.3229 20.1709 17.0867 21.4649C16.9738 22.164 16.7263 22.8347 16.3579 23.4396C16.2338 23.6382 16.0602 23.801 15.8541 23.9123C15.648 24.0236 15.4166 24.0794 15.1825 24.0744C15.0342 24.0935 14.8841 24.0935 14.7358 24.0744V23.4866C14.8528 23.503 14.9715 23.503 15.0885 23.4866C15.5821 23.4866 15.97 22.9694 16.2639 21.935C16.6548 20.3042 16.8832 18.6387 16.9457 16.9629H20.6601L20.6953 24.0156Z" fill="#00587C"/>
<path d="M25.9139 24.1462C25.4672 24.172 25.0202 24.1003 24.604 23.9358C24.1879 23.7714 23.8126 23.5183 23.5042 23.1941C22.8964 22.4468 22.5903 21.4991 22.6461 20.5375C22.601 19.5667 22.8962 18.6105 23.4807 17.834C23.7513 17.5034 24.0948 17.24 24.4844 17.0646C24.874 16.8892 25.2989 16.8065 25.7258 16.8231C26.0977 16.8083 26.4681 16.879 26.8084 17.0298C27.1487 17.1806 27.4499 17.4075 27.6888 17.693C28.202 18.3652 28.4565 19.1996 28.4058 20.0439V20.561H23.3279C23.2763 21.3581 23.5142 22.147 23.9979 22.7826C24.2413 23.0432 24.5393 23.2468 24.8705 23.3789C25.2017 23.511 25.558 23.5682 25.9139 23.5467C26.2683 23.5523 26.6225 23.5247 26.9718 23.4644C27.3747 23.382 27.7684 23.26 28.1472 23.1V23.6877C27.796 23.8427 27.4297 23.9609 27.0541 24.0404C26.6778 24.1086 26.2963 24.144 25.9139 24.1462ZM25.7258 17.3991C25.4195 17.3863 25.1141 17.4396 24.8301 17.5552C24.5462 17.6708 24.2905 17.846 24.0802 18.0691C23.6314 18.6174 23.379 19.3002 23.3632 20.0086H27.7241C27.7634 19.3254 27.5776 18.6482 27.1951 18.0809C27.0232 17.8573 26.7998 17.6786 26.544 17.5599C26.2882 17.4412 26.0075 17.386 25.7258 17.3991Z" fill="#00587C"/>
<path d="M33.2016 24.1462C32.7646 24.1636 32.329 24.0876 31.9236 23.9234C31.5183 23.7593 31.1525 23.5107 30.8507 23.1941C30.2377 22.4497 29.9309 21.5 29.9927 20.5376C29.9475 19.5668 30.2427 18.6106 30.8272 17.8341C31.0954 17.5037 31.4368 17.2403 31.8245 17.0648C32.2121 16.8893 32.6354 16.8066 33.0606 16.8232C33.4343 16.8075 33.8067 16.8777 34.1491 17.0285C34.4915 17.1793 34.7946 17.4066 35.0353 17.693C35.5402 18.3695 35.7938 19.2008 35.7523 20.0439V20.5611H30.6626C30.6154 21.3595 30.8575 22.1482 31.3444 22.7827C31.586 23.0424 31.882 23.2455 32.2111 23.3776C32.5403 23.5096 32.8946 23.5674 33.2486 23.5468C33.6031 23.5528 33.9573 23.5253 34.3065 23.4645C34.7089 23.3799 35.1024 23.2579 35.482 23.1001V23.6878C35.1274 23.8446 34.7569 23.9629 34.3771 24.0404C33.9893 24.1113 33.5958 24.1468 33.2016 24.1462ZM33.0135 17.3992C32.7089 17.3858 32.405 17.4388 32.1229 17.5545C31.8408 17.6702 31.5872 17.8458 31.3797 18.0692C30.9309 18.6175 30.6784 19.3003 30.6626 20.0087H35.0236C35.0629 19.3255 34.8771 18.6483 34.4946 18.0809C34.3202 17.8572 34.0947 17.6786 33.837 17.5599C33.5793 17.4413 33.2969 17.3862 33.0135 17.3992Z" fill="#00587C"/>
<path d="M56.0522 44.2466H25.4906V37.8052L36.4458 26.7325C39.69 23.406 41.8175 21.1021 42.8049 19.8209C43.6813 18.7503 44.4052 17.5636 44.956 16.2945C45.3907 15.2147 45.6142 14.0615 45.6142 12.8975C45.6712 12.1792 45.5715 11.4572 45.3218 10.7814C45.0722 10.1055 44.6786 9.49197 44.1684 8.98324C43.0856 8.08639 41.7053 7.62909 40.3012 7.702C38.5909 7.709 36.9053 8.11129 35.3761 8.87745C33.5883 9.77929 31.9151 10.8921 30.3922 12.1922L25.373 6.24445C27.0201 4.77403 28.8121 3.47439 30.7213 2.36548C32.1824 1.59195 33.7342 1.00361 35.3408 0.614064C37.1835 0.192228 39.0692 -0.0129108 40.9595 0.00282707C43.4501 -0.0429205 45.9197 0.467054 48.1885 1.49565C50.1674 2.41208 51.8523 3.86095 53.0548 5.68023C54.2201 7.51613 54.8209 9.65367 54.7827 11.8278C54.7964 13.7667 54.4373 15.6902 53.7248 17.4935C52.8942 19.4487 51.7857 21.2738 50.4336 22.9123C48.008 25.729 45.3882 28.3723 42.5933 30.823L36.9865 36.1008V36.524H56.0522V44.2466Z" fill="#00587C"/>
<path d="M95.0302 44.5167H92.4207V36.9115H90.011C89.9117 38.5211 89.6877 40.1206 89.341 41.6956C89.1829 42.5295 88.8238 43.3122 88.2949 43.976C88.0761 44.2096 87.8096 44.3935 87.5135 44.5152C87.2174 44.6369 86.8986 44.6935 86.5787 44.6812C86.071 44.7026 85.565 44.6102 85.0977 44.4109V42.3186C85.3608 42.434 85.6449 42.4941 85.9322 42.4949C86.2613 42.4949 86.5317 42.2598 86.7433 41.7896C87.0438 41.0352 87.2453 40.245 87.3427 39.4387C87.5073 38.3456 87.6601 36.8527 87.7894 34.9368H95.0302V44.5167Z" fill="#00587C"/>
<path d="M102.095 44.6814C101.439 44.7198 100.783 44.6274 100.163 44.4094C99.5436 44.1915 98.9736 43.8524 98.4864 43.4119C98.0355 42.9309 97.6881 42.3624 97.4657 41.7417C97.2433 41.121 97.1507 40.4612 97.1935 39.8033C97.1001 38.4573 97.5201 37.1259 98.3689 36.0771C98.7984 35.6352 99.3174 35.2902 99.8911 35.0652C100.465 34.8402 101.08 34.7403 101.695 34.7724C102.275 34.7389 102.855 34.8261 103.4 35.0284C103.944 35.2307 104.44 35.5438 104.857 35.9478C105.256 36.3732 105.566 36.8743 105.768 37.4214C105.97 37.9686 106.06 38.5507 106.033 39.1333V40.4028H99.8617C99.8532 41.045 100.088 41.6667 100.52 42.1424C100.751 42.3569 101.024 42.5226 101.321 42.6297C101.617 42.7367 101.933 42.7829 102.248 42.7654C102.797 42.7687 103.346 42.7096 103.882 42.5891C104.437 42.4547 104.977 42.2616 105.492 42.0131V44.0349C105.03 44.2643 104.54 44.4341 104.035 44.5403C103.395 44.6581 102.745 44.7054 102.095 44.6814ZM101.731 36.6296C101.489 36.6182 101.248 36.6585 101.023 36.7476C100.798 36.8368 100.594 36.9729 100.426 37.1468C100.085 37.5704 99.8944 38.0957 99.8852 38.6396H103.553C103.571 38.0971 103.391 37.5664 103.047 37.1468C102.876 36.9732 102.671 36.8374 102.444 36.7483C102.217 36.6592 101.974 36.6188 101.731 36.6296Z" fill="#00587C"/>
<path d="M116 34.95V36.9129H112.862V44.5181H110.252V36.9129H107.114V34.95H116Z" fill="#00587C"/>
<path d="M86.1793 22.3599C86.1793 29.9141 84.9411 35.5054 82.4648 39.1336C79.9886 42.7618 76.1801 44.5759 71.0395 44.5759C66.0556 44.5759 62.2942 42.703 59.7552 38.9572C57.2163 35.2115 55.9507 29.6791 55.9585 22.3599C55.9585 14.7274 57.1928 9.10483 59.6612 5.49229C62.1296 1.87976 65.9224 0.0734863 71.0395 0.0734863C76.0234 0.0734863 79.7927 1.96596 82.3473 5.75089C84.9019 9.53583 86.1793 15.0722 86.1793 22.3599ZM65.0212 22.3599C65.0212 27.673 65.4797 31.4736 66.3965 33.7618C66.6758 34.7689 67.2828 35.6543 68.1215 36.278C68.9602 36.9017 69.9828 37.2282 71.0278 37.2058C73.1592 37.2058 74.6952 36.0304 75.6355 33.6795C76.5759 31.3286 77.05 27.5437 77.0578 22.3247C77.0578 17.0195 76.5798 13.2111 75.6237 10.8993C74.6716 8.54845 73.1318 7.37301 71.0278 7.37301C69.976 7.36066 68.9504 7.70137 68.1151 8.34065C67.2797 8.97993 66.6829 9.88085 66.42 10.8993C65.5032 13.2424 65.0408 17.0626 65.033 22.3599H65.0212Z" fill="#00587C"/>
<path d="M30.6512 55.3536C30.2809 55.354 29.9112 55.3226 29.5463 55.2596C29.2784 55.2159 29.0176 55.1368 28.7705 55.0245V54.425C29.3565 54.6615 29.9842 54.7774 30.616 54.7659C30.992 54.7822 31.3672 54.7195 31.7175 54.5818C32.0677 54.4442 32.3852 54.2346 32.6495 53.9666C33.1789 53.365 33.453 52.5807 33.4135 51.7803H29.3935V51.216H33.39C33.3766 50.4966 33.1007 49.8068 32.6142 49.2765C32.3722 49.0473 32.0855 48.8706 31.772 48.7573C31.4584 48.644 31.1249 48.5967 30.7923 48.6183C30.1983 48.6473 29.6138 48.7785 29.0644 49.0062L28.8763 48.4302C29.1693 48.3132 29.4722 48.2227 29.7814 48.1599C30.1087 48.0801 30.4437 48.0367 30.7805 48.0306C31.2316 48.0035 31.6832 48.0734 32.105 48.2357C32.5267 48.3979 32.9088 48.6486 33.2255 48.9709C33.838 49.7064 34.1452 50.6488 34.0835 51.6039C34.1401 52.6042 33.812 53.5882 33.1667 54.3545C32.845 54.6936 32.4534 54.9586 32.019 55.1311C31.5846 55.3036 31.1179 55.3796 30.6512 55.3536Z" fill="#00587C"/>
<path d="M39.8665 48.1719H40.6658L37.5039 51.5807L40.9009 55.2246H40.0311L36.6928 51.6982V55.2246H36.0698V48.1719H36.7163V51.5924L39.8665 48.1719Z" fill="#00587C"/>
<path d="M44.9564 55.3535C44.5188 55.3755 44.0818 55.3017 43.6757 55.1372C43.2697 54.9728 42.9044 54.7217 42.6055 54.4014C41.9928 53.6522 41.6862 52.699 41.7474 51.7331C41.6869 50.7435 42.0064 49.7681 42.6408 49.0061C42.9515 48.6771 43.3301 48.4194 43.7502 48.251C44.1703 48.0825 44.6219 48.0073 45.0739 48.0305C45.6722 48.0288 46.2657 48.1363 46.8253 48.3478L46.649 48.9238C46.1406 48.7351 45.6044 48.6318 45.0622 48.6182C44.694 48.5938 44.3252 48.653 43.9832 48.7915C43.6412 48.9299 43.3349 49.1439 43.0874 49.4175C42.5909 50.0962 42.3533 50.9299 42.4174 51.7684C42.3705 52.5722 42.6077 53.3669 43.0874 54.0135C43.3193 54.2781 43.6076 54.4872 43.9311 54.6256C44.2545 54.7639 44.6049 54.8279 44.9564 54.8128C45.569 54.8226 46.1771 54.7066 46.7431 54.4719V55.0714C46.177 55.3012 45.5657 55.3977 44.9564 55.3535Z" fill="#00587C"/>
<path d="M49.1055 55.2246H48.459V48.1719H54.0894V55.2246H53.4429V48.7831H49.1055V55.2246Z" fill="#00587C"/>
<path d="M62.2823 51.6868C62.3391 52.6555 62.0426 53.6119 61.4477 54.3786C61.1574 54.7112 60.7942 54.9722 60.3864 55.1414C59.9787 55.3107 59.5373 55.3835 59.0968 55.3542C58.5209 55.3628 57.9544 55.208 57.463 54.9075C56.9815 54.5993 56.6045 54.1527 56.3815 53.6263C56.1229 53.0129 55.9948 52.3524 56.0054 51.6868C55.9486 50.7181 56.2451 49.7617 56.84 48.995C57.1326 48.666 57.4965 48.4081 57.9039 48.241C58.3113 48.074 58.7515 48.0022 59.1909 48.0312C59.62 48.011 60.048 48.0884 60.443 48.2573C60.8379 48.4263 61.1895 48.6825 61.4712 49.0068C62.0531 49.7745 62.3408 50.7252 62.2823 51.6868ZM56.7107 51.6868C56.6669 52.494 56.8944 53.2926 57.3572 53.9554C57.5833 54.2108 57.861 54.4153 58.1721 54.5554C58.4831 54.6955 58.8204 54.7679 59.1615 54.7679C59.5026 54.7679 59.8398 54.6955 60.1509 54.5554C60.4619 54.4153 60.7397 54.2108 60.9658 53.9554C61.4353 53.2958 61.6636 52.4948 61.6123 51.6868C61.6579 50.8794 61.4302 50.0802 60.9658 49.4182C60.7451 49.1525 60.4656 48.9419 60.1493 48.8032C59.833 48.6644 59.4888 48.6013 59.1439 48.6189C58.8024 48.6013 58.4615 48.6646 58.149 48.8034C57.8366 48.9423 57.5612 49.1529 57.3454 49.4182C56.88 50.0793 56.6559 50.8802 56.7107 51.6868Z" fill="#00587C"/>
<path d="M67.2542 55.3531C66.793 55.3852 66.3317 55.2931 65.9182 55.0863C65.5048 54.8796 65.1543 54.5658 64.9033 54.1777V54.7301C64.9033 55.0475 64.9033 55.4001 64.9033 55.7763V58.468H64.2803V48.2182H64.8327L64.9503 49.2173C65.1995 48.8273 65.5496 48.5121 65.9635 48.3052C66.3775 48.0982 66.8397 48.0072 67.3012 48.0418C67.7136 48.0178 68.126 48.0902 68.5055 48.2535C68.8851 48.4167 69.2213 48.6662 69.4875 48.9822C70.0318 49.7831 70.2925 50.743 70.228 51.7092C70.2897 52.6748 70.011 53.6314 69.4405 54.4128C69.1761 54.7309 68.8402 54.9819 68.4602 55.1454C68.0802 55.3088 67.6669 55.38 67.2542 55.3531ZM67.2542 54.7771C67.5787 54.7945 67.9025 54.7304 68.196 54.5908C68.4896 54.4512 68.7436 54.2405 68.935 53.9778C69.3666 53.3075 69.5726 52.5167 69.5228 51.721C69.5228 49.6522 68.7822 48.6178 67.2777 48.6178C66.9441 48.5885 66.6083 48.6345 66.2949 48.7525C65.9816 48.8705 65.6988 49.0575 65.4675 49.2996C65.0235 49.9464 64.8198 50.7282 64.8915 51.5094V51.7092C64.8241 52.5314 65.0174 53.354 65.444 54.0601C65.668 54.3104 65.947 54.5054 66.259 54.6298C66.571 54.7542 66.9076 54.8047 67.2424 54.7771H67.2542Z" fill="#00587C"/>
<path d="M76.6344 48.7243H74.2836V55.2246H73.6841V48.7243H71.2744V48.1719H76.6697L76.6344 48.7243Z" fill="#00587C"/>
<path d="M82.3591 55.2244L82.1945 54.1077C81.9074 54.5072 81.5337 54.8367 81.1014 55.0716C80.6866 55.2676 80.2318 55.3642 79.7731 55.3537C79.1881 55.392 78.611 55.2025 78.1628 54.8247C77.9636 54.6349 77.808 54.4043 77.7065 54.1486C77.6051 53.8929 77.5602 53.6183 77.575 53.3436C77.566 53.0241 77.6417 52.7079 77.7944 52.4271C77.9472 52.1463 78.1716 51.911 78.4449 51.745C79.1982 51.3145 80.0583 51.1067 80.9251 51.1456H82.2768V50.6871C82.3147 50.1461 82.1698 49.608 81.8654 49.1591C81.6998 48.979 81.4948 48.8397 81.2664 48.7521C81.038 48.6644 80.7925 48.6307 80.5489 48.6536C79.8373 48.6666 79.1395 48.8521 78.5154 49.1943L78.2685 48.6419C79.0002 48.2821 79.8041 48.0932 80.6194 48.0894C80.936 48.0638 81.2545 48.105 81.5542 48.2103C81.8539 48.3156 82.1281 48.4826 82.3591 48.7006C82.7836 49.2313 82.9896 49.904 82.9351 50.5813V55.2831L82.3591 55.2244ZM79.7614 54.7659C80.0874 54.7842 80.4137 54.7364 80.7208 54.6253C81.0278 54.5142 81.3092 54.3421 81.548 54.1194C81.7742 53.883 81.9485 53.602 82.0598 53.2943C82.1712 52.9867 82.217 52.6592 82.1945 52.3328V51.6393H80.9603C80.2274 51.6223 79.5013 51.7836 78.8445 52.1094C78.6681 52.2316 78.5204 52.3906 78.4115 52.5756C78.3026 52.7605 78.2353 52.9668 78.214 53.1804C78.1928 53.3939 78.2182 53.6095 78.2885 53.8122C78.3588 54.015 78.4723 54.2 78.6212 54.3545C78.9338 54.6339 79.3424 54.7813 79.7614 54.7659Z" fill="#00587C"/>
<path d="M0.00720049 19.7743C0.00720049 16.7181 0.877021 14.9667 2.60493 14.5435C3.2044 14.3907 3.78037 14.2614 4.34458 14.1556L5.81389 13.8735L5.93144 14.426L5.15564 14.5788C3.87441 14.8256 3.02808 15.002 2.61667 15.1313C2.31844 15.2211 2.04216 15.372 1.8054 15.5743C1.56863 15.7767 1.37657 16.0261 1.2414 16.3067C0.869859 17.1307 0.67755 18.0241 0.677196 18.928C1.05016 18.4549 1.5087 18.0562 2.02895 17.7525C2.44247 17.5225 2.90757 17.4012 3.38073 17.3999C3.75339 17.3798 4.12577 17.4444 4.46985 17.589C4.81392 17.7335 5.12075 17.9542 5.36723 18.2344C5.85614 18.9173 6.09672 19.7469 6.04899 20.5853C6.10679 21.5068 5.8268 22.4178 5.26143 23.1478C4.98178 23.4584 4.63584 23.702 4.24924 23.8607C3.86263 24.0194 3.44528 24.0891 3.02809 24.0647C2.58286 24.0776 2.14172 23.9764 1.74668 23.7707C1.35163 23.5649 1.01582 23.2615 0.771233 22.8892C0.217397 21.948 -0.0482377 20.865 0.00720049 19.7743ZM3.12213 23.5592C3.44281 23.5792 3.76362 23.5224 4.05798 23.3936C4.35235 23.2648 4.61178 23.0677 4.81477 22.8187C5.2437 22.1955 5.4507 21.4462 5.40249 20.6911C5.45051 19.9904 5.26895 19.293 4.8853 18.7046C4.69992 18.4791 4.46368 18.3008 4.196 18.1843C3.92832 18.0678 3.63683 18.0165 3.34546 18.0346C2.82292 18.0383 2.31412 18.2025 1.8879 18.5048C1.40993 18.8488 1.00948 19.2893 0.712457 19.7978C0.704063 20.4906 0.803196 21.1806 1.00632 21.8431C1.14546 22.3494 1.4368 22.8007 1.84089 23.1361C2.22199 23.4166 2.6842 23.5652 3.15739 23.5592H3.12213Z" fill="#00587C"/>
<path d="M13.8658 20.4784C13.9247 21.4493 13.6234 22.4077 13.0194 23.1702C12.7285 23.5021 12.3653 23.7626 11.9576 23.9318C11.55 24.101 11.109 24.1742 10.6686 24.1458C10.0924 24.1564 9.5253 24.0014 9.03468 23.6991C8.54945 23.3869 8.16874 22.9365 7.94153 22.4061C7.68184 21.7972 7.55365 21.1403 7.56538 20.4784C7.50641 19.5075 7.80776 18.5491 8.4117 17.7866C8.70863 17.4806 9.064 17.2373 9.45671 17.0711C9.84943 16.905 10.2715 16.8193 10.6979 16.8193C11.1244 16.8193 11.5464 16.905 11.9392 17.0711C12.3319 17.2373 12.6872 17.4806 12.9842 17.7866C13.5968 18.5462 13.9104 19.5036 13.8658 20.4784ZM8.29415 20.4784C8.2469 21.2842 8.47033 22.0827 8.9289 22.747C9.15608 23.0027 9.43485 23.2074 9.74686 23.3476C10.0589 23.4877 10.397 23.5602 10.7391 23.5602C11.0811 23.5602 11.4193 23.4877 11.7313 23.3476C12.0433 23.2074 12.3221 23.0027 12.5493 22.747C13.0078 22.0827 13.2312 21.2842 13.184 20.4784C13.2353 19.6704 13.007 18.8694 12.5375 18.2098C12.3211 17.9422 12.044 17.73 11.7292 17.591C11.4144 17.452 11.0709 17.3901 10.7273 17.4105C10.3855 17.39 10.0437 17.452 9.73074 17.5911C9.41779 17.7302 9.1428 17.9423 8.9289 18.2098C8.46352 18.8709 8.23942 19.6718 8.29415 20.4784Z" fill="#00587C"/>
<path d="M20.6953 24.0156H20.0606V17.5506H17.5569C17.4799 18.8637 17.3229 20.1709 17.0867 21.4649C16.9738 22.164 16.7263 22.8347 16.3579 23.4396C16.2338 23.6382 16.0602 23.801 15.8541 23.9123C15.648 24.0236 15.4166 24.0794 15.1825 24.0744C15.0342 24.0935 14.8841 24.0935 14.7358 24.0744V23.4866C14.8528 23.503 14.9715 23.503 15.0885 23.4866C15.5821 23.4866 15.97 22.9694 16.2639 21.935C16.6548 20.3042 16.8832 18.6387 16.9457 16.9629H20.6601L20.6953 24.0156Z" fill="#00587C"/>
<path d="M25.9139 24.1462C25.4672 24.172 25.0202 24.1003 24.604 23.9358C24.1879 23.7714 23.8126 23.5183 23.5042 23.1941C22.8964 22.4468 22.5903 21.4991 22.6461 20.5375C22.601 19.5667 22.8962 18.6105 23.4807 17.834C23.7513 17.5034 24.0948 17.24 24.4844 17.0646C24.874 16.8892 25.2989 16.8065 25.7258 16.8231C26.0977 16.8083 26.4681 16.879 26.8084 17.0298C27.1487 17.1806 27.4499 17.4075 27.6888 17.693C28.202 18.3652 28.4565 19.1996 28.4058 20.0439V20.561H23.3279C23.2763 21.3581 23.5142 22.147 23.9979 22.7826C24.2413 23.0432 24.5393 23.2468 24.8705 23.3789C25.2017 23.511 25.558 23.5682 25.9139 23.5467C26.2683 23.5523 26.6225 23.5247 26.9718 23.4644C27.3747 23.382 27.7684 23.26 28.1472 23.1V23.6877C27.796 23.8427 27.4297 23.9609 27.0541 24.0404C26.6778 24.1086 26.2963 24.144 25.9139 24.1462ZM25.7258 17.3991C25.4195 17.3863 25.1141 17.4396 24.8301 17.5552C24.5462 17.6708 24.2905 17.846 24.0802 18.0691C23.6314 18.6174 23.379 19.3002 23.3632 20.0086H27.7241C27.7634 19.3254 27.5776 18.6482 27.1951 18.0809C27.0232 17.8573 26.7998 17.6786 26.544 17.5599C26.2882 17.4412 26.0075 17.386 25.7258 17.3991Z" fill="#00587C"/>
<path d="M33.2016 24.1462C32.7646 24.1636 32.329 24.0876 31.9236 23.9234C31.5183 23.7593 31.1525 23.5107 30.8507 23.1941C30.2377 22.4497 29.9309 21.5 29.9927 20.5376C29.9475 19.5668 30.2427 18.6106 30.8272 17.8341C31.0954 17.5037 31.4368 17.2403 31.8245 17.0648C32.2121 16.8893 32.6354 16.8066 33.0606 16.8232C33.4343 16.8075 33.8067 16.8777 34.1491 17.0285C34.4915 17.1793 34.7946 17.4066 35.0353 17.693C35.5402 18.3695 35.7938 19.2008 35.7523 20.0439V20.5611H30.6626C30.6154 21.3595 30.8575 22.1482 31.3444 22.7827C31.586 23.0424 31.882 23.2455 32.2111 23.3776C32.5403 23.5096 32.8946 23.5674 33.2486 23.5468C33.6031 23.5528 33.9573 23.5253 34.3065 23.4645C34.7089 23.3799 35.1024 23.2579 35.482 23.1001V23.6878C35.1274 23.8446 34.7569 23.9629 34.3771 24.0404C33.9893 24.1113 33.5958 24.1468 33.2016 24.1462ZM33.0135 17.3992C32.7089 17.3858 32.405 17.4388 32.1229 17.5545C31.8408 17.6702 31.5872 17.8458 31.3797 18.0692C30.9309 18.6175 30.6784 19.3003 30.6626 20.0087H35.0236C35.0629 19.3255 34.8771 18.6483 34.4946 18.0809C34.3202 17.8572 34.0947 17.6786 33.837 17.5599C33.5793 17.4413 33.2969 17.3862 33.0135 17.3992Z" fill="#00587C"/>
<path d="M56.0522 44.2466H25.4906V37.8052L36.4458 26.7325C39.69 23.406 41.8175 21.1021 42.8049 19.8209C43.6813 18.7503 44.4052 17.5636 44.956 16.2945C45.3907 15.2147 45.6142 14.0615 45.6142 12.8975C45.6712 12.1792 45.5715 11.4572 45.3218 10.7814C45.0722 10.1055 44.6786 9.49197 44.1684 8.98324C43.0856 8.08639 41.7053 7.62909 40.3012 7.702C38.5909 7.709 36.9053 8.11129 35.3761 8.87745C33.5883 9.77929 31.9151 10.8921 30.3922 12.1922L25.373 6.24445C27.0201 4.77403 28.8121 3.47439 30.7213 2.36548C32.1824 1.59195 33.7342 1.00361 35.3408 0.614064C37.1835 0.192228 39.0692 -0.0129108 40.9595 0.00282707C43.4501 -0.0429205 45.9197 0.467054 48.1885 1.49565C50.1674 2.41208 51.8523 3.86095 53.0548 5.68023C54.2201 7.51613 54.8209 9.65367 54.7827 11.8278C54.7964 13.7667 54.4373 15.6902 53.7248 17.4935C52.8942 19.4487 51.7857 21.2738 50.4336 22.9123C48.008 25.729 45.3882 28.3723 42.5933 30.823L36.9865 36.1008V36.524H56.0522V44.2466Z" fill="#00587C"/>
</svg>
