<?xml version="1.0" encoding="UTF-8"?><svg id="Layer_1" xmlns="http://www.w3.org/2000/svg" viewBox="0 0 165 89"><defs><style>.cls-1{fill:#fff;}.cls-2{fill:#00587c;}</style></defs><rect class="cls-1" width="165" height="89.000000000000909"/><g><path class="cls-2" d="m74.293334343505194,29.263240815723293c0,9.035398483276367-1.480903625488281,15.723001480102539-4.442703247070312,20.062601089477539s-7.516998291015625,6.5093994140625-13.665603637695312,6.5093994140625c-5.961097717285156,0-10.460098266601562-2.240100860595703-13.496894836425781-6.720298767089844-3.036800384521484-4.480201721191406-4.550502777099609-11.097400665283203-4.541103363037109-19.851701736450195,0-9.129098892211914,1.476200103759766-15.854100227355957,4.428699493408203-20.174989700317383,2.952400207519531-4.320879936218262,7.488899230957031-6.481319449841976,13.609298706054688-6.481319449841976,5.961105346679688,0,10.469505310058594,2.263539336621761,13.525001525878906,6.790619395673275,3.05560302734375,4.527089595794678,4.583305358886719,11.148990154266357,4.583305358886719,19.865689754486084Zm-25.306602478027344,0c0,6.354799270629883.548301696777344,10.900598526000977,1.6448974609375,13.63749885559082.334098815917969,1.204601287841797,1.060104370117188,2.263603210449219,2.063301086425781,3.009601593017578,1.003097534179688.745998382568359,2.226203918457031,1.136501312255859,3.476097106933594,1.109798431396484,2.549400329589844,0,4.386505126953125-1.405998229980469,5.511199951171875-4.217800140380859,1.124702453613281-2.811897277832031,1.691802978515625-7.338897705078125,1.701202392578125-13.581298828125,0-6.345399856567383-.571800231933594-10.900599479675293-1.715301513671875-13.665499687194824-1.1387939453125-2.81190013885498-2.980499267578125-4.217820167541504-5.497100830078125-4.217820167541504-1.258094787597656-.01476001739502-2.484695434570312.392749786376953-3.483795166015625,1.157380104064941-.999198913574219.764639854431152-1.713005065917969,1.842240333557129-2.02740478515625,3.060440063476562-1.096694946289062,2.802399635314941-1.649696350097656,7.371699333190918-1.659095764160156,13.707699775695801h-.013999938964844Z"/><path class="cls-2" d="m38.2591317678216,55.441442491138332H1.705031731200506v-7.704502105712891l13.103298187255859-13.243799209594727c3.880302429199219-3.978700637817383,6.424999237060547-6.734399795532227,7.606002807617188-8.266799926757812,1.048198699951172-1.280500411987305,1.913997650146484-2.699899673461914,2.572898864746094-4.217800140380859.5198974609375-1.291500091552734.787200927734375-2.670900344848633.787300109863281-4.06309986114502.068099975585938-.859100341796875-.051200866699219-1.722700119018555-.349800109863281-2.531100273132324-.298599243164062-.808300018310547-.769302368164062-1.542200088500977-1.379501342773438-2.150599479675293-1.295200347900391-1.072750091552734-2.946098327636719-1.619709968566895-4.625499725341797-1.532510757446289-2.045700073242188.008379936218262-4.061798095703125.489540100097656-5.890800476074219,1.405910491943359-2.138298034667969,1.078700065612793-4.139598846435547,2.409799575805664-5.961198806762695,3.964699745178223L1.564431526732733,9.987891198718899c1.970098495483398-1.758739948272705,4.113399505615234-3.313210010528564,6.396999359130859-4.639560222625732,1.747499465942383-.925199866294861,3.603601455688477-1.628899931907654,5.525300979614258-2.094821929931641,2.203998565673828-.504547983407974,4.459400177001953-.74991028290242,6.720298767089844-.731086583342403,2.979000091552734-.054717598948628,5.93280029296875.555251629557461,8.646400451660156,1.785528631415218,2.367000579833984,1.096130013465881,4.382301330566406,2.829089999198914,5.820598602294922,5.005090117454529,1.393699645996094,2.195879459381104,2.112300872802734,4.752500057220459,2.066699981689453,7.353000164031982.016399383544922,2.319100379943848-.413200378417969,4.61970043182373-1.265296936035156,6.776598930358887-.993503570556641,2.338600158691406-2.319400787353516,4.521501541137695-3.936603546142578,6.481300354003906-2.901199340820312,3.368900299072266-6.034698486328125,6.530601501464844-9.377498626708984,9.461799621582031l-6.706298828125,6.312599182128906v.506202697753906h22.804100036621094v9.236900329589844Z"/><path class="cls-2" d="m38.2591317678216,55.441442491138332H1.705031731200506v-7.704502105712891l13.103298187255859-13.243799209594727c3.880302429199219-3.978700637817383,6.424999237060547-6.734399795532227,7.606002807617188-8.266799926757812,1.048198699951172-1.280500411987305,1.913997650146484-2.699899673461914,2.572898864746094-4.217800140380859.5198974609375-1.291500091552734.787200927734375-2.670900344848633.787300109863281-4.06309986114502.068099975585938-.859100341796875-.051200866699219-1.722700119018555-.349800109863281-2.531100273132324-.298599243164062-.808300018310547-.769302368164062-1.542200088500977-1.379501342773438-2.150599479675293-1.295200347900391-1.072750091552734-2.946098327636719-1.619709968566895-4.625499725341797-1.532510757446289-2.045700073242188.008379936218262-4.061798095703125.489540100097656-5.890800476074219,1.405910491943359-2.138298034667969,1.078700065612793-4.139598846435547,2.409799575805664-5.961198806762695,3.964699745178223L1.564431526732733,9.987891198718899c1.970098495483398-1.758739948272705,4.113399505615234-3.313210010528564,6.396999359130859-4.639560222625732,1.747499465942383-.925199866294861,3.603601455688477-1.628899931907654,5.525300979614258-2.094821929931641,2.203998565673828-.504547983407974,4.459400177001953-.74991028290242,6.720298767089844-.731086583342403,2.979000091552734-.054717598948628,5.93280029296875.555251629557461,8.646400451660156,1.785528631415218,2.367000579833984,1.096130013465881,4.382301330566406,2.829089999198914,5.820598602294922,5.005090117454529,1.393699645996094,2.195879459381104,2.112300872802734,4.752500057220459,2.066699981689453,7.353000164031982.016399383544922,2.319100379943848-.413200378417969,4.61970043182373-1.265296936035156,6.776598930358887-.993503570556641,2.338600158691406-2.319400787353516,4.521501541137695-3.936603546142578,6.481300354003906-2.901199340820312,3.368900299072266-6.034698486328125,6.530601501464844-9.377498626708984,9.461799621582031l-6.706298828125,6.312599182128906v.506202697753906h22.804100036621094v9.236900329589844Z"/><g><path class="cls-2" d="m11.105701197630879,69.62226712771735c0,1.662530673617766-.421890174895452,2.96217713192982-1.2656705246809,3.898944247457621-.843780349793633.930510827155558-2.009569523044775,1.395707770742774-3.49710927733031,1.395707770742774-.918760796464994,0-1.734441446084929-.213951419159457-2.447044385117806-.641971197459497-.712476254056128-.428019778291855-1.26248147426486-1.042276202979338-1.650013224374561-1.842496414139532-.387531750109702-.800229956154908-.581296407042828-1.736997071682708-.581296407042828-2.810184406601365,0-1.662525801108131.418825373194522-2.955915971058857,1.256349434618642-3.880297194812556.837521625168847-.930510827155558,2.000116875507047-1.395702898253148,3.487656629790763-1.395702898253148,1.437596642312201,0,2.578224232132925.474518033658569,3.422004581918372,1.423675913448278.850041510662777.949157879791528,1.275123172218628,2.233226959669992,1.275123172218628,3.852324179617426Zm-7.828546256904701,0c0,1.302716132522619.262483942750805,2.295307465971746.787580949458061,2.977759382863042.524967885494334.68233497692745,1.296837462800795,1.023497592888816,2.315737853138671,1.023497592888816,1.018771269123135,0,1.79064328268214-.338092941761715,2.315737853135033-1.014298315289125.531229046364388-.682334976925631.796906912029044-1.677981367080065.796906912029044-2.986958660462733,0-1.296454971652565-.265677865664657-2.279715470031988-.796906912029044-2.949786367664274-.525094570452893-.676073816058306-1.303227744879223-1.014171630318742-2.334514026983015-1.014171630318742-1.018771269124954,0-1.787576044727757.331841525897289-2.306414326819322.995651262651336-.518711597123001.663683051798216-.778128301929428,1.653204711044964-.778128301929428,2.96830673533168Z"/><path class="cls-2" d="m18.474809804436518,65.732775527800186h-2.615776579833437v8.99804340168339h-1.55638328880741v-8.99804340168339h-1.837521592948178v-.697917227858852l1.837521592948178-.558305521790317v-.567631484362209c0-2.506184338430103,1.10319705458005-3.759337413883259,3.309600908756693-3.759337413883259.543746495584855,0,1.181244739215799.108569016666479,1.912621415840476.32571192249361l-.403243122261301,1.237570824519025c-.599945895930432-.192361377293309-1.112523017151034-.288412944727497-1.537477993751963-.288412944727497-.5875551316567,0-1.021967628281345.195299494028404-1.303227744878313.586151852027797-.281260116599697.384591197120244-.421890174898181,1.004977225214134-.421890174898181,1.861021654302021v.660744935064031h2.615776579833437v1.200403404215649Z"/><path class="cls-2" d="m29.678487205496822,74.916919145917745c-1.518835813615624,0-2.718854290432319-.45905759519701-3.600186987921006-1.377182530580285-.875076409122812-.918124935389642-1.312553707450206-2.192863180208406-1.312553707450206-3.824351164421387,0-1.644010305947631.406307923966779-2.949791240162995,1.21879708691722-3.917596172586855.818745451322684-.967683119945832,1.915691090041037-1.451522243677573,3.290827171156707-1.451522243677573,1.287513936484174,0,2.306285205609129.421763489928708,3.056313807364859,1.265417154754687.750028601759368.83752406142321,1.125045338881137,1.944814014939766,1.125045338881137,3.32199654552096v.977130894984839h-7.07839584267731c.031164501873718,1.197207045051982.334394715230701,2.106006017880645.909437270155649,2.726392045972716.581293970796651.620376283086443,1.39684793545257.93050108215175,2.446915263908522.93050108215175,1.106393413746446,0,2.200142693297494-.229523925097055,3.281501208583904-.688581520295884v1.377172785584662c-.550129468923842.235789958464011-1.072032552716337.403247994761841-1.565709251379303.502491048864613-.487542222760567.105509087463361-1.078167028616917.158132073727757-1.771991357540173.158132073727757Zm-.421895047395083-9.277261941316283c-.825001739685831,0-1.484470080086794.266701090394236-1.978273463704681.800229956154908-.487547095261107.53352399326468-.775063500229408,1.271673443117834-.862558959895068,2.214701719506593h5.372178345470275c0-.973939408318984-.218799555404075-1.718345146542561-.656271981224563-2.233226959669082-.437472425829583-.521133228992767-1.062584777685515-.781704715992419-1.875073940645962-.781704715992419Z"/><path class="cls-2" d="m38.594526453582148,69.510633309351761l-3.572087287757313-4.978261185767224h1.771991357552906l2.709528327860426,3.908143525048217,2.700207237798168-3.908143525048217h1.753212747443285l-3.572082415247678,4.978261185767224,3.759590783817657,5.220185620131815h-1.762670267477915l-2.878258086333517-4.131420906779567-2.906357786496301,4.131420906779567h-1.762670267477915l3.759595656318197-5.220185620131815Z"/><path class="cls-2" d="m50.970122631292725,74.916919145917745c-.668789430462311,0-1.28126252061702-.120964653428018-1.837516720446729-.362884215292979-.550007656455819-.248049165261364-1.012514980752712-.626515631495749-1.387658402845773-1.13526296872169h-.112403673167137c.074982882933.595604499564615.112403673167137,1.160044497255512.112403673167137,1.693573363010728v4.196683154753373h-1.556256603849761v-14.77665635608264h1.265670524691814l.215608068723668,1.395698025747151h.074978010434279c.400051635594536-.558305521792136.865755319051459-.961548644054346,1.396974620421133-1.20959780931571.531355731321128-.248175850237203,1.140759147277095-.372205305364332,1.828200502871368-.372205305364332,1.362613759388296,0,2.412685960331146.46212726939666,3.150197112859132,1.38650849314854.743767440888405.924249666288233,1.115714503821437,2.220831322908452,1.115714503821437,3.889491599917164,0,1.674921437879675-.37820335129436,2.977759382863042-1.134493113921053,3.9082702100186-.75003347425536.924254538785135-1.793839641842169,1.386381808181795-3.131418502759516,1.386381808181795Zm-.224934031292833-9.258610016183411c-1.050062455959051,0-1.809548577742135.288412944727497-2.278312190403085.865365519162879-.468773357667487.576957446921369-.709406579867391,1.495077509805924-.721928901596584,2.754365061157841v.344227417662296c0,1.433001876012895.240642967195527,2.459695828069925.721928901596584,3.080072111164554.481285934390144.614129739721648,1.253284632915893.921184864587303,2.315732980638131.921184864587303.887593858355103,0,1.581427932273982-.356744866894587,2.081356046801375-1.070117660718097.506320832859274-.713372793828057.759486121793998-1.696628419718763.759486121793998-2.949659682698439,0-1.271805000583299-.253165288934724-2.245739536402652-.759486121793998-2.921940037429522-.499928114527393-.68233497692745-1.206274765188937-1.023497592888816-2.118776837036421-1.023497592888816Z"/><path class="cls-2" d="m66.178779938392836,69.62226712771735c0,1.662530673617766-.421899919891075,2.96217713192982-1.265680269678342,3.898944247457621-.843780349791814.930510827155558-2.009564650546963,1.395707770742774-3.497109277328491,1.395707770742774-.918758360218817,0-1.734434137343669-.213951419159457-2.447037076366541-.641971197459497-.712476254056128-.428019778291855-1.262483910519222-1.042276202979338-1.65001322437638-1.842496414139532-.387539058859147-.800229956154908-.581298843295372-1.736997071682708-.581298843295372-2.810184406601365,0-1.662525801108131.41882050069853-2.955915971058857,1.25634456212174-3.880297194812556.837524061424119-.930510827155558,2.000121748003949-1.395702898253148,3.487656629790763-1.395702898253148,1.437601514809103,0,2.578224232132015.474518033658569,3.422004581918372,1.423675913448278.850046383159679.949157879791528,1.27513291721425,2.233226959669992,1.27513291721425,3.852324179617426Zm-7.828556001900324,0c0,1.302716132522619.262491251492975,2.295307465971746.787580949458061,2.977759382863042.524972757993964.68233497692745,1.29684477155206,1.023497592888816,2.315742725633754,1.023497592888816,1.018771269124954,0,1.790643282683959-.338092941761715,2.31573298063995-1.014298315289125.531229046362569-.682334976925631.796906912029044-1.677981367080065.796906912029044-2.986958660462733,0-1.296454971652565-.265677865666476-2.279715470031988-.796906912029044-2.949786367664274-.525089697955991-.676073816058306-1.303217999885419-1.014171630318742-2.334511590736838-1.014171630318742-1.018771269115859,0-1.787573608475213.331841525897289-2.306416763065499.995651262651336-.518706724627009.663683051798216-.778128301929428,1.653204711044964-.778128301929428,2.96830673533168Z"/><path class="cls-2" d="m72.952882514192424,64.346267034651646c.456251035930109,0,.865755319060554.037172292799369,1.228249734455858.11163869086522l-.215608068732763,1.432997003514174c-.425086534063666-.093113450701821-.800093526192541-.139606833563448-1.125167151350979-.139606833563448-.831267773060063,0-1.543744027118919.335033012566782-2.137555447146042,1.00497722522141-.587555131658519.669939340157725-.88133756998468,1.504398599880915-.88133756998468,2.503114664235v5.471431144559574h-1.556256603849761v-10.198446805899039h1.28444913479052l.178060593520058,1.888989797009344h.075104695401933c.38127302549583-.663809736755866.840583990628147-1.175621875682737,1.378069325352044-1.535436416776975.537612019695189-.359814541103333,1.128236825551539-.539658469165261,1.771991357543811-.539658469165261Z"/><path class="cls-2" d="m80.25826679610509,73.642176028600261c.275003828226545,0,.540681693891202-.018651925131053.796906912017221-.055819345430791.256225218129657-.043423708663795.4594376501027-.086857162331398.609393670962163-.130280871002469v1.181756351594231c-.16873463095817.080591128959895-.418830245693243.145736436954394-.750023729260647.19542617899242-.32507362515662.055809600428802-.618729378524222.083660803164094-.881337569982861.083660803164094-1.987599426275665,0-2.98133579693058-1.039079843822947-2.98133579693058-3.117239531456107v-6.066904086661452h-1.471962375849216v-.744537295689042l1.471962375849216-.641971197459497.656267108724933-2.177407614235563h.899989495115733v2.363512703168453h2.981462481899143v1.200403404215649h-2.981462481899143v6.001758778657859c0,.614246679692769.146886346668907,1.085699911651318.440668784996888,1.414476635847677.293772693330538.328776724196359.696894003122907.493165086294539,1.209471124357151.493165086294539Z"/></g><path class="cls-2" d="m74.216330864501288,44.74444008024966h3.28900146484375l2.077995300292969,6.162799835205078c.177001953125.535701751708984.298004150390625,1.169300079345703.364006042480469,1.900802612304688h.058998107910156c.071998596191406-.672801971435547.212997436523438-1.306400299072266.422996520996094-1.900802612304688l2.03900146484375-6.162799835205078h3.220001220703125l-4.657997131347656,12.3551025390625c-.427001953125,1.143096923828125-1.037002563476562,1.998798370361328-1.832000732421875,2.567096710205078-.787002563476562.568302154541016-1.709999084472656.852401733398438-2.766502380371094.852401733398438-.518600463867188,0-1.027297973632812-.055500030517578-1.526199340820312-.166599273681641v-2.371101379394531c.361000061035156.084999084472656.754898071289062.127399444580078,1.181602478027344.127399444580078.531700134277344,0,.994499206542969-.163299560546875,1.388099670410156-.489898681640625.4010009765625-.319999694824219.712997436523438-.80670166015625.935997009277344-1.45989990234375l.177001953125-.538898468017578-4.372001647949219-10.875602722167969Z"/><path class="cls-2" d="m91.832328178954413,46.664739610278957c-.637001037597656,0-1.135993957519531.202503204345703-1.496994018554688.607501983642578-.361000061035156.39849853515625-.568000793457031.966697692871094-.620002746582031,1.704898834228516h4.213996887207031c-.01300048828125-.738201141357422-.20599365234375-1.306400299072266-.58099365234375-1.704898834228516-.374000549316406-.404998779296875-.879005432128906-.607501983642578-1.516006469726562-.607501983642578Zm.423004150390625,9.229701995849609c-1.772003173828125,0-3.156997680664062-.486598968505859-4.154998779296875-1.45989990234375s-1.497001647949219-2.35150146484375-1.497001647949219-4.134700775146484c0-1.835498809814453.459999084472656-3.252899169921875,1.378997802734375-4.252300262451172.925003051757812-1.005901336669922,2.202003479003906-1.508899688720703,3.830001831054688-1.508899688720703,1.555999755859375,0,2.766998291015625.440898895263672,3.634002685546875,1.322700500488281.865997314453125.881797790527344,1.299995422363281,2.099998474121094,1.299995422363281,3.654598236083984v1.450099945068359h-7.099998474121094c.032997131347656.849201202392578.286003112792969,1.512203216552734.758003234863281,1.989002227783203.472999572753906.476799011230469,1.135993957519531.715297698974609,1.988998413085938.715297698974609.662994384765625,0,1.290000915527344-.068599700927734,1.880996704101562-.205799102783203.59100341796875-.137199401855469,1.208000183105469-.355998992919922,1.850997924804688-.656497955322266v2.312297821044922c-.524993896484375.261299133300781-1.08599853515625.454002380371094-1.683998107910156.578102111816406-.597000122070312.130699157714844-1.325996398925781.195999145507812-2.185997009277344.195999145507812Z"/><path class="cls-2" d="m106.179328301024725,55.698442460620754l-.58099365234375-1.489299774169922h-.079010009765625c-.504997253417969.633598327636719-1.026992797851562,1.074497222900391-1.565994262695312,1.322799682617188-.530998229980469.241600036621094-1.226997375488281.362499237060547-2.086997985839844.362499237060547-1.056999206542969,0-1.890998840332031-.300498962402344-2.500999450683594-.901401519775391-.60400390625-.600997924804688-.906005859375-1.456600189208984-.906005859375-2.567100524902344,0-1.162696838378906.407005310058594-2.018398284912109,1.221000671386719-2.566997528076172.819999694824219-.555301666259766,2.055000305175781-.862300872802734,3.702003479003906-.921001434326172l1.910995483398438-.058799743652344v-.480098724365234c0-1.110500335693359-.571998596191406-1.665702819824219-1.713996887207031-1.665702819824219-.878997802734375,0-1.913002014160156.264602661132812-3.101997375488281.793701171875l-.994003295898438-2.018398284912109c1.266998291015625-.659702301025391,2.672004699707031-.989601135253906,4.214004516601562-.989601135253906,1.476997375488281,0,2.610000610351562.320098876953125,3.397994995117188.960201263427734.787002563476562.640098571777344,1.180999755859375,1.613399505615234,1.180999755859375,2.9197998046875v7.299400329589844h-2.097000122070312Zm-.886001586914062-5.075302124023438l-1.161994934082031.039199829101562c-.873001098632812.026100158691406-1.523002624511719.182899475097656-1.950004577636719.470302581787109-.426994323730469.287399291992188-.639999389648438.724998474121094-.639999389648438,1.312896728515625,0,.842601776123047.486000061035156,1.263900756835938,1.457000732421875,1.263900756835938.695999145507812,0,1.250999450683594-.199199676513672,1.66400146484375-.597599029541016.420997619628906-.39849853515625.630996704101562-.927600860595703.630996704101562-1.587299346923828v-.901401519775391Z"/><path class="cls-2" d="m117.522330620360663,44.538640977466457c.406997680664062,0,.7449951171875.029399871826172,1.014999389648438.088199615478516l-.227005004882812,2.802200317382812c-.242996215820312-.065299987792969-.537994384765625-.097999572753906-.886001586914062-.097999572753906-.958999633789062,0-1.706985473632812.244998931884766-2.2449951171875.734798431396484-.531997680664062.489902496337891-.798004150390625,1.175800323486328-.798004150390625,2.057601928710938v5.575000762939453h-3.00299072265625v-10.954002380371094h2.274993896484375l.443008422851562,1.842002868652344h.146987915039062c.342010498046875-.614002227783203.801010131835938-1.107200622558594,1.379013061523438-1.479503631591797.583999633789062-.378898620605469,1.217987060546875-.56829833984375,1.899993896484375-.56829833984375Z"/><path class="cls-2" d="m128.216330864501288,52.445539476001613c0,1.123500823974609-.393997192382812,1.979202270507812-1.1820068359375,2.567100524902344-.780990600585938.587802886962891-1.952987670898438.881801605224609-3.514999389648438.881801605224609-.800994873046875,0-1.483993530273438-.055500030517578-2.047988891601562-.166599273681641-.56500244140625-.104499816894531-1.093002319335938-.261302947998047-1.585006713867188-.470302581787109v-2.469097137451172c.557998657226562.261299133300781,1.184005737304688.480098724365234,1.8800048828125.656497955322266.7030029296875.176399230957031,1.319992065429688.264499664306641,1.85198974609375.264499664306641,1.089004516601562,0,1.634002685546875-.313499450683594,1.634002685546875-.940597534179688,0-.235099792480469-.071990966796875-.424503326416016-.216995239257812-.568202972412109-.143997192382812-.150299072265625-.39300537109375-.316799163818359-.748001098632812-.499698638916016-.35400390625-.189498901367188-.826995849609375-.408298492431641-1.417999267578125-.656501770019531-.847000122070312-.352699279785156-1.470001220703125-.679298400878906-1.871002197265625-.97979736328125-.393997192382812-.300399780273438-.681991577148438-.643402099609375-.865997314453125-1.028800964355469-.177001953125-.391899108886719-.266006469726562-.872001647949219-.266006469726562-1.440299987792969,0-.973201751708984.376998901367188-1.724399566650391,1.132003784179688-2.253498077392578.762008666992188-.535602569580078,1.837997436523438-.803401947021484,3.229995727539062-.803401947021484,1.326004028320312,0,2.616012573242188.287399291992188,3.870010375976562.862201690673828l-.906005859375,2.155597686767578c-.550994873046875-.235198974609375-1.067001342773438-.427898406982422-1.546005249023438-.578098297119141-.478988647460938-.150302886962891-.967987060546875-.22540283203125-1.466995239257812-.22540283203125-.886001586914062,0-1.330001831054688.2384033203125-1.330001831054688.715301513671875,0,.267799377441406.141998291015625.499698638916016.42401123046875.695598602294922.288986206054688.196002960205078.916000366210938.486701965332031,1.880996704101562.872001647949219.860000610351562.346199035644531,1.489990234375.669601440429688,1.889999389648438.970001220703125.4010009765625.300498962402344.695999145507812.646697998046875.886001586914062,1.038597106933594.190994262695312.391902923583984.285995483398438.859001159667969.285995483398438,1.401100158691406Z"/></g></svg>