<svg width="312" height="312" viewBox="0 0 312 312" fill="none" xmlns="http://www.w3.org/2000/svg">
<circle cx="156" cy="156" r="156" fill="url(#paint0_linear_5001_21635)"/>
<mask id="mask0_5001_21635" style="mask-type:alpha" maskUnits="userSpaceOnUse" x="0" y="0" width="311" height="311">
<rect width="311" height="311" rx="155.5" transform="matrix(-1 0 0 1 311 0)" fill="#25A9C9"/>
</mask>
<g mask="url(#mask0_5001_21635)">
<g style="mix-blend-mode:soft-light" opacity="0.4">
<path opacity="0.61" d="M2132.49 -394.654C2137.78 -419.206 2139.23 -444.339 2136.22 -469.237C2117.92 -607.585 1970.88 -687.781 1853.58 -732.025C1650.15 -808.679 1424.24 -827.634 1208.4 -824.78C960.768 -821.496 711.83 -787.307 473.052 -720.166C280.271 -666.016 85.1953 -592.399 -79.5974 -476.249C-177.969 -406.866 -295.058 -305.846 -302.041 -175.726C-309.179 -38.9194 -185.978 51.374 -74.2968 102.546C113.196 188.836 329.527 213.431 533.766 218.257C785.822 224.16 1039.86 195 1284.56 134.503C1486.39 84.6434 1687.36 13.6185 1864.35 -96.5404C1972.96 -164.274 2103.14 -262.044 2132.49 -394.654ZM1882.57 -154.614C1821.93 -106.976 1760.49 -72.4003 1688.21 -37.6458C1686.59 -36.8239 1685.38 -36.2075 1684.58 -35.7965L1680.94 -33.9473C1675.79 -31.5806 1670.64 -29.214 1665.49 -26.8474C1654.89 -22.2134 1644.59 -17.4803 1633.69 -12.9453C1611.77 -3.57087 1589.75 5.09521 1567.73 13.7613C1555 18.7144 1524.99 29.1596 1505.59 35.9836C1481.34 44.2603 1456.98 51.8287 1432.62 59.3972C1213.89 124.977 983.292 159.745 754.929 166.943C543.275 173.515 324.084 159.78 121.342 94.4665C1.54504 55.8124 -150.454 -10.1661 -193.916 -140.534C-229.516 -247.457 -161.873 -350.759 -87.1938 -418.757C33.3802 -528.413 177.784 -591.235 329.563 -642.561C541.567 -714.374 764.941 -753.851 988.182 -769.117C1207.68 -784.254 1435.13 -776.251 1648.75 -720.537C1728.51 -699.629 1807.41 -671.928 1878.61 -629.889C1932.11 -598.664 1982.23 -558.096 2012.91 -503.308C2025.83 -479.898 2034.42 -454.533 2037.85 -427.814C2051.11 -314.35 1963.66 -218.505 1882.57 -154.614Z" fill="white"/>
<path opacity="0.75" d="M1908.95 -292.567C1914.15 -315.802 1915.3 -340.021 1912.6 -363.807C1895.05 -496.183 1754.83 -572.477 1642.7 -615.035C1448.31 -688.411 1232.54 -706.425 1026.53 -703.742C790.032 -700.539 552.024 -667.845 324.061 -603.922C139.772 -552.06 -46.4145 -481.951 -204.153 -370.916C-298.19 -304.502 -410.045 -208.179 -416.561 -83.6341C-423.337 46.8895 -305.633 133.372 -199.236 182.151C-20.1796 264.347 186.625 288.2 381.542 292.687C622.252 298.266 865.055 270.503 1098.73 212.819C1291.36 165.355 1483.33 97.1296 1652.66 -8.11221C1756.74 -72.2678 1880.87 -165.943 1908.95 -292.567ZM1670.2 -63.0409C1612.28 -17.5495 1553.36 15.489 1484.61 48.6988C1483 49.5207 1481.89 49.8325 1481.08 50.2434C1480.27 50.6543 1479.06 51.2708 1477.54 51.7882C1472.8 53.9493 1467.65 56.3158 1462.9 58.4769C1453.01 63.0046 1442.81 67.4332 1432.61 71.8618C1411.81 80.9244 1390.9 89.2787 1369.38 97.4348C1357.06 102.182 1328.56 112.11 1309.97 118.523C1286.83 126.488 1263.59 133.745 1240.44 140.697C1031.31 203.676 810.932 237.054 592.797 243.875C390.662 250.177 180.997 237.184 -12.6066 174.845C-126.922 137.975 -272.418 74.7867 -313.812 -49.5184C-347.654 -151.49 -283.121 -250.414 -211.763 -315.451C-96.8273 -420.204 41.2166 -480.043 186.224 -529.193C388.829 -598.001 602.188 -635.685 815.407 -650.17C1024.88 -664.527 1242.41 -657.061 1446.38 -603.811C1522.39 -583.788 1598.04 -557.482 1666.18 -517.447C1717.04 -487.419 1765.43 -448.763 1794.56 -396.497C1807.18 -374.199 1815.05 -349.741 1818.57 -324.339C1831.39 -215.735 1747.66 -124.069 1670.2 -63.0409Z" fill="white"/>
<path d="M2147.77 -354.638C2153.06 -379.19 2154.51 -404.323 2151.49 -429.222C2132.89 -567.669 1986.16 -647.766 1868.86 -692.009C1665.43 -768.663 1439.51 -787.618 1223.68 -784.764C976.045 -781.481 727.108 -747.292 488.33 -680.151C295.548 -626 100.473 -552.383 -64.3201 -436.233C-162.691 -366.851 -279.781 -265.83 -286.764 -135.711C-293.901 1.09625 -170.701 91.3896 -59.0194 142.561C128.473 228.851 344.804 253.446 549.043 258.272C801.1 264.176 1055.14 235.015 1299.84 174.518C1501.66 124.659 1702.63 53.634 1879.62 -56.5248C1988.14 -123.954 2118.32 -221.724 2147.77 -354.638ZM1897.75 -114.294C1837.11 -66.656 1775.67 -32.0801 1703.39 2.67436C1701.77 3.49626 1700.56 4.11269 1699.75 4.52369L1696.12 6.37296C1690.97 8.73956 1685.82 11.1062 1680.67 13.4727C1670.07 18.1068 1659.77 22.84 1648.86 27.3749C1626.95 36.7494 1604.93 45.4154 1582.91 54.0816C1570.18 59.0346 1540.17 69.4798 1520.77 76.3038C1496.52 84.5806 1472.16 92.149 1447.8 99.7174C1228.87 165.907 998.371 200.37 770.009 207.568C558.354 214.14 339.163 200.405 136.422 135.091C16.6241 96.4373 -135.375 30.4588 -178.837 -99.9096C-214.436 -206.832 -146.793 -310.134 -72.1147 -378.132C48.4592 -487.788 192.863 -550.61 344.642 -601.936C556.646 -673.749 780.02 -713.226 1003.26 -728.492C1222.76 -743.629 1450.21 -735.626 1663.83 -679.912C1743.59 -659.005 1822.49 -631.304 1893.69 -589.264C1947.19 -558.04 1997.31 -517.471 2027.98 -462.683C2040.91 -439.273 2049.5 -413.908 2052.93 -387.189C2066.29 -274.03 1978.84 -178.185 1897.75 -114.294Z" fill="white"/>
<path opacity="0.44" d="M2053.65 -312.843C2059.35 -338.614 2060.88 -365.065 2057.66 -391.38C2038.3 -536.811 1883.64 -620.498 1760.65 -666.93C1547.78 -746.657 1312.03 -766.454 1086.68 -763.329C827.5 -759.761 566.925 -723.97 317.332 -653.612C118.182 -597.491 -82.7507 -521.401 -253.089 -401.666C-355.894 -329.01 -477.814 -223.498 -484.959 -87.7046C-492.259 54.7762 -363.258 148.979 -247.305 202.552C-157.979 243.753 -62.1792 269.206 34.1793 287.767C151.433 310.434 271.236 321.129 390.677 323.621C653.166 329.551 918.033 299.2 1172.95 236.3C1382.15 184.463 1590.7 110.852 1774.75 -3.40925C1843.53 -46.0403 1909.53 -95.6411 1964.11 -155.696C2004.51 -200.151 2040.09 -253.587 2053.65 -312.843ZM1801.57 -65.0898C1770.84 -41.0653 1743.12 -22.1272 1707.42 -0.397149C1698.24 5.03718 1690.67 9.64966 1686.54 12.009C1677.05 17.3442 1667.57 22.6793 1658.18 27.7099C1637.7 38.8975 1616.81 49.2777 1595.61 59.5588C1593.18 60.7917 1592.38 61.2025 1591.97 61.4081C1591.57 61.6135 1590.76 62.0246 1588.44 62.9528C1583.69 65.1139 1578.54 67.4805 1573.8 69.6416C1561.98 74.8921 1550.48 80.2417 1538.46 85.0885C1515.83 94.5692 1493.21 104.05 1470.18 112.723C1464.02 115.097 1452.9 119.228 1441.89 123.055C1428.86 127.909 1415.62 132.359 1402.68 136.908C1377.72 145.292 1352.46 153.576 1327.09 161.151C1097.75 230.352 856.423 267.02 617.025 275.005C394.031 282.266 162.883 268.008 -50.8227 199.126C-176.407 158.589 -335.723 89.218 -380.95 -47.1146C-418.412 -159.697 -346.25 -268.603 -267.343 -340.278C-240.975 -364.372 -210.449 -387.788 -184.845 -405.394C-148.05 -430.475 -117.892 -448.62 -82.0671 -467.615C-0.934134 -510.942 82.3881 -545.471 171.313 -575.482C394.735 -651.326 629.541 -692.81 864.83 -708.87C1094.96 -724.59 1333.05 -716.156 1557.12 -657.376C1640.64 -635.584 1723.4 -606.289 1797.75 -562.551C1853.39 -529.619 1906.26 -487.145 1938.07 -429.63C1951.41 -405.413 1960.3 -378.936 1963.74 -351.204C1977.74 -232.782 1886.48 -132.452 1801.57 -65.0898Z" fill="white"/>
<path opacity="0.8" d="M1982.94 -357.417C1987.74 -380.446 1988.9 -403.653 1986.3 -426.731C1968.84 -561.438 1829.01 -639.963 1714.84 -684.532C1624.55 -719.648 1529.58 -741.461 1433.96 -756.076C1319.38 -773.494 1203.15 -780.669 1087.07 -780.045C843.471 -778.817 598.677 -745.974 363.731 -681.292C183.578 -631.789 2.03801 -563.537 -151.975 -455.669C-245.714 -390.169 -352.399 -293.173 -358.114 -170.052C-364.183 -39.6347 -246.67 48.4704 -140.769 98.7718C-58.2419 138.096 30.6656 162.991 119.828 180.894C229.58 202.804 341.28 213.557 453.029 216.914C699.221 224.278 947.804 197.385 1187.26 139.559C1377.26 93.937 1567.63 28.559 1734.23 -75.5491C1795.45 -113.568 1853.99 -157.848 1902.13 -211.576C1939.71 -253.58 1971.08 -302.326 1982.94 -357.417ZM1815.14 -136.804C1750.57 -86.4032 1678.94 -45.3729 1605.04 -9.79649C1516.41 32.7733 1423.97 67.3675 1330.07 96.0965C1104.88 164.964 869.034 202.403 633.596 211.677C416.892 220.312 192.841 207.016 -15.5665 142.554C-91.3988 118.883 -166.877 87.916 -231.832 41.1724C-281.004 5.9661 -325.496 -40.5181 -344.446 -99.2388C-381.002 -212.537 -306.191 -319.233 -225.669 -391.73C-167.996 -443.702 -101.95 -486.213 -33.8348 -522.66C49.416 -567.318 137.08 -603.803 226.508 -634.324C443.76 -708.808 672.787 -751.162 901.588 -767.986C1127.56 -784.386 1360.88 -777.842 1581.48 -721.874C1663.27 -700.981 1744.81 -673.096 1817.83 -630.462C1872.76 -598.437 1925.52 -556.672 1957.02 -500.269C1969.94 -476.859 1978.63 -451.799 1981.76 -425.179C1996.57 -306.155 1902.28 -204.79 1815.14 -136.804Z" fill="white"/>
<path opacity="0.57" d="M1977.6 -295.487C1982.4 -318.517 1983.56 -341.723 1980.96 -364.801C1963.5 -499.508 1823.37 -578.132 1709.5 -622.603C1619.21 -657.719 1524.24 -679.531 1428.62 -694.147C1314.04 -711.565 1197.81 -718.74 1081.73 -718.116C838.131 -716.887 593.338 -684.044 358.391 -619.362C178.238 -569.86 -3.30184 -501.607 -157.315 -393.739C-251.054 -328.239 -357.739 -231.244 -363.454 -108.122C-369.523 22.2949 -252.01 110.4 -146.108 160.701C-63.5817 200.026 25.3258 224.921 114.488 242.824C224.241 264.733 335.94 275.486 447.689 278.844C693.881 286.207 942.465 259.314 1181.92 201.488C1371.92 155.867 1562.29 90.4887 1728.89 -13.6194C1790.11 -51.638 1848.65 -95.918 1896.79 -149.646C1933.97 -191.445 1965.74 -240.396 1977.6 -295.487ZM1809.8 -74.8748C1745.23 -24.4736 1673.6 16.5568 1599.7 52.1332C1511.07 94.703 1418.63 129.297 1324.73 158.026C1099.54 226.894 863.695 264.332 628.256 273.607C411.552 282.241 187.501 268.946 -20.9063 204.483C-96.7386 180.813 -172.217 149.846 -237.171 103.102C-286.344 67.8957 -330.835 21.4115 -349.786 -37.3092C-386.342 -150.607 -311.531 -257.303 -231.009 -329.8C-173.336 -381.773 -107.29 -424.283 -39.1746 -460.73C44.0761 -505.389 131.74 -541.873 221.168 -572.394C438.42 -646.878 667.447 -689.232 896.248 -706.057C1122.22 -722.456 1355.54 -715.912 1576.14 -659.945C1657.93 -639.051 1739.47 -611.167 1812.49 -568.533C1867.42 -536.507 1920.18 -494.742 1951.68 -438.339C1964.6 -414.93 1973.29 -389.869 1976.42 -363.249C1991.23 -244.225 1896.63 -142.96 1809.8 -74.8748Z" fill="white"/>
</g>
</g>
<g clip-path="url(#clip0_5001_21635)">
<path d="M83.2089 111.629C83.8398 109.28 84.1485 106.848 84.1256 104.406C84.1593 101.054 83.2396 97.7688 81.486 94.9764C79.6463 92.1013 77.0614 89.8488 74.0415 88.4891C70.6 86.9208 66.8822 86.1457 63.1355 86.2152C60.1867 86.1811 57.2453 86.535 54.3791 87.2685C51.8598 87.9331 49.4358 88.9508 47.1716 90.2949C44.243 92.1846 41.5049 94.3864 39 96.8657L48.3255 108.419C50.4408 106.417 52.7386 104.642 55.1851 103.119C57.0053 101.976 59.0752 101.354 61.1913 101.313C62.8078 101.206 64.4035 101.743 65.6644 102.818C66.1964 103.336 66.6139 103.971 66.8871 104.679C67.1603 105.388 67.2825 106.151 67.245 106.914C67.2492 108.29 66.98 109.652 66.4547 110.91C65.7016 112.551 64.7564 114.084 63.6412 115.475C62.2925 117.247 59.4263 120.558 55.0429 125.406L39.6955 141.825V153.646H69.7265C72.8513 148.26 76.5649 143.283 80.7906 138.816H61.5549V138.381C68.5199 131.771 73.0721 127.285 75.2111 124.922C77.1211 122.871 78.8412 120.631 80.348 118.234C81.5872 116.213 82.5504 114.018 83.2089 111.713" fill="white"/>
<path d="M93.1825 123.166C90.2823 122.458 87.4552 121.45 84.7422 120.156V134.836C88.699 131.062 92.9266 127.619 97.3868 124.537L98.0348 124.102C96.3808 123.882 94.7396 123.564 93.1193 123.149L93.1825 123.166ZM106.665 94.0733C105.071 94.2195 103.487 94.4708 101.923 94.8257L102.698 86.0478H124.051V71H88.172L85.8012 106.112L92.0286 109.456C94.8099 108.422 97.7275 107.858 100.674 107.784C103.46 107.554 106.239 108.306 108.577 109.924C109.424 110.627 110.1 111.534 110.548 112.569C110.997 113.605 111.204 114.738 111.154 115.876C111.154 116.11 111.154 116.327 111.154 116.545C116.542 113.928 122.173 111.911 127.955 110.526C127.598 108.28 126.911 106.108 125.916 104.088C124.383 100.941 122.023 98.3281 119.12 96.5645C116.141 94.7722 112.763 93.8544 109.336 93.9061C108.535 93.9061 107.661 93.9061 106.712 93.9061" fill="white"/>
<path d="M116.433 124.453V125.841H118.456V131.559H120.036V125.841H122.06V124.487H116.528L116.433 124.453ZM115.563 131.526V130.188H112.402V128.516H115.073V127.178H112.402V125.841H115.405V124.503H110.885V131.576H115.627L115.563 131.526ZM107.581 125.841V131.576H109.162V124.503H104.594C104.594 125.473 104.563 126.354 104.499 127.145C104.454 127.798 104.337 128.443 104.152 129.068C104.053 129.418 103.854 129.728 103.583 129.954C103.26 130.173 102.89 130.3 102.508 130.322L102.666 131.71C103.121 131.705 103.572 131.608 103.994 131.425C104.336 131.267 104.643 131.033 104.894 130.74C105.139 130.45 105.332 130.116 105.463 129.753C105.605 129.364 105.711 128.961 105.78 128.549C105.856 128.107 105.909 127.661 105.938 127.212C105.938 126.76 105.938 126.292 105.938 125.841H107.518H107.581Z" fill="white"/>
<path d="M146.544 142.396C146.976 141.582 147.439 140.785 147.935 140.005C148.421 139.227 148.948 138.479 149.515 137.765V142.396H151.001V135.324H149.816C149.605 135.547 149.368 135.82 149.104 136.143L148.314 137.196L147.524 138.35L146.781 139.504V135.324H145.28V142.396H146.544ZM139.052 142.396C139.484 141.582 139.948 140.785 140.443 140.005C140.928 139.227 141.457 138.479 142.024 137.765V142.396H143.51V135.324H142.277C142.071 135.541 141.834 135.825 141.581 136.143L140.791 137.196L140.001 138.35L139.257 139.504V135.324H137.756V142.396H139.021H139.052ZM134.548 138.032H131.955V135.324H130.375V142.396H131.955V139.403H134.484V142.396H136.065V135.324H134.484V138.032H134.548ZM126.107 137.347L126.328 137.965L126.597 138.734L126.897 139.621H125.001L125.317 138.751L125.601 137.982L125.823 137.363L125.965 136.945L126.123 137.363L126.107 137.347ZM129.379 142.379C129.126 141.621 128.889 140.919 128.667 140.273C128.446 139.626 128.225 139.019 128.004 138.45C127.783 137.882 127.567 137.324 127.356 136.778C127.145 136.232 126.929 135.73 126.708 135.273H125.285C125.064 135.764 124.848 136.265 124.637 136.778C124.426 137.291 124.216 137.848 124.005 138.45C123.784 139.019 123.562 139.626 123.341 140.273C123.12 140.919 122.883 141.621 122.63 142.379H124.21L124.448 141.627L124.7 140.858H127.213L127.466 141.627L127.703 142.379H129.284H129.379ZM115.96 135.307V142.379H117.54V136.661H120.038V142.379H121.618V135.307H116.118H115.96ZM107.425 135.307C107.425 135.775 107.298 136.31 107.251 136.879C107.203 137.447 107.156 138.066 107.109 138.701C107.061 139.336 107.109 139.955 106.998 140.59C106.887 141.226 106.998 141.811 106.903 142.379H108.373C108.373 141.688 108.373 140.941 108.373 140.139C108.373 139.336 108.42 138.517 108.515 137.681L108.895 138.634L109.321 139.671L109.717 140.657L110.048 141.476H111.107L111.439 140.657L111.834 139.671L112.261 138.634L112.641 137.681C112.704 138.506 112.751 139.325 112.783 140.139C112.814 140.953 112.814 141.699 112.783 142.379H114.253C114.253 141.828 114.253 141.226 114.158 140.59C114.063 139.955 114.158 139.32 114.047 138.701C113.937 138.082 113.952 137.464 113.905 136.879C113.858 136.293 113.794 135.775 113.731 135.307H112.356L111.961 136.143L111.487 137.213L110.997 138.383L110.538 139.52L110.08 138.383L109.59 137.213L109.116 136.143L108.721 135.307H107.282H107.425ZM105.433 137.246C105.274 136.814 105.032 136.421 104.722 136.093C104.42 135.781 104.059 135.542 103.663 135.39C103.247 135.232 102.809 135.153 102.367 135.156C101.936 135.155 101.507 135.234 101.102 135.39C100.707 135.544 100.346 135.783 100.043 136.093C99.7275 136.419 99.4798 136.812 99.3163 137.246C99.1188 137.778 99.0273 138.347 99.0476 138.918C99.0258 139.488 99.1118 140.056 99.3005 140.59C99.4593 141.023 99.7015 141.416 100.012 141.744C100.314 142.055 100.675 142.294 101.071 142.446C101.486 142.605 101.925 142.684 102.367 142.68C102.814 142.684 103.258 142.605 103.679 142.446C104.076 142.297 104.437 142.057 104.738 141.744C105.042 141.414 105.279 141.021 105.433 140.59C105.62 140.056 105.706 139.488 105.686 138.918C105.708 138.349 105.622 137.78 105.433 137.246ZM100.691 137.915C100.764 137.655 100.882 137.411 101.039 137.196C101.188 136.998 101.377 136.838 101.592 136.728C101.829 136.61 102.089 136.553 102.351 136.561C102.607 136.559 102.861 136.616 103.094 136.728C103.309 136.838 103.499 136.998 103.647 137.196C103.805 137.41 103.923 137.654 103.995 137.915C104.08 138.225 104.123 138.546 104.121 138.868C104.123 139.185 104.08 139.501 103.995 139.805C103.923 140.065 103.805 140.309 103.647 140.523C103.499 140.722 103.309 140.882 103.094 140.992C102.857 141.1 102.601 141.156 102.343 141.156C102.085 141.156 101.829 141.1 101.592 140.992C101.377 140.882 101.188 140.722 101.039 140.523C100.882 140.309 100.764 140.065 100.691 139.805C100.529 139.192 100.529 138.544 100.691 137.932V137.915ZM98.6367 142.413C98.1998 141.669 97.7193 140.954 97.1983 140.273C96.7242 139.662 96.1948 139.102 95.6178 138.601C96.1235 138.066 96.6082 137.508 97.0718 136.929C97.5355 136.349 97.9938 135.792 98.447 135.257H96.7083L95.6019 136.561L94.4165 137.915V135.257H92.8359V142.329H94.4165V139.336C94.6619 139.537 94.8943 139.755 95.1119 139.988C95.3438 140.234 95.565 140.496 95.7758 140.774C95.9813 141.042 96.1868 141.309 96.3764 141.577C96.5661 141.844 96.7242 142.095 96.8506 142.329H98.6367V142.413Z" fill="white"/>
<path d="M142.131 153.242C142.446 153.163 142.749 153.039 143.032 152.874L142.621 151.603L142.336 151.737L141.973 151.871L141.514 151.971H140.93C140.626 151.978 140.324 151.915 140.045 151.787C139.816 151.677 139.616 151.511 139.461 151.303C139.302 151.085 139.188 150.834 139.128 150.567C139.06 150.266 139.028 149.957 139.034 149.647C139.027 149.294 139.08 148.943 139.192 148.611C139.28 148.348 139.42 148.109 139.603 147.908C139.768 147.736 139.968 147.605 140.187 147.524C140.406 147.444 140.636 147.405 140.867 147.407C141.181 147.4 141.495 147.44 141.799 147.524C142.052 147.596 142.295 147.697 142.527 147.825L142.969 146.537L142.716 146.387L142.29 146.203L141.689 146.052C141.431 146.029 141.172 146.029 140.914 146.052C140.451 146.05 139.991 146.135 139.555 146.303C139.152 146.458 138.786 146.704 138.48 147.022C138.168 147.355 137.926 147.754 137.769 148.193C137.59 148.694 137.505 149.228 137.516 149.764C137.455 150.755 137.762 151.733 138.37 152.49C138.697 152.824 139.087 153.081 139.514 153.246C139.942 153.41 140.397 153.477 140.851 153.443C141.304 153.449 141.755 153.392 142.194 153.275L142.131 153.242ZM137.105 153.275C136.668 152.531 136.188 151.816 135.667 151.135C135.192 150.525 134.663 149.965 134.086 149.463C134.592 148.928 135.077 148.371 135.541 147.791C136.004 147.212 136.462 146.654 136.915 146.119H135.114L134.007 147.423L132.822 148.778V146.119H131.241V153.192H132.822V150.199C133.067 150.405 133.3 150.629 133.518 150.868C133.754 151.119 133.975 151.369 134.181 151.654C134.386 151.938 134.592 152.189 134.781 152.456C134.971 152.724 135.13 152.975 135.256 153.209H137.042L137.105 153.275ZM126.974 148.26L127.195 148.878L127.463 149.647L127.764 150.533H125.788L126.104 149.664L126.389 148.895L126.61 148.276L126.752 147.858L126.91 148.276L126.974 148.26ZM130.182 153.292C129.929 152.534 129.692 151.832 129.471 151.185C129.249 150.539 129.023 149.892 128.791 149.246C128.57 148.678 128.354 148.12 128.143 147.574C127.932 147.028 127.716 146.526 127.495 146.069H126.073C125.851 146.56 125.635 147.061 125.425 147.574C125.214 148.087 125.003 148.644 124.792 149.246C124.571 149.814 124.35 150.422 124.128 151.068C123.907 151.715 123.67 152.417 123.417 153.175H124.998L125.235 152.423L125.488 151.654H128.096L128.317 152.59L128.554 153.342H130.135L130.182 153.292ZM118.865 147.457H119.26H119.671C119.98 147.438 120.288 147.495 120.572 147.624C120.672 147.682 120.754 147.771 120.808 147.877C120.861 147.984 120.884 148.106 120.873 148.226C120.88 148.346 120.856 148.466 120.803 148.572C120.75 148.678 120.67 148.767 120.572 148.828C120.26 148.976 119.918 149.039 119.577 149.012H118.849V147.474L118.865 147.457ZM119.814 150.216C120.157 150.198 120.5 150.273 120.809 150.433C120.925 150.503 121.019 150.606 121.08 150.73C121.142 150.855 121.168 150.995 121.157 151.135C121.171 151.29 121.138 151.446 121.065 151.581C120.991 151.715 120.88 151.823 120.746 151.888C120.4 152.037 120.028 152.105 119.655 152.088H119.229H118.865V150.266H119.814V150.216ZM121.916 152.824C122.169 152.639 122.374 152.388 122.509 152.095C122.645 151.802 122.707 151.478 122.69 151.152C122.693 150.807 122.612 150.467 122.453 150.166C122.252 149.829 121.943 149.581 121.584 149.463C121.817 149.337 122.012 149.146 122.149 148.91C122.285 148.674 122.358 148.402 122.358 148.126C122.365 147.798 122.289 147.475 122.137 147.189C121.993 146.93 121.786 146.716 121.536 146.571C121.252 146.403 120.941 146.29 120.62 146.236C120.233 146.169 119.842 146.135 119.45 146.136H118.423C118.083 146.161 117.746 146.206 117.411 146.27V153.125C117.786 153.211 118.166 153.267 118.549 153.292H119.64C120.435 153.346 121.227 153.148 121.916 152.724V152.824ZM115.72 148.059C115.561 147.626 115.319 147.233 115.009 146.905C114.708 146.593 114.346 146.354 113.95 146.203C113.534 146.044 113.095 145.965 112.653 145.969C112.222 145.967 111.794 146.046 111.389 146.203C110.993 146.355 110.632 146.594 110.33 146.905C110.014 147.232 109.766 147.625 109.603 148.059C109.405 148.591 109.314 149.16 109.334 149.731C109.318 150.302 109.409 150.87 109.603 151.403C109.759 151.837 110.002 152.23 110.314 152.557C110.617 152.867 110.977 153.106 111.373 153.259C111.789 153.417 112.228 153.497 112.669 153.493C113.116 153.496 113.56 153.417 113.981 153.259C114.379 153.11 114.74 152.87 115.04 152.557C115.345 152.227 115.581 151.834 115.736 151.403C115.923 150.868 116.009 150.3 115.989 149.731C116.005 149.16 115.914 148.592 115.72 148.059ZM110.978 148.728C111.05 148.467 111.168 148.223 111.326 148.009C111.474 147.81 111.663 147.65 111.879 147.541C112.116 147.424 112.376 147.367 112.638 147.373C112.894 147.371 113.147 147.428 113.381 147.541C113.596 147.65 113.785 147.81 113.934 148.009C114.091 148.223 114.209 148.467 114.282 148.728C114.365 149.032 114.408 149.347 114.408 149.664C114.41 149.981 114.367 150.296 114.282 150.6C114.209 150.861 114.091 151.104 113.934 151.319C113.785 151.518 113.596 151.678 113.381 151.787C113.143 151.896 112.888 151.951 112.63 151.951C112.372 151.951 112.116 151.896 111.879 151.787C111.663 151.678 111.474 151.518 111.326 151.319C111.168 151.105 111.05 150.861 110.978 150.6C110.818 149.988 110.818 149.34 110.978 148.728ZM105.81 147.457C105.971 147.482 106.126 147.539 106.268 147.624C106.388 147.701 106.487 147.811 106.552 147.942C106.622 148.093 106.654 148.259 106.647 148.427C106.664 148.591 106.635 148.758 106.565 148.906C106.495 149.054 106.386 149.178 106.252 149.263C105.879 149.434 105.473 149.508 105.067 149.48H104.593V147.574H105.193C105.393 147.557 105.594 147.557 105.794 147.574L105.81 147.457ZM104.213 146.22C103.863 146.247 103.514 146.297 103.17 146.37V153.342H104.751V150.918H105.083C105.893 150.971 106.7 150.773 107.406 150.35C107.68 150.144 107.899 149.866 108.04 149.543C108.182 149.221 108.241 148.865 108.212 148.51C108.24 148.158 108.18 147.805 108.038 147.486C107.897 147.166 107.679 146.891 107.406 146.688C106.708 146.276 105.912 146.085 105.114 146.136H104.15L104.213 146.22ZM96.3735 146.136V147.574H98.3967V153.292H99.9773V147.574H101.921V146.22H96.3735V146.136ZM95.5043 153.209V151.871H92.343V150.199H95.0143V148.895H92.343V147.574H95.362V146.236H90.8415V153.309H95.5833L95.5043 153.209ZM83.5234 146.136V153.209H85.104V147.574H87.6014V153.309H89.1819V146.236H83.6815L83.5234 146.136Z" fill="white"/>
</g>
<defs>
<linearGradient id="paint0_linear_5001_21635" x1="-7.94346e-07" y1="115.5" x2="277" y2="185" gradientUnits="userSpaceOnUse">
<stop stop-color="#0096CB"/>
<stop offset="1" stop-color="#0093B3" stop-opacity="0.12"/>
</linearGradient>
<clipPath id="clip0_5001_21635">
<rect width="112" height="83" fill="white" transform="translate(39 71)"/>
</clipPath>
</defs>
</svg>
