<svg width="255" height="208" viewBox="0 0 255 208" fill="none" xmlns="http://www.w3.org/2000/svg">
<g opacity="0.3" clip-path="url(#clip0_3567_18866)">
<path d="M117.689 71.7634L118.521 66.3185C159.342 41.3279 186.637 29.3562 119.978 56.8947L119.701 56.9994C116.024 58.5002 112.417 60.0708 108.914 61.6415C105.481 63.1772 102.117 64.7827 98.7872 66.3883C98.7179 66.4232 98.6485 66.4581 98.5444 66.493C77.8738 76.6149 59.9778 88.0631 44.8911 100.907C22.0008 120.383 11.8736 137.556 14.6135 152.32C19.573 178.532 52.6599 175.251 70.0357 172.11C-1.34034 156.648 47.8044 112.74 97.0878 79.9656L96.4635 85.4802C96.3595 86.3877 96.2207 87.2603 96.1167 88.1678C91.2959 128.062 84.7062 167.956 77.1108 207.78H92.267C101.596 162.86 110.059 118.952 117.203 74.4858C117.342 73.5783 117.516 72.6708 117.654 71.7634H117.689Z" fill="#005A80"/>
<path d="M254.547 51.7263C250.038 27.8875 222.292 28.446 204.223 31.1335C205.02 29.6327 205.818 28.1318 206.616 26.5961C206.997 25.8631 207.414 25.0953 207.83 24.3623C212.165 16.2299 216.57 8.0975 221.009 0C199.818 11.1341 166.939 2.93185 143.217 3.59501C114.431 4.39778 103.332 12.2161 101.217 38.7424C100.662 45.5834 100.003 52.4593 99.3438 59.3003C105.17 56.508 111.136 53.8205 117.379 51.2377C118.662 50.7141 119.91 50.1906 121.09 49.7019C121.61 46.3163 122.13 42.8958 122.616 39.5102C127.055 8.16731 164.963 15.7413 187.437 15.7413C167.356 57.2759 149.182 99.2293 132.431 141.427C139.61 137.204 148.072 132.108 156.951 126.454C170.442 97.0653 184.974 67.7817 200.304 38.6377C200.651 38.0094 200.963 37.3812 201.275 36.7529C201.934 35.4964 202.593 34.2399 203.286 32.9834C277.576 51.5169 204.708 104.535 152.165 136.855C150.188 138.076 148.246 139.263 146.338 140.415C145.922 140.659 145.506 140.938 145.09 141.183C143.425 142.16 141.829 143.137 140.234 144.08C140.026 144.219 139.783 144.359 139.575 144.464C137.772 145.546 136.003 146.558 134.303 147.57C133.991 147.745 133.714 147.919 133.402 148.094C131.91 148.966 130.419 149.839 129.032 150.642C107.355 163.242 98.5807 167.814 126.465 156.505L126.396 156.645L125.806 158.111C125.355 159.297 124.835 160.589 124.315 161.95C124.003 162.753 123.691 163.591 123.379 164.428C116.789 181.81 107.321 207.743 107.321 207.743H119.009C123.656 207.673 123.517 204.427 125.321 200.483C131.078 185.684 137.217 170.92 143.598 156.191C143.98 155.319 144.327 154.446 144.708 153.608C145.228 152.387 145.749 151.13 146.303 149.909L147.101 148.128L147.171 148.024C147.968 147.71 148.662 147.396 149.494 147.081C179.321 134.761 204.257 120.171 224.269 103.173C247.194 83.6975 257.321 66.5601 254.581 51.7612L254.547 51.7263Z" fill="#005A80"/>
</g>
<g clip-path="url(#clip1_3567_18866)">
<path d="M103.525 71.7634L104.357 66.3185C145.178 41.3279 172.473 29.3562 105.814 56.8947L105.537 56.9994C101.86 58.5002 98.2533 60.0708 94.7504 61.6415C91.3168 63.1772 87.9527 64.7827 84.6232 66.3883C84.5538 66.4232 84.4844 66.4581 84.3804 66.493C63.7098 76.6149 45.8138 88.0631 30.727 100.907C7.83673 120.383 -2.29048 137.556 0.449415 152.32C5.40897 178.532 38.4958 175.251 55.8716 172.11C-15.5044 156.648 33.6403 112.74 82.9237 79.9656L82.2995 85.4802C82.1954 86.3877 82.0567 87.2603 81.9526 88.1678C77.1318 128.062 70.5422 167.956 62.9468 207.78H78.1029C87.4324 162.86 95.8949 118.952 103.039 74.4858C103.178 73.5783 103.352 72.6708 103.49 71.7634H103.525Z" fill="#005A80"/>
<path d="M240.383 51.7263C235.874 27.8875 208.128 28.446 190.059 31.1335C190.856 29.6327 191.654 28.1318 192.452 26.5961C192.833 25.8631 193.249 25.0953 193.666 24.3623C198.001 16.2299 202.406 8.0975 206.845 0C185.654 11.1341 152.775 2.93185 129.053 3.59501C100.266 4.39778 89.1681 12.2161 87.0525 38.7424C86.4976 45.5834 85.8386 52.4593 85.1797 59.3003C91.0063 56.508 96.9716 53.8205 103.214 51.2377C104.498 50.7141 105.746 50.1906 106.925 49.7019C107.446 46.3163 107.966 42.8958 108.451 39.5102C112.891 8.16731 150.798 15.7413 173.273 15.7413C153.192 57.2759 135.018 99.2293 118.267 141.427C125.446 137.204 133.908 132.108 142.787 126.454C156.278 97.0653 170.81 67.7817 186.14 38.6377C186.486 38.0094 186.799 37.3812 187.111 36.7529C187.77 35.4964 188.429 34.2399 189.122 32.9834C263.412 51.5169 190.544 104.535 138.001 136.855C136.024 138.076 134.082 139.263 132.174 140.415C131.758 140.659 131.342 140.938 130.926 141.183C129.261 142.16 127.665 143.137 126.07 144.08C125.862 144.219 125.619 144.359 125.411 144.464C123.608 145.546 121.839 146.558 120.139 147.57C119.827 147.745 119.55 147.919 119.238 148.094C117.746 148.966 116.255 149.839 114.868 150.642C93.1913 163.242 84.4167 167.814 112.301 156.505L112.232 156.645L111.642 158.111C111.191 159.297 110.671 160.589 110.151 161.95C109.839 162.753 109.527 163.591 109.214 164.428C102.625 181.81 93.1566 207.743 93.1566 207.743H104.845C109.492 207.673 109.353 204.427 111.157 200.483C116.914 185.684 123.053 170.92 129.434 156.191C129.816 155.319 130.163 154.446 130.544 153.608C131.064 152.387 131.584 151.13 132.139 149.909L132.937 148.128L133.006 148.024C133.804 147.71 134.498 147.396 135.33 147.081C165.157 134.761 190.093 120.171 210.105 103.173C233.03 83.6975 243.157 66.5601 240.417 51.7612L240.383 51.7263Z" fill="#005A80"/>
</g>
<defs>
<clipPath id="clip0_3567_18866">
<rect width="240.833" height="207.778" fill="white" transform="translate(14.1641)"/>
</clipPath>
<clipPath id="clip1_3567_18866">
<rect width="240.833" height="207.778" fill="white"/>
</clipPath>
</defs>
</svg>
