<svg width="185" height="100" viewBox="0 0 185 100" fill="none" xmlns="http://www.w3.org/2000/svg">
<g clip-path="url(#clip0_5183_40225)">
<path d="M185 0H0V100H185V0Z" fill="white"/>
<path d="M25.7737 48.8914V67.5247H15.4994V18.9662H29.6183C36.2021 18.9662 41.0741 20.1677 44.2343 22.5695C47.3939 24.9726 48.9738 28.6202 48.9738 33.5136C48.9738 36.37 48.1894 38.9105 46.6206 41.1364C45.0513 43.3617 42.8307 45.1051 39.9589 46.3672C47.2503 57.2834 52.0008 64.3363 54.2103 67.5247H42.8092L31.2423 48.8914L25.7737 48.8914ZM25.7737 40.5217H29.088C32.336 40.5217 34.7333 39.9792 36.28 38.8942C37.8261 37.8098 38.6 36.1043 38.6 33.7794C38.6 31.4766 37.8098 29.8386 36.2306 28.8638C34.6502 27.8895 32.2034 27.4024 28.8891 27.4024H25.7737L25.7737 40.5217Z" fill="#00587C"/>
<path d="M90.8914 67.5248H81.027L78.018 64.5612C74.6862 66.8861 70.9184 68.0492 66.7145 68.0492C62.4583 68.0492 59.0829 67.0703 56.5885 65.1124C54.094 63.1546 52.8468 60.5057 52.8468 57.1669C52.8468 54.772 53.3742 52.7314 54.4295 51.0451C55.4849 49.3576 57.2949 47.7797 59.8592 46.3113C58.5509 44.808 57.6002 43.3711 57.0071 41.9977C56.414 40.626 56.1175 39.1267 56.1175 37.501C56.1175 34.844 57.1333 32.7026 59.1661 31.0769C61.1977 29.4512 63.9148 28.6383 67.3163 28.6383C70.5608 28.6383 73.1553 29.3946 75.1003 30.9067C77.0452 32.4188 78.018 34.4419 78.018 36.9766C78.018 39.0568 77.4162 40.9581 76.2126 42.68C75.009 44.4024 73.064 46.041 70.3777 47.5967L77.8087 54.8594C79.0472 52.8142 80.1199 50.1839 81.027 46.9674H89.3476C88.7197 49.3273 87.8562 51.6301 86.7573 53.877C85.6583 56.1227 84.4111 58.1108 83.0156 59.8414L90.8914 67.5248ZM61.2459 56.407C61.2459 57.9104 61.8082 59.1072 62.9339 59.9987C64.0584 60.8903 65.5022 61.3366 67.264 61.3366C69.4619 61.3366 71.4417 60.8028 73.2035 59.7365L64.5166 51.0836C63.5049 51.8527 62.7065 52.6568 62.1222 53.4959C61.5378 54.335 61.2459 55.3057 61.2459 56.407ZM70.6393 37.8157C70.6393 36.8892 70.3253 36.1597 69.6974 35.6265C69.0694 35.0934 68.2583 34.8265 67.264 34.8265C66.0953 34.8265 65.1748 35.1062 64.5038 35.6656C63.8317 36.2249 63.4962 37.0203 63.4962 38.0517C63.4962 39.59 64.3247 41.2856 65.9819 43.1392C67.482 42.2995 68.6333 41.4732 69.4357 40.661C70.2381 39.8475 70.6393 38.8995 70.6393 37.8157Z" fill="#00587C"/>
<path d="M133.913 42.7802C133.913 50.7735 131.643 56.8965 127.103 61.1478C122.56 65.3991 116.004 67.5247 107.431 67.5247H93.7103V18.9662H108.924C116.832 18.9662 122.977 21.0586 127.352 25.2435C131.726 29.4284 133.913 35.274 133.913 42.7802ZM123.242 43.0459C123.242 32.6169 118.644 27.4024 109.454 27.4024H103.984V59.0221H108.394C118.29 59.0221 123.242 53.6963 123.242 43.0459Z" fill="#00587C"/>
<path d="M68.9162 83.9146H70.8794V91.4462H67.5793V86.6062H56.1854V73.1121H59.8589V83.8422H65.2307V73.1121H68.9162V83.9146Z" fill="#00587C"/>
<path d="M78.8653 86.8476C76.6973 86.8476 75.0029 86.2485 73.7826 85.0492C72.5618 83.851 71.9519 82.1524 71.9519 79.9557C71.9519 77.6954 72.5158 75.9474 73.6441 74.7119C74.7719 73.4764 76.3316 72.8586 78.3233 72.8586C80.2263 72.8586 81.7078 73.4018 82.7677 74.4881C83.8276 75.5744 84.3575 77.0754 84.3575 78.9901V80.7765H75.6736C75.7135 81.8233 76.0229 82.6396 76.601 83.2267C77.1791 83.8148 77.9899 84.1078 79.0339 84.1078C79.8447 84.1078 80.6117 84.0233 81.3344 83.8543C82.057 83.6853 82.8115 83.4165 83.5987 83.0456V85.8941C82.956 86.2167 82.2695 86.4559 81.5391 86.6128C80.8083 86.7697 79.917 86.8476 78.8653 86.8476ZM78.3474 75.4778C77.5684 75.4778 76.9579 75.7258 76.5167 76.2207C76.0749 76.7155 75.8219 77.4178 75.7579 78.3263H80.9128C80.8964 77.4178 80.6599 76.7155 80.2022 76.2207C79.7445 75.7258 79.1259 75.4778 78.3474 75.4778Z" fill="#00587C"/>
<path d="M90.6627 73.1121V78.3021H95.7936V73.1121H99.4671V86.6062H95.7936V81.042H90.6627V86.6062H86.9892V73.1121H90.6627Z" fill="#00587C"/>
<path d="M113.949 73.1121V75.8761H109.541V86.6062H105.867V75.8761H101.447V73.1121H113.949Z" fill="#00587C"/>
<path d="M123.324 86.8476C121.742 86.8476 120.501 86.2727 119.602 85.1216H119.41C119.538 86.2485 119.602 86.9003 119.602 87.077V92.5446H115.929V73.1121H118.916L119.434 74.8622H119.602C120.461 73.5269 121.734 72.8586 123.42 72.8586C125.01 72.8586 126.255 73.4742 127.154 74.7053C128.053 75.9365 128.503 77.6471 128.503 79.835C128.503 81.2757 128.292 82.5266 127.871 83.5888C127.449 84.6509 126.849 85.4596 126.07 86.0148C125.291 86.57 124.376 86.8476 123.324 86.8476ZM122.24 75.8037C121.332 75.8037 120.67 76.0835 120.253 76.6431C119.835 77.2027 119.618 78.1255 119.602 79.4126V79.8109C119.602 81.2593 119.817 82.2973 120.247 82.9249C120.676 83.5526 121.356 83.8664 122.288 83.8664C123.934 83.8664 124.757 82.5069 124.757 79.7868C124.757 78.4591 124.554 77.4638 124.149 76.8C123.743 76.1362 123.107 75.8037 122.24 75.8037Z" fill="#00587C"/>
<path d="M6.70976 16.3103C5.05915 16.3103 3.78191 15.8011 2.8764 14.7829C1.97198 13.7657 1.51923 12.325 1.51923 10.463C1.51923 8.55154 1.97855 7.07462 2.8972 6.03223C3.8164 4.98983 5.12484 4.46863 6.82418 4.46863C7.37165 4.46863 7.91966 4.52788 8.46768 4.64638C9.01514 4.76489 9.44545 4.90314 9.75751 5.06334L9.22701 6.53258C8.84543 6.38006 8.42935 6.25277 7.97879 6.15183C7.52767 6.05198 7.12912 6.0015 6.78257 6.0015C4.46624 6.0015 3.30835 7.48171 3.30835 10.4421C3.30835 11.8455 3.59084 12.923 4.15637 13.6736C4.72136 14.4241 5.55844 14.7993 6.66815 14.7993C7.61801 14.7993 8.5925 14.5942 9.59108 14.1838V15.7167C8.82791 16.1128 7.86765 16.3103 6.70976 16.3103Z" fill="#00587C"/>
<path d="M21.7011 10.3796C21.7011 12.2416 21.233 13.6955 20.2968 14.7412C19.3606 15.788 18.067 16.3103 16.4169 16.3103C15.3975 16.3103 14.4926 16.0711 13.702 15.5916C12.9115 15.1121 12.3011 14.4241 11.8713 13.5276C11.441 12.6312 11.2264 11.5822 11.2264 10.3796C11.2264 8.51752 11.6906 7.06585 12.6202 6.02674C13.5493 4.98873 14.8391 4.46863 16.4897 4.46863C18.0845 4.46863 19.3519 5.0008 20.2919 6.06405C21.2313 7.12729 21.7011 8.5658 21.7011 10.3796ZM13.0155 10.3796C13.0155 11.8389 13.3068 12.9505 13.8893 13.7152C14.4718 14.48 15.328 14.8619 16.4585 14.8619C17.5885 14.8619 18.4469 14.4811 19.0327 13.7196C19.619 12.9592 19.9119 11.8455 19.9119 10.3796C19.9119 8.9268 19.619 7.82405 19.0327 7.06914C18.4469 6.31532 17.5819 5.93896 16.4377 5.93896C15.3072 5.93896 14.4542 6.31093 13.8789 7.05378C13.3029 7.79772 13.0155 8.90595 13.0155 10.3796Z" fill="#00587C"/>
<path d="M23.9479 9.25374C23.9479 6.75199 24.3152 4.80106 25.0505 3.39985C25.7852 1.99975 26.9502 1.12633 28.5455 0.778496C30.5284 0.354953 32.2759 0.0115103 33.788 -0.25293L34.1105 1.26897C31.7038 1.67167 29.9842 1.99207 28.9512 2.22798C27.9455 2.45731 27.1916 2.99935 26.689 3.85412C26.1859 4.70889 25.91 5.87308 25.8618 7.3456H25.9866C26.4164 6.76186 26.971 6.30321 27.6509 5.96964C28.3303 5.63607 29.041 5.46929 29.7833 5.46929C31.1837 5.46929 32.2759 5.92465 33.0599 6.83538C33.8433 7.7461 34.2353 9.00686 34.2353 10.6187C34.2353 12.4051 33.7809 13.7997 32.8727 14.8037C31.9639 15.8088 30.6987 16.3102 29.076 16.3102C27.4741 16.3102 26.2188 15.6958 25.3105 14.4657C24.4017 13.2357 23.9479 11.4987 23.9479 9.25374ZM29.232 14.8618C31.3469 14.8618 32.4046 13.51 32.4046 10.8064C32.4046 8.2289 31.4438 6.93962 29.5233 6.93962C28.9961 6.93962 28.488 7.04825 27.9997 7.2677C27.5102 7.48605 27.0635 7.77683 26.6573 8.13783C26.2522 8.49992 25.9379 8.87189 25.7162 9.25374C25.7162 11.0818 26.0036 12.4731 26.5795 13.4277C27.1549 14.3834 28.0391 14.8618 29.232 14.8618Z" fill="#00587C"/>
<path d="M41.6524 16.3103C40.0018 16.3103 38.7245 15.8011 37.819 14.7829C36.9146 13.7657 36.4619 12.325 36.4619 10.463C36.4619 8.55154 36.9212 7.07462 37.8398 6.03223C38.759 4.98983 40.0675 4.46863 41.7668 4.46863C42.3143 4.46863 42.8623 4.52788 43.4103 4.64638C43.9578 4.76489 44.3881 4.90314 44.7001 5.06334L44.1696 6.53258C43.7881 6.38006 43.372 6.25277 42.9214 6.15183C42.4703 6.05198 42.0717 6.0015 41.7252 6.0015C39.4089 6.0015 38.251 7.48171 38.251 10.4421C38.251 11.8455 38.5335 12.923 39.099 13.6736C39.664 14.4241 40.5011 14.7993 41.6108 14.7993C42.5606 14.7993 43.5351 14.5942 44.5337 14.1838V15.7167C43.7705 16.1128 42.8103 16.3103 41.6524 16.3103Z" fill="#00587C"/>
<path d="M55.396 6.15733H51.6929V16.1018H49.9662V6.15733H46.3047V4.67712H55.396V6.15733Z" fill="#00587C"/>
<path d="M66.8134 7.54427C66.8134 8.28821 66.6005 8.8522 66.1734 9.23734C65.7475 9.62358 65.1491 9.88253 64.3794 10.0142V10.1086C65.35 10.2402 66.0596 10.5255 66.5063 10.9633C66.9541 11.4011 67.1775 12.0057 67.1775 12.7771C67.1775 13.8404 66.7877 14.66 66.007 15.2372C65.2274 15.8143 64.0881 16.1018 62.5903 16.1018H57.5662V4.67712H62.5695C65.3988 4.67712 66.8134 5.63284 66.8134 7.54427ZM65.1283 7.71105C65.1283 7.15474 64.9154 6.76082 64.4883 6.52711C64.0624 6.29449 63.4153 6.17818 62.5487 6.17818H59.2929V9.39974H62.2158C63.2834 9.39974 64.0361 9.26806 64.473 9.00362C64.9099 8.73918 65.1283 8.30906 65.1283 7.71105ZM65.4508 12.6619C65.4508 12.0441 65.2165 11.5932 64.7489 11.3123C64.2803 11.0303 63.5056 10.8898 62.4238 10.8898H59.2929V14.6534H62.4654C64.4555 14.6534 65.4508 13.9896 65.4508 12.6619Z" fill="#00587C"/>
<path d="M74.5426 16.3103C72.8575 16.3103 71.5277 15.7968 70.5532 14.7675C69.5792 13.7394 69.092 12.3119 69.092 10.4838C69.092 8.64261 69.5447 7.17886 70.4492 6.09477C71.3547 5.01067 72.5695 4.46863 74.0953 4.46863C75.5236 4.46863 76.6541 4.93935 77.4863 5.8808C78.3184 6.82335 78.7345 8.06545 78.7345 9.6082V10.7022H70.8811C70.9156 12.0441 71.2539 13.0624 71.8956 13.7569C72.5366 14.4515 73.44 14.7993 74.605 14.7993C75.8324 14.7993 77.0456 14.5426 78.2456 14.028V15.5707C77.6352 15.8352 77.0582 16.0239 76.514 16.138C75.9693 16.2532 75.3123 16.3103 74.5426 16.3103ZM74.0745 5.91811C73.1591 5.91811 72.4293 6.21657 71.8846 6.81457C71.3404 7.41258 71.0196 8.23882 70.9227 9.29548H76.883C76.883 8.2048 76.6399 7.36869 76.1549 6.78824C75.6692 6.20779 74.9756 5.91811 74.0745 5.91811Z" fill="#00587C"/>
<path d="M83.1706 4.67712V9.46228H89.5574V4.67712H91.2841V16.1018H89.5574V10.9524H83.1706V16.1018H81.4439V4.67712H83.1706Z" fill="#00587C"/>
<path d="M96.3509 4.67712V9.46228H102.738V4.67712H104.464V16.1018H102.738V10.9524H96.3509V16.1018H94.6241V4.67712H96.3509Z" fill="#00587C"/>
<path d="M109.531 9.39974H112.641C114.09 9.39974 115.163 9.66856 115.86 10.2073C116.557 10.7461 116.906 11.5504 116.906 12.6202C116.906 13.7668 116.536 14.6337 115.798 15.2207C115.059 15.8088 113.972 16.1018 112.537 16.1018H107.804V4.67712H109.531V9.39974ZM109.531 10.8898V14.6534H112.454C114.284 14.6534 115.2 14.0104 115.2 12.7244C115.2 12.0858 114.988 11.6195 114.565 11.3276C114.142 11.0358 113.421 10.8898 112.402 10.8898H109.531ZM120.546 16.1018H118.819V4.67712H120.546V16.1018Z" fill="#00587C"/>
<path d="M125.515 4.67709V11.9223L125.442 13.8195L125.411 14.4131L131.579 4.67709H133.732V16.1018H132.12V9.11771L132.151 7.74174L132.203 6.38663L126.045 16.1018H123.892V4.67709H125.515ZM128.771 3.16617C127.488 3.16617 126.551 2.91709 125.962 2.42003C125.373 1.92407 125.043 1.10551 124.974 -0.0345459H126.597C126.659 0.688549 126.848 1.19219 127.164 1.47748C127.479 1.76277 128.028 1.90431 128.812 1.90431C129.526 1.90431 130.056 1.7518 130.398 1.44566C130.742 1.14062 130.951 0.646853 131.028 -0.0345459H132.661C132.578 1.06381 132.227 1.8714 131.61 2.3893C130.993 2.90721 130.046 3.16617 128.771 3.16617Z" fill="#00587C"/>
</g>
<defs>
<clipPath id="clip0_5183_40225">
<rect width="185" height="100" fill="white"/>
</clipPath>
</defs>
</svg>
