<svg width="140" height="95" viewBox="0 0 140 95" fill="none" xmlns="http://www.w3.org/2000/svg">
<path d="M10.2753 93.6632H9.24987V89.8183H0V78.4922H1.02546V88.8389H7.74793V78.4922H8.76304V88.8389H10.2753V93.6632Z" fill="#00587C"/>
<path d="M17.2257 90.0267C15.5891 90.0267 14.3116 89.5196 13.3932 88.5055C12.4816 87.4913 12.0259 86.0708 12.0259 84.2439C12.0259 82.4378 12.4678 80.9929 13.3517 79.9093C14.2356 78.8187 15.4268 78.2734 16.9253 78.2734C18.2511 78.2734 19.2973 78.7388 20.0638 79.6697C20.8303 80.6005 21.2136 81.8647 21.2136 83.4624V84.296H13.1031C13.1169 85.8519 13.476 87.0398 14.1804 87.8595C14.8916 88.6791 15.9067 89.089 17.2257 89.089C17.8679 89.089 18.4307 89.0438 18.9141 88.9535C19.4044 88.8632 20.0224 88.6687 20.7682 88.37V89.3078C20.1329 89.5856 19.5459 89.7732 19.0073 89.8704C18.4687 89.9746 17.8748 90.0267 17.2257 90.0267ZM16.9253 79.1904C15.8411 79.1904 14.971 79.5516 14.315 80.274C13.659 80.9895 13.2758 82.0245 13.1653 83.379H20.126C20.126 82.0662 19.8429 81.0416 19.2766 80.3053C18.7104 79.562 17.9266 79.1904 16.9253 79.1904Z" fill="#00587C"/>
<path d="M25.3465 78.4922V83.4624H32.4937V78.4922H33.5088V89.8183H32.4937V84.3585H25.3465V89.8183H24.3211V78.4922H25.3465Z" fill="#00587C"/>
<path d="M44.4367 79.3883H40.687V89.8183H39.6719V79.3883H35.829V78.4922H44.4367V79.3883Z" fill="#00587C"/>
<path d="M51.5735 90.0267C49.8402 90.0267 48.5765 89.3738 47.7824 88.0678H47.7099L47.7409 88.9431C47.7686 89.4571 47.7824 90.0198 47.7824 90.6311V94.9448H46.7569V78.4922H47.627L47.8238 80.1073H47.886C48.6594 78.8847 49.8954 78.2734 51.5942 78.2734C53.1134 78.2734 54.2701 78.7771 55.0642 79.7843C55.8652 80.7846 56.2657 82.2433 56.2657 84.1605C56.2657 86.0221 55.8445 87.467 55.002 88.495C54.1665 89.5162 53.0236 90.0267 51.5735 90.0267ZM51.5528 89.1098C52.706 89.1098 53.5968 88.6791 54.2252 87.8178C54.8605 86.9564 55.1781 85.7512 55.1781 84.2022C55.1781 80.8749 53.9835 79.2112 51.5942 79.2112C50.2822 79.2112 49.3188 79.5759 48.7043 80.3053C48.0897 81.0277 47.7824 82.2086 47.7824 83.8479V84.1813C47.7824 85.9527 48.0759 87.2169 48.6628 87.9741C49.2567 88.7312 50.22 89.1098 51.5528 89.1098Z" fill="#00587C"/>
<path d="M5.22709 16C1.74236 16 0 14.1124 0 10.3372C0 8.45954 0.473977 7.02656 1.42193 6.0383C2.36988 5.04344 3.72839 4.54602 5.49746 4.54602C6.79255 4.54602 7.95413 4.79638 8.98219 5.2971L8.08097 7.6294C7.60031 7.43834 7.15304 7.28351 6.73915 7.16492C6.32525 7.03974 5.91136 6.97715 5.49746 6.97715C3.90864 6.97715 3.11423 8.09059 3.11423 10.3175C3.11423 12.4785 3.90864 13.559 5.49746 13.559C6.08492 13.559 6.629 13.4832 7.12968 13.3317C7.63036 13.1736 8.13103 12.9298 8.63171 12.6004V15.1797C8.13771 15.4894 7.63703 15.7035 7.12968 15.8221C6.629 15.9407 5.9948 16 5.22709 16Z" fill="#00587C"/>
<path d="M13.6686 10.2582C13.6686 11.3519 13.8488 12.1787 14.2093 12.7387C14.5764 13.2987 15.1706 13.5788 15.9917 13.5788C16.8061 13.5788 17.3903 13.302 17.7441 12.7486C18.1046 12.1886 18.2848 11.3585 18.2848 10.2582C18.2848 9.1645 18.1046 8.34424 17.7441 7.79741C17.3836 7.25057 16.7928 6.97715 15.9717 6.97715C15.1572 6.97715 14.5698 7.25057 14.2093 7.79741C13.8488 8.33766 13.6686 9.15792 13.6686 10.2582ZM21.4091 10.2582C21.4091 12.0568 20.9284 13.4635 19.9671 14.4781C19.0058 15.4927 17.6673 16 15.9516 16C14.8769 16 13.9289 15.7694 13.1078 15.3082C12.2867 14.8404 11.6558 14.1717 11.2152 13.302C10.7746 12.4324 10.5543 11.4177 10.5543 10.2582C10.5543 8.45295 11.0316 7.04962 11.9863 6.04818C12.9409 5.04674 14.2827 4.54602 16.0117 4.54602C17.0865 4.54602 18.0345 4.77661 18.8556 5.2378C19.6767 5.69899 20.3076 6.36113 20.7482 7.22421C21.1888 8.0873 21.4091 9.09862 21.4091 10.2582Z" fill="#00587C"/>
<path d="M23.2516 9.18098C23.2516 6.64443 23.7389 4.72061 24.7135 3.40951C25.6949 2.09183 27.2236 1.25839 29.2998 0.909203C30.3078 0.737904 31.8132 0.520486 33.8159 0.256949L34.1664 2.88573C33.2985 2.98456 31.7598 3.19539 29.5501 3.51822C28.709 3.64999 28.0814 3.84764 27.6675 4.11118C27.2537 4.37472 26.9432 4.75026 26.7363 5.2378C26.536 5.72534 26.4125 6.3743 26.3658 7.18468H26.516C26.8698 6.64443 27.3371 6.22936 27.9179 5.93947C28.4987 5.64958 29.1229 5.50463 29.7904 5.50463C31.1723 5.50463 32.2471 5.923 33.0148 6.75973C33.7825 7.58987 34.1664 8.78238 34.1664 10.3372C34.1664 12.1293 33.679 13.5227 32.7044 14.5176C31.7364 15.5059 30.3979 16 28.6889 16C26.9799 16 25.6448 15.3972 24.6835 14.1915C23.7289 12.9792 23.2516 11.309 23.2516 9.18098ZM28.8692 13.559C30.3178 13.559 31.0421 12.574 31.0421 10.6041C31.0421 8.68684 30.3879 7.72823 29.0795 7.72823C28.719 7.72823 28.3585 7.81058 27.998 7.97529C27.6442 8.14 27.3171 8.35742 27.0167 8.62755C26.7229 8.89108 26.506 9.15792 26.3658 9.42804C26.3658 10.7655 26.5827 11.79 27.0167 12.5015C27.4506 13.2065 28.0681 13.559 28.8692 13.559Z" fill="#00587C"/>
<path d="M41.236 16C37.7512 16 36.0089 14.1124 36.0089 10.3372C36.0089 8.45954 36.4828 7.02656 37.4308 6.0383C38.3788 5.04344 39.7373 4.54602 41.5063 4.54602C42.8014 4.54602 43.963 4.79638 44.9911 5.2971L44.0898 7.6294C43.6092 7.43834 43.1619 7.28351 42.748 7.16492C42.3341 7.03974 41.9202 6.97715 41.5063 6.97715C39.9175 6.97715 39.1231 8.09059 39.1231 10.3175C39.1231 12.4785 39.9175 13.559 41.5063 13.559C42.0938 13.559 42.6379 13.4832 43.1385 13.3317C43.6392 13.1736 44.1399 12.9298 44.6406 12.6004V15.1797C44.1466 15.4894 43.6459 15.7035 43.1385 15.8221C42.6379 15.9407 42.0037 16 41.236 16Z" fill="#00587C"/>
<path d="M56.5067 4.75355V7.01668H52.8417V15.8023H49.7876V7.01668H46.1126V4.75355H56.5067Z" fill="#00587C"/>
<path d="M68.9336 7.64917C68.9336 8.24212 68.7433 8.74943 68.3628 9.17109C67.9889 9.58616 67.4349 9.85299 66.7005 9.97159V10.0506C67.4949 10.1429 68.1225 10.413 68.5831 10.861C69.0504 11.3024 69.284 11.8493 69.284 12.5015C69.284 13.5755 68.8568 14.3957 68.0023 14.9623C67.1478 15.5223 65.9261 15.8023 64.3373 15.8023H58.5995V4.75355H64.3373C65.8727 4.75355 67.021 5.00062 67.782 5.49475C68.5497 5.98229 68.9336 6.70043 68.9336 7.64917ZM66.1197 12.3434C66.1197 11.9086 65.9495 11.5956 65.609 11.4046C65.2686 11.2069 64.7579 11.1081 64.077 11.1081H61.6537V13.7171H64.137C64.7846 13.7171 65.2753 13.5985 65.609 13.3613C65.9495 13.1176 66.1197 12.7783 66.1197 12.3434ZM65.8394 7.88635C65.8394 7.21433 65.2986 6.87832 64.2171 6.87832H61.6537V9.06238H63.8667C64.5142 9.06238 65.0049 8.97015 65.3387 8.78567C65.6725 8.60119 65.8394 8.30142 65.8394 7.88635Z" fill="#00587C"/>
<path d="M76.3536 6.69055C75.7061 6.69055 75.1987 6.89479 74.8316 7.30327C74.4644 7.70517 74.2541 8.27836 74.2007 9.02285H78.4865C78.4732 8.27836 78.2762 7.70517 77.8957 7.30327C77.5152 6.89479 77.0012 6.69055 76.3536 6.69055ZM76.7842 16C74.9818 16 73.5732 15.5092 72.5585 14.5275C71.5438 13.5458 71.0364 12.1557 71.0364 10.357C71.0364 8.50566 71.5037 7.07597 72.4383 6.06794C73.3796 5.05332 74.678 4.54602 76.3336 4.54602C77.9157 4.54602 79.1474 4.99074 80.0286 5.88017C80.9098 6.76961 81.3504 7.99835 81.3504 9.5664V11.029H74.1306C74.164 11.8855 74.421 12.5543 74.9016 13.0352C75.3823 13.5162 76.0565 13.7566 76.9244 13.7566C77.5986 13.7566 78.2362 13.6875 78.837 13.5491C79.4378 13.4107 80.0653 13.19 80.7196 12.887V15.2193C80.1855 15.4828 79.6147 15.6772 79.0072 15.8023C78.3997 15.9341 77.6587 16 76.7842 16Z" fill="#00587C"/>
<path d="M86.8879 4.75355V9.00309H91.1537V4.75355H94.2079V15.8023H91.1537V11.2464H86.8879V15.8023H83.8338V4.75355H86.8879Z" fill="#00587C"/>
<path d="M100.466 4.75355V9.00309H104.732V4.75355H107.786V15.8023H104.732V11.2464H100.466V15.8023H97.4122V4.75355H100.466Z" fill="#00587C"/>
<path d="M114.045 9.02285H115.517C117.226 9.02285 118.491 9.29298 119.312 9.83323C120.133 10.3735 120.544 11.1904 120.544 12.2841C120.544 13.4503 120.133 14.3298 119.312 14.9228C118.491 15.5092 117.262 15.8023 115.627 15.8023H110.991V4.75355H114.045V9.02285ZM117.489 12.3237C117.489 11.8954 117.316 11.5858 116.969 11.3947C116.622 11.2036 116.104 11.1081 115.417 11.1081H114.045V13.7171H115.457C116.812 13.7171 117.489 13.2526 117.489 12.3237ZM125.22 15.8023H122.166V4.75355H125.22V15.8023Z" fill="#00587C"/>
<path d="M131.388 4.75355V9.12168C131.388 9.58287 131.312 10.7095 131.158 12.5015L136.325 4.75355H140V15.8023H137.046V11.3947C137.046 10.6107 137.113 9.50381 137.246 8.07412L132.099 15.8023H128.434V4.75355H131.388ZM139.099 0C138.972 1.23204 138.501 2.13136 137.687 2.69796C136.872 3.25798 135.697 3.53799 134.162 3.53799C132.58 3.53799 131.408 3.26786 130.647 2.72761C129.893 2.18736 129.469 1.27816 129.376 0H132.109C132.156 0.678608 132.326 1.15627 132.62 1.43298C132.92 1.70311 133.454 1.83817 134.222 1.83817C134.896 1.83817 135.397 1.68993 135.724 1.39345C136.058 1.09038 136.262 0.625901 136.335 0H139.099Z" fill="#00587C"/>
<path d="M13.1295 52.4835V70.154H0V21.6094H15.9183C29.1219 21.6094 35.7113 26.3972 35.7113 35.9482C35.7113 41.5751 32.9719 45.9187 27.4683 49.0037L41.6097 70.154H26.7279L16.4366 52.4835H13.1048H13.1295ZM13.1295 42.6117H15.5975C20.1879 42.6117 22.4831 40.5879 22.4831 36.5405C22.4831 33.2088 20.2372 31.5306 15.7456 31.5306H13.1542V42.6363L13.1295 42.6117Z" fill="#00587C"/>
<path d="M78.342 70.1551L75.0596 66.774C73.0606 68.0326 71.4317 68.8964 70.1484 69.39C68.865 69.8836 67.4583 70.2291 65.8541 70.4759C64.25 70.7227 62.4484 70.8461 60.4246 70.8461C56.9201 70.8461 53.8352 70.2538 51.1451 69.0445C48.4551 67.8352 46.4067 66.1817 44.9752 64.0346C43.5438 61.8874 42.8281 59.4442 42.8281 56.7047C42.8281 50.905 45.839 46.4627 51.8608 43.3778C50.4788 41.823 49.4176 40.1941 48.6525 38.4419C47.8874 36.6896 47.5172 34.7399 47.5172 32.5435C47.5172 28.9896 48.8746 26.1761 51.614 24.1031C54.3535 22.03 58.1048 20.9688 62.8926 20.9688C67.6804 20.9688 71.2096 22.0053 73.801 24.0784C76.3923 26.1515 77.7003 28.9649 77.7003 32.5435C77.7003 35.0114 77.0093 37.2819 75.6026 39.3797C74.1958 41.4775 71.9747 43.4271 68.9391 45.2781L75.5532 51.5467C77.2067 49.0047 78.3667 46.1172 79.0083 42.9089H92.4834C91.817 45.9691 90.7805 49.0294 89.3491 52.0897C87.9177 55.1499 86.3135 57.7906 84.5119 59.9871L95.1488 70.1798H78.342V70.1551ZM56.2291 55.7422C56.2291 57.149 56.7227 58.2842 57.7346 59.1727C58.7464 60.0612 60.0544 60.5054 61.6833 60.5054C62.942 60.5054 64.0525 60.3326 65.015 60.0118C65.9775 59.691 66.6932 59.2961 67.2115 58.8765L58.9686 50.5102C57.1423 51.8675 56.2538 53.6198 56.2538 55.7669L56.2291 55.7422ZM66.0269 32.5188C66.0269 31.4329 65.7061 30.6431 65.0891 30.1742C64.4721 29.7053 63.6577 29.4585 62.7198 29.4585C61.782 29.4585 60.9676 29.73 60.2766 30.2976C59.5855 30.8653 59.24 31.729 59.24 32.963C59.24 34.6165 60.2025 36.3441 62.1522 38.121C63.4109 37.4053 64.3734 36.5662 65.0397 35.579C65.7061 34.5919 66.0269 33.58 66.0269 32.5435V32.5188Z" fill="#00587C"/>
<path d="M139.918 44.8575C139.918 52.9524 137.697 59.1963 133.23 63.5893C128.763 67.9822 122.494 70.1787 114.424 70.1787H98.7031V21.6094H115.51C123.309 21.6094 129.33 23.6084 133.575 27.5818C137.82 31.5552 139.943 37.3302 139.943 44.8575H139.918ZM126.295 45.3264C126.295 40.8841 125.406 37.577 123.654 35.4299C121.902 33.2828 119.212 32.1969 115.633 32.1969H111.808V59.3938H114.72C118.718 59.3938 121.63 58.2338 123.481 55.9139C125.332 53.5941 126.27 50.0649 126.27 45.3017L126.295 45.3264Z" fill="#00587C"/>
</svg>
