<svg width="186" height="100" viewBox="0 0 186 100" fill="none" xmlns="http://www.w3.org/2000/svg">
<g clip-path="url(#clip0_5229_40487)">
<path d="M185.393 0H0V100H185.393V0Z" fill="white"/>
<path d="M30.6279 61.6854H18.2683V28.0899L18.3807 22.5843L18.6054 16.5169C16.583 18.5393 15.1223 19.8877 14.3358 20.5618L7.59419 25.9551L1.63913 18.5394L20.5155 3.70789H30.6279V61.6854Z" fill="#00587C"/>
<path d="M37.2571 37.0786C37.2571 25.618 39.729 17.0786 44.5605 11.4607C49.5043 5.84268 56.8077 3.03369 66.4706 3.03369C69.8414 3.03369 72.4257 3.25841 74.3358 3.59549V13.3708C71.9762 12.809 69.6167 12.5843 67.3695 12.5843C63.0998 12.5843 59.729 13.2584 57.0324 14.4944C54.3358 15.7303 52.4257 17.6404 51.0773 20.1123C49.729 22.5843 48.9425 26.0674 48.7178 30.6741H49.1672C51.7515 26.1798 56.0212 23.9326 61.7515 23.9326C66.92 23.9326 71.0773 25.5056 73.9987 28.764C76.92 32.0225 78.3807 36.5168 78.3807 42.2472C78.3807 48.427 76.583 53.3708 73.0998 56.9663C69.6167 60.5618 64.7852 62.3595 58.4931 62.3595C54.2234 62.3595 50.4032 61.3483 47.2571 59.4382C44.111 57.4157 41.6391 54.6067 39.8414 50.7865C38.156 46.9663 37.2571 42.3595 37.2571 37.0786ZM58.3807 52.6966C60.965 52.6966 62.9874 51.7977 64.4481 50.1123C65.9088 48.3146 66.583 45.8427 66.583 42.5842C66.583 39.7753 65.9088 37.5281 64.5605 35.955C63.2122 34.2696 61.302 33.4831 58.6054 33.4831C56.1335 33.4831 53.9987 34.2696 52.2009 35.8427C50.4032 37.4157 49.6167 39.3258 49.6167 41.4607C49.6167 44.6067 50.4032 47.3034 52.0886 49.4382C53.6616 51.573 55.7964 52.6966 58.3807 52.6966Z" fill="#00587C"/>
<path d="M123.999 32.6966C123.999 42.809 122.313 50.337 118.943 55.1685C115.572 60 110.516 62.4719 103.549 62.4719C96.8077 62.4719 91.7515 60 88.3807 54.9438C85.0099 49.8876 83.3245 42.4719 83.3245 32.6966C83.3245 22.4719 85.0099 14.9438 88.2683 10.1123C91.6391 5.28087 96.6953 2.80896 103.662 2.80896C110.403 2.80896 115.459 5.39323 118.83 10.4494C122.201 15.5056 123.999 22.9213 123.999 32.6966ZM95.4594 32.6966C95.4594 39.7752 96.0211 44.9438 97.2571 47.9775C98.4931 51.0112 100.628 52.5842 103.549 52.5842C106.471 52.5842 108.493 51.0112 109.729 47.8651C110.965 44.7191 111.639 39.6629 111.639 32.6966C111.639 25.6179 110.965 20.4494 109.729 17.4157C108.493 14.2696 106.358 12.6966 103.549 12.6966C100.628 12.6966 98.6054 14.2696 97.3695 17.4157C96.1335 20.4494 95.4594 25.6179 95.4594 32.6966Z" fill="#00587C"/>
<path d="M146.028 62.247H142.589V51.6135L142.395 52.3618C141.961 54.0593 141.57 55.3431 141.225 56.2121L138.835 62.247H136.216L133.79 56.1638C133.443 55.2783 133.073 54.0351 132.679 52.4342L132.45 51.6135V62.247H129.022V48.7529H134.091L136.409 54.5103C136.65 55.1302 136.873 55.8423 137.079 56.6466C137.284 57.4509 137.423 58.1389 137.495 58.7106C137.761 57.5036 137.967 56.6368 138.117 56.109C138.265 55.5823 138.428 55.0973 138.605 54.6551C138.782 54.2129 139.583 52.2455 141.007 48.7529H146.028V62.247Z" fill="#00587C"/>
<path d="M161.748 62.247H158.067V51.5169H154.675C154.417 54.5344 154.103 56.7849 153.733 58.2695C153.363 59.7541 152.87 60.8283 152.255 61.4921C151.639 62.156 150.832 62.4884 149.835 62.4884C148.982 62.4884 148.282 62.359 147.735 62.1022V59.1572C148.129 59.3185 148.523 59.3986 148.918 59.3986C149.376 59.3986 149.76 59.0683 150.07 58.4088C150.38 57.7494 150.657 56.6488 150.903 55.1072C151.148 53.5666 151.36 51.4489 151.537 48.7529H161.748V62.247Z" fill="#00587C"/>
<path d="M168.74 48.7529V53.943H173.882V48.7529H177.563V62.247H173.882V56.6828H168.74V62.247H165.059V48.7529H168.74Z" fill="#00587C"/>
<path d="M30.2685 88.1994H26.9614V83.3594H17.8848V88.1994H14.5777V80.6678H15.7122C16.4847 79.4696 17.1321 77.9564 17.6555 76.1295C18.1783 74.3037 18.5443 72.2156 18.7538 69.8652H28.289V80.6678H30.2685V88.1994ZM24.6077 80.6678V72.6292H21.8437C21.6424 74.1259 21.367 75.5469 21.0169 76.8899C20.6669 78.234 20.1819 79.4937 19.5625 80.6678H24.6077Z" fill="#00587C"/>
<path d="M42.5578 76.5882C42.5578 78.7849 41.9785 80.5032 40.8198 81.742C39.6611 82.9819 38.0475 83.6008 35.9798 83.6008C34.6839 83.6008 33.5416 83.3177 32.5519 82.7504C31.5622 82.1831 30.8018 81.3679 30.2707 80.3057C29.7396 79.2436 29.4741 78.0048 29.4741 76.5882C29.4741 74.3838 30.0491 72.6699 31.2001 71.4464C32.3506 70.2241 33.9679 69.6118 36.0522 69.6118C37.3475 69.6118 38.4903 69.8938 39.48 70.4567C40.4697 71.0207 41.2301 71.8294 41.7612 72.8828C42.2923 73.9372 42.5578 75.1727 42.5578 76.5882ZM33.2278 76.5882C33.2278 77.9247 33.4467 78.9342 33.8856 79.6177C34.324 80.3024 35.0383 80.6437 36.028 80.6437C37.0095 80.6437 37.7156 80.3046 38.1463 79.6243C38.5764 78.944 38.792 77.9324 38.792 76.5882C38.792 75.2528 38.5748 74.251 38.1403 73.5828C37.7057 72.9157 36.9936 72.581 36.0039 72.581C35.0218 72.581 34.3141 72.9135 33.8796 73.5773C33.4451 74.2412 33.2278 75.2452 33.2278 76.5882Z" fill="#00587C"/>
<path d="M46.6139 75.0553C48.0057 75.0553 48.9933 74.9434 49.577 74.7174C50.1602 74.4924 50.4521 74.1347 50.4521 73.6432C50.4521 73.2086 50.2387 72.8828 49.8124 72.6655C49.3855 72.4482 48.6817 72.3396 47.7002 72.3396C47.0802 72.3396 46.3785 72.4164 45.594 72.5689C44.8094 72.7226 44.0951 72.931 43.4516 73.1966L42.3653 70.6257C43.3226 70.2636 44.252 70.0046 45.1534 69.8477C46.0543 69.6908 47.0604 69.6118 48.1709 69.6118C49.8524 69.6118 51.2004 69.9344 52.2143 70.5774C53.2282 71.2215 53.7351 72.0949 53.7351 73.1966C53.7351 74.7174 52.8375 75.7071 51.0435 76.1658V76.2865C52.1457 76.5608 52.9324 76.9492 53.4032 77.4518C53.8739 77.9543 54.1093 78.6127 54.1093 79.4246C54.1093 80.2454 53.8437 80.974 53.3126 81.6093C52.7816 82.2457 52.0129 82.7362 51.0073 83.0818C50.0011 83.4274 48.8183 83.6008 47.4588 83.6008C45.2055 83.6008 43.4757 83.3232 42.2687 82.768V79.7264C42.9605 80.049 43.7187 80.3024 44.5439 80.4868C45.3685 80.6722 46.1673 80.7644 46.9397 80.7644C48.1385 80.7644 49.0355 80.6305 49.6313 80.3606C50.2266 80.0907 50.5245 79.7066 50.5245 79.2074C50.5245 78.6609 50.2107 78.256 49.5831 77.9949C48.9554 77.7337 47.9898 77.6021 46.6863 77.6021H45.262V75.0553H46.6139Z" fill="#00587C"/>
<path d="M60.0932 83.3594H58.3628V71.9347H67.9528V83.3594H66.2016V73.4357H60.0932V83.3594Z" fill="#00587C"/>
<path d="M76.6223 83.5678C75.8784 83.5678 75.1992 83.4307 74.5847 83.1564C73.9691 82.8821 73.4534 82.4596 73.0365 81.8901H72.9114C72.9948 82.5573 73.0365 83.1893 73.0365 83.7873V88.488H71.3061V71.9347H72.7133L72.9531 73.4983H73.0365C73.4808 72.8728 73.9988 72.4219 74.5896 72.1432C75.18 71.8656 75.8575 71.7262 76.6223 71.7262C78.1371 71.7262 79.3062 72.2441 80.1303 73.2799C80.9532 74.3157 81.3652 75.7674 81.3652 77.6371C81.3652 79.5135 80.9466 80.9706 80.1094 82.0097C79.2716 83.0488 78.1091 83.5678 76.6223 83.5678ZM76.3721 73.1965C75.2046 73.1965 74.3603 73.5191 73.8391 74.1654C73.3179 74.8117 73.0502 75.8409 73.0365 77.2509V77.6371C73.0365 79.2424 73.3036 80.3902 73.8391 81.0814C74.374 81.7738 75.2321 82.1195 76.4138 82.1195C77.4003 82.1195 78.1738 81.7201 78.7334 80.9202C79.2925 80.1213 79.5723 79.0197 79.5723 77.6163C79.5723 76.1921 79.2925 75.0981 78.7334 74.3377C78.1738 73.5762 77.3865 73.1965 76.3721 73.1965Z" fill="#00587C"/>
<path d="M89.0631 83.5678C87.3744 83.5678 86.0417 83.0543 85.0652 82.0251C84.0892 80.997 83.6009 79.5694 83.6009 77.7414C83.6009 75.9002 84.0546 74.4364 84.9609 73.3523C85.8684 72.2682 87.0858 71.7262 88.6148 71.7262C90.0462 71.7262 91.1791 72.1969 92.013 73.1384C92.847 74.0809 93.2639 75.323 93.2639 76.8658V77.9597H85.3938C85.4284 79.3017 85.7674 80.32 86.4104 81.0145C87.0529 81.7091 87.9581 82.0569 89.1256 82.0569C90.3556 82.0569 91.5714 81.8002 92.774 81.2855V82.8283C92.1623 83.0927 91.584 83.2815 91.0387 83.3956C90.4928 83.5108 89.8344 83.5678 89.0631 83.5678ZM88.594 73.1757C87.6767 73.1757 86.9453 73.4741 86.3995 74.0721C85.8541 74.6702 85.5326 75.4964 85.4355 76.5531H91.4085C91.4085 75.4624 91.1649 74.6263 90.6788 74.0458C90.1921 73.4654 89.497 73.1757 88.594 73.1757Z" fill="#00587C"/>
<path d="M97.7095 83.3594H95.9791V71.9347H105.569V83.3594H103.818V73.4357H97.7095V83.3594Z" fill="#00587C"/>
<path d="M115.903 83.3594L115.559 81.7332H115.476C114.906 82.4498 114.338 82.9337 113.771 83.1871C113.205 83.4417 112.498 83.5679 111.65 83.5679C110.517 83.5679 109.63 83.276 108.987 82.6923C108.344 82.1085 108.023 81.279 108.023 80.2015C108.023 77.8939 109.868 76.6848 113.558 76.5739L115.497 76.5114V75.8026C115.497 74.9061 115.304 74.2433 114.918 73.8165C114.533 73.3886 113.915 73.1757 113.068 73.1757C112.115 73.1757 111.038 73.4676 109.836 74.0513L109.305 72.7269C109.868 72.4219 110.484 72.1816 111.155 72.0082C111.826 71.8349 112.498 71.7471 113.172 71.7471C114.534 71.7471 115.543 72.0499 116.201 72.6545C116.857 73.2591 117.185 74.228 117.185 75.5623V83.3594H115.903ZM111.994 82.1403C113.071 82.1403 113.917 81.8452 114.533 81.2537C115.147 80.6634 115.455 79.8361 115.455 78.7728V77.7414L113.725 77.8138C112.349 77.8632 111.357 78.0761 110.748 78.4546C110.14 78.8343 109.836 79.4235 109.836 80.2223C109.836 80.8478 110.026 81.324 110.405 81.6499C110.783 81.9768 111.313 82.1403 111.994 82.1403Z" fill="#00587C"/>
<path d="M125.787 83.5678C125.043 83.5678 124.364 83.4307 123.749 83.1564C123.134 82.8821 122.618 82.4596 122.201 81.8901H122.076C122.159 82.5573 122.201 83.1893 122.201 83.7873V88.488H120.471V71.9347H121.878L122.118 73.4983H122.201C122.645 72.8728 123.163 72.4219 123.754 72.1432C124.344 71.8656 125.022 71.7262 125.787 71.7262C127.302 71.7262 128.471 72.2441 129.295 73.2799C130.118 74.3157 130.53 75.7674 130.53 77.6371C130.53 79.5135 130.111 80.9706 129.274 82.0097C128.436 83.0488 127.274 83.5678 125.787 83.5678ZM125.537 73.1965C124.369 73.1965 123.525 73.5191 123.004 74.1654C122.482 74.8117 122.215 75.8409 122.201 77.2509V77.6371C122.201 79.2424 122.468 80.3902 123.004 81.0814C123.538 81.7738 124.397 82.1195 125.578 82.1195C126.565 82.1195 127.338 81.7201 127.898 80.9202C128.457 80.1213 128.737 79.0197 128.737 77.6163C128.737 76.1921 128.457 75.0981 127.898 74.3377C127.338 73.5762 126.551 73.1965 125.537 73.1965Z" fill="#00587C"/>
<path d="M140.461 83.3594L140.117 81.7332H140.034C139.464 82.4498 138.896 82.9337 138.329 83.1871C137.763 83.4417 137.056 83.5679 136.208 83.5679C135.075 83.5679 134.187 83.276 133.545 82.6923C132.902 82.1085 132.58 81.279 132.58 80.2015C132.58 77.8939 134.425 76.6848 138.116 76.5739L140.054 76.5114V75.8026C140.054 74.9061 139.862 74.2433 139.476 73.8165C139.09 73.3886 138.473 73.1757 137.626 73.1757C136.673 73.1757 135.596 73.4676 134.394 74.0513L133.863 72.7269C134.425 72.4219 135.042 72.1816 135.713 72.0082C136.384 71.8349 137.056 71.7471 137.73 71.7471C139.092 71.7471 140.101 72.0499 140.758 72.6545C141.414 73.2591 141.743 74.228 141.743 75.5623V83.3594H140.461ZM136.552 82.1403C137.629 82.1403 138.475 81.8452 139.09 81.2537C139.705 80.6634 140.013 79.8361 140.013 78.7728V77.7414L138.282 77.8138C136.906 77.8632 135.914 78.0761 135.306 78.4546C134.698 78.8343 134.394 79.4235 134.394 80.2223C134.394 80.8478 134.583 81.324 134.963 81.6499C135.341 81.9768 135.871 82.1403 136.552 82.1403Z" fill="#00587C"/>
<path d="M152.834 73.4149H149.123V83.3594H147.393V73.4149H143.724V71.9347H152.834V73.4149Z" fill="#00587C"/>
<path d="M164.665 77.6371C164.665 79.4992 164.196 80.9531 163.258 81.9988C162.32 83.0455 161.023 83.5678 159.37 83.5678C158.348 83.5678 157.441 83.3286 156.649 82.8491C155.857 82.3696 155.245 81.6817 154.814 80.7852C154.383 79.8887 154.168 78.8397 154.168 77.6371C154.168 75.7751 154.633 74.3234 155.565 73.2843C156.496 72.2463 157.788 71.7262 159.442 71.7262C161.041 71.7262 162.311 72.2584 163.253 73.3216C164.194 74.3849 164.665 75.8234 164.665 77.6371ZM155.961 77.6371C155.961 79.0965 156.253 80.208 156.836 80.9728C157.42 81.7376 158.278 82.1195 159.411 82.1195C160.544 82.1195 161.404 81.7387 161.991 80.9772C162.578 80.2168 162.872 79.1031 162.872 77.6371C162.872 76.1844 162.578 75.0816 161.991 74.3267C161.404 73.5729 160.537 73.1965 159.39 73.1965C158.257 73.1965 157.403 73.5685 156.826 74.3113C156.249 75.0553 155.961 76.1635 155.961 77.6371Z" fill="#00587C"/>
<path d="M176.688 74.8018C176.688 75.5458 176.475 76.1098 176.047 76.4949C175.62 76.8811 175.02 77.1401 174.249 77.2718V77.3661C175.222 77.4978 175.933 77.7831 176.38 78.2209C176.829 78.6587 177.053 79.2633 177.053 80.0347C177.053 81.0979 176.662 81.9176 175.88 82.4947C175.099 83.0719 173.957 83.3594 172.456 83.3594H167.421V71.9347H172.435C175.27 71.9347 176.688 72.8904 176.688 74.8018ZM174.999 74.9686C174.999 74.4123 174.786 74.0184 174.358 73.7847C173.931 73.5521 173.283 73.4357 172.414 73.4357H169.152V76.6573H172.081C173.151 76.6573 173.905 76.5256 174.343 76.2612C174.781 75.9968 174.999 75.5666 174.999 74.9686ZM175.323 79.9195C175.323 79.3017 175.088 78.8507 174.619 78.5698C174.15 78.2878 173.373 78.1474 172.289 78.1474H169.152V81.911H172.331C174.325 81.911 175.323 81.2471 175.323 79.9195Z" fill="#00587C"/>
</g>
<defs>
<clipPath id="clip0_5229_40487">
<rect width="185.393" height="100" fill="white"/>
</clipPath>
</defs>
</svg>
