<svg width="127" height="96" viewBox="0 0 127 96" fill="none" xmlns="http://www.w3.org/2000/svg">
<g clip-path="url(#clip0_3695_28150)">
<path d="M37.1179 65.5717L37.3239 66.3132C37.5931 67.458 37.9319 68.5855 38.3383 69.6894L40.5414 75.2112H42.9346L45.106 69.7367C45.5283 68.5963 45.8829 67.4321 46.1678 66.2501L46.3421 65.5717V75.2112H49.512V62.9844H44.9315C43.6425 66.1397 42.9135 67.9224 42.7444 68.3326C42.5859 68.727 42.4432 69.1688 42.3006 69.6421C42.158 70.1154 41.9837 70.9042 41.7459 72.0085C41.6667 71.4879 41.5398 70.8568 41.3655 70.1311C41.1969 69.473 40.9906 68.8251 40.7474 68.1906L38.6394 62.9844H34.0273V75.2112H37.1972L37.1179 65.5717Z" fill="#00587C"/>
<path d="M63.985 62.9844H54.6973C54.5388 65.4297 54.3487 67.3387 54.1268 68.7428C53.9873 69.7622 53.732 70.7625 53.3659 71.7246C53.0806 72.3241 52.732 72.6238 52.3041 72.6238C51.9391 72.6188 51.5786 72.5439 51.2422 72.4029V75.0692C51.841 75.3301 52.4909 75.454 53.1441 75.432C53.5557 75.4448 53.9652 75.3698 54.3452 75.212C54.7252 75.0541 55.0668 74.8172 55.3471 74.517C56.0298 73.6688 56.4925 72.6665 56.6943 71.5983C57.1263 69.5809 57.4123 67.5352 57.5502 65.477H60.72V75.2112H64.0642L63.985 62.9844Z" fill="#00587C"/>
<path d="M75.5393 67.6701H70.8637V62.9688H67.5195V75.1955H70.8637V70.1628H75.5393V75.1955H78.8993V62.9688H75.5393V67.6701Z" fill="#00587C"/>
<path d="M98.0774 79.597H101.089V72.7658H99.2819V62.9844H90.6124C90.4611 64.8996 90.1267 66.7961 89.6138 68.6481C89.2234 70.0983 88.6256 71.485 87.8387 72.7658H86.8086V79.597H89.8199V75.2112H98.0774V79.597ZM95.9378 72.7658H91.3415C91.9207 71.6815 92.3676 70.5322 92.6728 69.3423C93.0029 68.0708 93.2517 66.7798 93.4177 65.477H95.9378V72.7658Z" fill="#00587C"/>
<path d="M111.548 63.5179C110.582 62.9778 109.486 62.7105 108.378 62.7449C107.564 62.6957 106.749 62.8194 105.986 63.1077C105.224 63.396 104.532 63.8424 103.956 64.4172C102.838 65.7032 102.269 67.3734 102.371 69.0712C102.35 70.2323 102.6 71.3825 103.1 72.4316C103.556 73.3615 104.278 74.1357 105.176 74.6561C106.147 75.1847 107.24 75.4512 108.346 75.4291C109.159 75.474 109.972 75.3467 110.731 75.0557C111.491 74.7647 112.18 74.3167 112.752 73.7411C113.881 72.4301 114.45 70.7313 114.337 69.0082C114.368 67.8461 114.117 66.6938 113.608 65.6477C113.154 64.7462 112.436 64.0033 111.548 63.5179ZM110.327 71.8164C110.121 72.1285 109.834 72.3796 109.497 72.5434C109.159 72.7072 108.784 72.7776 108.41 72.7472C108.031 72.7783 107.651 72.7085 107.308 72.5449C106.966 72.3813 106.673 72.1299 106.46 71.8164C106.007 70.9747 105.799 70.0242 105.858 69.0712C105.792 68.1247 105.995 67.1788 106.444 66.3419C106.682 66.0599 106.979 65.8332 107.315 65.6776C107.65 65.5221 108.016 65.4415 108.386 65.4415C108.756 65.4415 109.121 65.5221 109.457 65.6776C109.792 65.8332 110.089 66.0599 110.327 66.3419C110.78 67.1778 110.989 68.1233 110.93 69.0712C110.989 70.0242 110.78 70.9747 110.327 71.8164Z" fill="#00587C"/>
<path d="M126.604 65.9914C126.608 65.5101 126.483 65.0364 126.24 64.62C125.997 64.2036 125.647 63.8599 125.225 63.6249C124.108 62.9893 122.833 62.6829 121.548 62.7414C120.624 62.7366 119.701 62.8105 118.79 62.9623C117.926 63.1186 117.077 63.3509 116.254 63.6564L117.237 65.9914C117.872 65.7397 118.53 65.5495 119.202 65.4234C119.833 65.2923 120.475 65.2236 121.12 65.2183C121.773 65.1751 122.429 65.2775 123.037 65.5181C123.212 65.5904 123.362 65.7132 123.466 65.8706C123.571 66.028 123.626 66.2129 123.624 66.4015C123.624 66.8433 123.354 67.1588 122.816 67.3639C121.941 67.6183 121.031 67.725 120.121 67.6795H118.901V69.9828H120.264C121.161 69.9408 122.058 70.0638 122.911 70.3457C123.151 70.4127 123.364 70.5545 123.518 70.7503C123.672 70.9461 123.759 71.1857 123.767 71.4342C123.758 71.6725 123.674 71.902 123.526 72.0893C123.378 72.2765 123.173 72.4118 122.942 72.4755C122.164 72.7696 121.333 72.8986 120.502 72.8542C119.766 72.8455 119.033 72.7609 118.314 72.6017C117.604 72.447 116.913 72.2141 116.254 71.9076V74.6685C117.768 75.25 119.388 75.508 121.009 75.4257C122.084 75.4428 123.155 75.2829 124.179 74.9524C124.992 74.7065 125.721 74.2426 126.286 73.6114C126.759 73.0624 127.018 72.3625 127.016 71.6393C127.042 70.9785 126.809 70.3333 126.366 69.8409C125.766 69.2964 125.025 68.9301 124.226 68.7838V68.6892C125.843 68.2632 126.604 67.4113 126.604 65.9914Z" fill="#00587C"/>
<path d="M16.5775 19.7039L16.4507 25.1783V58.514H28.6862V0.914062H18.6379L0.0625 15.6335V15.7282L5.89511 22.9696L12.5359 17.6529C13.3284 17.0218 14.739 15.6966 16.7677 13.6772L16.5775 19.7039Z" fill="#00587C"/>
<path d="M55.0573 11.675C56.6521 10.9407 58.3439 10.4361 60.0815 10.1762C61.817 9.90673 63.5712 9.77484 65.3276 9.78176C67.669 9.78952 70.0023 10.0541 72.2854 10.5706V0.836466C69.7276 0.388311 67.1316 0.192792 64.5352 0.252744C63.0479 0.252349 61.5615 0.326088 60.0815 0.473638C52.6218 1.22039 46.8579 3.92868 42.79 8.59853C37.9401 14.1624 35.5152 22.6449 35.5152 34.046C35.3919 38.7378 36.2781 43.4015 38.1144 47.7242C39.645 51.2673 42.2064 54.273 45.4685 56.354C48.8444 58.3678 52.7234 59.3905 56.6581 59.3042C57.8025 59.2966 58.9457 59.2228 60.0815 59.0833C64.2734 58.7133 68.2009 56.8871 71.176 53.9244C74.6629 50.3484 76.401 45.484 76.3904 39.3312C76.3904 33.6358 74.9322 29.1553 72.0001 25.9369C70.4848 24.3267 68.6386 23.0605 66.5873 22.2247C64.536 21.3889 62.3278 21.0031 60.1132 21.0935H59.8596C54.1011 21.0935 49.9168 23.3233 47.307 27.7828H46.7999C46.8164 24.1502 47.6106 20.5628 49.1297 17.2598C50.4331 14.7987 52.517 12.8354 55.0573 11.675ZM50.3025 32.8312C51.6161 31.6782 53.2189 30.9007 54.9406 30.5812C56.6623 30.2618 58.4388 30.4124 60.0815 31.0169C61.0569 31.4009 61.9146 32.0317 62.5698 32.847C63.9787 34.7672 64.6735 37.1151 64.5352 39.4889C64.7094 42.143 63.9655 44.7764 62.4272 46.9512C61.7966 47.7401 60.9947 48.3766 60.0815 48.8128C58.9349 49.339 57.6826 49.598 56.4203 49.5701C55.1779 49.5911 53.9495 49.307 52.8438 48.7429C51.738 48.1788 50.7889 47.3521 50.0806 46.3359C48.3905 44.0572 47.5197 41.2788 47.6081 38.4477C47.6161 37.3722 47.8617 36.3115 48.3273 35.3409C48.793 34.3703 49.4672 33.5135 50.3025 32.8312Z" fill="#00587C"/>
<path d="M100.438 0C93.5698 0 88.4928 2.4138 85.2067 7.24141C81.9206 12.069 80.2723 19.5576 80.2617 29.7072C80.2617 39.4571 81.9575 46.8194 85.3493 51.7943C88.741 56.7691 93.7705 59.2671 100.438 59.2881C107.337 59.2881 112.436 56.869 115.732 52.0309C119.029 47.1928 120.688 39.7463 120.709 29.6914C120.709 19.9731 118.997 12.6107 115.574 7.60428C112.15 2.59788 107.105 0.063106 100.438 0ZM106.619 44.8368C105.351 47.9921 103.291 49.5435 100.438 49.4909C99.041 49.5122 97.6763 49.0737 96.5557 48.2435C95.435 47.4133 94.6213 46.2379 94.2408 44.9C93.0151 41.8393 92.4022 36.775 92.4022 29.7072C92.4022 22.6393 93.0256 17.5645 94.2724 14.4829C95.5086 11.4012 97.5638 9.86031 100.438 9.86031C103.259 9.86031 105.319 11.438 106.587 14.4829C107.855 17.5277 108.521 22.6551 108.521 29.7072C108.521 36.7593 107.887 41.7446 106.619 44.8368Z" fill="#00587C"/>
<path d="M3.77344 91.6929H4.64515V83.0001H10.5252V91.6929H11.3969V82.1797H3.77344V91.6929Z" fill="#00587C"/>
<path d="M18.7022 81.9927C18.0804 81.9497 17.4584 82.0733 16.9009 82.3508C16.3435 82.6283 15.8708 83.0494 15.5323 83.5704L15.358 82.2136H14.6289V96.0339H15.5007V92.4052C15.5007 91.9004 15.5007 91.4271 15.5007 91.0012V90.2597C15.8367 90.783 16.3088 91.206 16.8669 91.4838C17.425 91.7616 18.0483 91.8838 18.6705 91.8373C19.2244 91.8633 19.7765 91.7598 20.2829 91.5352C20.7894 91.3105 21.2359 90.971 21.5867 90.5436C22.3585 89.4961 22.7345 88.2112 22.6486 86.915C22.7421 85.6103 22.3843 84.3131 21.6343 83.2391C21.2771 82.8182 20.8258 82.4863 20.3167 82.2699C19.8076 82.0535 19.2547 81.9586 18.7022 81.9927ZM20.937 90.023C20.6789 90.3756 20.3363 90.6584 19.9405 90.8457C19.5447 91.0331 19.1082 91.1191 18.6705 91.0958C18.2154 91.1385 17.7564 91.0751 17.3301 90.9108C16.9037 90.7465 16.5215 90.4858 16.2138 90.1492C15.6417 89.2003 15.3813 88.0972 15.469 86.9939V86.7099C15.3751 85.6567 15.6494 84.6034 16.2456 83.7282C16.5657 83.41 16.9506 83.1637 17.3744 83.0058C17.7981 82.848 18.2508 82.7823 18.7022 82.8132C20.7309 82.8132 21.7453 84.2173 21.7453 87.0097C21.8032 88.074 21.5202 89.1291 20.937 90.023Z" fill="#00587C"/>
<path d="M28.9231 81.989C28.3774 81.9887 27.8376 82.1016 27.3382 82.3203C26.7961 82.5511 26.3177 82.9082 25.9434 83.3615C25.656 83.7357 25.4263 84.1505 25.2619 84.5921C24.9567 85.3601 24.806 86.1802 24.8182 87.0059C24.7385 88.3046 25.1578 89.5848 25.991 90.5872C26.3979 91.012 26.891 91.3457 27.4376 91.5661C27.9842 91.7864 28.5716 91.8883 29.1609 91.8651C29.6922 91.8805 30.2237 91.8382 30.7458 91.7389H30.9201C31.3758 91.6299 31.8211 91.4821 32.2514 91.2972V90.5083C31.7395 90.7202 31.2089 90.8839 30.6665 90.9974H30.302C29.9432 91.0228 29.583 91.0228 29.2242 90.9974C28.7436 91.0332 28.2612 90.9595 27.8135 90.7818C27.3659 90.6041 26.9648 90.3271 26.6408 89.9719C25.9857 89.1135 25.6597 88.0506 25.7215 86.9744H32.616V86.3433C32.67 85.2094 32.3222 84.0927 31.6333 83.188C31.3088 82.7894 30.8939 82.4729 30.4229 82.2645C29.9518 82.0561 29.4378 81.9617 28.9231 81.989ZM30.2069 86.2802H25.7215C25.7215 85.9962 25.7215 85.7438 25.8325 85.4914C25.9519 84.819 26.2533 84.1917 26.7041 83.6771C26.9867 83.3631 27.3397 83.1199 27.7344 82.9671C28.1158 82.8311 28.5179 82.7618 28.9231 82.7621C29.3062 82.7491 29.6869 82.8266 30.034 82.9884C30.3811 83.1502 30.6848 83.3917 30.9201 83.6929C31.4359 84.4544 31.6864 85.3633 31.6333 86.2802H30.2069Z" fill="#00587C"/>
<path d="M42.8425 91.6929V82.1797H35.2031V91.6929H36.0748V83.0001H41.9708V91.6929H42.8425Z" fill="#00587C"/>
<path d="M49.8296 86.1883C48.6495 86.1434 47.4803 86.4276 46.4537 87.0087C46.0859 87.2347 45.7849 87.5539 45.5816 87.9336C45.3784 88.3134 45.28 88.7401 45.2967 89.1701C45.2768 89.5373 45.3358 89.9046 45.4697 90.2473C45.6036 90.5901 45.8094 90.9005 46.0733 91.1579C46.6874 91.6588 47.4679 91.9122 48.2606 91.8678C48.8843 91.8838 49.5031 91.7542 50.0674 91.4892C50.6503 91.1739 51.1541 90.7317 51.5414 90.1955H51.6206L51.8266 91.6943H52.4764V85.3837C52.5574 84.4689 52.279 83.5585 51.6998 82.8437C51.3827 82.5546 51.0098 82.3329 50.6038 82.1918C50.1978 82.0508 49.7672 81.9935 49.3383 82.0233C48.2391 82.03 47.1556 82.2834 46.1684 82.7648L46.4854 83.522C47.3314 83.0577 48.2774 82.8034 49.2432 82.7805C49.5751 82.7529 49.909 82.801 50.2194 82.9213C50.5297 83.0416 50.8085 83.2309 51.0342 83.4747C51.4424 84.0782 51.6375 84.7997 51.5889 85.5257V86.1567L49.8296 86.1883ZM51.6206 87.7659C51.6646 88.2105 51.6093 88.6593 51.4587 89.0801C51.308 89.5009 51.0657 89.8833 50.7491 90.1999C50.4325 90.5165 50.0495 90.7596 49.6275 90.9116C49.2055 91.0635 48.7549 91.1207 48.3081 91.079C47.7364 91.1229 47.1696 90.948 46.7231 90.5899C46.5373 90.4115 46.3928 90.1948 46.2997 89.955C46.2066 89.7152 46.1673 89.4581 46.1843 89.2016C46.1649 88.8745 46.2341 88.5482 46.3846 88.2568C46.5352 87.9654 46.7616 87.7196 47.0401 87.5451C47.9349 87.1195 48.9174 86.9087 49.9088 86.9298L51.5889 86.8509L51.6206 87.7659Z" fill="#00587C"/>
<path d="M59.659 91.87H60.0869C60.5669 91.8426 61.0358 91.7163 61.4642 91.499C61.8925 91.2818 62.2708 90.9783 62.5752 90.6079C63.3513 89.5619 63.7329 88.2773 63.653 86.9793C63.7377 85.6755 63.3805 84.3812 62.6386 83.3034C62.3277 82.9271 61.9386 82.6223 61.4981 82.4099C61.0576 82.1975 60.5763 82.0825 60.0869 82.0728C59.9497 82.0632 59.812 82.0632 59.6748 82.0728C59.0524 82.0246 58.4284 82.146 57.87 82.4239C57.3116 82.7019 56.8397 83.1259 56.505 83.6505L56.3464 82.2937H55.6016V96.1139H56.4733V92.4853C56.4733 91.9805 56.4733 91.5071 56.4733 91.0812V90.3397C56.8177 90.8556 57.2952 91.2699 57.8556 91.5391C58.4161 91.8083 59.0389 91.9226 59.659 91.87ZM56.4891 86.6795C56.3999 85.6244 56.6799 84.571 57.2816 83.6978C57.5949 83.3747 57.9764 83.125 58.3985 82.9668C58.8206 82.8085 59.2728 82.7456 59.7223 82.7827C59.8595 82.7732 59.9972 82.7732 60.1344 82.7827C61.8778 82.9563 62.7654 84.3604 62.7654 86.932C62.8271 88.0044 62.55 89.0691 61.9729 89.9768C61.7507 90.2898 61.4626 90.5508 61.1287 90.7415C60.7947 90.9322 60.4229 91.0482 60.0393 91.0812H59.5955C59.1427 91.1238 58.6862 91.0604 58.2624 90.896C57.8386 90.7316 57.4593 90.4709 57.1548 90.1346C56.5689 89.1908 56.3023 88.0849 56.394 86.9793L56.4891 86.6795Z" fill="#00587C"/>
<path d="M70.0862 86.1873C68.9115 86.1454 67.748 86.4294 66.7261 87.0077C66.3564 87.2329 66.0532 87.5515 65.8472 87.9311C65.6413 88.3107 65.5398 88.7378 65.5533 89.1691C65.5373 89.5359 65.5982 89.902 65.7318 90.2442C65.8655 90.5864 66.0692 90.8971 66.3299 91.1569C66.948 91.6616 67.7349 91.9152 68.5329 91.8668C69.1514 91.8809 69.7646 91.7513 70.3239 91.4882C70.9089 91.1697 71.4173 90.7282 71.8137 90.1945L72.0356 91.6933H72.6696V85.3827C72.7505 84.4679 72.4722 83.5575 71.893 82.8427C71.5777 82.5556 71.2074 82.335 70.8043 82.194C70.4012 82.053 69.9737 81.9946 69.5473 82.0223C68.4484 82.0317 67.3655 82.285 66.3775 82.7638L66.7103 83.5211C67.5563 83.0567 68.5023 82.8024 69.4681 82.7796C69.7976 82.752 70.1292 82.8002 70.437 82.9206C70.7448 83.0409 71.0206 83.2302 71.2432 83.4737C71.6606 84.073 71.8566 84.7978 71.7979 85.5247V86.1557L70.0862 86.1873ZM71.8771 87.7649C71.9158 88.2056 71.8572 88.6493 71.7052 89.0649C71.5532 89.4806 71.3117 89.858 70.9975 90.1708C70.6833 90.4836 70.304 90.724 69.8865 90.8753C69.4689 91.0266 69.0232 91.085 68.5805 91.0465C68.0087 91.092 67.4413 90.9169 66.9956 90.5574C66.8077 90.3797 66.6608 90.1635 66.565 89.9238C66.4693 89.6842 66.4269 89.4266 66.4408 89.1691C66.4214 88.842 66.4907 88.5157 66.6413 88.2243C66.7918 87.9329 67.0182 87.6871 67.2967 87.5125C68.1976 87.0884 69.185 86.8778 70.1813 86.8972L71.8455 86.8183L71.8771 87.7649Z" fill="#00587C"/>
<path d="M74.6016 82.9212H77.8665V91.6929H78.7224V82.9212H81.9081V82.1797H74.6016V82.9212Z" fill="#00587C"/>
<path d="M84.4445 83.3004C83.6278 84.3285 83.2214 85.6208 83.3033 86.929C83.2859 87.8124 83.4589 88.6892 83.8105 89.5005C84.111 90.2113 84.6189 90.8159 85.2686 91.236C85.934 91.6463 86.7051 91.8546 87.4876 91.8355C88.0813 91.8724 88.6756 91.7736 89.225 91.5466C89.7745 91.3196 90.2644 90.9705 90.6574 90.526C91.3851 89.4575 91.7741 88.1962 91.7741 86.9053C91.7741 85.6144 91.3851 84.3531 90.6574 83.2846C90.2552 82.8685 89.7727 82.5375 89.239 82.3114C88.7052 82.0853 88.131 81.9687 87.5509 81.9688C86.9708 81.9687 86.3967 82.0853 85.863 82.3114C85.3292 82.5375 84.8467 82.8685 84.4445 83.2846V83.3004ZM90.8634 86.929C90.9224 88.0172 90.6158 89.0941 89.9918 89.9896C89.6975 90.351 89.3215 90.638 88.8946 90.8272C88.4676 91.0164 88.0018 91.1024 87.5351 91.0782C87.0706 91.1024 86.6072 91.0163 86.1828 90.8271C85.7584 90.6378 85.3853 90.3507 85.0943 89.9896C84.5302 89.0675 84.2318 88.0086 84.2318 86.929C84.2318 85.8493 84.5302 84.7904 85.0943 83.8683C85.4021 83.5247 85.7793 83.2498 86.2014 83.0616C86.6234 82.8733 87.0805 82.776 87.543 82.776C88.0054 82.776 88.4627 82.8733 88.8847 83.0616C89.3067 83.2498 89.684 83.5247 89.9918 83.8683C90.6284 84.7578 90.9364 85.8392 90.8634 86.929Z" fill="#00587C"/>
<path d="M101.117 90.9548C101.422 90.6963 101.662 90.3707 101.819 90.0038C101.976 89.6369 102.045 89.2387 102.021 88.8408C102.051 88.5571 102.021 88.2704 101.934 87.9987C101.847 87.7271 101.703 87.4765 101.513 87.2631C101.068 86.8817 100.514 86.6498 99.9285 86.6005C100.481 86.5328 100.994 86.2828 101.387 85.8906C101.704 85.4871 101.862 84.982 101.83 84.4707C101.849 84.1405 101.783 83.811 101.639 83.5131C101.495 83.2151 101.277 82.9584 101.006 82.7668C100.268 82.3241 99.4094 82.1201 98.5496 82.1831H94.4922V91.649H98.5337C99.4491 91.7163 100.36 91.4715 101.117 90.9548ZM95.2846 83.0666H98.4545C99.073 83.0306 99.6903 83.1557 100.245 83.4294C100.445 83.5529 100.607 83.7285 100.713 83.9372C100.819 84.1458 100.866 84.3795 100.848 84.6127C100.869 84.8625 100.827 85.1136 100.724 85.3426C100.621 85.5716 100.462 85.771 100.261 85.9221C99.6756 86.2413 99.0092 86.3838 98.3435 86.3323H95.3005L95.2846 83.0666ZM95.2846 87.1369H98.4545C100.245 87.1369 101.149 87.7206 101.149 88.8881C101.149 90.0555 100.293 90.9391 98.5655 90.9391H95.3956L95.2846 87.1369Z" fill="#00587C"/>
</g>
<defs>
<clipPath id="clip0_3695_28150">
<rect width="127" height="96" fill="white"/>
</clipPath>
</defs>
</svg>
