<svg width="158" height="97" viewBox="0 0 158 97" fill="none" xmlns="http://www.w3.org/2000/svg">
<path d="M52.4334 75.342V72.0051C51.8322 72.4053 51.1792 72.7223 50.4921 72.9475C49.8126 73.1519 49.1054 73.2509 48.3955 73.241C46.3455 73.241 45.2895 71.8352 45.2895 69.039C45.2895 66.2429 46.3145 64.698 48.3955 64.698C48.9215 64.7036 49.4441 64.7816 49.9486 64.9297C50.4766 65.0842 51.0512 65.3005 51.6724 65.5477L52.8372 62.458C51.4369 61.7927 49.9006 61.4595 48.3489 61.4848C47.3864 61.4189 46.4208 61.5569 45.516 61.8898C44.6111 62.2227 43.7875 62.7428 43.0997 63.4158C41.7752 64.9627 41.1169 66.9663 41.2672 68.9927C41.2672 73.9053 43.5035 76.3461 47.9918 76.3461C48.8211 76.3628 49.6495 76.2851 50.4611 76.1144C51.1566 75.9661 51.8229 75.7052 52.4334 75.342Z" fill="#00587C"/>
<path d="M62.9978 64.7399H67.719V61.8047H54.3164V64.7399H59.0531V76.1563H62.9978V64.7399Z" fill="#00587C"/>
<path d="M82.411 63.5125C81.9632 62.8802 81.3634 62.3693 80.6662 62.0266C79.9691 61.684 79.1968 61.5203 78.4198 61.5506C77.6104 61.5184 76.8065 61.6966 76.0875 62.0678C75.3685 62.4389 74.7592 62.9901 74.3198 63.667H74.1489L73.5899 61.8132H70.3906V82.4059H74.3198V76.5973C74.3198 76.412 74.3198 75.7168 74.1179 74.5118H74.3198C74.7878 75.1145 75.3948 75.5962 76.0896 75.9161C76.7843 76.2361 77.5462 76.385 78.311 76.3502C79.3634 76.3739 80.3963 76.0656 81.2618 75.4696C82.1385 74.8105 82.8068 73.9151 83.1875 72.8897C83.6599 71.6147 83.8865 70.2625 83.8553 68.904C83.8555 68.284 83.814 67.6647 83.7311 67.0502C83.5964 65.7795 83.1424 64.5629 82.411 63.5125ZM77.2084 73.245C76.7876 73.2778 76.3653 73.2027 75.9819 73.0269C75.5986 72.8511 75.2669 72.5805 75.0186 72.2409C74.4693 71.2292 74.2266 70.0809 74.3198 68.9349V68.5024C74.2607 67.4723 74.5035 66.4472 75.0186 65.5517C75.2738 65.2421 75.6008 64.9988 75.9714 64.8428C76.342 64.6867 76.7452 64.6225 77.1463 64.6557C77.5534 64.6289 77.9602 64.7142 78.3218 64.9022C78.6834 65.0903 78.986 65.3738 79.1963 65.7216C79.679 66.678 79.9037 67.7426 79.8485 68.8113C79.8485 71.8083 78.9633 73.245 77.1773 73.245H77.2084Z" fill="#00587C"/>
<path d="M93.0159 61.5139C91.4181 61.4974 89.8334 61.8022 88.3568 62.4099C88.0485 62.525 87.7476 62.6592 87.4561 62.8116L88.1239 64.171L88.7451 65.4532C90.0152 64.833 91.4005 64.4806 92.814 64.4182C93.1148 64.3731 93.4219 64.3977 93.7114 64.4903C94.001 64.5828 94.2651 64.7407 94.4832 64.9516C94.7012 65.1625 94.8673 65.4207 94.9683 65.7061C95.0694 65.9914 95.1028 66.2961 95.0659 66.5964V67.2298H92.55C90.8594 67.1834 89.1886 67.6003 87.7201 68.4348C87.5856 68.5306 87.4607 68.6392 87.3474 68.7592C86.9236 69.1508 86.5924 69.6311 86.3776 70.1653C86.1627 70.6996 86.0696 71.2745 86.105 71.8489C86.1065 72.3702 86.1743 72.8893 86.3069 73.3937C86.4759 74.0714 86.8183 74.694 87.3008 75.2012C87.7383 75.6079 88.2544 75.9217 88.8178 76.1236C89.3812 76.3254 89.98 76.4111 90.5777 76.3753C91.5127 76.412 92.4448 76.2487 93.311 75.8963C94.119 75.4842 94.8206 74.8921 95.361 74.1661H95.4542L96.2151 76.1281H98.964V66.5655C99.0206 65.8509 98.9098 65.133 98.6403 64.4683C98.3709 63.8035 97.95 63.2099 97.411 62.7343C96.1266 61.8454 94.5775 61.4152 93.0159 61.5139ZM95.1125 70.6902C95.1299 71.0735 95.0655 71.4561 94.9237 71.8129C94.7818 72.1697 94.5657 72.4926 94.2894 72.7603C93.9952 73.0296 93.6501 73.2379 93.2741 73.3732C92.8982 73.5085 92.4989 73.568 92.0996 73.5482C90.8262 73.5482 90.1894 72.992 90.1894 71.8952C90.1665 71.5614 90.2318 71.2275 90.379 70.9266C90.5261 70.6258 90.7499 70.3685 91.028 70.1804C91.8068 69.7389 92.695 69.5248 93.5905 69.5625H95.1436L95.1125 70.6902Z" fill="#00587C"/>
<path d="M112.505 61.8047V67.3198H107.007V61.8047H103.062V76.1563H107.007V70.2395H112.505V76.1563H116.434V61.8047H112.505Z" fill="#00587C"/>
<path d="M70.693 1.75781H60.9245L42.7852 16.1248L48.5158 23.2466L54.9919 18.0868C55.7529 17.4688 57.1351 16.1712 59.1074 14.2092L58.9211 20.0333L58.7968 25.363V57.8047H70.693V1.75781Z" fill="#00587C"/>
<path d="M115.567 28.9331C115.567 38.7309 113.957 45.9833 110.736 50.6904C107.54 55.3975 102.607 57.751 95.9346 57.751C89.4672 57.751 84.5846 55.3207 81.287 50.4602C78.0149 45.5996 76.3789 38.4239 76.3789 28.9331C76.3789 19.0329 77.9766 11.7421 81.172 7.06059C84.3674 2.35353 89.2882 0 95.9346 0C102.402 0 107.285 2.45586 110.582 7.36757C113.905 12.2793 115.567 19.4678 115.567 28.9331ZM88.1507 28.9331C88.1507 35.8146 88.7386 40.7519 89.9145 43.7449C91.116 46.7124 93.1227 48.1962 95.9346 48.1962C98.6955 48.1962 100.689 46.6868 101.916 43.6682C103.143 40.6495 103.757 35.7378 103.757 28.9331C103.757 22.0515 103.131 17.1142 101.878 14.1212C100.651 11.1025 98.6699 9.59319 95.9346 9.59319C93.1483 9.59319 91.1544 11.1025 89.9529 14.1212C88.7514 17.1142 88.1507 22.0515 88.1507 28.9331Z" fill="#00587C"/>
<path d="M79.3129 91.5084C78.3669 91.5187 77.4282 91.3429 76.5508 90.991V91.883C76.9227 92.0467 77.3147 92.1607 77.7166 92.222C78.2601 92.3265 78.8132 92.3743 79.3667 92.3647C80.0646 92.4018 80.7623 92.2887 81.4123 92.0332C82.0623 91.7776 82.6493 91.3856 83.1331 90.884C84.0913 89.7429 84.5784 88.2828 84.4962 86.7983C84.584 85.3742 84.1221 83.9703 83.2049 82.8733C82.7383 82.4044 82.1779 82.0382 81.5599 81.7985C80.942 81.5587 80.2803 81.4508 79.6178 81.4817C79.1216 81.4913 78.6282 81.5572 78.1471 81.678C77.6833 81.7739 77.2275 81.9051 76.784 82.0705L77.053 82.9447C77.8728 82.6 78.7468 82.4007 79.6357 82.3559C80.136 82.3268 80.637 82.3987 81.1087 82.5673C81.5803 82.736 82.0127 82.9979 82.3798 83.3372C83.0904 84.1304 83.4969 85.1476 83.5277 86.2096H77.5552V87.066H83.5636C83.6185 88.25 83.2066 89.4086 82.4157 90.2952C82.0181 90.7094 81.5346 91.0326 80.9988 91.2421C80.4629 91.4516 79.8876 91.5425 79.3129 91.5084Z" fill="#00587C"/>
<path d="M87.418 81.6875V92.178H88.4044V86.8614L93.3726 92.178H94.6639L89.6061 86.7544L94.3231 81.6875H93.1394L88.4044 86.7722V81.6875H87.418Z" fill="#00587C"/>
<path d="M100.873 82.3541C101.681 82.3845 102.48 82.541 103.24 82.818L103.509 81.9616C102.674 81.6399 101.786 81.4765 100.891 81.4799C100.222 81.4547 99.5565 81.5723 98.9377 81.8246C98.3189 82.077 97.7617 82.4583 97.3036 82.9428C96.4586 84.1092 96.0039 85.5105 96.0039 86.9482C96.0039 88.3859 96.4586 89.7871 97.3036 90.9535C97.7607 91.4361 98.3191 91.8126 98.9391 92.0562C99.5591 92.2998 100.225 92.4045 100.891 92.3629C101.795 92.3995 102.695 92.2349 103.527 91.8812V90.9892C102.686 91.3368 101.783 91.5127 100.873 91.5065C100.344 91.5332 99.8159 91.4375 99.3304 91.227C98.8449 91.0165 98.4151 90.697 98.0748 90.2934C97.3597 89.3383 97.0042 88.1639 97.0704 86.9749C96.9878 85.7509 97.3436 84.5374 98.0748 83.5495C98.4244 83.1583 98.8564 82.8484 99.3399 82.6418C99.8235 82.4352 100.347 82.337 100.873 82.3541Z" fill="#00587C"/>
<path d="M114.381 92.178V81.6875H105.969V92.178H106.937V82.5974H113.43V92.178H114.381Z" fill="#00587C"/>
<path d="M118.542 82.9266C117.655 84.0648 117.215 85.4855 117.304 86.923C117.282 87.9089 117.472 88.8881 117.86 89.7954C118.2 90.5747 118.761 91.2383 119.475 91.7044C120.213 92.1549 121.066 92.3841 121.932 92.3645C122.578 92.3966 123.223 92.2833 123.819 92.0331C124.416 91.7829 124.947 91.4022 125.375 90.9194C126.277 89.7877 126.724 88.3638 126.631 86.923C126.716 85.4915 126.276 84.0779 125.393 82.9444C124.974 82.4601 124.449 82.0768 123.858 81.8234C123.268 81.57 122.628 81.4531 121.986 81.4815C121.339 81.4507 120.695 81.5646 120.099 81.8147C119.503 82.0648 118.971 82.4448 118.542 82.9266ZM125.626 86.923C125.693 88.1233 125.352 89.311 124.658 90.2949C124.34 90.6966 123.93 91.0165 123.461 91.2276C122.993 91.4387 122.481 91.5349 121.968 91.5081C121.452 91.5334 120.938 91.4366 120.467 91.2257C119.996 91.0148 119.582 90.6958 119.259 90.2949C118.571 89.3088 118.237 88.1212 118.309 86.923C118.224 85.7234 118.559 84.5316 119.259 83.5511C119.578 83.1515 119.989 82.8342 120.458 82.6262C120.926 82.4181 121.438 82.3253 121.95 82.3557C122.464 82.3283 122.977 82.4224 123.448 82.6301C123.919 82.8379 124.333 83.1534 124.658 83.5511C125.352 84.5349 125.693 85.7227 125.626 86.923Z" fill="#00587C"/>
<path d="M134.073 92.36C134.681 92.3887 135.288 92.2764 135.845 92.0318C136.402 91.7872 136.895 91.417 137.283 90.9506C138.137 89.791 138.556 88.3709 138.467 86.9364C138.568 85.4975 138.169 84.0679 137.337 82.8864C136.949 82.4106 136.451 82.0342 135.886 81.789C135.322 81.5438 134.706 81.4368 134.091 81.477C133.403 81.4346 132.717 81.578 132.104 81.8921C131.491 82.2061 130.976 82.6792 130.611 83.2611L130.432 81.7625H129.625V96.9987H130.486V92.9309C130.486 92.36 130.486 91.8426 130.486 91.3609V90.5581C130.861 91.156 131.394 91.6402 132.026 91.9579C132.659 92.2756 133.367 92.4147 134.073 92.36ZM130.486 86.6509C130.382 85.4905 130.686 84.3303 131.347 83.3682C131.694 83.0093 132.117 82.7318 132.586 82.5559C133.054 82.38 133.556 82.3101 134.055 82.3512C136.297 82.3512 137.409 83.8856 137.409 86.972C137.481 88.1545 137.173 89.3291 136.53 90.3261C136.241 90.7138 135.861 91.0254 135.424 91.2337C134.986 91.442 134.504 91.5409 134.019 91.5215C133.517 91.5676 133.01 91.4964 132.54 91.3137C132.07 91.1309 131.649 90.8417 131.311 90.4689C130.652 89.4008 130.362 88.1477 130.486 86.9007V86.6509Z" fill="#00587C"/>
<path d="M144.549 92.178V82.5082H148.065V81.6875H140.012V82.5082H143.599V92.178H144.549Z" fill="#00587C"/>
<path d="M152.685 92.3677C153.366 92.381 154.04 92.2407 154.658 91.9574C155.298 91.6021 155.854 91.1156 156.29 90.5301H156.38L156.613 92.1893H157.33V85.2135C157.418 84.2043 157.109 83.2007 156.47 82.4125C156.124 82.089 155.714 81.8409 155.266 81.6842C154.818 81.5275 154.342 81.4657 153.869 81.5025C152.68 81.5218 151.51 81.802 150.443 82.3232L150.802 83.1439C151.733 82.6386 152.773 82.3632 153.833 82.3411C154.199 82.3078 154.568 82.3598 154.911 82.4929C155.253 82.6261 155.56 82.8368 155.806 83.1083C156.256 83.7687 156.471 84.5601 156.416 85.3562V86.052H154.407C153.108 86.0007 151.821 86.3161 150.694 86.9619C150.287 87.2082 149.953 87.5577 149.726 87.9746C149.499 88.3915 149.388 88.8609 149.403 89.3348C149.38 89.7405 149.445 90.1465 149.594 90.5251C149.742 90.9037 149.971 91.2461 150.264 91.5292C150.929 92.1133 151.799 92.4143 152.685 92.3677ZM151.358 87.622C152.346 87.1428 153.434 86.9043 154.533 86.9262H156.326V87.9432C156.358 88.4199 156.287 88.8979 156.118 89.3451C155.949 89.7923 155.685 90.1984 155.346 90.5363C155.006 90.8741 154.598 91.1359 154.148 91.3041C153.699 91.4722 153.218 91.5429 152.739 91.5114C152.092 91.561 151.451 91.3632 150.945 90.9583C150.742 90.7596 150.584 90.5198 150.482 90.2551C150.38 89.9904 150.336 89.707 150.354 89.424C150.334 89.0602 150.419 88.6984 150.596 88.3798C150.774 88.0612 151.038 87.7987 151.358 87.622Z" fill="#00587C"/>
<path d="M0.0101156 36.9615C0.0101156 32.6681 1.23207 30.2076 3.65951 29.6131C4.50168 29.3985 5.31082 29.2168 6.10345 29.0682L8.16759 28.6719L8.33273 29.448L7.24286 29.6627C5.44293 30.0094 4.25397 30.2571 3.67601 30.4388C3.25705 30.565 2.86892 30.7769 2.5363 31.0612C2.20368 31.3455 1.93386 31.6959 1.74398 32.0901C1.22201 33.2476 0.95185 34.5028 0.951352 35.7725C1.47531 35.108 2.11949 34.5478 2.85035 34.1212C3.43128 33.7982 4.08467 33.6277 4.74938 33.6258C5.27292 33.5976 5.79605 33.6884 6.27942 33.8915C6.7628 34.0945 7.19384 34.4046 7.54011 34.7983C8.22695 35.7576 8.56492 36.923 8.49788 38.1009C8.57907 39.3955 8.18572 40.6752 7.39147 41.7008C6.9986 42.137 6.51261 42.4793 5.9695 42.7023C5.42639 42.9252 4.84007 43.0232 4.25398 42.9888C3.62851 43.007 3.00878 42.8648 2.4538 42.5758C1.89882 42.2867 1.42707 41.8604 1.08346 41.3375C0.305408 40.0152 -0.0677663 38.4937 0.0101156 36.9615ZM4.38609 42.2787C4.8366 42.3067 5.28729 42.227 5.70082 42.0461C6.11435 41.8651 6.47881 41.5883 6.76399 41.2384C7.36657 40.3629 7.65736 39.3102 7.58965 38.2495C7.6571 37.265 7.40204 36.2854 6.86306 35.4588C6.60264 35.142 6.27077 34.8915 5.89472 34.7278C5.51866 34.5642 5.10917 34.4921 4.69984 34.5175C3.96576 34.5228 3.25098 34.7533 2.6522 35.1781C1.98073 35.6613 1.41817 36.2801 1.00089 36.9945C0.989097 37.9678 1.12836 38.9371 1.41372 39.8678C1.60919 40.5791 2.01847 41.2132 2.58616 41.6842C3.12155 42.0784 3.77088 42.2871 4.43563 42.2787H4.38609Z" fill="#00587C"/>
<path d="M19.4745 37.9451C19.5574 39.309 19.134 40.6555 18.2856 41.7266C17.8769 42.1929 17.3666 42.5589 16.7939 42.7966C16.2213 43.0342 15.6017 43.1371 14.983 43.0972C14.1736 43.1121 13.3769 42.8943 12.6876 42.4697C12.006 42.031 11.4711 41.3984 11.1519 40.6532C10.7871 39.7978 10.607 38.8749 10.6235 37.9451C10.5407 36.5812 10.964 35.2347 11.8124 34.1636C12.2296 33.7336 12.7288 33.3918 13.2805 33.1584C13.8322 32.925 14.4252 32.8047 15.0242 32.8047C15.6233 32.8047 16.2163 32.925 16.768 33.1584C17.3197 33.3918 17.8189 33.7336 18.2361 34.1636C19.0967 35.2306 19.5372 36.5757 19.4745 37.9451ZM11.6473 37.9451C11.5809 39.0771 11.8948 40.1989 12.539 41.1321C12.8582 41.4914 13.2498 41.7789 13.6881 41.9758C14.1265 42.1727 14.6015 42.2745 15.082 42.2745C15.5626 42.2745 16.0376 42.1727 16.476 41.9758C16.9143 41.7789 17.3059 41.4914 17.6251 41.1321C18.2693 40.1989 18.5831 39.0771 18.5168 37.9451C18.5889 36.81 18.2682 35.6847 17.6086 34.7581C17.3046 34.3821 16.9153 34.084 16.473 33.8887C16.0307 33.6934 15.5482 33.6065 15.0655 33.6352C14.5853 33.6064 14.1051 33.6934 13.6655 33.8888C13.2258 34.0842 12.8395 34.3823 12.539 34.7581C11.8852 35.6868 11.5704 36.8119 11.6473 37.9451Z" fill="#00587C"/>
<path d="M29.0714 42.9157H28.1797V33.8335H24.6624C24.5542 35.6782 24.3336 37.5145 24.0018 39.3324C23.8431 40.3146 23.4954 41.2567 22.978 42.1066C22.8036 42.3855 22.5597 42.6143 22.2702 42.7707C21.9807 42.927 21.6556 43.0054 21.3267 42.9983C21.1184 43.0253 20.9075 43.0253 20.6992 42.9983V42.1726C20.8635 42.1957 21.0303 42.1957 21.1946 42.1726C21.8881 42.1726 22.4331 41.446 22.8459 39.9929C23.3951 37.7019 23.7159 35.3621 23.8037 33.0078H29.0218L29.0714 42.9157Z" fill="#00587C"/>
<path d="M36.4006 43.0953C35.773 43.1317 35.1451 43.0308 34.5604 42.7998C33.9758 42.5688 33.4486 42.2132 33.0154 41.7578C32.1615 40.708 31.7314 39.3767 31.8099 38.0258C31.7465 36.6619 32.1611 35.3186 32.9823 34.2277C33.3624 33.7632 33.8451 33.3932 34.3924 33.1468C34.9396 32.9004 35.5366 32.7843 36.1363 32.8076C36.6589 32.7868 37.1792 32.8861 37.6573 33.098C38.1354 33.3098 38.5585 33.6285 38.894 34.0296C39.615 34.974 39.9725 36.1462 39.9013 37.3322V38.0588H32.7677C32.6951 39.1786 33.0294 40.2868 33.7089 41.1798C34.0509 41.5458 34.4694 41.8319 34.9347 42.0174C35.4 42.203 35.9006 42.2834 36.4006 42.2531C36.8985 42.261 37.396 42.2223 37.8867 42.1376C38.4527 42.0218 39.0059 41.8504 39.538 41.6256V42.4513C39.0446 42.669 38.53 42.835 38.0023 42.9467C37.4737 43.0426 36.9378 43.0923 36.4006 43.0953ZM36.1363 33.6168C35.7061 33.5989 35.2769 33.6736 34.8781 33.836C34.4792 33.9984 34.1199 34.2447 33.8245 34.558C33.194 35.3283 32.8394 36.2875 32.8172 37.2827H38.9436C38.9989 36.323 38.7379 35.3716 38.2005 34.5745C37.959 34.2605 37.6452 34.0094 37.2858 33.8427C36.9264 33.6759 36.5321 33.5984 36.1363 33.6168Z" fill="#00587C"/>
<path d="M46.644 43.0954C46.0301 43.1198 45.4181 43.0131 44.8486 42.7824C44.2792 42.5518 43.7654 42.2025 43.3414 41.7579C42.4802 40.7121 42.0492 39.3778 42.1359 38.0259C42.0725 36.662 42.4872 35.3187 43.3084 34.2279C43.6851 33.7637 44.1648 33.3937 44.7094 33.1472C45.254 32.9006 45.8485 32.7844 46.4459 32.8077C46.971 32.7856 47.4941 32.8843 47.9751 33.0961C48.456 33.308 48.882 33.6274 49.2201 34.0297C49.9294 34.9801 50.2856 36.1479 50.2274 37.3323V38.0589H43.0772C43.0109 39.1806 43.3509 40.2885 44.0349 41.1799C44.3744 41.5447 44.7901 41.83 45.2526 42.0155C45.715 42.2011 46.2127 42.2822 46.7101 42.2532C47.208 42.2618 47.7056 42.2231 48.1963 42.1377C48.7615 42.0189 49.3143 41.8475 49.8476 41.6258V42.4514C49.3494 42.6717 48.829 42.8378 48.2953 42.9468C47.7506 43.0464 47.1978 43.0962 46.644 43.0954ZM46.3798 33.6169C45.9519 33.5981 45.525 33.6725 45.1286 33.835C44.7323 33.9976 44.376 34.2443 44.0845 34.5581C43.454 35.3284 43.0994 36.2876 43.0772 37.2828H49.2036C49.2589 36.3231 48.9978 35.3717 48.4605 34.5746C48.2155 34.2603 47.8986 34.0094 47.5366 33.8427C47.1746 33.6761 46.7779 33.5986 46.3798 33.6169Z" fill="#00587C"/>
</svg>
