<svg width="186" height="100" viewBox="0 0 186 100" fill="none" xmlns="http://www.w3.org/2000/svg">
<g clip-path="url(#clip0_5229_40467)">
<path d="M185.393 0H0V100H185.393V0Z" fill="white"/>
<path d="M32.038 1.35925H21.495L1.9178 16.8652L8.10281 24.5515L15.0922 18.9827C15.9136 18.3158 17.4053 16.9152 19.534 14.7977L19.3329 21.0834L19.1987 26.8356V61.849H32.038V1.35925Z" fill="#00587C"/>
<path d="M80.4641 30.686C80.4641 41.2605 78.7259 49.0879 75.2496 54.1681C71.8009 59.2482 66.4762 61.7884 59.2754 61.7884C52.2952 61.7884 47.0256 59.1655 43.4666 53.9196C39.9351 48.6737 38.1693 40.9292 38.1693 30.686C38.1693 20.001 39.8937 12.1322 43.3424 7.07964C46.7911 1.99945 52.1021 -0.540649 59.2754 -0.540649C66.2554 -0.540649 71.5251 2.10989 75.0841 7.41096C78.6707 12.7121 80.4641 20.4703 80.4641 30.686ZM50.8744 30.686C50.8744 38.1129 51.5089 43.4417 52.778 46.672C54.0747 49.8748 56.2405 51.4762 59.2754 51.4762C62.2549 51.4762 64.407 49.8472 65.7312 46.5892C67.0556 43.3313 67.7178 38.0302 67.7178 30.686C67.7178 23.259 67.0418 17.9303 65.6899 14.7C64.3656 11.442 62.2274 9.813 59.2754 9.813C56.2681 9.813 54.1161 11.442 52.8194 14.7C51.5227 17.9303 50.8744 23.259 50.8744 30.686Z" fill="#00587C"/>
<path d="M22.3312 87.3882C21.121 87.3882 20.0887 87.1817 19.2343 86.7688V85.1714C19.6689 85.3385 20.1396 85.4865 20.6469 85.6169C21.1536 85.7473 21.737 85.8125 22.3964 85.8125C23.6569 85.8125 24.6295 85.4757 25.3141 84.8019C25.9987 84.1282 26.377 83.1217 26.4496 81.7811H20.4187V80.2489H26.4279C26.3118 79.0033 25.9477 78.0905 25.3358 77.5105C24.7232 76.9305 23.8342 76.6412 22.6681 76.6412C21.9217 76.6412 21.0014 76.8368 19.908 77.228L19.3973 75.7067C19.7953 75.5179 20.2917 75.3603 20.886 75.234C21.4796 75.1077 22.0664 75.0438 22.6464 75.0438C24.5005 75.0438 25.9097 75.5749 26.8734 76.6358C27.8365 77.6966 28.3187 79.2274 28.3187 81.2269C28.3187 83.176 27.795 84.6892 26.7485 85.7691C25.7012 86.8489 24.2288 87.3882 22.3312 87.3882Z" fill="#00587C"/>
<path d="M38.4245 75.2611H40.4022L35.2624 81.0095L40.826 87.1708H38.7179L33.2847 81.1399V87.1708H31.4808V75.2611H33.2847V81.053L38.4245 75.2611Z" fill="#00587C"/>
<path d="M47.7914 87.3882C46.0671 87.3882 44.7325 86.8571 43.7871 85.7962C42.8417 84.7354 42.3691 83.2331 42.3691 81.2921C42.3691 79.2994 42.8485 77.7604 43.8089 76.6738C44.7685 75.5871 46.1357 75.0438 47.911 75.0438C48.4828 75.0438 49.0554 75.1049 49.6279 75.2286C50.1997 75.3522 50.6493 75.4961 50.9753 75.6632L50.4211 77.1954C50.0225 77.0365 49.5878 76.9034 49.1172 76.7988C48.6458 76.6942 48.2295 76.6412 47.8675 76.6412C45.4477 76.6412 44.2381 78.1842 44.2381 81.2703C44.2381 82.7332 44.5329 83.8566 45.1237 84.6389C45.7139 85.4213 46.5887 85.8125 47.748 85.8125C48.7402 85.8125 49.7583 85.5993 50.8015 85.1714V86.7688C50.0041 87.1817 49.001 87.3882 47.7914 87.3882Z" fill="#00587C"/>
<path d="M55.4306 87.1708H53.6268V75.2611H63.6239V87.1708H61.7984V76.8259H55.4306V87.1708Z" fill="#00587C"/>
<path d="M77.7286 81.2051C77.7286 83.1462 77.2396 84.662 76.2617 85.7528C75.2837 86.8435 73.9322 87.3882 72.2085 87.3882C71.1435 87.3882 70.1982 87.1382 69.3723 86.6384C68.5464 86.1385 67.9087 85.4213 67.4598 84.4868C67.0102 83.5523 66.7861 82.4589 66.7861 81.2051C66.7861 79.2641 67.271 77.7509 68.2422 76.6684C69.2127 75.5858 70.5601 75.0438 72.2845 75.0438C73.9505 75.0438 75.2742 75.598 76.2562 76.7064C77.2376 77.8148 77.7286 79.3144 77.7286 81.2051ZM68.6551 81.2051C68.6551 82.7264 68.9594 83.8851 69.5679 84.6824C70.1764 85.4797 71.0709 85.8777 72.2519 85.8777C73.4323 85.8777 74.3288 85.4811 74.9414 84.6878C75.5533 83.8946 75.8596 82.7332 75.8596 81.2051C75.8596 79.6906 75.5533 78.5415 74.9414 77.755C74.3288 76.9685 73.4255 76.576 72.2302 76.576C71.0491 76.576 70.1581 76.9631 69.557 77.7387C68.9553 78.5143 68.6551 79.6689 68.6551 81.2051Z" fill="#00587C"/>
<path d="M86.4327 87.3882C85.6571 87.3882 84.9494 87.2442 84.3083 86.9589C83.6672 86.6723 83.1293 86.2322 82.6946 85.6387H82.5643C82.6512 86.3341 82.6946 86.9929 82.6946 87.6164V92.5171H80.8908V75.2612H82.3578L82.6077 76.8911H82.6946C83.1578 76.2391 83.6978 75.7678 84.3138 75.4785C84.9291 75.1892 85.6354 75.0438 86.4327 75.0438C88.0118 75.0438 89.2308 75.5831 90.0893 76.6629C90.9477 77.7428 91.377 79.256 91.377 81.2051C91.377 83.1611 90.9403 84.681 90.0676 85.7636C89.1942 86.8462 87.9826 87.3882 86.4327 87.3882ZM86.1719 76.576C84.9549 76.576 84.0747 76.9129 83.5314 77.5866C82.988 78.2603 82.7089 79.332 82.6946 80.8031V81.2051C82.6946 82.8786 82.9731 84.0752 83.5314 84.7965C84.089 85.5178 84.9834 85.8777 86.2154 85.8777C87.2436 85.8777 88.0498 85.4607 88.6332 84.6281C89.2159 83.7954 89.5079 82.6463 89.5079 81.1834C89.5079 79.6988 89.2159 78.5591 88.6332 77.7659C88.0498 76.9726 87.2294 76.576 86.1719 76.576Z" fill="#00587C"/>
<path d="M102.559 76.8041H98.6901V87.1708H96.8863V76.8041H93.0613V75.2611H102.559V76.8041Z" fill="#00587C"/>
<path d="M112.241 87.1708L111.882 85.4757H111.795C111.201 86.2214 110.609 86.7267 110.018 86.9915C109.428 87.255 108.691 87.3882 107.807 87.3882C106.626 87.3882 105.7 87.0839 105.031 86.4754C104.36 85.8669 104.026 85.0016 104.026 83.8783C104.026 81.4727 105.949 80.2122 109.796 80.0967L111.817 80.0315V79.2926C111.817 78.3581 111.616 77.6681 111.214 77.2226C110.812 76.777 110.169 76.5543 109.285 76.5543C108.292 76.5543 107.169 76.8585 105.916 77.4671L105.362 76.087C105.949 75.7678 106.591 75.5179 107.291 75.3372C107.99 75.1566 108.691 75.0656 109.394 75.0656C110.813 75.0656 111.866 75.3807 112.55 76.0109C113.235 76.6412 113.577 77.6518 113.577 79.0427V87.1708H112.241ZM108.166 85.8994C109.288 85.8994 110.171 85.5911 110.812 84.9758C111.453 84.3605 111.773 83.498 111.773 82.3896V81.3138L109.97 81.3899C108.535 81.4401 107.501 81.6629 106.867 82.0581C106.233 82.4534 105.916 83.0674 105.916 83.9C105.916 84.552 106.113 85.0478 106.509 85.3887C106.903 85.7297 107.455 85.8994 108.166 85.8994Z" fill="#00587C"/>
<path d="M86.0804 62.5723C81.8847 62.5723 79.7865 60.2695 79.7865 55.6632C79.7865 53.3723 80.3572 51.6218 81.4986 50.4121C82.64 49.2025 84.2758 48.5972 86.4064 48.5972C87.9658 48.5972 89.3644 48.9031 90.6022 49.5139L89.5171 52.3592C88.9383 52.1264 88.3995 51.9353 87.9014 51.7869C87.4027 51.638 86.9046 51.5638 86.4064 51.5638C84.4929 51.5638 83.5361 52.9224 83.5361 55.6394C83.5361 58.2758 84.4929 59.5943 86.4064 59.5943C87.1136 59.5943 87.7687 59.5 88.3714 59.3111C88.9746 59.1221 89.5772 58.8265 90.1804 58.4247V61.5717C89.5853 61.9496 88.9843 62.2106 88.3779 62.3557C87.7703 62.5003 87.0047 62.5723 86.0804 62.5723Z" fill="#00587C"/>
<path d="M104.457 48.8506V51.612H100.044V62.3314H96.3655V51.612H91.9407V48.8506H104.457Z" fill="#00587C"/>
<path d="M114.368 62.5723C112.784 62.5723 111.543 61.9978 110.642 60.8483H110.449C110.578 61.974 110.642 62.6248 110.642 62.8019V68.2636H106.965V48.8506H109.955L110.473 50.599H110.642C111.503 49.2648 112.777 48.5972 114.465 48.5972C116.056 48.5972 117.302 49.2123 118.203 50.4425C119.103 51.6721 119.553 53.3804 119.553 55.5669C119.553 57.0061 119.342 58.2558 118.92 59.317C118.498 60.3778 117.897 61.1856 117.118 61.7406C116.338 62.2951 115.421 62.5723 114.368 62.5723ZM113.283 51.5395C112.374 51.5395 111.711 51.8189 111.294 52.3777C110.876 52.9364 110.658 53.8586 110.642 55.1451V55.5425C110.642 56.9898 110.857 58.0267 111.288 58.6537C111.718 59.2808 112.399 59.5943 113.331 59.5943C114.979 59.5943 115.803 58.2357 115.803 55.5187C115.803 54.1921 115.6 53.1974 115.194 52.5341C114.788 51.8708 114.151 51.5395 113.283 51.5395Z" fill="#00587C"/>
<path d="M131.153 62.3314L130.441 60.4985H130.345C129.727 61.2782 129.089 61.8191 128.434 62.1202C127.778 62.4218 126.925 62.5723 125.871 62.5723C124.577 62.5723 123.558 62.203 122.815 61.4634C122.071 60.7238 121.699 59.6706 121.699 58.304C121.699 56.8734 122.2 55.8181 123.201 55.1386C124.202 54.4596 125.711 54.0838 127.729 54.0113L130.068 53.9392V53.348C130.068 51.9819 129.368 51.2985 127.97 51.2985C126.893 51.2985 125.626 51.624 124.171 52.2748L122.953 49.7911C124.505 48.9795 126.225 48.5734 128.114 48.5734C129.924 48.5734 131.31 48.967 132.275 49.7548C133.24 50.5427 133.722 51.7404 133.722 53.348V62.3314H131.153ZM130.068 56.0856L128.645 56.1338C127.576 56.1657 126.78 56.3585 126.257 56.7126C125.735 57.0662 125.473 57.6044 125.473 58.3283C125.473 59.3652 126.068 59.8834 127.258 59.8834C128.11 59.8834 128.792 59.6387 129.302 59.1481C129.813 58.6581 130.068 58.0067 130.068 57.1945V56.0856Z" fill="#00587C"/>
<path d="M141.185 48.8506V54.0356H146.322V48.8506H150V62.3314H146.322V56.7727H141.185V62.3314H137.507V48.8506H141.185Z" fill="#00587C"/>
</g>
<defs>
<clipPath id="clip0_5229_40467">
<rect width="185.393" height="100" fill="white"/>
</clipPath>
</defs>
</svg>
