<svg width="141" height="95" viewBox="0 0 141 95" fill="none" xmlns="http://www.w3.org/2000/svg">
<path d="M10.328 18.7415H0V0.296875H10.328V2.19878H2.15639V8.13986H9.83615V10.0323H2.15639V16.8208H10.328V18.7415Z" fill="#00587C"/>
<path d="M26.9898 0.296875V12.2355C26.9898 14.3352 26.3561 15.9923 25.0793 17.1974C23.8025 18.4026 22.0528 19.0052 19.8208 19.0052C17.5887 19.0052 15.8674 18.4026 14.6473 17.188C13.4273 15.9734 12.8125 14.3069 12.8125 12.1885V0.296875H14.9689V12.3391C14.9689 13.8738 15.3945 15.0601 16.2362 15.8887C17.078 16.7173 18.3264 17.1221 19.9626 17.1221C21.5988 17.1221 22.7338 16.7078 23.5755 15.8793C24.4173 15.0507 24.8429 13.8644 24.8429 12.3109V0.296875H26.9993H26.9898Z" fill="#00587C"/>
<path d="M20.237 41.7235H40.191V66.5187C34.7662 68.3736 28.8224 69.2894 22.3362 69.2894C15.2131 69.2894 9.71754 67.2231 5.8258 63.114C1.93407 59.005 0 53.1349 0 45.5273C0 37.9197 2.12276 32.3313 6.39188 28.1988C10.6374 24.0663 16.6047 22 24.2703 22C27.1714 22 29.931 22.2818 32.5019 22.8218C35.0728 23.3619 37.3371 24.0663 39.2476 24.8881L35.2851 34.6324C31.9594 32.9888 28.3035 32.167 24.3174 32.167C20.6616 32.167 17.8548 33.341 15.8736 35.7125C13.8923 38.0605 12.8781 41.4417 12.8781 45.8325C12.8781 50.2233 13.7744 53.4167 15.5905 55.6708C17.4067 57.9249 20.0012 59.052 23.374 59.052C25.2373 59.052 26.9355 58.8641 28.4922 58.5119V51.3034H20.237V41.7V41.7235Z" fill="#00587C"/>
<path d="M67.3927 68.6542L57.9346 35.5235H57.6515C58.0997 41.1587 58.312 45.5496 58.312 48.6724V68.6542H47.25V22.6562H63.8783L73.5251 55.3174H73.7846L83.2191 22.6562H99.871V68.6542H88.4081V48.4846C88.4081 47.428 88.4081 46.2775 88.4552 44.986C88.4788 43.7181 88.6203 40.5717 88.8798 35.5704H88.5968L79.2802 68.6307H67.3927V68.6542Z" fill="#00587C"/>
<path d="M141.001 37.2845C141.001 42.4267 139.468 46.3949 136.425 49.189C133.382 51.9832 129.066 53.392 123.452 53.392H119.938V68.6542H107.461V22.6562H123.452C129.278 22.6562 133.665 23.9242 136.59 26.4601C139.515 28.9959 140.977 32.6119 140.977 37.2845H141.001ZM119.962 43.272H122.226C124.089 43.272 125.599 42.7554 126.707 41.6988C127.816 40.6422 128.358 39.2099 128.358 37.3549C128.358 34.2555 126.637 32.7058 123.169 32.7058H119.938V43.272H119.962Z" fill="#00587C"/>
<path d="M27.1877 90.3922C25.454 90.3922 24.0961 89.8321 23.1139 88.7118C22.1317 87.5915 21.6406 86.0291 21.6406 84.0248C21.6406 81.9671 22.1503 80.3666 23.1697 79.2235C24.1891 78.0727 25.5843 77.4973 27.3552 77.4973C28.4043 77.4973 29.4088 77.684 30.3687 78.0574L30.0673 79.0634C29.0182 78.7052 28.1067 78.5261 27.3328 78.5261C25.8447 78.5261 24.7174 78.9986 23.951 79.9436C23.1846 80.8811 22.8014 82.2338 22.8014 84.0019C22.8014 85.6786 23.1846 86.9932 23.951 87.9459C24.7174 88.8909 25.7889 89.3634 27.1654 89.3634C28.2667 89.3634 29.2898 89.1614 30.2348 88.7575V89.8092C29.4609 90.1979 28.4452 90.3922 27.1877 90.3922Z" fill="#00587C"/>
<path d="M48.595 90.1636H38.3825V89.1576L42.7242 84.5163C43.9445 83.2207 44.8001 82.23 45.2912 81.5441C45.7823 80.8582 46.1432 80.2028 46.3739 79.5778C46.6045 78.9529 46.7199 78.2975 46.7199 77.6116C46.7199 76.6132 46.3999 75.8016 45.76 75.1766C45.1201 74.5517 44.2905 74.2392 43.2711 74.2392C41.9094 74.2392 40.6073 74.746 39.3646 75.7596L38.7619 74.9708C40.1236 73.7972 41.6341 73.2104 43.2934 73.2104C44.7146 73.2104 45.8307 73.599 46.6418 74.3764C47.4602 75.1538 47.8695 76.2245 47.8695 77.5887C47.8695 78.6938 47.5942 79.7646 47.0436 80.801C46.5004 81.8299 45.5033 83.1026 44.0523 84.6192L39.8669 89.0204V89.0662H48.595V90.1636Z" fill="#00587C"/>
<path d="M61.9549 81.7613C61.9549 84.6954 61.5159 86.8675 60.6379 88.2774C59.7673 89.6873 58.4466 90.3922 56.6757 90.3922C54.9717 90.3922 53.677 89.6682 52.7916 88.2202C51.9061 86.7646 51.4634 84.6116 51.4634 81.7613C51.4634 78.85 51.8912 76.6932 52.7469 75.2909C53.6101 73.8886 54.9197 73.1875 56.6757 73.1875C58.3945 73.1875 59.7041 73.9153 60.6044 75.371C61.5048 76.819 61.9549 78.9491 61.9549 81.7613ZM52.6688 81.7613C52.6688 84.3525 52.9999 86.2692 53.6622 87.5115C54.3244 88.7461 55.3289 89.3634 56.6757 89.3634C58.082 89.3634 59.1051 88.7232 59.745 87.4429C60.3924 86.1625 60.716 84.2687 60.716 81.7613C60.716 79.292 60.3924 77.4172 59.745 76.1369C59.1051 74.8565 58.082 74.2164 56.6757 74.2164C55.2694 74.2164 54.25 74.8565 53.6175 76.1369C52.985 77.4172 52.6688 79.292 52.6688 81.7613Z" fill="#00587C"/>
<path d="M70.8504 90.1636H69.7566V77.9888C69.7566 76.8838 69.8013 75.7368 69.8906 74.5479C69.779 74.6622 69.6636 74.7727 69.5446 74.8794C69.4255 74.9861 68.2759 75.9121 66.0958 77.6573L65.4596 76.8457L69.8906 73.4504H70.8504V90.1636Z" fill="#00587C"/>
<path d="M87.7708 90.1636H77.5583V89.1576L81.9 84.5163C83.1203 83.2207 83.976 82.23 84.4671 81.5441C84.9582 80.8582 85.3191 80.2028 85.5498 79.5778C85.7804 78.9529 85.8958 78.2975 85.8958 77.6116C85.8958 76.6132 85.5758 75.8016 84.9359 75.1766C84.296 74.5517 83.4663 74.2392 82.4469 74.2392C81.0853 74.2392 79.7831 74.746 78.5405 75.7596L77.9378 74.9708C79.2995 73.7972 80.81 73.2104 82.4693 73.2104C83.8905 73.2104 85.0066 73.599 85.8176 74.3764C86.6361 75.1538 87.0454 76.2245 87.0454 77.5887C87.0454 78.6938 86.7701 79.7646 86.2194 80.801C85.6762 81.8299 84.6792 83.1026 83.2282 84.6192L79.0428 89.0204V89.0662H87.7708V90.1636Z" fill="#00587C"/>
<path d="M104.457 78.7205H98.4298V90.1636H97.3248V77.7373H104.457V78.7205Z" fill="#00587C"/>
<path d="M116.98 83.9333C116.98 85.9605 116.5 87.5457 115.54 88.6889C114.58 89.8245 113.256 90.3922 111.567 90.3922C110.503 90.3922 109.565 90.1293 108.754 89.6035C107.943 89.0776 107.322 88.3231 106.89 87.34C106.458 86.3568 106.243 85.2213 106.243 83.9333C106.243 81.9061 106.723 80.3285 107.682 79.2006C108.642 78.065 109.959 77.4973 111.634 77.4973C113.3 77.4973 114.606 78.0727 115.551 79.2235C116.504 80.3666 116.98 81.9366 116.98 83.9333ZM107.403 83.9333C107.403 85.6405 107.768 86.9742 108.497 87.9344C109.234 88.8871 110.272 89.3634 111.611 89.3634C112.951 89.3634 113.985 88.8871 114.714 87.9344C115.451 86.9742 115.819 85.6405 115.819 83.9333C115.819 82.2186 115.447 80.8887 114.703 79.9436C113.966 78.9986 112.928 78.5261 111.589 78.5261C110.25 78.5261 109.215 78.9986 108.486 79.9436C107.764 80.8811 107.403 82.2109 107.403 83.9333Z" fill="#00587C"/>
<path d="M130.239 94.3819H129.145V90.1636H119.859V94.3819H118.766V89.089H119.569C120.581 87.6334 121.362 85.9453 121.913 84.0248C122.464 82.1042 122.754 80.0084 122.784 77.7373H128.621V89.089H130.239V94.3819ZM127.516 89.089V78.789H123.743C123.565 82.9121 122.59 86.3454 120.819 89.089H127.516Z" fill="#00587C"/>
<path d="M140.184 90.1636L139.905 88.1974H139.816C139.205 88.9976 138.577 89.5654 137.929 89.9007C137.289 90.2284 136.53 90.3922 135.652 90.3922C134.462 90.3922 133.536 90.0798 132.873 89.4548C132.211 88.8299 131.88 87.9649 131.88 86.8598C131.88 85.6481 132.371 84.7069 133.353 84.0362C134.343 83.3655 135.772 83.0112 137.639 82.9731L139.95 82.9045V82.0814C139.95 80.9001 139.715 80.0084 139.246 79.4064C138.778 78.8043 138.022 78.5033 136.981 78.5033C135.857 78.5033 134.693 78.8233 133.487 79.4635L133.074 78.4804C134.406 77.8402 135.723 77.5201 137.025 77.5201C138.357 77.5201 139.351 77.8745 140.005 78.5833C140.668 79.292 140.999 80.3971 140.999 81.8985V90.1636H140.184ZM135.719 89.3634C137.014 89.3634 138.034 88.9861 138.778 88.2317C139.529 87.4695 139.905 86.414 139.905 85.0651V83.8419L137.784 83.9333C136.08 84.0172 134.864 84.2915 134.135 84.7564C133.413 85.2137 133.052 85.9301 133.052 86.9056C133.052 87.6829 133.283 88.2888 133.744 88.7232C134.213 89.15 134.871 89.3634 135.719 89.3634Z" fill="#00587C"/>
</svg>
