<svg width="186" height="100" viewBox="0 0 186 100" fill="none" xmlns="http://www.w3.org/2000/svg">
<g clip-path="url(#clip0_5183_40211)">
<path d="M185.393 0H0V100H185.393V0Z" fill="white"/>
<path d="M19.5506 59.8137H2.35956V28.353H19.5506V30.3755H4.60675V42.2856H18.7641V44.3081H4.60675V57.7912H19.5506V59.8137Z" fill="#00587C"/>
<path d="M46.5169 28.353V48.8025C46.5169 52.398 45.5056 55.3193 43.3708 57.2294C41.236 59.3643 38.427 60.2631 34.4944 60.2631C30.8989 60.2631 27.9775 59.2519 25.8427 57.2294C23.7079 55.207 22.809 52.398 22.809 48.5777V28.353H25.0562V48.8025C25.0562 51.8362 25.8427 54.1957 27.6405 55.8811C29.4382 57.6789 31.6854 58.4654 34.7191 58.4654C37.7528 58.4654 40.1124 57.6789 41.6854 55.9935C43.2584 54.4204 44.1573 52.0609 44.1573 49.1395V28.353H46.5169Z" fill="#00587C"/>
<path d="M74.4944 34.1958H92.5843V57.7913C89.6629 58.6902 86.8539 59.3643 84.382 59.8137C81.7978 60.1508 79.1011 60.3755 76.5169 60.3755C69.6629 60.3755 64.2697 58.3531 60.6742 54.3081C57.0787 50.2632 55.1685 44.4205 55.1685 36.8924C55.1685 29.589 57.3034 23.7463 61.4607 19.7014C65.618 15.6564 71.573 13.5216 78.9888 13.5216C83.5955 13.5216 88.2022 14.4205 92.5843 16.3306L89.3258 24.0834C85.9551 22.5104 82.5843 21.6115 78.9888 21.6115C74.8315 21.6115 71.4607 22.9598 68.9888 25.7688C66.4045 28.5778 65.2809 32.398 65.2809 37.0048C65.2809 41.9486 66.2921 45.7688 68.3146 48.3531C70.3371 50.9373 73.2584 52.2857 77.191 52.2857C79.2135 52.2857 81.236 52.0609 83.3708 51.7239V42.1733H74.7191V34.1958H74.4944Z" fill="#00587C"/>
<path d="M115.393 59.8137L104.382 24.0834H104.157C104.494 31.3868 104.719 36.2182 104.719 38.5778V59.8137H96.0674V14.3081H109.214L120 49.1396H120.225L131.685 14.3081H144.831V59.9261H135.73V34.7575C135.73 33.5216 135.843 29.9261 136.18 24.1957H135.955L124.27 59.8137C124.382 59.8137 115.393 59.8137 115.393 59.8137Z" fill="#00587C"/>
<path d="M180.337 28.4654C180.337 33.2969 178.876 37.2295 175.73 39.7014C172.697 42.2856 168.315 43.6339 162.584 43.6339H158.539V59.9261H148.876V14.3081H163.371C168.989 14.3081 173.146 15.4317 176.067 17.9036C178.989 20.3755 180.337 23.6339 180.337 28.4654ZM158.539 35.6564H161.685C164.719 35.6564 166.966 35.0946 168.315 33.8587C169.775 32.7351 170.562 30.9373 170.562 28.8025C170.562 26.4429 170 24.8699 168.652 23.8587C167.416 22.8474 165.506 22.2856 162.809 22.2856H158.539V35.6564Z" fill="#00587C"/>
<path d="M101.103 81.6946C99.2662 81.6946 97.8444 81.1294 96.8373 79.9989C95.8303 78.8683 95.3267 77.269 95.3267 75.2009C95.3267 73.0787 95.838 71.4389 96.8605 70.2813C97.8829 69.1238 99.3395 68.545 101.23 68.545C101.84 68.545 102.449 68.6106 103.059 68.7418C103.669 68.873 104.147 69.0274 104.494 69.2048L103.904 70.837C103.48 70.6672 103.017 70.5264 102.515 70.4145C102.013 70.3026 101.57 70.2466 101.184 70.2466C98.6064 70.2466 97.3177 71.8903 97.3177 75.1777C97.3177 76.7365 97.6321 77.9327 98.2611 78.7661C98.89 79.5995 99.8218 80.0162 101.057 80.0162C102.114 80.0162 103.198 79.7886 104.309 79.3333V81.0349C103.46 81.4747 102.392 81.6946 101.103 81.6946Z" fill="#00587C"/>
<path d="M124.532 81.4632H113.409V79.808L117.866 75.3283C119.224 73.9547 120.119 72.9747 120.551 72.3882C120.984 71.8017 121.308 71.2306 121.524 70.675C121.74 70.1194 121.848 69.5213 121.848 68.8808C121.848 67.978 121.574 67.2622 121.026 66.7336C120.478 66.205 119.718 65.9407 118.746 65.9407C118.043 65.9407 117.378 66.0565 116.749 66.288C116.12 66.5195 115.42 66.94 114.648 67.5497L113.629 66.2417C115.188 64.9452 116.886 64.297 118.723 64.297C120.312 64.297 121.558 64.7041 122.461 65.5182C123.363 66.3323 123.815 67.4262 123.815 68.7998C123.815 69.8725 123.514 70.9335 122.913 71.983C122.311 73.0325 121.184 74.3598 119.533 75.965L115.829 79.588V79.6806H124.532V81.4632Z" fill="#00587C"/>
<path d="M137.341 72.9785C137.341 75.9032 136.879 78.0871 135.957 79.5301C135.035 80.9732 133.625 81.6947 131.726 81.6947C129.905 81.6947 128.52 80.9558 127.571 79.478C126.622 78.0002 126.147 75.8337 126.147 72.9785C126.147 70.0306 126.606 67.8429 127.525 66.4152C128.443 64.9876 129.844 64.2738 131.726 64.2738C133.563 64.2738 134.958 65.0185 135.911 66.5078C136.864 67.9972 137.341 70.1541 137.341 72.9785ZM128.092 72.9785C128.092 75.4402 128.381 77.2324 128.96 78.3552C129.539 79.478 130.461 80.0394 131.726 80.0394C133.007 80.0394 133.935 79.4703 134.51 78.3321C135.085 77.1938 135.373 75.4093 135.373 72.9785C135.373 70.5477 135.085 68.767 134.51 67.6364C133.935 66.5059 133.007 65.9407 131.726 65.9407C130.461 65.9407 129.539 66.4982 128.96 67.6133C128.381 68.7284 128.092 70.5168 128.092 72.9785Z" fill="#00587C"/>
<path d="M145.698 81.4632H143.823V69.4017C143.823 68.3985 143.854 67.4493 143.915 66.5542C143.753 66.7162 143.572 66.886 143.371 67.0635C143.171 67.241 142.252 67.9934 140.616 69.3207L139.598 68.0011L144.077 64.54H145.698V81.4632Z" fill="#00587C"/>
<path d="M160.914 81.4632H149.79V79.808L154.246 75.3283C155.604 73.9547 156.5 72.9747 156.932 72.3882C157.364 71.8017 157.688 71.2306 157.904 70.675C158.12 70.1194 158.228 69.5213 158.228 68.8808C158.228 67.978 157.954 67.2622 157.406 66.7336C156.858 66.205 156.098 65.9407 155.126 65.9407C154.424 65.9407 153.758 66.0565 153.129 66.288C152.5 66.5195 151.8 66.94 151.028 67.5497L150.01 66.2417C151.569 64.9452 153.266 64.297 155.103 64.297C156.693 64.297 157.939 64.7041 158.842 65.5182C159.745 66.3323 160.196 67.4262 160.196 68.7998C160.196 69.8725 159.895 70.9335 159.293 71.983C158.691 73.0325 157.565 74.3598 155.913 75.965L152.209 79.588V79.6806H160.914L160.914 81.4632Z" fill="#00587C"/>
</g>
<defs>
<clipPath id="clip0_5183_40211">
<rect width="185.393" height="100" fill="white"/>
</clipPath>
</defs>
</svg>
