<svg width="84" height="80" viewBox="0 0 84 80" fill="none" xmlns="http://www.w3.org/2000/svg">
<path d="M1 5C1 2.79086 2.79086 1 5 1H64.9091H79C81.2091 1 83 2.79086 83 5V75C83 77.2091 81.2091 79 79 79H5C2.79086 79 1 77.2091 1 75V5Z" fill="#00B398" stroke="#00587C" stroke-width="2"/>
<circle cx="70" cy="21" r="6" fill="white" stroke="#00587C" stroke-width="2"/>
<circle cx="70" cy="39" r="6" fill="white" stroke="#00587C" stroke-width="2"/>
<circle cx="70" cy="57" r="6" fill="white" stroke="#00587C" stroke-width="2"/>
<path d="M69.7066 25L66 20.9817L67.2005 19.755L69.7267 22.494L77.8195 14L79 15.239L69.7066 25Z" fill="#00587C"/>
<path d="M69.7066 42L66 37.9817L67.2005 36.755L69.7267 39.494L77.8195 31L79 32.239L69.7066 42Z" fill="#00587C"/>
<path d="M11 13C11 10.7909 12.7909 9 15 9H47.8636H54C56.2091 9 58 10.7909 58 13V67C58 69.2091 56.2091 71 54 71H15C12.7909 71 11 69.2091 11 67V13Z" fill="#5EDAF8" stroke="#00587C" stroke-width="2"/>
<line x1="17" y1="25" x2="51" y2="25" stroke="#00587C" stroke-width="2" stroke-linecap="round"/>
<line x1="17" y1="31" x2="51" y2="31" stroke="#00587C" stroke-width="2" stroke-linecap="round"/>
<line x1="17" y1="37" x2="51" y2="37" stroke="#00587C" stroke-width="2" stroke-linecap="round"/>
<line x1="17" y1="43" x2="42" y2="43" stroke="#00587C" stroke-width="2" stroke-linecap="round"/>
<line x1="17" y1="56" x2="27" y2="56" stroke="#00587C" stroke-width="2" stroke-linecap="round"/>
<line x1="17" y1="16" x2="27" y2="16" stroke="#00587C" stroke-width="2" stroke-linecap="round"/>
<line x1="17" y1="62" x2="24" y2="62" stroke="#00587C" stroke-width="2" stroke-linecap="round"/>
</svg>
