<svg width="74" height="80" viewBox="0 0 74 80" fill="none" xmlns="http://www.w3.org/2000/svg">
<rect x="1" y="13" width="72" height="44" rx="4" fill="#00B398" stroke="#00587C" stroke-width="2"/>
<line x1="1" y1="50" x2="73" y2="50" stroke="#00587C" stroke-width="2"/>
<rect x="34" y="57" width="8" height="15" fill="#00B398" stroke="#00587C" stroke-width="2"/>
<path d="M42 72.3516C45.7482 72.3516 48.8083 75.2975 48.9913 79.0002L26.5042 79.0002C26.6872 75.2975 29.7473 72.3516 33.4955 72.3516L42 72.3516Z" fill="#00B398" stroke="#00587C" stroke-width="2"/>
<line x1="12" y1="79" x2="62" y2="79" stroke="#00587C" stroke-width="2"/>
<rect x="24.7842" y="1" width="38" height="36" rx="4" fill="#5EDAF8" stroke="#00587C" stroke-width="2"/>
<line x1="25" y1="8" x2="63" y2="8" stroke="#00587C" stroke-width="2"/>
<mask id="path-8-inside-1_947_11547" fill="white">
<ellipse cx="28.8633" cy="3.97919" rx="0.973684" ry="0.994811"/>
</mask>
<ellipse cx="28.8633" cy="3.97919" rx="0.973684" ry="0.994811" fill="#25A9C9"/>
<path d="M28.837 3.97919C28.837 3.9816 28.8368 3.98288 28.8367 3.98329C28.8367 3.98355 28.8366 3.98371 28.8366 3.98378C28.8366 3.98386 28.8365 3.9839 28.8365 3.98391C28.8365 3.98405 28.8365 3.98382 28.8372 3.98315C28.8378 3.98247 28.8403 3.98017 28.8456 3.97787C28.8484 3.9767 28.8515 3.97566 28.8549 3.97495C28.8584 3.97422 28.8613 3.974 28.8633 3.974V5.974C29.9735 5.974 30.837 5.06055 30.837 3.97919H28.837ZM28.8633 3.974C28.8653 3.974 28.8683 3.97422 28.8717 3.97495C28.8752 3.97566 28.8783 3.9767 28.881 3.97787C28.8863 3.98017 28.8888 3.98247 28.8895 3.98315C28.8901 3.98382 28.8902 3.98405 28.8901 3.98391C28.8901 3.9839 28.8901 3.98386 28.8901 3.98378C28.8901 3.98371 28.89 3.98355 28.89 3.98329C28.8899 3.98288 28.8896 3.9816 28.8896 3.97919H26.8896C26.8896 5.06055 27.7532 5.974 28.8633 5.974V3.974ZM28.8896 3.97919C28.8896 3.97677 28.8899 3.9755 28.89 3.97508C28.89 3.97482 28.8901 3.97467 28.8901 3.97459C28.8901 3.97451 28.8901 3.97447 28.8901 3.97446C28.8902 3.97432 28.8901 3.97456 28.8895 3.97523C28.8888 3.97591 28.8863 3.97821 28.881 3.98051C28.8783 3.98168 28.8752 3.98271 28.8717 3.98342C28.8683 3.98415 28.8653 3.98438 28.8633 3.98438V1.98438C27.7532 1.98438 26.8896 2.89783 26.8896 3.97919H28.8896ZM28.8633 3.98438C28.8613 3.98438 28.8584 3.98415 28.8549 3.98342C28.8515 3.98271 28.8484 3.98168 28.8456 3.98051C28.8403 3.97821 28.8378 3.97591 28.8372 3.97523C28.8365 3.97456 28.8365 3.97432 28.8365 3.97446C28.8365 3.97447 28.8366 3.97451 28.8366 3.97459C28.8366 3.97467 28.8367 3.97482 28.8367 3.97508C28.8368 3.9755 28.837 3.97677 28.837 3.97919H30.837C30.837 2.89783 29.9735 1.98438 28.8633 1.98438V3.98438Z" fill="#00587C" mask="url(#path-8-inside-1_947_11547)"/>
<mask id="path-10-inside-2_947_11547" fill="white">
<ellipse cx="32.3721" cy="3.97919" rx="0.973684" ry="0.994811"/>
</mask>
<ellipse cx="32.3721" cy="3.97919" rx="0.973684" ry="0.994811" fill="#25A9C9"/>
<path d="M32.3458 3.97919C32.3458 3.9816 32.3456 3.98288 32.3455 3.98329C32.3454 3.98355 32.3454 3.98371 32.3454 3.98378C32.3454 3.98386 32.3453 3.9839 32.3453 3.98391C32.3453 3.98405 32.3453 3.98382 32.346 3.98315C32.3466 3.98247 32.3491 3.98017 32.3544 3.97787C32.3571 3.9767 32.3603 3.97566 32.3637 3.97495C32.3672 3.97422 32.3701 3.974 32.3721 3.974V5.974C33.4823 5.974 34.3458 5.06055 34.3458 3.97919H32.3458ZM32.3721 3.974C32.3741 3.974 32.3771 3.97422 32.3805 3.97495C32.3839 3.97566 32.3871 3.9767 32.3898 3.97787C32.3951 3.98017 32.3976 3.98247 32.3983 3.98315C32.3989 3.98382 32.399 3.98405 32.3989 3.98391C32.3989 3.9839 32.3989 3.98386 32.3989 3.98378C32.3988 3.98371 32.3988 3.98355 32.3987 3.98329C32.3987 3.98288 32.3984 3.9816 32.3984 3.97919H30.3984C30.3984 5.06055 31.262 5.974 32.3721 5.974V3.974ZM32.3984 3.97919C32.3984 3.97677 32.3987 3.9755 32.3987 3.97508C32.3988 3.97482 32.3988 3.97467 32.3989 3.97459C32.3989 3.97451 32.3989 3.97447 32.3989 3.97446C32.399 3.97432 32.3989 3.97456 32.3983 3.97523C32.3976 3.97591 32.3951 3.97821 32.3898 3.98051C32.3871 3.98168 32.3839 3.98271 32.3805 3.98342C32.3771 3.98415 32.3741 3.98438 32.3721 3.98438V1.98438C31.262 1.98438 30.3984 2.89783 30.3984 3.97919H32.3984ZM32.3721 3.98438C32.3701 3.98438 32.3672 3.98415 32.3637 3.98342C32.3603 3.98271 32.3571 3.98168 32.3544 3.98051C32.3491 3.97821 32.3466 3.97591 32.346 3.97523C32.3453 3.97456 32.3453 3.97432 32.3453 3.97446C32.3453 3.97447 32.3454 3.97451 32.3454 3.97459C32.3454 3.97467 32.3454 3.97482 32.3455 3.97508C32.3456 3.9755 32.3458 3.97677 32.3458 3.97919H34.3458C34.3458 2.89783 33.4823 1.98438 32.3721 1.98438V3.98438Z" fill="#00587C" mask="url(#path-10-inside-2_947_11547)"/>
<mask id="path-12-inside-3_947_11547" fill="white">
<ellipse cx="35.8809" cy="3.97919" rx="0.973684" ry="0.994811"/>
</mask>
<ellipse cx="35.8809" cy="3.97919" rx="0.973684" ry="0.994811" fill="#25A9C9"/>
<path d="M35.8546 3.97919C35.8546 3.9816 35.8544 3.98288 35.8543 3.98329C35.8542 3.98355 35.8542 3.98371 35.8542 3.98378C35.8541 3.98386 35.8541 3.9839 35.8541 3.98391C35.8541 3.98405 35.8541 3.98382 35.8548 3.98315C35.8554 3.98247 35.8579 3.98017 35.8632 3.97787C35.8659 3.9767 35.8691 3.97566 35.8725 3.97495C35.876 3.97422 35.8789 3.974 35.8809 3.974V5.974C36.9911 5.974 37.8546 5.06055 37.8546 3.97919H35.8546ZM35.8809 3.974C35.8829 3.974 35.8858 3.97422 35.8893 3.97495C35.8927 3.97566 35.8959 3.9767 35.8986 3.97787C35.9039 3.98017 35.9064 3.98247 35.9071 3.98315C35.9077 3.98382 35.9078 3.98405 35.9077 3.98391C35.9077 3.9839 35.9077 3.98386 35.9077 3.98378C35.9076 3.98371 35.9076 3.98355 35.9075 3.98329C35.9075 3.98288 35.9072 3.9816 35.9072 3.97919H33.9072C33.9072 5.06055 34.7707 5.974 35.8809 5.974V3.974ZM35.9072 3.97919C35.9072 3.97677 35.9075 3.9755 35.9075 3.97508C35.9076 3.97482 35.9076 3.97467 35.9077 3.97459C35.9077 3.97451 35.9077 3.97447 35.9077 3.97446C35.9078 3.97432 35.9077 3.97456 35.9071 3.97523C35.9064 3.97591 35.9039 3.97821 35.8986 3.98051C35.8959 3.98168 35.8927 3.98271 35.8893 3.98342C35.8858 3.98415 35.8829 3.98438 35.8809 3.98438V1.98438C34.7707 1.98438 33.9072 2.89783 33.9072 3.97919H35.9072ZM35.8809 3.98438C35.8789 3.98438 35.876 3.98415 35.8725 3.98342C35.8691 3.98271 35.8659 3.98168 35.8632 3.98051C35.8579 3.97821 35.8554 3.97591 35.8548 3.97523C35.8541 3.97456 35.8541 3.97432 35.8541 3.97446C35.8541 3.97447 35.8541 3.97451 35.8542 3.97459C35.8542 3.97467 35.8542 3.97482 35.8543 3.97508C35.8544 3.9755 35.8546 3.97677 35.8546 3.97919H37.8546C37.8546 2.89783 36.9911 1.98438 35.8809 1.98438V3.98438Z" fill="#00587C" mask="url(#path-12-inside-3_947_11547)"/>
<line x1="31" y1="13" x2="55" y2="13" stroke="#00587C" stroke-width="2" stroke-linecap="round"/>
<line x1="31" y1="19" x2="55" y2="19" stroke="#00587C" stroke-width="2" stroke-linecap="round"/>
<line x1="31" y1="25" x2="55" y2="25" stroke="#00587C" stroke-width="2" stroke-linecap="round"/>
<line x1="31" y1="30" x2="48.6491" y2="30" stroke="#00587C" stroke-width="2" stroke-linecap="round"/>
<path fill-rule="evenodd" clip-rule="evenodd" d="M12 13H7V39L12 36.2933L17 39V13H12Z" fill="white"/>
<path d="M7 13V12C6.44772 12 6 12.4477 6 13H7ZM7 39H6C6 39.3524 6.18545 39.6787 6.48817 39.8591C6.79089 40.0394 7.16618 40.0472 7.47606 39.8794L7 39ZM12 36.2933L12.4761 35.4139C12.179 35.2531 11.8209 35.2531 11.5239 35.4139L12 36.2933ZM17 39L16.5239 39.8794C16.8338 40.0472 17.2091 40.0394 17.5118 39.8591C17.8145 39.6787 18 39.3524 18 39H17ZM17 13H18C18 12.4477 17.5523 12 17 12V13ZM7 14H12V12H7V14ZM8 39V13H6V39H8ZM11.5239 35.4139L6.52394 38.1206L7.47606 39.8794L12.4761 37.1727L11.5239 35.4139ZM11.5239 37.1727L16.5239 39.8794L17.4761 38.1206L12.4761 35.4139L11.5239 37.1727ZM18 39V13H16V39H18ZM17 12H12V14H17V12Z" fill="#00587C"/>
</svg>
