<svg width="75" height="80" viewBox="0 0 75 80" fill="none" xmlns="http://www.w3.org/2000/svg">
<path d="M1 5C1 2.79086 2.79086 1 5 1H39.5073C40.6381 1 41.716 1.47858 42.4744 2.31732L51.967 12.8161C52.6319 13.5514 53 14.5075 53 15.4988V66C53 68.2091 51.2091 70 49 70H5C2.79086 70 1 68.2091 1 66V5Z" fill="#00B398" stroke="#00587C" stroke-width="2"/>
<line x1="9" y1="32" x2="45" y2="32" stroke="#00587C" stroke-width="2" stroke-linecap="round"/>
<line x1="9" y1="25" x2="45" y2="25" stroke="#00587C" stroke-width="2" stroke-linecap="round"/>
<line x1="9" y1="18" x2="45" y2="18" stroke="#00587C" stroke-width="2" stroke-linecap="round"/>
<line x1="9" y1="39" x2="45" y2="39" stroke="#00587C" stroke-width="2" stroke-linecap="round"/>
<line x1="9" y1="46" x2="45" y2="46" stroke="#00587C" stroke-width="2" stroke-linecap="round"/>
<line x1="9" y1="55" x2="19" y2="55" stroke="#00587C" stroke-width="2" stroke-linecap="round"/>
<line x1="9" y1="61" x2="16" y2="61" stroke="#00587C" stroke-width="2" stroke-linecap="round"/>
<path fill-rule="evenodd" clip-rule="evenodd" d="M40.957 60.3652H37.998V76.3091L40.957 74.6493L43.916 76.3091V60.3652H40.957Z" fill="white"/>
<path d="M37.998 60.3652V59.3652C37.4458 59.3652 36.998 59.8129 36.998 60.3652H37.998ZM37.998 76.3091H36.998C36.998 76.6642 37.1863 76.9926 37.4927 77.172C37.7991 77.3515 38.1776 77.355 38.4873 77.1813L37.998 76.3091ZM40.957 74.6493L41.4463 73.7771C41.1424 73.6067 40.7717 73.6067 40.4678 73.7771L40.957 74.6493ZM43.916 76.3091L43.4268 77.1813C43.7364 77.355 44.115 77.3515 44.4214 77.172C44.7277 76.9926 44.916 76.6642 44.916 76.3091H43.916ZM43.916 60.3652H44.916C44.916 59.8129 44.4683 59.3652 43.916 59.3652V60.3652ZM37.998 61.3652H40.957V59.3652H37.998V61.3652ZM38.998 76.3091V60.3652H36.998V76.3091H38.998ZM40.4678 73.7771L37.5088 75.437L38.4873 77.1813L41.4463 75.5215L40.4678 73.7771ZM40.4678 75.5215L43.4268 77.1813L44.4052 75.437L41.4463 73.7771L40.4678 75.5215ZM44.916 76.3091V60.3652H42.916V76.3091H44.916ZM43.916 59.3652H40.957V61.3652H43.916V59.3652Z" fill="#00587C"/>
<circle cx="41.0742" cy="61.959" r="5.2656" fill="white" stroke="#00587C" stroke-width="2"/>
<circle r="1.08853" transform="matrix(1 0 0 -1 41.0749 61.9603)" fill="white" stroke="#00587C" stroke-width="2"/>
<path d="M41 1V12C41 13.1046 41.8954 14 43 14H52.5" stroke="#00587C" stroke-width="2" stroke-linecap="round"/>
<path d="M45.5661 29.581V33.0503C45.5661 34.4662 46.7097 35.6313 48.1341 35.6313H73.432C73.7363 35.6313 74 35.8852 74 36.2123V78.419C74 78.746 73.7363 79 73.432 79H31.568C31.2637 79 31 78.746 31 78.419V29.581C31 29.254 31.2637 29 31.568 29H44.9982C45.3024 29 45.5661 29.254 45.5661 29.581Z" fill="#5EDAF8" stroke="#00587C" stroke-width="2"/>
<path d="M56.6291 60H49.3709C48.0979 60 47 58.9151 47 57.5C47 56.0849 48.0979 55 49.3709 55H56.6291C57.9021 55 59 56.0849 59 57.5C59 58.9151 57.9021 60 56.6291 60Z" fill="#F0F5F9" stroke="#00587C" stroke-width="2"/>
</svg>
