<svg width="309" height="60" viewBox="0 0 309 60" fill="none" xmlns="http://www.w3.org/2000/svg">
<g clip-path="url(#clip0_5429_22617)">
<path d="M30.5553 16.4565C28.4277 17.334 26.3932 18.2474 24.4375 19.204C24.3014 20.4987 24.1581 21.7861 24.0077 23.0808L23.8286 24.6775C23.7999 24.9365 23.7641 25.1954 23.7283 25.4471C22.3314 36.9624 20.4258 48.4848 18.2266 59.9856H22.6108C25.3043 47.0175 27.7615 34.3371 29.8318 21.4912C29.8748 21.2323 29.9177 20.9662 29.9607 20.7073L30.2043 19.1321C30.3476 18.2258 30.4837 17.3196 30.6269 16.4133C30.5983 16.4277 30.5768 16.4349 30.5481 16.4493" fill="#00587C"/>
<path d="M33.1439 43.5434L33.1224 43.5938L32.492 45.1905L32.4776 45.2337L32.3129 45.658C32.1768 46.0033 32.0335 46.3773 31.8831 46.7729C31.7971 47.003 31.704 47.2476 31.6108 47.4921C29.7053 52.5125 26.9688 59.9999 26.9688 59.9999H30.35C31.6896 59.9855 31.661 59.0433 32.1768 57.8997C33.8459 53.6202 35.6225 49.3622 37.4636 45.1114C37.571 44.8597 37.6713 44.6079 37.786 44.3634C37.9436 44.0038 38.0868 43.6513 38.2444 43.2917L38.4737 42.781L38.488 42.7451L39.9279 39.5444L39.9422 39.5156C37.4493 41.0476 35.1139 42.4142 33.151 43.5578" fill="#00587C"/>
<path d="M37.3497 1.03572C29.0255 1.26588 25.809 3.52433 25.1929 11.1772C25.0353 13.1551 24.849 15.1331 24.6484 17.1182C26.3319 16.3126 28.0655 15.5358 29.8708 14.795C30.2433 14.644 30.6015 14.4929 30.9453 14.3491C31.0958 13.3637 31.2391 12.3855 31.3823 11.4001C32.6718 2.35195 43.6466 4.53129 50.1369 4.53129C44.3272 16.5284 39.069 28.6334 34.2192 40.8247C36.2966 39.602 38.7466 38.1275 41.3112 36.502C45.2226 28.0077 49.4206 19.5637 53.8549 11.1484C53.948 10.9686 54.0411 10.7816 54.1414 10.6018C54.3349 10.235 54.5283 9.87533 54.7217 9.50851C54.8148 9.33589 54.908 9.16327 55.0011 8.98346C55.2303 8.55191 55.4596 8.11316 55.696 7.68161C55.8106 7.46584 55.9324 7.25006 56.047 7.04148C57.3078 4.68952 58.5758 2.34476 59.8652 0C53.7259 3.21506 44.2197 0.848717 37.3497 1.03572" fill="#00587C"/>
<path d="M30.5567 16.4566C75.3872 -2.02821 -25.6283 40.6594 16.172 49.686C11.1431 50.5923 1.55802 51.5417 0.125278 43.9751C-0.66273 39.71 2.26723 34.7615 8.90082 29.137C14.6963 24.2245 21.9101 20.0097 30.5496 16.4566" fill="#00587C"/>
<path d="M39.148 42.4575C-5.68964 60.9423 95.3258 18.2619 53.5256 9.22809C58.5545 8.32183 68.1396 7.36523 69.5723 14.939C70.3603 19.2041 67.4304 24.1526 60.7968 29.7771C55.0013 34.6896 47.7875 38.9044 39.148 42.4575" fill="#00587C"/>
<path d="M111.185 14.9749L104.738 50.0024H99.9523L105.619 19.0674H90.1237L84.4572 50.0024H79.6719L86.0691 14.9749H111.185Z" fill="#00587C"/>
<path d="M115.068 36.2072C116.973 36.1425 118.707 36.013 120.276 35.826C121.845 35.639 123.191 35.3225 124.323 34.8622C125.455 34.4091 126.315 33.7905 126.917 33.0209C127.518 32.2441 127.79 31.2372 127.726 29.9857C127.712 29.6836 127.64 29.3599 127.504 29.0219C127.368 28.6838 127.16 28.3745 126.866 28.0868C126.573 27.7991 126.171 27.5618 125.67 27.382C125.169 27.195 124.552 27.1015 123.829 27.1015C122.676 27.1015 121.615 27.3532 120.634 27.8567C119.66 28.3602 118.793 29.0291 118.048 29.8562C117.303 30.6833 116.672 31.6471 116.171 32.7404C115.669 33.8337 115.297 34.9917 115.068 36.2072V36.2072ZM120.498 50.6642C118.822 50.6642 117.36 50.4196 116.121 49.9305C114.881 49.4414 113.821 48.7653 112.962 47.9094C112.095 47.0535 111.436 46.0466 110.984 44.903C110.533 43.7593 110.275 42.5438 110.204 41.2635C110.082 38.9044 110.311 36.6316 110.891 34.4378C111.472 32.2441 112.36 30.3093 113.556 28.6263C114.753 26.9432 116.25 25.5982 118.041 24.6057C119.832 23.6131 121.895 23.1096 124.23 23.1096C125.577 23.1096 126.745 23.2894 127.733 23.6419C128.722 23.9943 129.538 24.4762 130.176 25.0876C130.814 25.6917 131.301 26.3966 131.637 27.1878C131.974 27.979 132.16 28.7989 132.203 29.6404C132.282 31.2228 132.074 32.5678 131.573 33.661C131.071 34.7543 130.377 35.675 129.495 36.4158C128.614 37.1566 127.568 37.732 126.351 38.1348C125.14 38.5376 123.872 38.8612 122.554 39.0986C121.236 39.3359 119.896 39.4942 118.535 39.5805C117.174 39.6668 115.884 39.7387 114.674 39.8107C114.652 40.084 114.652 40.2997 114.659 40.4652C114.667 40.6306 114.674 40.7673 114.681 40.868C114.717 41.6447 114.846 42.3784 115.068 43.0689C115.283 43.7593 115.655 44.3635 116.171 44.8886C116.694 45.4136 117.396 45.8236 118.284 46.1257C119.173 46.4278 120.326 46.5788 121.737 46.5788C122.36 46.5788 123.005 46.5213 123.679 46.399C124.345 46.2839 124.982 46.1257 125.577 45.9459C126.171 45.7589 126.709 45.5791 127.174 45.392C127.64 45.205 127.955 45.0108 128.156 44.8598C128.586 44.5433 128.879 44.2988 128.879 44.2988L127.962 49.24C127.962 49.24 126.587 49.7651 125.634 50.0384C124.194 50.4556 122.482 50.6714 120.512 50.6714" fill="#00587C"/>
<path d="M174.569 46.3127C174.898 46.3775 175.256 46.4206 175.636 46.4422C176.016 46.4566 176.388 46.471 176.746 46.471C178.623 46.471 180.278 46.097 181.725 45.3561C183.165 44.6153 184.376 43.6155 185.343 42.3497C186.317 41.0838 187.041 39.6381 187.513 38.0054C187.986 36.3727 188.18 34.6609 188.087 32.8771C188.051 32.1363 187.929 31.4098 187.728 30.705C187.528 30.0001 187.191 29.3744 186.718 28.8349C186.245 28.2955 185.622 27.8639 184.849 27.5475C184.075 27.231 183.093 27.0656 181.911 27.0656C181.088 27.0656 180.335 27.1447 179.655 27.2957C178.974 27.4468 178.401 27.5906 177.95 27.7273L174.561 46.3271L174.569 46.3127ZM182.85 23.0593C184.462 23.0593 185.866 23.2967 187.055 23.7642C188.244 24.2389 189.24 24.8862 190.042 25.7134C190.845 26.5405 191.461 27.5187 191.898 28.6479C192.335 29.7771 192.585 31.0143 192.657 32.3664C192.779 34.6896 192.542 36.9409 191.969 39.113C191.389 41.2852 190.429 43.2128 189.082 44.903C187.736 46.5861 185.995 47.9383 183.86 48.9452C181.725 49.9522 179.161 50.4628 176.166 50.4628C175.801 50.4628 175.407 50.4484 174.977 50.4125C174.547 50.3765 174.167 50.3262 173.838 50.2614L172.069 60.0073H167.477L173.917 24.8359C175.271 24.2605 176.754 23.8217 178.365 23.5196C179.977 23.2176 181.474 23.0665 182.857 23.0665" fill="#00587C"/>
<path d="M204.088 46.6652C205.571 46.6652 206.868 46.2264 207.992 45.3489C209.117 44.4715 210.048 43.3494 210.779 41.99C211.517 40.6235 212.054 39.1202 212.398 37.4659C212.742 35.8189 212.871 34.2149 212.792 32.6613C212.706 30.9423 212.269 29.5758 211.495 28.5688C210.722 27.5547 209.447 27.0512 207.67 27.0512C206.187 27.0512 204.89 27.4899 203.766 28.3674C202.641 29.2449 201.717 30.3669 200.979 31.7335C200.241 33.1001 199.704 34.6033 199.36 36.2576C199.016 37.9119 198.887 39.5086 198.966 41.0622C199.052 42.7812 199.482 44.1478 200.263 45.1547C201.036 46.1617 202.312 46.6724 204.088 46.6724V46.6652ZM203.501 50.6642C200.8 50.6642 198.651 49.8443 197.032 48.2116C195.42 46.5789 194.539 44.3276 194.396 41.465C194.295 39.5086 194.46 37.4516 194.897 35.2938C195.327 33.136 196.093 31.1509 197.182 29.3312C198.271 27.5115 199.725 26.0155 201.538 24.8287C203.35 23.6491 205.592 23.0593 208.257 23.0593C210.922 23.0593 213.107 23.8793 214.726 25.512C216.338 27.1447 217.219 29.3959 217.362 32.2586C217.463 34.2149 217.298 36.272 216.861 38.4297C216.431 40.5875 215.665 42.5726 214.576 44.3923C213.487 46.2121 212.033 47.7081 210.22 48.8949C208.408 50.0744 206.166 50.6642 203.501 50.6642Z" fill="#00587C"/>
<path d="M225.02 34.5386H228.817C229.87 34.5386 230.844 34.4595 231.739 34.3084C232.635 34.1574 233.401 33.9056 234.046 33.5532C234.684 33.2008 235.178 32.7189 235.529 32.1147C235.873 31.5105 236.023 30.7337 235.973 29.7915C235.93 28.914 235.586 28.202 234.949 27.641C234.311 27.0871 233.351 26.8066 232.069 26.8066C231.281 26.8066 230.507 26.9001 229.762 27.0871C229.017 27.2741 228.322 27.6266 227.692 28.1516C227.062 28.6767 226.517 29.4103 226.051 30.3525C225.593 31.2948 225.263 32.5247 225.077 34.0423L225.006 34.5458L225.02 34.5386ZM224.354 37.9766L222.864 46.5213C223.329 46.5933 223.967 46.658 224.776 46.7227C225.586 46.7875 226.567 46.8234 227.713 46.8234C228.766 46.8234 229.769 46.7371 230.736 46.5717C231.696 46.3991 232.542 46.1257 233.258 45.7373C233.982 45.3489 234.54 44.8167 234.949 44.1478C235.357 43.4717 235.536 42.6302 235.486 41.6232C235.422 40.343 234.942 39.4151 234.06 38.8397C233.172 38.2643 231.825 37.9838 230.02 37.9838H224.346L224.354 37.9766ZM240.393 29.4319C240.458 31.3163 240.085 32.7836 239.283 33.8337C238.48 34.8766 237.384 35.6894 236.002 36.2576C237.141 36.6316 238.065 37.2646 238.788 38.1564C239.512 39.0483 239.899 40.084 239.956 41.2636C240.056 43.148 239.763 44.6944 239.082 45.8884C238.402 47.0823 237.478 48.0318 236.317 48.7151C235.149 49.4055 233.795 49.8874 232.248 50.1536C230.701 50.4197 229.117 50.5563 227.506 50.5563C225.794 50.5563 224.06 50.4556 222.312 50.2542C220.557 50.0529 219.06 49.7148 217.82 49.2401L220.736 32.9634C221.094 31.0071 221.639 29.3959 222.362 28.1085C223.086 26.8282 223.96 25.8213 224.991 25.0804C226.023 24.3396 227.162 23.8145 228.415 23.5125C229.669 23.2104 231.016 23.0593 232.463 23.0593C233.745 23.0593 234.87 23.2248 235.844 23.5628C236.811 23.9008 237.628 24.354 238.28 24.9294C238.932 25.5048 239.433 26.1737 239.791 26.9505C240.142 27.7273 240.343 28.5544 240.386 29.4247" fill="#00587C"/>
<path d="M270.069 50.0023H265.477L270.298 23.7136H274.89L272.927 34.4808C274.102 33.6393 275.277 32.7187 276.459 31.7261C277.641 30.7335 278.758 29.7481 279.811 28.77C280.864 27.7918 281.831 26.8639 282.705 25.9865C283.579 25.109 284.303 24.3538 284.862 23.7136H290.385C289.668 24.5551 288.78 25.5189 287.72 26.5978C286.66 27.6767 285.521 28.7844 284.31 29.9064C283.099 31.0356 281.889 32.1217 280.678 33.1646C279.467 34.2075 278.364 35.0994 277.39 35.8402C278.35 36.6458 279.346 37.624 280.377 38.7748C281.409 39.9256 282.397 41.1339 283.35 42.4142C284.303 43.6944 285.184 44.9963 285.993 46.3053C286.803 47.6216 287.484 48.8515 288.035 49.9951H282.999C281.616 47.3698 280.026 44.91 278.228 42.6156C276.43 40.3283 274.51 38.4511 272.461 37.0054L270.069 49.9951V50.0023Z" fill="#00587C"/>
<path d="M288.357 40.6019C288.243 38.3075 288.465 36.0994 289.031 33.9776C289.597 31.8558 290.492 29.9857 291.731 28.3674C292.964 26.7491 294.511 25.4616 296.366 24.4978C298.229 23.5412 300.385 23.0593 302.857 23.0593C303.938 23.0593 304.984 23.1313 305.973 23.2895C306.933 23.4333 307.85 23.7138 308.731 24.131L307.929 28.4753C307.764 28.3818 307.298 28.1229 307.298 28.1229C306.754 27.8208 306.123 27.5834 305.414 27.418C304.698 27.2526 303.781 27.1663 302.663 27.1663C301.051 27.1663 299.619 27.5259 298.379 28.2523C297.133 28.9788 296.087 29.9354 295.242 31.1365C294.396 32.3305 293.78 33.7114 293.379 35.2794C292.985 36.8474 292.828 38.4729 292.913 40.1559C292.956 41.0334 293.093 41.8606 293.315 42.6302C293.537 43.407 293.888 44.0903 294.382 44.68C294.869 45.2698 295.514 45.7302 296.302 46.0682C297.09 46.4062 298.079 46.5717 299.261 46.5717C299.855 46.5717 300.471 46.5141 301.13 46.3919C301.782 46.2768 302.384 46.1329 302.935 45.9603C303.437 45.8093 303.86 45.6798 304.411 45.4281C304.755 45.2698 305.328 45.0037 305.973 44.5218C305.973 44.5218 306.159 44.378 307.198 43.4573L306.245 48.6647C306.245 48.6647 306.023 48.8301 305.951 48.8805C305.357 49.2976 304.397 49.6788 303.1 50.0672C301.804 50.4556 300.321 50.6498 298.637 50.6498C297.061 50.6498 295.65 50.4053 294.404 49.9162C293.164 49.4271 292.104 48.7366 291.237 47.8447C290.37 46.9529 289.69 45.8884 289.196 44.6585C288.708 43.4285 288.422 42.0692 288.35 40.5875" fill="#00587C"/>
<path d="M257.716 39.9471C257.616 40.5873 257.544 41.2202 257.494 41.846C257.444 42.4717 257.415 43.0687 257.415 43.6369C256.735 44.4425 255.911 45.1545 254.958 45.7587C254.005 46.3629 252.838 46.6721 251.455 46.6721C250.531 46.6721 249.779 46.4923 249.184 46.1399C248.59 45.7875 248.11 45.3343 247.73 44.7733C247.358 44.2195 247.085 43.5794 246.913 42.8529C246.741 42.1265 246.641 41.4144 246.605 40.7024C246.512 38.9186 246.713 37.2068 247.207 35.5741C247.701 33.9414 248.446 32.5101 249.457 31.2802C250.467 30.0502 251.706 29.0649 253.182 28.324C254.657 27.5832 256.334 27.2092 258.203 27.2092C258.497 27.2092 258.841 27.2236 259.221 27.2595C259.6 27.2955 259.873 27.3458 260.044 27.4106L257.723 39.9471H257.716ZM258.841 50.0023H263.118C262.745 49.096 262.344 47.938 262.179 47.1469C262.007 46.3557 261.9 45.5717 261.864 44.7949C261.821 44.0181 261.843 43.2773 261.921 42.5724C262 41.8675 262.1 41.1267 262.229 40.3499L265.217 24.476C264.336 24.0013 263.297 23.6705 262.108 23.4691C260.911 23.2677 259.873 23.167 258.984 23.167C255.99 23.167 253.404 23.692 251.219 24.735C249.034 25.7779 247.25 27.1445 245.853 28.8275C244.456 30.5106 243.446 32.431 242.816 34.5887C242.185 36.7465 241.927 38.9546 242.042 41.213C242.114 42.594 242.336 43.8599 242.708 45.0035C243.081 46.1471 243.618 47.1469 244.313 47.9884C245.015 48.8299 245.896 49.4844 246.956 49.9591C248.017 50.4338 249.27 50.664 250.717 50.664C252.494 50.664 253.97 50.3259 255.159 49.6499C256.341 48.9738 257.279 48.3049 257.967 47.6288C258.096 48.1322 258.246 48.6141 258.44 49.0673C258.576 49.4053 258.719 49.7146 258.855 50.0023" fill="#00587C"/>
<path d="M160.043 23.1599C161.49 23.1599 162.729 23.3901 163.754 23.8432C164.778 24.2963 165.616 24.9149 166.268 25.6917C166.913 26.4685 167.4 27.3675 167.715 28.3961C168.03 29.4246 168.217 30.5107 168.274 31.6615C168.31 32.4023 168.295 33.2007 168.224 34.0638C168.152 34.9197 168.037 35.754 167.887 36.5668L165.416 50.0168H160.824L163.102 37.5809C163.223 36.8041 163.374 35.9338 163.532 34.9772C163.696 34.0206 163.754 33.064 163.703 32.1218C163.668 31.4817 163.567 30.8559 163.388 30.2517C163.209 29.6404 162.937 29.1225 162.564 28.6838C162.199 28.245 161.69 27.8926 161.053 27.6193C160.415 27.346 159.634 27.2165 158.71 27.2165C157.657 27.2165 156.647 27.4251 155.687 27.8494C154.72 28.2738 153.918 28.6982 153.287 29.1369C153.373 29.6116 153.459 30.0719 153.531 30.5251C153.603 30.9782 153.653 31.4313 153.674 31.8629C153.717 32.6397 153.696 33.4236 153.624 34.2148C153.552 35.006 153.452 35.79 153.323 36.5668L150.852 50.0168H146.26L148.538 37.5809C148.66 36.8041 148.796 35.9266 148.946 34.9556C149.097 33.9775 149.14 32.9993 149.089 32.0211C149.054 31.381 148.961 30.7696 148.796 30.1726C148.631 29.5828 148.387 29.0722 148.051 28.6334C147.714 28.1947 147.277 27.8494 146.74 27.5977C146.202 27.346 145.515 27.2165 144.698 27.2165C143.881 27.2165 143.079 27.2668 142.313 27.3675C141.546 27.4682 140.901 27.6049 140.386 27.7703L136.295 50.0096H131.703L136.331 24.7351C137.785 24.2604 139.39 23.8864 141.131 23.5987C142.871 23.311 144.44 23.1671 145.823 23.1671C147.205 23.1671 148.387 23.4116 149.362 23.9007C150.343 24.3898 151.131 25.0372 151.733 25.8499C152.048 25.6126 152.492 25.3464 153.051 25.0444C153.61 24.7423 154.254 24.4546 154.978 24.1812C155.702 23.9079 156.497 23.6778 157.356 23.4764C158.216 23.275 159.111 23.1743 160.028 23.1743" fill="#00587C"/>
</g>
<defs>
<clipPath id="clip0_5429_22617">
<rect width="308.727" height="60" fill="white"/>
</clipPath>
</defs>
</svg>
