<svg width="1000" height="652" viewBox="0 0 1000 652" fill="none" xmlns="http://www.w3.org/2000/svg">
<path opacity="0.61" d="M298 186.503L298 186.503C382.831 128.542 475.831 82.4415 572.258 48.8768C656.31 19.6227 747.039 -2.2011 836.297 1.97504C862.036 3.18756 891.792 7.02662 918.194 17.1639C944.59 27.2994 967.591 43.7132 979.906 70.0535C984.23 79.5747 986.853 89.7699 987.902 100.238C990.591 128.565 982.36 156.719 969.206 182.966C956.052 209.214 937.992 233.522 921.067 254.143C865.895 321.245 796.359 375.828 723.772 422.066C635.776 478.142 540.142 522.894 440.821 553.357C360.323 578.028 272.635 596.344 188.397 586.243C163.326 583.28 135.92 576.785 112.968 564.101C90.0258 551.423 71.5561 532.574 64.2852 504.892C57.4028 478.532 62.1474 451.474 72.3376 425.909C82.5279 400.345 98.1488 376.313 112.965 356.03C162.6 288.13 229.493 233.283 298 186.503Z" stroke="black"/>
<path opacity="0.61" d="M921.61 229.112L921.61 229.112C933.42 211.017 944.85 189.492 950.865 167.002C956.88 144.51 957.488 121.021 947.609 99.0392L947.607 99.0342C942.835 88.7261 936.208 79.6401 928.126 71.9121L928.124 71.9101C909.056 53.8883 884.182 44.1507 859.23 38.6117C825.958 31.0458 791.511 30.2381 757.617 32.2624L757.617 32.2624C666.875 37.7959 576.81 64.247 492.834 98.9169C407.404 134.127 325 179.054 251.16 235.453C198.297 275.788 149.735 319.801 116.475 379.496L116.475 379.496C95.8962 416.483 82.4568 466.896 110.181 505.311L110.586 505.018L110.181 505.311C127.074 528.699 152.563 542.029 180.269 549.497C207.974 556.964 237.941 558.583 263.853 558.515C351.572 558.245 439.14 535.164 521.135 504.948L521.136 504.948C609.6 472.299 695.432 428.317 772.696 373.539L772.7 373.536L772.708 373.531C781.27 367.33 789.839 361.125 798.278 354.649L798.281 354.646C799.298 353.85 800.401 352.988 801.554 352.087C808.014 347.04 816.078 340.739 819.775 337.644L819.776 337.643L819.779 337.64C827.289 331.304 834.805 324.962 842.19 318.35C844.653 316.189 847.003 314.025 849.348 311.866C850.518 310.788 851.687 309.711 852.868 308.637L852.875 308.63L855.445 306.203L858.015 303.776L858.022 303.769L858.029 303.762L859.215 302.548L859.709 302.042L860.393 301.342C860.394 301.341 860.396 301.34 860.397 301.338C884.263 277.996 903.925 256.123 921.61 229.112Z" stroke="black"/>
<path opacity="0.61" d="M988.4 100.188C987.345 89.6697 984.71 79.4208 980.361 69.8462C955.585 16.8489 887.848 3.90296 836.321 1.4756C746.971 -2.70485 656.172 19.1414 572.093 48.4046C475.627 81.983 382.587 128.103 297.718 186.09C229.191 232.884 162.244 287.769 112.562 355.735C82.9101 396.326 49.964 452.021 63.8014 505.018C78.4294 560.712 138.128 580.806 188.338 586.739C272.679 596.853 360.448 578.513 440.968 553.835C540.333 523.358 636.009 478.587 724.041 422.488C796.654 376.233 866.236 321.617 921.453 254.46C955.322 213.195 993.803 157.096 988.4 100.188ZM921.19 228.838C903.531 255.809 883.895 277.655 860.042 300.985C859.515 301.524 859.119 301.929 858.856 302.199L857.67 303.412C855.957 305.03 854.243 306.649 852.53 308.267C848.972 311.503 845.546 314.74 841.856 317.976C834.476 324.584 826.964 330.922 819.452 337.26C815.103 340.901 804.692 348.993 797.971 354.252C789.537 360.725 780.971 366.928 772.405 373.131C695.18 427.882 609.388 471.844 520.961 504.479C438.991 534.686 351.486 557.746 263.85 558.015C212.059 558.15 144.19 551.542 110.585 505.018C83.0419 466.855 96.3521 416.689 116.91 379.739C150.12 320.134 198.617 276.172 251.462 235.851C325.261 179.482 407.627 134.576 493.023 99.3791C576.969 64.7218 666.978 38.2906 757.646 32.7616C791.514 30.7388 825.91 31.5479 859.119 39.0997C884.027 44.6287 908.802 54.3381 927.779 72.2736C935.818 79.9602 942.407 88.9954 947.151 99.2443C966.787 142.937 944.779 192.698 921.19 228.838Z" fill="#009F88"/>
<path opacity="0.75" d="M913.443 170.223L913.443 170.224C916.001 197.271 908.166 224.178 895.604 249.247C883.044 274.314 865.774 297.509 849.509 317.118L849.508 317.119C796.707 381.255 730.334 433.545 661.042 477.625L661.311 478.047L661.042 477.625C577 531.139 485.583 573.868 390.743 602.983C313.935 626.575 230.068 643.947 149.652 634.385C125.768 631.557 99.6131 625.332 77.6993 613.205C55.7941 601.082 38.148 583.076 31.2068 556.675C24.5882 531.461 29.1023 505.617 38.8311 481.199C48.5601 456.781 63.4888 433.829 77.6465 414.422C125.172 349.489 189.035 297.203 254.511 252.446C335.521 197.182 424.435 153.104 516.513 121.023C596.743 93.1176 683.387 72.2378 768.691 76.2791C793.311 77.4916 821.716 81.1622 846.914 90.8442C872.108 100.524 894.054 116.197 905.843 141.391C909.906 150.512 912.526 160.302 913.443 170.223Z" stroke="black"/>
<path opacity="0.75" d="M856.299 143.113C838.152 125.898 814.199 116.701 790.438 111.298L790.437 111.298C758.614 104.136 725.616 103.463 693.305 105.353L693.304 105.353C606.648 110.617 520.536 135.989 440.381 169.04C358.774 202.633 280.059 245.536 209.514 299.509C159.023 338.09 112.57 380.08 80.8911 437.079C61.2345 472.447 48.4546 520.702 74.8603 557.363L74.8606 557.364C90.9634 579.673 115.332 592.396 141.819 599.527C168.305 606.658 196.954 608.209 221.68 608.141C305.446 607.871 389.191 585.734 467.497 556.866L467.324 556.397L467.497 556.866C552.009 525.701 634.018 483.607 707.856 431.121C716.03 425.321 724.206 419.383 732.252 413.174L731.947 412.778L732.253 413.174C738.706 408.187 748.596 400.496 752.823 396.982C760.207 390.91 767.33 384.836 774.322 378.492C774.322 378.491 774.322 378.491 774.322 378.491L774.326 378.488C777.75 375.388 781.178 372.285 784.475 369.181C785.267 368.439 786.091 367.663 786.914 366.888C787.732 366.118 788.549 365.349 789.334 364.612C789.882 364.189 790.292 363.769 790.553 363.502C790.664 363.388 790.803 363.275 791.014 363.094C791.216 362.922 791.458 362.71 791.735 362.427C814.414 340.164 833.285 319.234 850.18 293.437L850.181 293.437C861.464 276.152 872.399 255.57 878.15 234.058C883.903 212.543 884.477 190.066 874.993 169.028L874.989 169.018C870.353 159.258 864.124 150.441 856.299 143.113ZM856.299 143.113C856.299 143.112 856.298 143.112 856.298 143.111L855.956 143.476L856.3 143.113C856.3 143.113 856.299 143.113 856.299 143.113Z" stroke="black"/>
<path opacity="0.75" d="M913.941 170.177C913.019 160.198 910.383 150.354 906.298 141.184C882.576 90.4786 818.002 78.207 768.715 75.7796C683.319 71.734 596.605 92.6363 516.348 120.551C424.231 152.646 335.277 196.743 254.229 252.033C188.732 296.804 124.817 349.127 77.243 414.127C48.9094 452.964 17.413 506.097 30.7232 556.802C44.6923 609.934 101.755 629.218 149.593 634.882C230.113 644.456 314.059 627.06 390.89 603.461C485.774 574.332 577.232 531.584 661.311 478.047C730.629 433.95 797.049 381.627 849.894 317.437C882.445 278.195 919.081 224.523 913.941 170.177V170.177ZM849.762 293.163C832.894 318.92 814.049 339.822 791.382 362.073C790.855 362.613 790.459 362.882 790.196 363.152C789.932 363.422 789.537 363.826 789.01 364.231C787.428 365.714 785.715 367.333 784.134 368.816C780.839 371.918 777.413 375.019 773.986 378.121C767.002 384.459 759.885 390.527 752.505 396.596C748.288 400.102 738.405 407.789 731.947 412.778C723.908 418.981 715.738 424.915 707.567 430.714C633.768 483.172 551.798 525.246 467.324 556.397C389.045 585.256 305.362 607.372 221.679 607.641C172.259 607.776 107.29 601.438 75.2662 557.071C49.0412 520.661 61.6925 472.653 81.3283 437.321C112.957 380.413 159.345 338.474 209.818 299.906C280.323 245.965 358.998 203.081 440.572 169.503C520.697 136.464 606.752 111.111 693.334 105.852C725.621 103.964 758.567 104.638 790.327 111.785C814.049 117.18 837.902 126.35 855.956 143.476C863.731 150.758 869.925 159.524 874.538 169.233C893.383 211.038 872.297 258.641 849.762 293.163V293.163Z" fill="#005C7E"/>
<path d="M309.086 200.529L309.086 200.529C393.917 142.568 486.917 96.4674 583.344 62.9027C667.396 33.6486 758.125 11.8248 847.383 16.0009C873.122 17.2134 902.845 21.0525 929.23 31.1898C955.61 41.3252 978.611 57.7393 990.992 84.0805C995.316 93.6014 997.939 103.796 998.988 114.264C1001.68 142.658 993.446 170.846 980.292 197.093C967.138 223.341 949.078 247.615 932.153 268.169L932.539 268.486L932.153 268.169C876.98 335.271 807.445 389.854 734.858 436.092C646.862 492.168 551.228 536.92 451.907 567.383C371.409 592.054 283.721 610.37 199.483 600.269C174.412 597.306 147.006 590.811 124.054 578.127C101.112 565.448 82.642 546.6 75.3711 518.918C68.4888 492.558 73.2334 465.5 83.4236 439.935C93.6139 414.371 109.235 390.339 124.051 370.056C173.686 302.156 240.579 247.308 309.086 200.529Z" stroke="black"/>
<path d="M932.696 243.273L932.696 243.272C944.506 225.178 955.935 203.653 961.95 181.18C967.966 158.704 968.574 135.249 958.694 113.334L958.692 113.33C953.921 103.022 947.294 93.9358 939.212 86.2078L939.21 86.2058C920.142 68.1839 895.268 58.4464 870.316 52.9073C837.043 45.3415 802.596 44.5338 768.703 46.558L768.702 46.5581C677.961 52.0916 587.896 78.5427 503.919 113.213C418.49 148.423 336.086 193.349 262.246 249.749C209.383 290.084 160.821 334.096 127.561 393.791L127.561 393.792C106.982 430.779 93.5427 481.191 121.267 519.606L121.672 519.314L121.267 519.606C138.16 542.994 163.649 556.324 191.355 563.792C219.06 571.26 249.027 572.878 274.939 572.811C362.658 572.541 450.226 549.46 532.221 519.243L532.222 519.243C620.686 486.595 706.518 442.748 783.783 387.699L783.786 387.697L783.788 387.696C792.352 381.493 800.923 375.287 809.363 368.809L809.367 368.806C810.385 368.01 811.488 367.148 812.642 366.247C819.102 361.199 827.164 354.9 830.861 351.805L830.862 351.803C838.373 345.466 845.89 339.124 853.276 332.51C855.739 330.35 858.089 328.186 860.433 326.027C861.604 324.949 862.773 323.872 863.954 322.798L863.961 322.791L866.531 320.364L869.101 317.936L869.108 317.93L869.115 317.922L870.301 316.709L870.795 316.203L871.479 315.503C871.48 315.502 871.482 315.5 871.483 315.499C895.348 292.157 915.01 270.283 932.696 243.273Z" stroke="black"/>
<path d="M999.486 114.214C998.431 103.696 995.796 93.4467 991.447 83.8721C966.539 30.8748 898.934 17.9288 847.406 15.5015C758.057 11.321 667.257 33.1673 583.179 62.4304C486.713 96.0089 393.673 142.129 308.804 200.116C240.277 246.91 173.33 301.795 123.647 369.761C93.996 410.352 61.05 466.046 74.8873 519.044C89.5154 574.738 149.214 594.831 199.423 600.765C283.765 610.879 371.534 592.539 452.054 567.861C551.419 537.384 647.094 492.613 735.126 436.514C807.739 390.259 877.321 335.643 932.539 268.486C966.408 227.356 1004.89 171.257 999.486 114.214ZM932.276 242.999C914.616 269.97 894.981 291.816 871.128 315.146C870.601 315.685 870.205 316.09 869.942 316.359L868.756 317.573C867.042 319.191 865.329 320.809 863.616 322.428C860.058 325.664 856.631 328.901 852.941 332.137C845.562 338.745 838.05 345.083 830.538 351.421C826.189 355.062 815.778 363.153 809.057 368.413C800.623 374.886 792.057 381.089 783.491 387.292C706.266 442.312 620.474 486.14 532.047 518.774C450.077 548.981 362.572 572.041 274.936 572.311C223.145 572.446 155.276 565.838 121.671 519.314C94.1278 481.15 107.438 430.985 127.996 394.035C161.206 334.43 209.703 290.467 262.548 250.146C336.347 193.778 418.712 148.871 504.109 113.675C588.055 79.0174 678.064 52.5861 768.731 47.0572C802.6 45.0344 836.996 45.8435 870.205 53.3953C895.112 58.9243 919.888 68.6337 938.865 86.5692C946.904 94.2558 953.493 103.291 958.237 113.54C977.873 157.097 955.865 206.858 932.276 242.999Z" fill="#009BD8"/>
<path opacity="0.44" d="M532.442 89.3341L532.278 88.862L532.442 89.3341C620.184 58.7318 714.867 35.9638 808.211 40.14C835.203 41.42 866.441 45.3941 894.177 55.9866C921.907 66.5774 946.093 83.7666 959.067 111.455C963.655 121.514 966.409 132.247 967.458 143.252C969.688 168.623 962.605 194.561 952.475 217.58C938.794 248.676 919.32 277.09 897.857 303.095L898.243 303.414L897.857 303.096C840.444 372.76 768.273 429.366 693.05 477.357C601.364 535.726 501.644 582.366 398.238 614.177L398.237 614.178C351.212 628.735 303.008 640.056 254.282 646.254L254.345 646.75L254.281 646.254C214.24 651.376 173.564 653.664 133.427 648.816C107.368 645.651 78.7747 638.853 54.8014 625.629C30.8369 612.411 11.5113 592.786 3.91124 563.958C-3.30045 536.453 1.60909 508.214 12.2112 481.52C22.8133 454.827 39.0931 429.716 54.5685 408.489C105.916 338.431 174.787 281.831 245.534 233.433C334.186 172.775 431.535 124.517 532.442 89.3341Z" stroke="black"/>
<path opacity="0.44" d="M856.235 330.717L856.233 330.72C849.652 337.858 842.806 344.729 835.823 351.605L835.816 351.611L834.63 352.825C834.51 352.948 834.258 353.208 833.477 353.873L833.468 353.881L833.46 353.889C832.675 354.625 831.857 355.395 831.04 356.164L831.021 356.182C830.198 356.956 829.376 357.73 828.587 358.471C827.62 359.361 826.663 360.25 825.708 361.137C822.75 363.883 819.821 366.602 816.739 369.247L816.734 369.252C809.09 375.995 801.453 382.732 793.554 389.198L793.552 389.201C791.447 390.95 787.629 394.049 783.812 397.012L783.804 397.019C780.678 399.559 777.49 402.031 774.323 404.488C772.957 405.548 771.594 406.605 770.241 407.663C761.546 414.269 752.722 420.873 743.768 427.206L743.767 427.206C662.89 484.761 573.185 530.861 480.578 565.235C394.286 597.185 302.099 621.572 209.802 621.842C182.671 621.909 151.358 620.19 122.462 612.386C93.5665 604.582 67.1323 590.705 49.6959 566.49L49.6956 566.49C20.8856 526.557 35.1178 473.808 56.8431 434.87L56.8438 434.868C64.0787 421.812 73.0266 408.481 80.7909 398.112C91.9815 383.292 101.458 372.114 113.042 359.856L113.043 359.855C139.246 331.964 167.426 307.304 198.378 283.718L198.378 283.718C276.09 224.278 362.633 177.1 452.609 140.029C540.61 103.766 634.779 76.1411 729.854 70.4817L729.854 70.4816C765.277 68.3256 801.334 69.2707 835.931 77.0778C861.851 83.002 887.844 93.0882 907.519 111.879C915.777 119.793 922.591 129.18 927.44 139.772C937.658 162.427 937.079 186.71 930.855 210.102C924.631 233.495 912.768 255.964 900.462 274.955C891.513 288.556 883.091 299.733 871.901 313.07C870.682 314.488 869.559 315.807 868.569 316.969C867.2 318.577 866.085 319.886 865.322 320.745C862.29 324.117 859.262 327.485 856.235 330.717Z" stroke="black"/>
<path opacity="0.44" d="M967.956 143.208C966.902 132.15 964.135 121.362 959.522 111.248C933.429 55.5532 862.265 42.2028 808.234 39.6405C714.799 35.4601 620.046 58.2503 532.278 88.862C431.331 124.059 333.942 172.336 245.252 233.02C174.484 281.433 105.56 338.071 54.1645 408.195C23.1952 450.674 -11.0687 508.795 3.42759 564.085C18.7146 622.072 81.1803 642.975 133.367 649.313C173.561 654.167 214.282 651.875 254.345 646.75C303.105 640.547 351.338 629.219 398.385 614.655C501.836 582.83 601.596 536.171 693.318 477.779C768.567 429.771 840.785 373.133 898.243 303.414C919.723 277.387 939.227 248.933 952.933 217.782C963.08 194.722 970.197 168.695 967.956 143.208ZM900.878 275.229C891.917 288.85 883.483 300.042 872.281 313.393C869.382 316.764 867.01 319.596 865.692 321.08C862.661 324.451 859.63 327.822 856.599 331.059C850.01 338.206 843.157 345.083 836.172 351.961C835.381 352.77 835.118 353.04 834.986 353.175C834.854 353.309 834.591 353.579 833.8 354.253C832.219 355.737 830.505 357.355 828.924 358.838C824.971 362.48 821.149 366.121 817.063 369.627C809.42 376.369 801.777 383.112 793.87 389.585C791.761 391.338 787.939 394.44 784.117 397.407C779.637 401.048 775.024 404.554 770.544 408.06C761.846 414.668 753.016 421.276 744.055 427.614C663.139 485.196 573.394 531.316 480.75 565.704C394.431 597.664 302.182 622.072 209.802 622.342C155.507 622.477 84.3431 615.464 49.2885 566.782C20.296 526.596 34.6605 473.599 56.4049 434.626C63.653 421.545 72.6143 408.195 80.3896 397.811C91.5912 382.977 101.08 371.784 112.677 359.513C138.902 331.598 167.104 306.92 198.073 283.321C275.826 223.85 362.408 176.652 452.416 139.567C540.448 103.291 634.674 75.6464 729.822 69.9826C765.272 67.8249 801.381 68.7689 836.04 76.5904C862.002 82.5239 888.095 92.6379 907.863 111.517C916.165 119.474 923.018 128.913 927.894 139.567C948.452 185.147 925.522 237.201 900.878 275.229Z" fill="#009BD8"/>
<path opacity="0.8" d="M936.116 134.417L936.117 134.427C938.524 158.373 932.368 182.24 922.955 204.08L922.955 204.081C910.889 232.032 893.535 257.505 874.372 280.766C822.309 344.318 756.007 395.393 687.406 438.457C600.977 492.873 507.023 536.083 409.631 565.252L409.201 563.815L409.631 565.252C365.42 578.487 320.265 588.756 274.434 594.298L274.432 594.298C237.198 598.756 199.108 600.386 161.643 595.374C137.62 592.191 111.156 585.579 88.872 573.045C66.5639 560.497 48.3759 541.97 41.1283 514.983C34.2988 489.564 38.3712 463.537 47.6486 439.116C56.9253 414.696 71.4433 391.781 85.649 372.512C132.313 309.07 194.804 257.983 259.05 214.65L936.116 134.417ZM936.116 134.417C935.046 124.422 932.502 114.83 928.484 105.784L928.479 105.772M936.116 134.417L928.479 105.772M928.479 105.772L928.473 105.761M928.479 105.772L928.473 105.761M928.473 105.761C916.268 79.4786 893.727 63.0476 868.035 52.8273C842.355 42.6118 813.412 38.5515 788.169 37.0638L788.167 37.0637M928.473 105.761L788.167 37.0637M788.167 37.0637C748.222 34.7628 708.174 38.4185 668.83 45.0383L668.829 45.0385M788.167 37.0637L668.829 45.0385M668.829 45.0385C621.693 53.01 575.227 65.3032 529.829 80.6983M668.829 45.0385L529.829 80.6983M529.829 80.6983C434.557 112.97 342.846 158.07 259.05 214.65L529.829 80.6983Z" stroke="white" stroke-width="3"/>
<path opacity="0.57" d="M943.467 157.829L943.465 157.816C942.359 147.732 939.73 138.054 935.576 128.925L935.569 128.909L935.561 128.894C922.941 102.367 899.613 85.8166 873.126 75.5387C846.65 65.2651 816.847 61.187 790.945 59.6931L790.942 59.6929C749.839 57.3819 708.637 61.054 668.173 67.6998L668.171 67.7001C619.69 75.703 571.901 88.0441 525.214 103.498C427.239 135.892 332.925 181.163 246.749 237.959C180.685 281.453 116.394 332.75 68.3756 396.472C53.7594 415.824 38.8043 438.86 29.2435 463.426C19.6817 487.994 15.4631 514.231 22.5238 539.883C30.0217 567.135 48.8341 585.817 71.837 598.446C94.8115 611.059 122.074 617.704 146.797 620.901C185.358 625.937 224.552 624.298 262.848 619.822L262.85 619.822C309.992 614.258 356.436 603.948 401.902 590.662C502.059 561.383 598.68 518.008 687.562 463.386C758.105 420.161 826.308 368.882 879.875 305.059C899.593 281.697 917.464 256.095 929.895 227.989L929.897 227.983C939.453 206.168 945.955 181.987 943.467 157.829Z" stroke="black" stroke-width="4"/>
</svg>
