<svg width="80" height="80" viewBox="0 0 80 80" fill="none" xmlns="http://www.w3.org/2000/svg">
<g clip-path="url(#clip0_947_9443)">
<path d="M40 80C17.9231 80 0 62.0769 0 40C0 37.3077 0.307692 34.5385 0.846154 31.9231C0.923077 31.4615 1.38462 31.2308 1.76923 31.3077C2.23077 31.3846 2.46154 31.8462 2.38462 32.2308C1.84615 34.7692 1.61538 37.3846 1.61538 40C1.61538 61.1538 18.8462 78.3846 40 78.3846C61.1538 78.3846 78.3846 61.1538 78.3846 40C78.3846 18.8462 61.1538 1.61538 40 1.61538C31.5385 1.61538 23.4615 4.30769 16.7692 9.46154C16.3846 9.69231 15.9231 9.69231 15.6923 9.30769C15.3846 8.92308 15.3846 8.46154 15.7692 8.15385C22.7692 2.84615 31.1538 0 40 0C62.0769 0 80 17.9231 80 40C80 62.0769 62.0769 80 40 80Z" fill="#00A5DF"/>
<path d="M6.07704 15.6923C6.07704 16.4615 5.92319 17.0769 5.46165 17.5384C5.07704 17.9999 4.53857 18.1538 3.84627 18.1538C3.15396 18.1538 2.53857 17.923 2.15396 17.5384C1.76934 17.0769 1.53857 16.4615 1.53857 15.6923C1.53857 14.923 1.69242 14.3076 2.15396 13.8461C2.6155 13.3846 3.07704 13.2307 3.84627 13.2307C4.6155 13.2307 5.07704 13.4615 5.46165 13.8461C5.84627 14.3076 6.07704 14.923 6.07704 15.6923ZM2.38473 15.6923C2.38473 16.3076 2.53857 16.6923 2.76934 16.9999C3.00011 17.3076 3.38473 17.4615 3.84627 17.4615C4.30781 17.4615 4.69242 17.3076 4.92319 16.9999C5.15396 16.6923 5.30781 16.2307 5.30781 15.6923C5.30781 15.1538 5.07704 14.6153 4.84627 14.3076C4.6155 13.9999 4.30781 13.8461 3.84627 13.8461C3.38473 13.8461 3.00011 13.9999 2.76934 14.3076C2.53857 14.6153 2.38473 15.0769 2.38473 15.6923Z" fill="#00A5DF"/>
<path d="M10.5383 14.7692C10.5383 15.2307 10.3845 15.6153 10.0768 15.923C9.76912 16.1538 9.30758 16.3076 8.6922 16.3076H8.23066V18.0768H7.46143V13.3076H8.84604C9.46143 13.3076 9.84604 13.4615 10.1537 13.6922C10.3076 13.923 10.4614 14.2307 10.5383 14.7692ZM8.15373 15.6153H8.53835C8.92296 15.6153 9.23066 15.5384 9.3845 15.3845C9.53835 15.2307 9.6922 14.9999 9.6922 14.6922C9.6922 14.3845 9.61527 14.2307 9.46143 14.0768C9.30758 13.923 8.99989 13.8461 8.6922 13.8461H8.15373V15.6153Z" fill="#00A5DF"/>
<path d="M11.6924 13.3076H12.3847V17.0768L14.8462 13.3076H15.7693V18.0768H15.077V15.6153C15.077 15.2307 15.077 14.7692 15.1539 14.2307L12.6924 18.0768H11.7693V13.3076H11.6924Z" fill="#00A5DF"/>
<path d="M20.0769 13.3076V13.9999H17.9999V18.0768H17.2307V13.3076H20.0769Z" fill="#00A5DF"/>
<path d="M21.1538 13.3076H21.8461V17.0768L24.3077 13.3076H25.2307V18.0768H24.5384V15.6153C24.5384 15.2307 24.5384 14.7692 24.6153 14.2307L22.1538 18.0768H21.2307V13.3076H21.1538Z" fill="#00A5DF"/>
<path d="M30.4616 18.0768H29.6924V15.923H27.4616V18.0768H26.6924V13.3076H27.4616V15.2307H29.6924V13.3076H30.4616V18.0768Z" fill="#00A5DF"/>
<path d="M34.923 18.0768L34.4615 16.7692H32.6153L32.1538 18.0768H31.3076L33.0768 13.3076H33.923L35.6922 18.0768H34.923ZM34.2307 16.0768L33.8461 14.7692C33.8461 14.6922 33.7692 14.5384 33.6922 14.3845C33.6153 14.2307 33.6153 14.0768 33.5384 13.9999C33.4615 14.2307 33.3845 14.5384 33.3076 14.8461L32.8461 16.0768H34.2307Z" fill="#00A5DF"/>
<path d="M40.2308 18.0768H39.4615V13.9999H38.0769C37.9231 15.3845 37.7692 16.3076 37.6923 16.8461C37.6154 17.3076 37.4615 17.6922 37.2308 17.923C37.0769 18.1538 36.7692 18.2307 36.4615 18.2307C36.3077 18.2307 36.1538 18.2307 36 18.1538V17.5384C36.1538 17.6153 36.2308 17.6153 36.3846 17.6153C36.5385 17.6153 36.6923 17.5384 36.7692 17.3076C36.8462 17.1538 36.9231 16.6922 37.0769 16.0768C37.1538 15.4614 37.3077 14.5384 37.4615 13.3845H40.2308V18.0768Z" fill="#00A5DF"/>
<path d="M45.077 16.6153C45.077 17.0768 44.9231 17.4615 44.6154 17.6922C44.3077 17.923 43.8462 18.0768 43.2308 18.0768H41.7693V13.3076H42.5385V15.2307H43.2308C43.8462 15.2307 44.3077 15.3845 44.6154 15.6153C44.9231 15.8461 45.077 16.1538 45.077 16.6153ZM42.5385 17.3845H43.2308C43.6154 17.3845 43.8462 17.3076 44.0001 17.2307C44.1539 17.0768 44.3077 16.923 44.3077 16.6153C44.3077 16.3845 44.2308 16.1538 44.0001 16.0768C43.8462 15.923 43.5385 15.923 43.077 15.923H42.5385V17.3845Z" fill="#00A5DF"/>
<path d="M50.0768 18.0768H49.3076V15.923H47.0768V18.0768H46.3076V13.3076H47.0768V15.2307H49.3076V13.3076H50.0768V18.0768Z" fill="#00A5DF"/>
<path d="M54.7693 16.6153C54.7693 17.0768 54.6155 17.4615 54.3078 17.6922C54.0001 17.923 53.5386 18.0768 53.0001 18.0768H51.6155V13.3076H52.3847V15.2307H52.9232C53.5386 15.2307 54.0001 15.3845 54.3078 15.6153C54.6155 15.8461 54.7693 16.1538 54.7693 16.6153ZM52.3847 17.3845H52.9232C53.3078 17.3845 53.5386 17.3076 53.6924 17.2307C53.8463 17.0768 53.9232 16.923 53.9232 16.6153C53.9232 16.3845 53.8463 16.1538 53.6924 16.0768C53.5386 15.923 53.2309 15.923 52.8462 15.923H52.3847V17.3845ZM56.1539 18.0768H55.3847V13.3076H56.1539V18.0768Z" fill="#00A5DF"/>
<path d="M60.3847 18.0768H57.6924V13.3076H60.3847V13.9999H58.4616V15.3076H60.2308V15.9999H58.4616V17.4615H60.3847V18.0768Z" fill="#00A5DF"/>
<path d="M7.6154 28.0001H6.38463V21.6924H3.15386V28.0001H1.9231V20.6155H7.6154V28.0001Z" fill="#00A5DF"/>
<path d="M14.8462 22.8462C14.8462 23.6155 14.6154 24.2309 14.0769 24.6155C13.6154 25.0001 12.8462 25.2309 11.9231 25.2309H11.1539V28.0001H9.9231V20.6155H12.0769C13 20.6155 13.6923 20.7693 14.1539 21.1539C14.6154 21.5386 14.8462 22.1539 14.8462 22.8462ZM11.1539 24.2309H11.7693C12.3846 24.2309 12.8462 24.1539 13.1539 23.9232C13.4616 23.6924 13.6154 23.3847 13.6154 22.9232C13.6154 22.4616 13.4616 22.1539 13.2308 22.0001C13 21.7693 12.5385 21.6924 12 21.6924H11.1539V24.2309Z" fill="#00A5DF"/>
<path d="M23.2307 24.3076C23.2307 25.5383 22.923 26.4614 22.3076 27.0768C21.6922 27.7691 20.8461 28.0768 19.7692 28.0768C18.6922 28.0768 17.8461 27.7691 17.2307 27.0768C16.6153 26.3845 16.3076 25.4614 16.3076 24.2307C16.3076 22.9999 16.6153 22.0768 17.2307 21.4614C17.8461 20.846 18.6922 20.4614 19.7692 20.4614C20.8461 20.4614 21.6922 20.7691 22.3076 21.4614C22.923 22.1537 23.2307 23.0768 23.2307 24.3076ZM17.6153 24.3076C17.6153 25.2307 17.7692 25.923 18.1538 26.3845C18.5384 26.846 19.0768 27.0768 19.7692 27.0768C20.4615 27.0768 20.9999 26.846 21.3845 26.3845C21.7692 25.923 21.923 25.2307 21.923 24.3076C21.923 23.3845 21.7692 22.6922 21.3845 22.2307C20.9999 21.7691 20.4615 21.5383 19.7692 21.5383C19.0768 21.5383 18.5384 21.7691 18.1538 22.2307C17.7692 22.6922 17.6153 23.3845 17.6153 24.3076Z" fill="#00A5DF"/>
<path d="M24.3076 26.9232H24.8461C25.3076 26.0001 25.7692 25.0001 26.0769 23.9232C26.3846 22.8462 26.6153 21.6924 26.6923 20.6155H30.4615V26.9232H31.3846V30.0001H30.2307V28.0001H25.3846V30.0001H24.2307L24.3076 26.9232ZM27.6923 21.6924C27.6153 22.4616 27.4615 23.3078 27.1538 24.3078C26.8461 25.3078 26.5384 26.2309 26.1538 26.9232H29.3076V21.6155H27.6923V21.6924Z" fill="#00A5DF"/>
<path d="M38.6923 20.6155L36.3846 25.8462C36.0769 26.4616 35.8461 26.9232 35.6153 27.2309C35.3846 27.5386 35.0769 27.6924 34.7692 27.8462C34.4615 28.0001 34.0769 28.077 33.6153 28.077C33.2307 28.077 32.8461 28.0001 32.5384 27.9232V26.8462C32.8461 27.0001 33.2307 27.077 33.5384 27.077C33.8461 27.077 34.0769 27.0001 34.3077 26.8462C34.5384 26.6924 34.6923 26.3847 34.8461 26.077L32.1538 20.6924H33.4615L35.2307 24.3847C35.3846 24.7693 35.4615 25.0001 35.5384 25.077H35.6153C35.6153 25.0001 35.6923 24.8462 35.7692 24.6924L37.3846 20.6924L38.6923 20.6155Z" fill="#00A5DF"/>
<path d="M45.6923 28.0001H44.3077L41.3077 24.3078V28.0001H40V20.6155H41.2308V24.1539L44.2308 20.6155H45.5385L42.5385 24.1539L45.6923 28.0001Z" fill="#00A5DF"/>
<path d="M49.6153 28.0001H48.3846V21.6924H46.2307V20.6924H51.7692V21.6924H49.6153V28.0001Z" fill="#00A5DF"/>
<path d="M58.1538 25.7693C58.1538 26.5386 57.923 27.077 57.4615 27.3847C56.9999 27.7693 56.3076 27.9232 55.3845 27.9232H53.3076V20.5386H54.5384V23.5386H55.3845C56.3076 23.5386 56.9999 23.6924 57.4615 24.077C57.923 24.5386 58.1538 25.077 58.1538 25.7693ZM54.4615 27.0001H55.3076C55.8461 27.0001 56.2307 26.9232 56.5384 26.6924C56.8461 26.5386 56.923 26.2309 56.923 25.7693C56.923 25.3847 56.7692 25.077 56.5384 24.9232C56.3076 24.7693 55.8461 24.6924 55.2307 24.6924H54.5384V27.0001H54.4615ZM60.3845 28.0001H59.2307V20.6155H60.4615V28.0001H60.3845Z" fill="#00A5DF"/>
<path d="M51.2847 39.6538C47.5847 39.6538 44.6462 42.6692 44.6462 46.2923V51.0461H58.0001V46.2923C57.9232 42.5923 54.9078 39.6538 51.2847 39.6538ZM55.7385 48.7846C55.7385 49.2384 55.3616 49.6153 54.9078 49.6153C54.4539 49.6153 54.077 49.2384 54.077 48.7846V48.4077C54.077 47.9538 54.4539 47.5769 54.9078 47.5769C55.3616 47.5769 55.7385 47.9538 55.7385 48.4077V48.7846ZM54.9078 47.0461C54.4539 47.0461 54.077 46.6692 54.077 46.2153C54.077 44.7846 52.8693 43.5769 51.4385 43.5769C50.9847 43.5769 50.6078 43.2 50.6078 42.7461C50.6078 42.2923 50.9847 41.9153 51.4385 41.9153C53.777 41.9153 55.7385 43.8 55.7385 46.2153C55.7385 46.6692 55.3616 47.0461 54.9078 47.0461Z" fill="#00A5DF"/>
<path d="M53.1001 61.9154C52.5001 62.1385 51.8924 62.2154 51.2924 62.2154C48.3462 62.2154 46.0078 59.8 46.0078 56.9308V50.8154H44.6462V57.077C44.6462 60.777 47.6616 63.7154 51.2847 63.7154C52.3385 63.7154 53.2462 63.4924 54.1539 63.0385C53.7001 62.7385 53.4001 62.3616 53.1001 61.9077V61.9154Z" fill="#00A5DF"/>
<path d="M51.9232 58.1001C51.9232 55.5308 53.377 53.3001 55.5001 52.177H47.1309V56.7078C47.1309 59.277 49.1693 61.3078 51.7309 61.3078C52.0616 61.3078 52.377 61.277 52.6847 61.2078C52.1924 60.277 51.9155 59.2232 51.9155 58.0924L51.9232 58.1001Z" fill="#00A5DF"/>
<path d="M62.1538 53.8384C61.2461 53.1615 60.1153 52.7077 58.9077 52.6307C55.8153 52.4769 53.2461 54.8923 53.1 57.9923C53.023 59.2 53.4 60.4077 54.0846 61.3154L62.1615 53.8461L62.1538 53.8384Z" fill="#00A5DF"/>
<path d="M63.2847 55.046L55.2078 62.5152C56.1155 63.1922 57.2462 63.646 58.4539 63.7229C61.5462 63.8768 64.1155 61.4614 64.2616 58.3614C64.3385 57.1537 63.9616 56.0229 63.277 55.0383L63.2847 55.046Z" fill="#00A5DF"/>
<path d="M32.923 53.3V45.7692C32.923 45.0384 33.6614 44.4231 34.5691 44.3923C34.9922 44.3769 35.323 44.0307 35.323 43.6077V42.9538C35.323 42.6384 35.1307 42.3461 34.8384 42.2308C34.1307 41.9461 33.7307 41.2308 33.8691 40.5L34.9845 34.5231C35.0768 34.0154 35.5307 33.6461 36.0615 33.6461C36.5922 33.6461 37.0461 34.0154 37.1384 34.5231L38.2538 40.5C38.3922 41.2231 37.9845 41.9461 37.2845 42.2308C36.9922 42.3538 36.7999 42.6384 36.7999 42.9538V43.6077C36.7999 44.0307 37.1307 44.3769 37.5538 44.3923C38.4614 44.4231 39.1999 45.0461 39.1999 45.7692V53.3H40.7691V45.7692C40.7691 44.5692 39.9768 43.5384 38.8307 43.0769C39.6076 42.3615 39.9999 41.2769 39.7999 40.2077L38.6845 34.2307C38.4538 32.9846 37.3461 32.0769 36.0691 32.0769C34.7922 32.0769 33.6845 32.9846 33.4538 34.2307L32.3384 40.2077C32.1384 41.2846 32.5307 42.3615 33.3076 43.0769C32.1538 43.5384 31.3691 44.5692 31.3691 45.7692V53.3H32.9384H32.923Z" fill="#00A5DF"/>
<path d="M38.0077 48.0154H34.1538V53.3H38.0077V48.0154Z" fill="#00A5DF"/>
<path d="M43.2232 56.4614V61.9153C43.2232 62.7614 42.5847 63.4537 41.7924 63.4537H27.0386C25.9462 63.4537 25.0155 62.7384 24.6001 61.6922C23.9539 62.3999 22.9693 62.7537 22.0001 62.5691L16.5847 61.5537C15.4539 61.3384 14.6309 60.3461 14.6309 59.1845C14.6309 58.023 15.4539 57.023 16.5847 56.8153L22.0001 55.7999C22.977 55.6153 23.9539 55.9691 24.6001 56.6768C25.0155 55.6384 25.9539 54.9153 27.0386 54.9153H41.7924C42.577 54.9153 43.2232 55.6076 43.2232 56.4537V56.4614ZM41.8001 61.8537V56.523C41.8001 56.3307 41.6155 56.3384 41.6078 56.3307H27.0309C26.3693 56.3384 25.8078 57.0076 25.777 57.8307C25.7616 58.2153 25.4539 58.5153 25.0693 58.5153H24.477C24.1924 58.5153 23.9309 58.3384 23.8232 58.0691C23.5693 57.4384 22.9078 57.0691 22.2539 57.1922L16.8386 58.2076C16.377 58.2922 16.0462 58.7076 16.0462 59.1845C16.0462 59.6614 16.377 60.0768 16.8386 60.1614L22.2539 61.1768C22.9155 61.2999 23.5616 60.9384 23.8232 60.2999C23.9309 60.0307 24.1924 59.8537 24.477 59.8537H25.0693C25.4539 59.8537 25.7693 60.1537 25.777 60.5384C25.8078 61.3614 26.3693 62.0307 27.0309 62.0307H41.6309C41.7539 62.0307 41.7924 61.9461 41.7924 61.8461L41.8001 61.8537Z" fill="#00A5DF"/>
<path d="M29.0769 57.6614V60.6922C29.0769 60.8153 29.1769 60.923 29.3077 60.923H40.5538C40.6769 60.923 40.7846 60.823 40.7846 60.6922V57.6614C40.7846 57.5384 40.6846 57.4307 40.5538 57.4307H29.3077C29.1846 57.4307 29.0769 57.5307 29.0769 57.6614ZM39.3615 60.0307H34.5769C34.3461 60.0307 34.1538 59.846 34.1538 59.6076C34.1538 59.3691 34.3384 59.1845 34.5769 59.1845H39.3615C39.5923 59.1845 39.7846 59.3691 39.7846 59.6076C39.7846 59.846 39.6 60.0307 39.3615 60.0307Z" fill="#00A5DF"/>
</g>
<defs>
<clipPath id="clip0_947_9443">
<rect width="80" height="80" fill="white"/>
</clipPath>
</defs>
</svg>
