<svg width="80" height="80" viewBox="0 0 80 80" fill="none" xmlns="http://www.w3.org/2000/svg">
<g clip-path="url(#clip0_1840_13752)">
<path d="M72.8811 58.6652C66.3652 70.0917 54.0743 77.8208 40.0036 77.8208C19.1483 77.8208 2.17924 60.8517 2.17924 39.9964C2.17924 19.141 19.1483 2.17924 40.0036 2.17924C60.859 2.17924 77.828 19.1483 77.828 40.0036C77.828 41.7252 77.7045 43.4178 77.4793 45.0813H79.6731C79.8838 43.4178 80.0073 41.7252 80.0073 40.0036C80 17.9424 62.0576 0 40.0036 0C17.9497 0 0 17.9424 0 40.0036C0 62.0648 17.9424 80.0073 40.0036 80.0073C55.3237 80.0073 68.6534 71.3484 75.3655 58.6725H72.8739L72.8811 58.6652Z" fill="#00A5DF"/>
<path d="M25.8167 55.4254C25.0467 55.4254 24.4438 55.1857 24.0007 54.699C23.5576 54.2123 23.3469 53.5367 23.3469 52.665C23.3469 51.7934 23.5721 51.0742 24.0298 50.5802C24.4801 50.079 25.1048 49.832 25.8894 49.832C26.3543 49.832 26.8047 49.9119 27.2332 50.0717L27.1025 50.5076C26.6376 50.355 26.2308 50.2751 25.8894 50.2751C25.2283 50.2751 24.7271 50.4785 24.3857 50.8853C24.0443 51.2921 23.8772 51.8805 23.8772 52.6505C23.8772 53.3769 24.0515 53.9508 24.3857 54.3576C24.7271 54.7717 25.2065 54.975 25.8167 54.975C26.3034 54.975 26.7611 54.8879 27.1824 54.7135V55.1712C26.841 55.3382 26.3833 55.4254 25.824 55.4254H25.8167Z" fill="#00A5DF"/>
<path d="M35.6597 55.3238H31.1196V54.8879L33.0519 52.8685C33.5967 52.3092 33.9744 51.8733 34.1924 51.5755C34.4103 51.2777 34.5701 50.9944 34.6718 50.7183C34.7735 50.4495 34.8243 50.159 34.8243 49.8612C34.8243 49.4253 34.6791 49.0766 34.3958 48.8006C34.1125 48.5318 33.742 48.3938 33.2916 48.3938C32.6887 48.3938 32.1076 48.6117 31.5555 49.0548L31.2867 48.7134C31.8896 48.2049 32.5652 47.9507 33.3061 47.9507C33.9381 47.9507 34.4393 48.1178 34.7953 48.4592C35.1512 48.8006 35.3401 49.2655 35.3401 49.8539C35.3401 50.3333 35.2166 50.7982 34.9769 51.2486C34.7372 51.699 34.2868 52.2511 33.6403 52.9121L31.7807 54.8226V54.8444H35.667V55.3238H35.6597Z" fill="#00A5DF"/>
<path d="M41.7615 51.6772C41.7615 52.9484 41.5653 53.8928 41.1803 54.5102C40.7881 55.1204 40.1997 55.4255 39.4152 55.4255C38.6306 55.4255 38.0786 55.1131 37.6863 54.4811C37.294 53.8492 37.0979 52.9194 37.0979 51.6772C37.0979 50.435 37.2868 49.4761 37.6718 48.866C38.0568 48.2558 38.6379 47.9507 39.4152 47.9507C40.1924 47.9507 40.7663 48.263 41.1658 48.895C41.5653 49.527 41.7687 50.4495 41.7687 51.6772H41.7615ZM37.6282 51.6772C37.6282 52.8031 37.7735 53.6312 38.0713 54.1688C38.3691 54.7063 38.8122 54.9751 39.4152 54.9751C40.0181 54.9751 40.4975 54.6991 40.7808 54.1397C41.0641 53.5804 41.2094 52.7595 41.2094 51.6699C41.2094 50.5803 41.0641 49.7812 40.7808 49.2292C40.4975 48.6698 40.0399 48.3938 39.4152 48.3938C38.7904 48.3938 38.3328 48.6698 38.0568 49.2292C37.7735 49.7885 37.6354 50.6021 37.6354 51.6699L37.6282 51.6772Z" fill="#00A5DF"/>
<path d="M45.8803 55.3237H45.3936V50.0354C45.3936 49.556 45.4154 49.0548 45.4517 48.539C45.4009 48.5898 45.35 48.6334 45.2992 48.6843C45.2483 48.7279 44.7326 49.1347 43.7665 49.8901L43.4832 49.5342L45.4517 48.0596H45.8803V55.3164V55.3237Z" fill="#00A5DF"/>
<path d="M53.5657 55.3238H49.0256V54.8879L50.9579 52.8685C51.5027 52.3092 51.8804 51.8733 52.0984 51.5755C52.3163 51.2777 52.4761 50.9944 52.5778 50.7183C52.6795 50.4495 52.7303 50.159 52.7303 49.8612C52.7303 49.4253 52.5851 49.0766 52.3018 48.8006C52.0185 48.5318 51.648 48.3938 51.1976 48.3938C50.5947 48.3938 50.0136 48.6117 49.4615 49.0548L49.1927 48.7134C49.7956 48.2049 50.4712 47.9507 51.2121 47.9507C51.8441 47.9507 52.3454 48.1178 52.7013 48.4592C53.0572 48.8006 53.2461 49.2655 53.2461 49.8539C53.2461 50.3333 53.1226 50.7982 52.8829 51.2486C52.6432 51.699 52.1928 52.2511 51.5463 52.9121L49.6867 54.8226V54.8444H53.573V55.3238H53.5657Z" fill="#00A5DF"/>
<path d="M61.3094 50.3551H58.629V55.3238H58.135V49.9265H61.3094V50.3551Z" fill="#00A5DF"/>
<path d="M67.0409 52.6214C67.0409 53.5004 66.8302 54.1905 66.4016 54.6844C65.973 55.1784 65.3846 55.4254 64.6364 55.4254C64.1643 55.4254 63.7429 55.3091 63.387 55.084C63.0238 54.8588 62.7477 54.5246 62.5589 54.1033C62.37 53.6747 62.2683 53.1807 62.2683 52.6214C62.2683 51.7424 62.479 51.0524 62.9076 50.5657C63.3361 50.0717 63.9173 49.8247 64.6655 49.8247C65.4137 49.8247 65.9875 50.0717 66.4089 50.5729C66.8302 51.0741 67.0409 51.7497 67.0409 52.6214ZM62.7768 52.6214C62.7768 53.3623 62.9366 53.9435 63.2635 54.3575C63.5904 54.7716 64.048 54.9823 64.6437 54.9823C65.2393 54.9823 65.7042 54.7716 66.0239 54.3575C66.3508 53.9435 66.5106 53.3623 66.5106 52.6214C66.5106 51.8805 66.3435 51.2993 66.0166 50.8853C65.6897 50.4712 65.2248 50.2678 64.6292 50.2678C64.0335 50.2678 63.5759 50.4712 63.249 50.878C62.9293 51.2848 62.7623 51.8659 62.7623 52.6141L62.7768 52.6214Z" fill="#00A5DF"/>
<path d="M73.1062 57.1543H72.6195V55.3237H68.4862V57.1543H67.9995V54.8515H68.3555C68.8058 54.2196 69.1545 53.4859 69.4015 52.6505C69.6485 51.8151 69.772 50.9071 69.7865 49.9192H72.3871V54.8515H73.1062V57.1543ZM71.8931 54.8515V50.3768H70.2151C70.1352 52.1711 69.6993 53.6602 68.9148 54.8515H71.8931Z" fill="#00A5DF"/>
<path d="M77.6899 55.3237L77.5664 54.4666H77.5301C77.2614 54.8152 76.9781 55.0622 76.6948 55.2075C76.4115 55.3528 76.07 55.4254 75.6778 55.4254C75.1475 55.4254 74.7334 55.2874 74.4429 55.0186C74.145 54.7499 73.9998 54.3721 73.9998 53.8927C73.9998 53.3697 74.2177 52.9556 74.6608 52.665C75.0966 52.3745 75.7359 52.2219 76.564 52.2001L77.5955 52.1711V51.8151C77.5955 51.2994 77.4938 50.9144 77.2831 50.6529C77.0725 50.3914 76.7383 50.2606 76.2734 50.2606C75.7722 50.2606 75.2565 50.3986 74.7189 50.6747L74.5373 50.2461C75.133 49.97 75.7141 49.832 76.2952 49.832C76.8764 49.832 77.334 49.9846 77.6246 50.2969C77.9151 50.6093 78.0604 51.0815 78.0604 51.7352V55.3237H77.6972H77.6899ZM75.7068 54.975C76.2807 54.975 76.7383 54.808 77.0725 54.4811C77.4066 54.1542 77.5737 53.6966 77.5737 53.1082V52.5779L76.6294 52.6142C75.8739 52.6505 75.3291 52.7667 75.0095 52.9701C74.6898 53.1735 74.5228 53.4859 74.5228 53.9072C74.5228 54.2414 74.6245 54.5101 74.8351 54.6917C75.0385 54.8806 75.3364 54.975 75.7141 54.975H75.7068Z" fill="#00A5DF"/>
<path d="M13.0972 44.1877H5.16479V29.9573H13.0972V31.4246H6.82102V36.0083H12.7195V37.4684H6.82102V42.7058H13.0972V44.1877Z" fill="#00A5DF"/>
<path d="M25.8968 29.9573V39.1682C25.8968 40.7881 25.4101 42.0666 24.4294 42.9964C23.4487 43.9262 22.1049 44.3911 20.3905 44.3911C18.6762 44.3911 17.3541 43.9262 16.4171 42.9891C15.48 42.0521 15.0078 40.7663 15.0078 39.1319V29.9645H16.664V39.2481C16.664 40.4322 16.9909 41.3474 17.6374 41.9867C18.2839 42.6259 19.2428 42.9383 20.4995 42.9383C21.7562 42.9383 22.6279 42.6187 23.2744 41.9794C23.9209 41.3402 24.2478 40.4249 24.2478 39.2263V29.9573H25.904H25.8968Z" fill="#00A5DF"/>
<path d="M37.8752 35.8558H44.0207V43.5267C42.3499 44.1006 40.5194 44.3839 38.5217 44.3839C36.3279 44.3839 34.6354 43.7446 33.4368 42.4734C32.2382 41.2022 31.6426 39.3862 31.6426 37.0326C31.6426 34.679 32.2964 32.9501 33.6112 31.6716C34.9187 30.3932 36.7565 29.7539 39.1174 29.7539C40.0109 29.7539 40.8608 29.8411 41.6526 30.0082C42.4444 30.1752 43.1417 30.3932 43.7301 30.6474L42.5097 33.662C41.4855 33.1535 40.3595 32.8993 39.1319 32.8993C38.006 32.8993 37.1415 33.2625 36.5313 33.9962C35.9212 34.7226 35.6088 35.7686 35.6088 37.127C35.6088 38.4854 35.8848 39.4733 36.4442 40.1707C37.0035 40.868 37.8026 41.2167 38.8413 41.2167C39.4152 41.2167 39.9382 41.1586 40.4177 41.0496V38.8196H37.8752V35.8485V35.8558Z" fill="#00A5DF"/>
<path d="M52.3962 44.1877L49.4833 33.938H49.3961C49.5341 35.6814 49.5995 37.0398 49.5995 38.0059V44.1877H46.1926V29.9573H51.3138L54.2849 40.0617H54.3648L57.2777 29.9573H62.4062V44.1877H58.8758V37.9478C58.8758 37.6209 58.8758 37.265 58.8903 36.8655C58.8976 36.4732 58.9412 35.4998 59.0211 33.9526H58.9339L56.0646 44.1805H52.4035L52.3962 44.1877Z" fill="#00A5DF"/>
<path d="M75.0676 34.4828C75.0676 36.0737 74.5955 37.3013 73.6584 38.1658C72.7213 39.0302 71.392 39.466 69.6631 39.466H68.5808V44.1877H64.738V29.9573H69.6631C71.4574 29.9573 72.8085 30.3495 73.7093 31.1341C74.61 31.9186 75.0604 33.0373 75.0604 34.4828H75.0676ZM68.588 36.3352H69.2854C69.8593 36.3352 70.3242 36.1754 70.6656 35.8485C71.007 35.5216 71.1741 35.0785 71.1741 34.5046C71.1741 33.5458 70.6438 33.0663 69.576 33.0663H68.5808V36.3352H68.588Z" fill="#00A5DF"/>
</g>
<defs>
<clipPath id="clip0_1840_13752">
<rect width="80" height="80" fill="white"/>
</clipPath>
</defs>
</svg>
