<svg width="80" height="80" viewBox="0 0 80 80" fill="none" xmlns="http://www.w3.org/2000/svg">
<path d="M40 80C17.9391 80 0 62.0503 0 40C0 17.9497 17.9391 0 40 0C62.0609 0 80 17.9391 80 40C80 62.0609 62.0609 80 40 80ZM40 1.5894C18.8185 1.5894 1.5894 18.8185 1.5894 40C1.5894 61.1815 18.8185 78.4106 40 78.4106C61.1815 78.4106 78.4106 61.1815 78.4106 40C78.4106 18.8185 61.1815 1.5894 40 1.5894Z" fill="#00A5DF"/>
<path d="M15.4064 41.0913V48.6781H9.76929V27.8357H16.6037C22.2726 27.8357 25.1017 29.8913 25.1017 33.992C25.1017 36.4079 23.9256 38.2728 21.5627 39.5973L27.6342 48.6781H21.2448L16.8262 41.0913H15.3958H15.4064ZM15.4064 36.8529H16.466C18.4368 36.8529 19.4223 35.984 19.4223 34.2463C19.4223 32.8158 18.458 32.0953 16.5296 32.0953H15.417V36.8635L15.4064 36.8529Z" fill="#00A5DF"/>
<path d="M44.6935 48.6782L43.2842 47.2265C42.4259 47.7669 41.7266 48.1378 41.1756 48.3497C40.6246 48.5616 40.0206 48.71 39.3319 48.8159C38.6431 48.9219 37.8696 48.9749 37.0008 48.9749C35.4961 48.9749 34.1716 48.7206 33.0167 48.2014C31.8617 47.6822 30.9822 46.9722 30.3677 46.0504C29.7531 45.1285 29.4458 44.0795 29.4458 42.9034C29.4458 40.4133 30.7385 38.506 33.3239 37.1815C32.7306 36.5139 32.2749 35.8146 31.9465 35.0623C31.618 34.31 31.459 33.4729 31.459 32.5298C31.459 31.004 32.0418 29.7961 33.218 28.906C34.3941 28.0159 36.0047 27.5603 38.0604 27.5603C40.116 27.5603 41.6312 28.0053 42.7438 28.8954C43.8564 29.7855 44.418 30.9934 44.418 32.5298C44.418 33.5894 44.1213 34.5643 43.5173 35.4649C42.9133 36.3656 41.9597 37.2027 40.6564 37.9974L43.4961 40.6888C44.2061 39.5974 44.7041 38.3577 44.9796 36.9802H50.765C50.4789 38.2941 50.0339 39.608 49.4193 40.9219C48.8047 42.2358 48.116 43.3696 47.3425 44.3126L51.9094 48.6888H44.6935V48.6782ZM35.1994 42.4901C35.1994 43.0941 35.4114 43.5815 35.8458 43.963C36.2802 44.3444 36.8418 44.5351 37.5412 44.5351C38.0816 44.5351 38.5584 44.461 38.9716 44.3232C39.3849 44.1855 39.6922 44.0159 39.9147 43.8358L36.3756 40.2437C35.5915 40.8265 35.21 41.5788 35.21 42.5007L35.1994 42.4901ZM39.4061 32.5192C39.4061 32.053 39.2683 31.7139 39.0034 31.5126C38.7385 31.3113 38.3888 31.2053 37.9862 31.2053C37.5835 31.2053 37.2339 31.3219 36.9372 31.5656C36.6405 31.8093 36.4922 32.1802 36.4922 32.71C36.4922 33.4199 36.9054 34.1616 37.7425 34.9245C38.2829 34.6173 38.6961 34.257 38.9822 33.8332C39.2683 33.4093 39.4061 32.9749 39.4061 32.5298V32.5192Z" fill="#00A5DF"/>
<path d="M72.8477 37.8171C72.8477 41.2926 71.8941 43.9734 69.9762 45.8595C68.0583 47.7456 65.3669 48.6887 61.902 48.6887H55.1523V27.8357H62.3682C65.7166 27.8357 68.302 28.694 70.1245 30.3999C71.947 32.1059 72.8583 34.5854 72.8583 37.8171H72.8477ZM66.9987 38.0185C66.9987 36.1112 66.6172 34.6913 65.8649 33.7695C65.1126 32.8476 63.9576 32.3814 62.4212 32.3814H60.7788V44.0582H62.0292C63.7457 44.0582 64.9961 43.5602 65.7908 42.5642C66.5855 41.5681 66.9881 40.0529 66.9881 38.0079L66.9987 38.0185Z" fill="#00A5DF"/>
<path d="M16.5509 60.9167H17.6211V64.2333H16.6251V61.8703H9.78003V52.7896H10.8396V60.9061H15.5019V52.7896H16.5615V60.9061L16.5509 60.9167Z" fill="#00A5DF"/>
<path d="M24.6989 61.8703H19.634V52.7896H24.6989V53.722H20.6936V56.6465H24.4552V57.579H20.6936V60.9167H24.6989V61.8598V61.8703Z" fill="#00A5DF"/>
<path d="M34.098 61.8703H33.0384V57.6001H28.2596V61.8703H27.2V52.7896H28.2596V56.6465H33.0384V52.7896H34.098V61.8703Z" fill="#00A5DF"/>
<path d="M39.8725 61.8702H38.8129V53.7325H35.9414V52.8H42.7441V53.7325H39.8725V61.8702Z" fill="#00A5DF"/>
<path d="M50.3631 55.4386C50.3631 56.3604 50.0452 57.0597 49.4201 57.5578C48.7949 58.0558 47.8942 58.2995 46.7287 58.2995H45.6585V61.8703H44.5989V52.7896H46.9512C49.2187 52.7896 50.3525 53.669 50.3525 55.4386H50.3631ZM45.6585 57.3988H46.6121C47.5446 57.3988 48.2227 57.2505 48.6466 56.9432C49.0704 56.6359 49.2717 56.1591 49.2717 55.4915C49.2717 54.8876 49.0704 54.4425 48.6783 54.1458C48.2863 53.8492 47.6717 53.7008 46.8452 53.7008H45.6691V57.3882L45.6585 57.3988Z" fill="#00A5DF"/>
<path d="M12.1109 19.9418C11.8036 19.9418 11.5599 20.0689 11.3797 20.3232C11.1996 20.5775 11.1148 20.9272 11.1148 21.3828C11.1148 22.3153 11.4645 22.7815 12.1744 22.7815C12.3864 22.7815 12.5983 22.7497 12.7996 22.6967C13.0009 22.6438 13.2023 22.5696 13.4036 22.4848V23.5974C13.0009 23.7775 12.5453 23.8623 12.0261 23.8623C11.295 23.8623 10.7334 23.6504 10.3413 23.2265C9.94927 22.8027 9.75854 22.1881 9.75854 21.3828C9.75854 20.8848 9.85391 20.4398 10.0446 20.0583C10.2354 19.6769 10.5109 19.3908 10.8605 19.1789C11.2102 18.9669 11.634 18.8716 12.1109 18.8716C12.6301 18.8716 13.1387 18.9881 13.6155 19.2107L13.2128 20.2385C13.0327 20.1537 12.8526 20.0795 12.6725 20.0265C12.4923 19.9736 12.3016 19.9418 12.1003 19.9418H12.1109Z" fill="#00A5DF"/>
<path d="M19.1576 21.3509C19.1576 22.1668 18.9563 22.792 18.5536 23.2158C18.151 23.6396 17.5682 23.8516 16.7947 23.8516C16.0212 23.8516 15.449 23.6396 15.0464 23.2158C14.6437 22.792 14.4424 22.1668 14.4424 21.3509C14.4424 20.535 14.6437 19.931 15.0464 19.4966C15.449 19.0622 16.0318 18.8608 16.8053 18.8608C17.5788 18.8608 18.1616 19.0728 18.5642 19.4966C18.9669 19.9204 19.1576 20.535 19.1576 21.3615V21.3509ZM15.8199 21.3509C15.8199 22.2834 16.1483 22.7602 16.7947 22.7602C17.1232 22.7602 17.3775 22.6436 17.5364 22.4211C17.6954 22.1986 17.7801 21.8383 17.7801 21.3615C17.7801 20.8847 17.6954 20.5244 17.5364 20.2913C17.3775 20.0582 17.1338 19.9416 16.8053 19.9416C16.1483 19.9416 15.8199 20.4185 15.8199 21.3615V21.3509Z" fill="#00A5DF"/>
<path d="M23.8837 22.2093C23.8837 22.7179 23.7142 23.11 23.3645 23.3749C23.0148 23.6398 22.5168 23.7775 21.8599 23.7775H20.3022V18.9246H23.4917V19.9736H21.6162V20.7153H21.8069C22.485 20.7153 23.0042 20.8424 23.3539 21.0861C23.7036 21.3299 23.8837 21.7007 23.8837 22.1987V22.2093ZM21.6162 22.7709H21.7963C22.0718 22.7709 22.2625 22.7285 22.3897 22.6332C22.5168 22.5378 22.5698 22.4107 22.5698 22.2305C22.5698 22.0504 22.5062 21.9232 22.3791 21.8385C22.2519 21.7537 22.0612 21.7113 21.7963 21.7113H21.6267V22.7709H21.6162Z" fill="#00A5DF"/>
<path d="M27.126 19.9418C26.8187 19.9418 26.575 20.0689 26.3949 20.3232C26.2147 20.5775 26.13 20.9272 26.13 21.3828C26.13 22.3153 26.4796 22.7815 27.1896 22.7815C27.4015 22.7815 27.6134 22.7497 27.8147 22.6967C28.0161 22.6438 28.2174 22.5696 28.4187 22.4848V23.5974C28.0161 23.7775 27.5604 23.8623 27.0412 23.8623C26.3101 23.8623 25.7485 23.6504 25.3565 23.2265C24.9644 22.8027 24.7737 22.1881 24.7737 21.3828C24.7737 20.8848 24.869 20.4398 25.0598 20.0583C25.2505 19.6769 25.526 19.3908 25.8757 19.1789C26.2253 18.9669 26.6492 18.8716 27.126 18.8716C27.6452 18.8716 28.1538 18.9881 28.6306 19.2107L28.228 20.2385C28.0479 20.1537 27.8677 20.0795 27.6876 20.0265C27.5075 19.9736 27.3167 19.9418 27.1154 19.9418H27.126Z" fill="#00A5DF"/>
<path d="M31.777 23.788H30.4631V20.0053H29.2764V18.9351H32.9532V20.0053H31.777V23.788Z" fill="#00A5DF"/>
<path d="M33.9075 18.9351H35.6028C36.2598 18.9351 36.7472 19.0304 37.0757 19.2317C37.4042 19.4331 37.5525 19.7298 37.5525 20.143C37.5525 20.4185 37.4783 20.6516 37.3406 20.8423C37.2028 21.0331 37.0227 21.1602 36.7896 21.2132V21.245C37.0863 21.3298 37.3088 21.4569 37.4465 21.6476C37.5843 21.8384 37.6479 22.0715 37.6479 22.3682C37.6479 22.8132 37.4783 23.1523 37.1499 23.4066C36.8214 23.6609 36.3657 23.788 35.7936 23.788H33.9075V18.9351ZM35.2214 20.8H35.6134C35.8042 20.8 35.9419 20.7576 36.0479 20.6834C36.1538 20.6092 36.2068 20.4927 36.2068 20.3337C36.2068 20.0582 36.0055 19.9205 35.5922 19.9205H35.2214V20.7894V20.8ZM35.2214 21.7536V22.7708H35.6876C36.1008 22.7708 36.3022 22.6013 36.3022 22.2516C36.3022 22.0927 36.2492 21.9655 36.1432 21.8808C36.0373 21.796 35.8783 21.7536 35.6664 21.7536H35.232H35.2214Z" fill="#00A5DF"/>
<path d="M41.6316 23.788H38.7495V18.9351H41.6316V19.9841H40.0634V20.747H41.5151V21.796H40.0634V22.7072H41.6316V23.7774V23.788Z" fill="#00A5DF"/>
<path d="M46.898 23.788H45.5841V21.8066H44.0583V23.788H42.7444V18.9351H44.0583V20.7364H45.5841V18.9351H46.898V23.788Z" fill="#00A5DF"/>
<path d="M52.3758 23.788H51.0619V21.8066H49.5361V23.788H48.2222V18.9351H49.5361V20.7364H51.0619V18.9351H52.3758V23.788Z" fill="#00A5DF"/>
<path d="M57.1441 22.1775C57.1441 22.6967 56.964 23.0888 56.6143 23.3749C56.2646 23.661 55.7666 23.7881 55.1097 23.7881H53.6792V18.9352H54.9931V20.6623H55.0567C55.7348 20.6623 56.254 20.7895 56.6037 21.0438C56.9534 21.2981 57.1335 21.6795 57.1335 22.1775H57.1441ZM54.9931 22.7709H55.0461C55.5547 22.7709 55.8196 22.5802 55.8196 22.1987C55.8196 21.8173 55.5653 21.6477 55.0461 21.6477H55.0037V22.7709H54.9931ZM58.903 23.7775H57.5785V18.9246H58.903V23.7775Z" fill="#00A5DF"/>
<path d="M60.2168 18.9352H61.3824V21.0226C61.3824 21.2451 61.3612 21.6902 61.3294 22.3471H61.3612L63.2896 18.9352H64.9108V23.7882H63.7453V21.7537C63.7453 21.4465 63.7665 20.9908 63.8088 20.3763H63.7771L61.8274 23.7882H60.2168V18.9352ZM62.5479 18.5432C62.0181 18.5432 61.6261 18.4372 61.3612 18.2359C61.0963 18.0345 60.9479 17.7167 60.9267 17.2822H62.0075C62.0181 17.4941 62.0711 17.6531 62.1453 17.7485C62.2194 17.8438 62.3678 17.8968 62.5479 17.8968C62.8764 17.8968 63.0565 17.6955 63.0883 17.2822H64.1903C64.0949 18.1299 63.5545 18.5432 62.5479 18.5432Z" fill="#00A5DF"/>
</svg>
