<svg width="106" height="106" viewBox="0 0 106 106" fill="none" xmlns="http://www.w3.org/2000/svg">
<path d="M53 105C24.3208 105 1 81.6654 1 53C1 24.3346 24.3208 1 53 1C81.6792 1 105 24.3208 105 53C105 81.6792 81.6792 105 53 105ZM53 3.06623C25.4641 3.06623 3.06623 25.4641 3.06623 53C3.06623 80.5359 25.4641 102.934 53 102.934C80.5359 102.934 102.934 80.5359 102.934 53C102.934 25.4641 80.5359 3.06623 53 3.06623Z" fill="#00A5DF" stroke="#00A5DF"/>
<path d="M21.0284 54.4188V64.2816H13.7002V37.1865H22.585C29.9545 37.1865 33.6324 39.8588 33.6324 45.1897C33.6324 48.3304 32.1034 50.7547 29.0316 52.4766L36.9246 64.2816H28.6183L22.8742 54.4188H21.0146H21.0284ZM21.0284 48.9089H22.4059C24.968 48.9089 26.2491 47.7794 26.2491 45.5203C26.2491 43.6607 24.9956 42.724 22.4885 42.724H21.0422V48.9227L21.0284 48.9089Z" fill="#00A5DF"/>
<path d="M59.1015 64.2814L57.2695 62.3942C56.1537 63.0967 55.2446 63.5789 54.5283 63.8544C53.812 64.1298 53.0268 64.3227 52.1315 64.4604C51.2361 64.5982 50.2305 64.6671 49.101 64.6671C47.145 64.6671 45.4231 64.3365 43.9217 63.6615C42.4202 62.9865 41.2769 62.0636 40.478 60.8652C39.679 59.6668 39.2795 58.3031 39.2795 56.7741C39.2795 53.537 40.9601 51.0575 44.3211 49.3357C43.5497 48.4679 42.9574 47.5587 42.5304 46.5807C42.1034 45.6027 41.8968 44.5145 41.8968 43.2885C41.8968 41.3049 42.6544 39.7346 44.1834 38.5775C45.7124 37.4204 47.8062 36.8281 50.4785 36.8281C53.1508 36.8281 55.1206 37.4067 56.567 38.5638C58.0133 39.7208 58.7434 41.2912 58.7434 43.2885C58.7434 44.666 58.3577 45.9333 57.5725 47.1042C56.7874 48.275 55.5476 49.3632 53.8533 50.3963L57.545 53.8951C58.4679 52.4763 59.1153 50.8647 59.4734 49.074H66.9945C66.6226 50.782 66.044 52.4901 65.2451 54.1982C64.4462 55.9063 63.5508 57.3802 62.5452 58.6061L68.4822 64.2951H59.1015V64.2814ZM46.7593 56.2369C46.7593 57.022 47.0348 57.6557 47.5995 58.1516C48.1643 58.6475 48.8944 58.8954 49.8035 58.8954C50.506 58.8954 51.1259 58.799 51.6631 58.6199C52.2003 58.4408 52.5998 58.2204 52.8891 57.9863L48.2883 53.3166C47.2689 54.0742 46.773 55.0522 46.773 56.2506L46.7593 56.2369ZM52.2279 43.2747C52.2279 42.6687 52.0488 42.2279 51.7044 41.9661C51.3601 41.7044 50.9055 41.5667 50.3821 41.5667C49.8586 41.5667 49.404 41.7182 49.0183 42.035C48.6327 42.3518 48.4398 42.834 48.4398 43.5227C48.4398 44.4456 48.977 45.4098 50.0652 46.4016C50.7678 46.0022 51.305 45.5338 51.6769 44.9828C52.0488 44.4318 52.2279 43.8671 52.2279 43.2885V43.2747Z" fill="#00A5DF"/>
<path d="M95.7022 50.1624C95.7022 54.6806 94.4625 58.1656 91.9692 60.6175C89.476 63.0694 85.9772 64.2954 81.4728 64.2954H72.6982V37.1865H82.0789C86.4318 37.1865 89.7928 38.3023 92.1621 40.52C94.5314 42.7378 95.716 45.9611 95.716 50.1624H95.7022ZM88.0985 50.4241C88.0985 47.9447 87.6026 46.0988 86.6246 44.9004C85.6466 43.702 84.1451 43.0959 82.1478 43.0959H80.0127V58.2758H81.6381C83.8696 58.2758 85.4951 57.6284 86.5282 56.3335C87.5613 55.0387 88.0847 53.0689 88.0847 50.4104L88.0985 50.4241Z" fill="#00A5DF"/>
<path d="M22.516 80.1918H23.9072V84.5033H22.6124V81.4315H13.7139V69.6265H15.0914V80.178H21.1523V69.6265H22.5298V80.178L22.516 80.1918Z" fill="#00A5DF"/>
<path d="M33.1089 81.4315H26.5245V69.6265H33.1089V70.8387H27.902V74.6405H32.7921V75.8527H27.902V80.1918H33.1089V81.4177V81.4315Z" fill="#00A5DF"/>
<path d="M45.3273 81.4315H43.9498V75.8802H37.7373V81.4315H36.3599V69.6265H37.7373V74.6405H43.9498V69.6265H45.3273V81.4315Z" fill="#00A5DF"/>
<path d="M52.8345 81.4314H51.457V70.8523H47.724V69.6401H56.5674V70.8523H52.8345V81.4314Z" fill="#00A5DF"/>
<path d="M66.4719 73.0702C66.4719 74.2686 66.0587 75.1777 65.2459 75.8251C64.4332 76.4726 63.2624 76.7894 61.7471 76.7894H60.3559V81.4315H58.9784V69.6265H62.0364C64.9842 69.6265 66.4581 70.7698 66.4581 73.0702H66.4719ZM60.3559 75.6185H61.5956C62.8078 75.6185 63.6894 75.4257 64.2404 75.0262C64.7914 74.6267 65.0531 74.0069 65.0531 73.139C65.0531 72.3539 64.7914 71.7753 64.2817 71.3896C63.772 71.004 62.9731 70.8111 61.8987 70.8111H60.3696V75.6047L60.3559 75.6185Z" fill="#00A5DF"/>
<path d="M16.744 26.9245C16.3446 26.9245 16.0278 27.0898 15.7936 27.4204C15.5594 27.751 15.4492 28.2055 15.4492 28.7978C15.4492 30.01 15.9038 30.6161 16.8267 30.6161C17.1022 30.6161 17.3777 30.5748 17.6394 30.5059C17.9011 30.437 18.1629 30.3406 18.4246 30.2304V31.6768C17.9011 31.911 17.3088 32.0211 16.6339 32.0211C15.6834 32.0211 14.9533 31.7457 14.4437 31.1947C13.934 30.6437 13.686 29.8447 13.686 28.7978C13.686 28.1504 13.81 27.5719 14.058 27.076C14.3059 26.5801 14.664 26.2082 15.1186 25.9327C15.5732 25.6572 16.1242 25.5332 16.744 25.5332C17.419 25.5332 18.0802 25.6847 18.7001 25.974L18.1766 27.3102C17.9425 27.2 17.7083 27.1035 17.4741 27.0347C17.2399 26.9658 16.992 26.9245 16.7303 26.9245H16.744Z" fill="#00A5DF"/>
<path d="M25.9051 28.7561C25.9051 29.8168 25.6433 30.6295 25.1199 31.1805C24.5965 31.7315 23.8388 32.007 22.8333 32.007C21.8277 32.007 21.0839 31.7315 20.5604 31.1805C20.037 30.6295 19.7753 29.8168 19.7753 28.7561C19.7753 27.6955 20.037 26.9103 20.5604 26.3455C21.0839 25.7808 21.8415 25.519 22.8471 25.519C23.8526 25.519 24.6102 25.7945 25.1337 26.3455C25.6571 26.8965 25.9051 27.6955 25.9051 28.7699V28.7561ZM21.566 28.7561C21.566 29.9683 21.993 30.5882 22.8333 30.5882C23.2603 30.5882 23.5909 30.4367 23.7975 30.1474C24.0041 29.8581 24.1143 29.3898 24.1143 28.7699C24.1143 28.15 24.0041 27.6817 23.7975 27.3786C23.5909 27.0756 23.2741 26.9241 22.8471 26.9241C21.993 26.9241 21.566 27.5439 21.566 28.7699V28.7561Z" fill="#00A5DF"/>
<path d="M32.0488 29.8723C32.0488 30.5334 31.8284 31.0431 31.3739 31.3875C30.9193 31.7319 30.2719 31.9109 29.4178 31.9109H27.3929V25.6021H31.5392V26.9658H29.101V27.93H29.349C30.2306 27.93 30.9055 28.0953 31.3601 28.4121C31.8147 28.7289 32.0488 29.2111 32.0488 29.8585V29.8723ZM29.101 30.6023H29.3352C29.6933 30.6023 29.9413 30.5472 30.1066 30.4232C30.2719 30.2993 30.3408 30.134 30.3408 29.8998C30.3408 29.6656 30.2581 29.5003 30.0928 29.3901C29.9275 29.2799 29.6796 29.2248 29.3352 29.2248H29.1148V30.6023H29.101Z" fill="#00A5DF"/>
<path d="M36.2637 26.9245C35.8642 26.9245 35.5474 27.0898 35.3132 27.4204C35.0791 27.751 34.9689 28.2055 34.9689 28.7978C34.9689 30.01 35.4234 30.6161 36.3464 30.6161C36.6218 30.6161 36.8973 30.5748 37.1591 30.5059C37.4208 30.437 37.6825 30.3406 37.9442 30.2304V31.6768C37.4208 31.911 36.8285 32.0211 36.1535 32.0211C35.203 32.0211 34.473 31.7457 33.9633 31.1947C33.4536 30.6437 33.2057 29.8447 33.2057 28.7978C33.2057 28.1504 33.3297 27.5719 33.5776 27.076C33.8256 26.5801 34.1837 26.2082 34.6383 25.9327C35.0928 25.6572 35.6438 25.5332 36.2637 25.5332C36.9387 25.5332 37.5999 25.6847 38.2197 25.974L37.6963 27.3102C37.4621 27.2 37.2279 27.1035 36.9938 27.0347C36.7596 26.9658 36.5116 26.9245 36.2499 26.9245H36.2637Z" fill="#00A5DF"/>
<path d="M42.3103 31.9246H40.6022V27.007H39.0594V25.6157H43.8393V27.007H42.3103V31.9246Z" fill="#00A5DF"/>
<path d="M45.0798 25.6157H47.2838C48.1378 25.6157 48.7715 25.7397 49.1985 26.0014C49.6255 26.2631 49.8184 26.6488 49.8184 27.1861C49.8184 27.5442 49.722 27.8472 49.5429 28.0952C49.3638 28.3431 49.1296 28.5084 48.8266 28.5773V28.6186C49.2123 28.7288 49.5016 28.8941 49.6806 29.1421C49.8597 29.39 49.9423 29.6931 49.9423 30.0788C49.9423 30.6573 49.722 31.0981 49.2949 31.4287C48.8679 31.7593 48.2756 31.9246 47.5318 31.9246H45.0798V25.6157ZM46.7879 28.0401H47.2976C47.5455 28.0401 47.7246 27.985 47.8624 27.8886C48.0001 27.7921 48.069 27.6406 48.069 27.434C48.069 27.0759 47.8073 26.8968 47.27 26.8968H46.7879V28.0263V28.0401ZM46.7879 29.2798V30.6022H47.394C47.9312 30.6022 48.1929 30.3818 48.1929 29.9272C48.1929 29.7206 48.1241 29.5553 47.9863 29.4451C47.8486 29.3349 47.642 29.2798 47.3665 29.2798H46.8017H46.7879Z" fill="#00A5DF"/>
<path d="M55.1211 31.9246H51.3744V25.6157H55.1211V26.9794H53.0825V27.9712H54.9696V29.3349H53.0825V30.5196H55.1211V31.9108V31.9246Z" fill="#00A5DF"/>
<path d="M61.9671 31.9246H60.259V29.3487H58.2755V31.9246H56.5674V25.6157H58.2755V27.9574H60.259V25.6157H61.9671V31.9246Z" fill="#00A5DF"/>
<path d="M69.0886 31.9246H67.3805V29.3487H65.3969V31.9246H63.6888V25.6157H65.3969V27.9574H67.3805V25.6157H69.0886V31.9246Z" fill="#00A5DF"/>
<path d="M75.2876 29.8309C75.2876 30.5059 75.0534 31.0156 74.5988 31.3875C74.1443 31.7594 73.4968 31.9247 72.6428 31.9247H70.7832V25.6158H72.4913V27.8611H72.5739C73.4555 27.8611 74.1305 28.0264 74.5851 28.357C75.0396 28.6876 75.2738 29.1835 75.2738 29.8309H75.2876ZM72.4913 30.6023H72.5602C73.2213 30.6023 73.5657 30.3544 73.5657 29.8585C73.5657 29.3626 73.2351 29.1422 72.5602 29.1422H72.5051V30.6023H72.4913ZM77.5742 31.9109H75.8523V25.6021H77.5742V31.9109Z" fill="#00A5DF"/>
<path d="M79.2822 25.6157H80.7975V28.3293C80.7975 28.6186 80.7699 29.1971 80.7286 30.0512H80.7699L83.2769 25.6157H85.3845V31.9245H83.8692V29.2798C83.8692 28.8803 83.8968 28.288 83.9519 27.489H83.9106L81.376 31.9245H79.2822V25.6157ZM82.3127 25.106C81.6239 25.106 81.1143 24.9683 80.7699 24.7065C80.4255 24.4448 80.2327 24.0316 80.2051 23.4668H81.6102C81.6239 23.7423 81.6928 23.9489 81.7892 24.0729C81.8857 24.1969 82.0785 24.2657 82.3127 24.2657C82.7397 24.2657 82.9739 24.004 83.0152 23.4668H84.4478C84.3238 24.5688 83.6213 25.106 82.3127 25.106Z" fill="#00A5DF"/>
</svg>
