<svg width="80" height="80" viewBox="0 0 80 80" fill="none" xmlns="http://www.w3.org/2000/svg">
<path d="M2.1219 19.3268L0.495219 15.0934H0.468983C0.499592 15.4288 0.514897 15.8273 0.514897 16.289V19.3268H0V14.5512H0.839577L2.35803 18.4906H2.38427L3.91584 14.5512H4.74886V19.3268H4.19133V16.2498C4.19133 15.897 4.20663 15.5137 4.23724 15.1H4.211L2.57121 19.3268H2.1219Z" fill="#00A5DF"/>
<path d="M8.74013 19.3268H6.06726V14.5512H8.74013V15.0444H6.62479V16.5829H8.61223V17.0729H6.62479V18.8303H8.74013V19.3268Z" fill="#00A5DF"/>
<path d="M11.108 16.8704L9.22223 14.5512H9.84536L11.7114 16.8639V14.5512H12.2493V16.8639L14.1187 14.5512H14.7418L12.8527 16.8639L14.8008 19.3268H14.158L12.2493 16.9063V19.3268H11.7114V16.9063L9.806 19.3268H9.15336L11.108 16.8704Z" fill="#00A5DF"/>
<path d="M19.2611 20.5713H18.7298V19.3268H15.3977V20.5713H14.8664V18.8237H15.237C15.5737 18.2597 15.8612 17.5738 16.0996 16.7659C16.3401 15.958 16.4734 15.2197 16.4997 14.5512H18.6544V18.8237H19.2611V20.5713ZM18.0968 18.8237V15.051H17.0047C16.9654 15.578 16.8331 16.2117 16.6079 16.9521C16.3827 17.6903 16.1203 18.3142 15.8208 18.8237H18.0968Z" fill="#00A5DF"/>
<path d="M20.3729 19.3921C20.1302 19.3921 19.917 19.3595 19.7333 19.2941V18.7519C19.9367 18.8455 20.1433 18.8923 20.3532 18.8923C20.5937 18.8923 20.7861 18.8379 20.9304 18.729C21.0769 18.618 21.2223 18.4111 21.3666 18.1084L19.5005 14.5512H20.1171L21.5338 17.2656C21.5885 17.3723 21.6311 17.4769 21.6617 17.5792H21.688C21.7492 17.3963 21.7918 17.2809 21.8159 17.233L22.9933 14.5512H23.5836L22.052 17.9679C21.8684 18.3752 21.7022 18.6713 21.5535 18.8564C21.407 19.0415 21.2409 19.1776 21.055 19.2647C20.8714 19.3497 20.644 19.3921 20.3729 19.3921Z" fill="#00A5DF"/>
<path d="M27.8831 19.3268H27.3256V17.0795H24.8003V19.3268H24.2428V14.5512H24.8003V16.5829H27.3256V14.5512H27.8831V19.3268Z" fill="#00A5DF"/>
<path d="M32.2155 19.3268L31.6186 17.8079H29.6968L29.1064 19.3268H28.5423L30.438 14.5316H30.9069L32.7927 19.3268H32.2155ZM31.4448 17.3081L30.8873 15.8284C30.8151 15.6411 30.7408 15.4114 30.6642 15.1392C30.6161 15.3482 30.5473 15.578 30.4576 15.8284L29.8935 17.3081H31.4448Z" fill="#00A5DF"/>
<path d="M36.4921 15.9427C36.4921 16.4262 36.3259 16.7985 35.9936 17.0599C35.6634 17.319 35.1901 17.4486 34.5735 17.4486H34.0094V19.3268H33.4519V14.5512H34.6949C35.893 14.5512 36.4921 15.015 36.4921 15.9427ZM34.0094 16.9717H34.5112C35.0053 16.9717 35.3628 16.8922 35.5836 16.7332C35.8045 16.5742 35.9149 16.3195 35.9149 15.9689C35.9149 15.6531 35.811 15.4179 35.6033 15.2633C35.3956 15.1087 35.072 15.0314 34.6326 15.0314H34.0094V16.9717Z" fill="#00A5DF"/>
<path d="M41.6607 16.9325C41.6607 17.6968 41.4662 18.2978 41.077 18.7356C40.69 19.1733 40.151 19.3921 39.4601 19.3921C38.7539 19.3921 38.2084 19.1776 37.8236 18.7486C37.441 18.3174 37.2497 17.7099 37.2497 16.9259C37.2497 16.1485 37.4421 15.5464 37.8269 15.1196C38.2117 14.6906 38.7583 14.4761 39.4667 14.4761C40.1554 14.4761 40.6933 14.6938 41.0803 15.1294C41.4672 15.5649 41.6607 16.1659 41.6607 16.9325ZM37.84 16.9325C37.84 17.5792 37.9778 18.0703 38.2532 18.4056C38.5309 18.7388 38.9332 18.9054 39.4601 18.9054C39.9914 18.9054 40.3926 18.7388 40.6637 18.4056C40.9349 18.0725 41.0704 17.5814 41.0704 16.9325C41.0704 16.2901 40.9349 15.8034 40.6637 15.4723C40.3948 15.1392 39.9958 14.9726 39.4667 14.9726C38.9354 14.9726 38.5309 15.1403 38.2532 15.4756C37.9778 15.8088 37.84 16.2944 37.84 16.9325Z" fill="#00A5DF"/>
<path d="M46.5145 20.5713H45.9833V19.3268H42.6512V20.5713H42.1199V18.8237H42.4905C42.8272 18.2597 43.1147 17.5738 43.353 16.7659C43.5935 15.958 43.7269 15.2197 43.7531 14.5512H45.9078V18.8237H46.5145V20.5713ZM45.3503 18.8237V15.051H44.2582C44.2188 15.578 44.0866 16.2117 43.8614 16.9521C43.6362 17.6903 43.3738 18.3142 43.0742 18.8237H45.3503Z" fill="#00A5DF"/>
<path d="M50.965 19.3268H50.4074V17.0795H47.8821V19.3268H47.3246V14.5512H47.8821V16.5829H50.4074V14.5512H50.965V19.3268Z" fill="#00A5DF"/>
<path d="M56.4452 16.9325C56.4452 17.6968 56.2506 18.2978 55.8614 18.7356C55.4744 19.1733 54.9355 19.3921 54.2446 19.3921C53.5384 19.3921 52.9928 19.1776 52.608 18.7486C52.2254 18.3174 52.0341 17.7099 52.0341 16.9259C52.0341 16.1485 52.2265 15.5464 52.6113 15.1196C52.9961 14.6906 53.5427 14.4761 54.2511 14.4761C54.9398 14.4761 55.4777 14.6938 55.8647 15.1294C56.2517 15.5649 56.4452 16.1659 56.4452 16.9325ZM52.6244 16.9325C52.6244 17.5792 52.7622 18.0703 53.0377 18.4056C53.3153 18.7388 53.7176 18.9054 54.2446 18.9054C54.7759 18.9054 55.1771 18.7388 55.4482 18.4056C55.7193 18.0725 55.8548 17.5814 55.8548 16.9325C55.8548 16.2901 55.7193 15.8034 55.4482 15.4723C55.1792 15.1392 54.7802 14.9726 54.2511 14.9726C53.7198 14.9726 53.3153 15.1403 53.0377 15.4756C52.7622 15.8088 52.6244 16.2944 52.6244 16.9325Z" fill="#00A5DF"/>
<path d="M60.1905 19.3268H57.5176V14.5512H60.1905V15.0444H58.0751V16.5829H60.0626V17.0729H58.0751V18.8303H60.1905V19.3268Z" fill="#00A5DF"/>
<path d="M4.71983 27.3475H3.71204V22.2567H1.00359V27.3475H0V21.4264H4.71983V27.3475Z" fill="#00A5DF"/>
<path d="M10.1493 27.3475L9.53625 25.7032H7.18893L6.58845 27.3475H5.53027L7.8272 21.4021H8.91897L11.2159 27.3475H10.1493ZM9.2717 24.8689L8.69642 23.257C8.65443 23.149 8.59564 22.9789 8.52006 22.7467C8.44727 22.5145 8.39688 22.3444 8.36889 22.2364C8.2933 22.5685 8.18272 22.9316 8.03715 23.3258L7.48287 24.8689H9.2717Z" fill="#00A5DF"/>
<path d="M16.0911 23.2165C16.0911 23.8348 15.8811 24.3086 15.4612 24.638C15.0413 24.9674 14.4436 25.1321 13.6682 25.1321H13.0299V27.3475H12.0263V21.4264H13.7942C14.5612 21.4264 15.1351 21.5776 15.5158 21.88C15.8993 22.1824 16.0911 22.6279 16.0911 23.2165ZM13.0299 24.3181H13.5632C14.0783 24.3181 14.4562 24.2317 14.697 24.0589C14.9377 23.8861 15.0581 23.6161 15.0581 23.2489C15.0581 22.9087 14.9503 22.6549 14.7348 22.4875C14.5192 22.3201 14.1833 22.2364 13.727 22.2364H13.0299V24.3181Z" fill="#00A5DF"/>
<path d="M19.4378 27.3475H18.4342V22.2567H16.6286V21.4264H21.2435V22.2567H19.4378V27.3475Z" fill="#00A5DF"/>
<path d="M27.0299 27.3475H26.0221V24.6785H23.1919V27.3475H22.1883V21.4264H23.1919V23.8483H26.0221V21.4264H27.0299V27.3475Z" fill="#00A5DF"/>
<path d="M32.1192 27.3475H28.6465V21.4264H32.1192V22.2445H29.6501V23.8564H31.9639V24.6664H29.6501V26.5253H32.1192V27.3475Z" fill="#00A5DF"/>
<path d="M37.5151 23.2165C37.5151 23.8348 37.3052 24.3086 36.8852 24.638C36.4653 24.9674 35.8677 25.1321 35.0922 25.1321H34.4539V27.3475H33.4504V21.4264H35.2182C35.9852 21.4264 36.5591 21.5776 36.9398 21.88C37.3234 22.1824 37.5151 22.6279 37.5151 23.2165ZM34.4539 24.3181H34.9872C35.5023 24.3181 35.8803 24.2317 36.121 24.0589C36.3618 23.8861 36.4821 23.6161 36.4821 23.2489C36.4821 22.9087 36.3744 22.6549 36.1588 22.4875C35.9432 22.3201 35.6073 22.2364 35.151 22.2364H34.4539V24.3181Z" fill="#00A5DF"/>
<path d="M41.3531 22.1716C40.7765 22.1716 40.3229 22.3687 39.9926 22.7629C39.6623 23.1571 39.4971 23.7011 39.4971 24.395C39.4971 25.1213 39.6553 25.6708 39.9716 26.0434C40.2907 26.416 40.7513 26.6023 41.3531 26.6023C41.6135 26.6023 41.8654 26.578 42.109 26.5294C42.3525 26.4781 42.6059 26.4133 42.869 26.335V27.1652C42.3875 27.3407 41.8416 27.4285 41.2314 27.4285C40.3327 27.4285 39.6427 27.1666 39.1612 26.6428C38.6797 26.1163 38.4389 25.3643 38.4389 24.3869C38.4389 23.7713 38.5551 23.2327 38.7875 22.771C39.0226 22.3093 39.3613 21.9556 39.8036 21.7099C40.246 21.4642 40.7653 21.3414 41.3615 21.3414C41.9886 21.3414 42.5681 21.4683 43.1 21.7221L42.7388 22.528C42.5317 22.4335 42.3119 22.3511 42.0796 22.281C41.85 22.2081 41.6079 22.1716 41.3531 22.1716Z" fill="#00A5DF"/>
<path d="M46.3123 27.3475H45.3087V22.2567H43.5031V21.4264H48.1179V22.2567H46.3123V27.3475Z" fill="#00A5DF"/>
<path d="M49.0628 21.4264H50.8852C51.7306 21.4264 52.3409 21.5452 52.716 21.7828C53.0939 22.0204 53.2829 22.3957 53.2829 22.9087C53.2829 23.2543 53.1905 23.5418 53.0057 23.7713C52.821 24.0008 52.555 24.1453 52.2079 24.2047V24.2452C52.639 24.3235 52.9554 24.4787 53.1569 24.7109C53.3613 24.9404 53.4635 25.2523 53.4635 25.6465C53.4635 26.1784 53.2703 26.5955 52.884 26.8979C52.5005 27.1976 51.9658 27.3475 51.2799 27.3475H49.0628V21.4264ZM50.0663 23.8726H51.0322C51.4521 23.8726 51.7586 23.8091 51.9518 23.6822C52.1449 23.5526 52.2415 23.3339 52.2415 23.0261C52.2415 22.748 52.1365 22.5469 51.9266 22.4227C51.7194 22.2985 51.3891 22.2364 50.9356 22.2364H50.0663V23.8726ZM50.0663 24.6583V26.5334H51.1329C51.5528 26.5334 51.8692 26.4565 52.0819 26.3026C52.2975 26.146 52.4053 25.9003 52.4053 25.5655C52.4053 25.2577 52.2961 25.0295 52.0777 24.881C51.8594 24.7325 51.5276 24.6583 51.0825 24.6583H50.0663Z" fill="#00A5DF"/>
<path d="M60.1905 24.3788C60.1905 25.3427 59.9399 26.092 59.4388 26.6266C58.9405 27.1612 58.2337 27.4285 57.3183 27.4285C56.3917 27.4285 55.6792 27.1639 55.1809 26.6347C54.6854 26.1028 54.4377 25.3481 54.4377 24.3707C54.4377 23.3933 54.6868 22.6427 55.1851 22.119C55.6862 21.5952 56.4001 21.3333 57.3267 21.3333C58.2393 21.3333 58.9447 21.5992 59.443 22.1311C59.9413 22.663 60.1905 23.4122 60.1905 24.3788ZM55.5042 24.3788C55.5042 25.1078 55.6568 25.6613 55.9619 26.0393C56.2671 26.4146 56.7192 26.6023 57.3183 26.6023C57.9145 26.6023 58.3638 26.416 58.6662 26.0434C58.9713 25.6708 59.1239 25.1159 59.1239 24.3788C59.1239 23.6525 58.9727 23.1017 58.6704 22.7264C58.3708 22.3511 57.9229 22.1635 57.3267 22.1635C56.7248 22.1635 56.2699 22.3511 55.9619 22.7264C55.6568 23.1017 55.5042 23.6525 55.5042 24.3788Z" fill="#00A5DF"/>
<g clip-path="url(#clip0_1889_12627)">
<path d="M54.3794 51.7456L42.775 41.867V39.0344L39.579 39.91L37.9345 37.6475C37.9345 37.6475 31.8737 37.865 29.9328 37.1656L27.5387 36.4604L22.8086 50.1002L24.9703 50.9229C25.0226 51.1874 25.0923 51.4283 25.1795 51.6516C25.2666 52.3157 25.6037 52.9445 26.1731 53.3852L41.3687 65.1092C41.8394 65.4735 42.3914 65.6439 42.9377 65.6439C43.7163 65.6439 44.4892 65.2913 44.9947 64.6155C45.4073 64.069 45.5642 63.4108 45.5061 62.782C45.8199 62.9113 46.1511 62.9818 46.4765 62.9818C47.2552 62.9818 48.0281 62.6292 48.5336 61.9534C49.0624 61.2541 49.1786 60.3784 48.9462 59.5968C49.196 59.6732 49.4517 59.7144 49.7074 59.7144C50.4861 59.7144 51.2589 59.3618 51.7645 58.686C52.2875 57.9925 52.4095 57.1287 52.1829 56.3529C52.3921 56.4058 52.6013 56.4411 52.8105 56.4411C53.5891 56.4411 54.362 56.0885 54.8675 55.4127C55.7334 54.2667 55.5183 52.6213 54.3794 51.7456V51.7456Z" stroke="#00A5DF" stroke-width="2" stroke-miterlimit="10"/>
<path d="M56.2212 49.0073C55.8783 49.4421 54.1048 52.284 54.1048 52.284L42.194 42.2322V40.6616L35.8364 37.6829L47.1561 37.8651L51.5782 37.6536L56.2212 49.0073Z" fill="#00A5DF"/>
<path d="M33.5937 48.3962C31.8156 48.261 32.0074 47.115 32.2398 45.7634L33.3846 39.0464C33.5415 38.1414 34.1748 37.3951 35.0349 37.1071L42.1765 34.2804C42.5716 34.1511 42.99 34.1218 43.3968 34.1982L49.5738 35.7907C50.9103 36.0434 51.7878 37.3363 51.5437 38.6879C51.2939 40.0396 50.0155 40.9269 48.6789 40.6801L43.1237 40.5097L37.981 41.3618L37.3767 44.8995C36.8188 48.1964 34.3317 48.4549 33.5996 48.3962H33.5937Z" fill="#00A5DF"/>
<path d="M29.9793 60.8077C29.5725 60.8077 29.1657 60.6902 28.8055 60.4375C27.8641 59.7793 27.6258 58.4806 28.2767 57.5286L29.6887 55.4247C30.3396 54.4727 31.6238 54.2318 32.5651 54.89C33.5065 55.5481 33.7448 56.8469 33.0939 57.7989L31.6819 59.9027C31.2809 60.4904 30.6359 60.8077 29.9735 60.8077H29.9793Z" fill="#00A5DF"/>
<path d="M33.2274 63.0763C32.7742 63.0763 32.3151 62.9235 31.9374 62.6179C31.0425 61.8951 30.903 60.5787 31.612 59.6737L32.6754 58.3514C33.3901 57.4464 34.6918 57.3054 35.5866 58.0223C36.4815 58.7452 36.621 60.0615 35.9121 60.9666L34.8487 62.2888C34.4419 62.8059 33.8376 63.0763 33.2332 63.0763H33.2274Z" fill="#00A5DF"/>
<path d="M36.5047 65.2683C35.9759 65.2683 35.4471 65.0626 35.0404 64.6571C34.2326 63.8402 34.2326 62.5121 35.0404 61.6953L35.5866 61.2486C36.3943 60.4318 37.7076 60.4318 38.5153 61.2486C39.323 62.0655 39.323 63.3936 38.5153 64.2105L37.9691 64.6571C37.5623 65.0685 37.0335 65.2683 36.5047 65.2683Z" fill="#00A5DF"/>
<path d="M27.1085 58.2397C26.7599 58.2397 26.3996 58.1516 26.0742 57.9576C25.0863 57.3817 24.7435 56.1006 25.3129 55.1016L26.295 53.2563C26.8645 52.2573 28.1312 51.9106 29.1191 52.4865C30.107 53.0624 30.4498 54.3435 29.8803 55.3425L28.8983 57.1878C28.5148 57.8577 27.8175 58.2338 27.1027 58.2338L27.1085 58.2397Z" fill="#00A5DF"/>
<path d="M49.9517 36.2905L52.3516 36.1318L56.7505 48.8195L55.9079 49.3543L49.9517 36.2905Z" fill="#00A5DF"/>
<path d="M57.8019 51.846C57.9588 52.3044 58.4644 52.563 58.9234 52.4278L62.2996 51.4112C62.7586 51.2701 63.0027 50.7882 62.8458 50.3299L57.3951 34.6157C57.2382 34.1573 56.7327 33.8987 56.2736 34.0339L52.8975 35.0506C52.4384 35.1916 52.1944 35.6735 52.3513 36.1319L57.8019 51.8402V51.846Z" stroke="#00A5DF" stroke-width="2" stroke-miterlimit="10"/>
<path d="M56.8527 33.1101L54.4128 33.9761C53.9586 34.1374 53.7176 34.6347 53.8745 35.0869L59.7131 51.9103C59.8701 52.3625 60.3655 52.5984 60.8198 52.4372L63.2597 51.5711C63.7139 51.4099 63.9549 50.9126 63.798 50.4604L57.9593 33.6369C57.8024 33.1847 57.307 32.9489 56.8527 33.1101Z" fill="#00A5DF"/>
<path d="M22.2042 51.8459C22.0473 52.3043 21.5417 52.5629 21.0827 52.4277L16.9219 51.1747C16.4628 51.0337 16.2188 50.5518 16.3757 50.0934L21.8205 34.3792C21.9774 33.9208 22.483 33.6623 22.942 33.7974L27.1028 35.0504C27.5618 35.1915 27.8059 35.6734 27.649 36.1317L22.2042 51.8459Z" stroke="#00A5DF" stroke-width="2" stroke-miterlimit="10"/>
<path d="M16.6373 50.7153C16.6076 50.7048 16.5848 50.6923 16.5678 50.6806L22.4142 33.8347C22.4347 33.8363 22.4603 33.8409 22.4899 33.8515L25.501 34.9202C25.5307 34.9308 25.5535 34.9433 25.5705 34.955L19.724 51.8009C19.7035 51.7993 19.678 51.7947 19.6483 51.7841L16.6373 50.7153Z" stroke="#00A5DF" stroke-width="2"/>
</g>
<path fill-rule="evenodd" clip-rule="evenodd" d="M78 40C78 60.9868 60.9868 78 40 78C19.0132 78 2 60.9868 2 40C2 36.4355 2.49078 32.9856 3.40846 29.7143H1.33485C0.464032 32.9963 0 36.444 0 40C0 62.0914 17.9086 80 40 80C62.0914 80 80 62.0914 80 40C80 17.9086 62.0914 0 40 0C29.1011 0 19.2203 4.35893 12.0058 11.4286H14.9458C21.6344 5.55867 30.4016 2 40 2C60.9868 2 78 19.0132 78 40Z" fill="#00A5DF"/>
<defs>
<clipPath id="clip0_1889_12627">
<rect width="49.5238" height="35.8095" fill="white" transform="translate(15.2383 31.238)"/>
</clipPath>
</defs>
</svg>
