<svg width="106" height="105" viewBox="0 0 106 105" fill="none" xmlns="http://www.w3.org/2000/svg">
<path d="M2.78499 25.3666L0.649975 19.8103H0.61554C0.655715 20.2504 0.675802 20.7735 0.675802 21.3794V25.3666H0V19.0986H1.10195L3.09492 24.269H3.12935L5.13954 19.0986H6.23288V25.3666H5.50112V21.328C5.50112 20.865 5.5212 20.3619 5.56138 19.8189H5.52694L3.37471 25.3666H2.78499Z" fill="#00A5DF"/>
<path d="M11.4714 25.3666H7.96328V19.0986H11.4714V19.746H8.69504V21.7653H11.3035V22.4084H8.69504V24.7149H11.4714V25.3666Z" fill="#00A5DF"/>
<path d="M14.5793 22.1426L12.1042 19.0986H12.922L15.3713 22.134V19.0986H16.0772V22.134L18.5308 19.0986H19.3486L16.8692 22.134L19.4261 25.3666H18.5824L16.0772 22.1897V25.3666H15.3713V22.1897L12.8704 25.3666H12.0138L14.5793 22.1426Z" fill="#00A5DF"/>
<path d="M25.2802 27H24.5828V25.3666H20.2095V27H19.5122V24.7063H19.9986C20.4405 23.9661 20.8179 23.0657 21.1307 22.0054C21.4463 20.945 21.6214 19.9761 21.6558 19.0986H24.4838V24.7063H25.2802V27ZM23.7521 24.7063V19.7546H22.3187C22.267 20.4462 22.0934 21.278 21.7979 22.2497C21.5023 23.2186 21.1579 24.0375 20.7648 24.7063H23.7521Z" fill="#00A5DF"/>
<path d="M26.7394 25.4523C26.4209 25.4523 26.1411 25.4094 25.9 25.3237V24.612C26.1669 24.7349 26.4381 24.7964 26.7136 24.7964C27.0292 24.7964 27.2818 24.7249 27.4711 24.582C27.6634 24.4362 27.8542 24.1647 28.0436 23.7674L25.5944 19.0986H26.4036L28.2632 22.6613C28.3349 22.8014 28.3909 22.9385 28.431 23.0729H28.4655C28.5458 22.8328 28.6018 22.6813 28.6334 22.6184L30.1787 19.0986H30.9535L28.9433 23.5831C28.7022 24.1175 28.4841 24.5063 28.289 24.7492C28.0967 24.9921 27.8786 25.1708 27.6347 25.2851C27.3937 25.3966 27.0952 25.4523 26.7394 25.4523Z" fill="#00A5DF"/>
<path d="M36.5966 25.3666H35.8649V22.4169H32.5504V25.3666H31.8187V19.0986H32.5504V21.7653H35.8649V19.0986H36.5966V25.3666Z" fill="#00A5DF"/>
<path d="M42.2828 25.3666L41.4994 23.373H38.977L38.2022 25.3666H37.4618L39.9498 19.0729H40.5654L43.0404 25.3666H42.2828ZM41.2713 22.717L40.5395 20.7749C40.4448 20.5291 40.3473 20.2276 40.2468 19.8703C40.1837 20.1447 40.0933 20.4462 39.9756 20.7749L39.2353 22.717H41.2713Z" fill="#00A5DF"/>
<path d="M47.8959 20.925C47.8959 21.5595 47.6778 22.0482 47.2416 22.3912C46.8083 22.7313 46.187 22.9014 45.3778 22.9014H44.6374V25.3666H43.9056V19.0986H45.537C47.1096 19.0986 47.8959 19.7074 47.8959 20.925ZM44.6374 22.2755H45.296C45.9445 22.2755 46.4137 22.1711 46.7035 21.9625C46.9934 21.7538 47.1383 21.4194 47.1383 20.9593C47.1383 20.5448 47.002 20.2362 46.7294 20.0332C46.4567 19.8303 46.032 19.7288 45.4552 19.7288H44.6374V22.2755Z" fill="#00A5DF"/>
<path d="M54.6797 22.224C54.6797 23.2272 54.4243 24.0161 53.9135 24.5906C53.4056 25.1651 52.6982 25.4523 51.7914 25.4523C50.8645 25.4523 50.1485 25.1708 49.6435 24.6077C49.1413 24.0418 48.8902 23.2444 48.8902 22.2154C48.8902 21.1951 49.1427 20.4048 49.6478 19.8446C50.1529 19.2815 50.8703 19 51.8 19C52.704 19 53.4099 19.2858 53.9178 19.8574C54.4258 20.4291 54.6797 21.2179 54.6797 22.224ZM49.665 22.224C49.665 23.0729 49.8458 23.7174 50.2074 24.1576C50.5718 24.5949 51.0998 24.8135 51.7914 24.8135C52.4887 24.8135 53.0153 24.5949 53.3712 24.1576C53.727 23.7203 53.9049 23.0757 53.9049 22.224C53.9049 21.3809 53.727 20.7421 53.3712 20.3076C53.0182 19.8703 52.4945 19.6517 51.8 19.6517C51.1027 19.6517 50.5718 19.8717 50.2074 20.3119C49.8458 20.7492 49.665 21.3866 49.665 22.224Z" fill="#00A5DF"/>
<path d="M61.0503 27H60.353V25.3666H55.9797V27H55.2824V24.7063H55.7688C56.2107 23.9661 56.588 23.0657 56.9008 22.0054C57.2165 20.945 57.3915 19.9761 57.426 19.0986H60.254V24.7063H61.0503V27ZM59.5223 24.7063V19.7546H58.0889C58.0372 20.4462 57.8636 21.278 57.568 22.2497C57.2725 23.2186 56.9281 24.0375 56.535 24.7063H59.5223Z" fill="#00A5DF"/>
<path d="M66.8915 25.3666H66.1598V22.4169H62.8453V25.3666H62.1136V19.0986H62.8453V21.7653H66.1598V19.0986H66.8915V25.3666Z" fill="#00A5DF"/>
<path d="M74.0843 22.224C74.0843 23.2272 73.8289 24.0161 73.3181 24.5906C72.8102 25.1651 72.1028 25.4523 71.196 25.4523C70.2691 25.4523 69.5531 25.1708 69.0481 24.6077C68.5459 24.0418 68.2948 23.2444 68.2948 22.2154C68.2948 21.1951 68.5473 20.4048 69.0524 19.8446C69.5574 19.2815 70.2748 19 71.2046 19C72.1085 19 72.8145 19.2858 73.3224 19.8574C73.8303 20.4291 74.0843 21.2179 74.0843 22.224ZM69.0696 22.224C69.0696 23.0729 69.2504 23.7174 69.6119 24.1576C69.9764 24.5949 70.5044 24.8135 71.196 24.8135C71.8933 24.8135 72.4199 24.5949 72.7757 24.1576C73.1316 23.7203 73.3095 23.0757 73.3095 22.224C73.3095 21.3809 73.1316 20.7421 72.7757 20.3076C72.4228 19.8703 71.8991 19.6517 71.2046 19.6517C70.5073 19.6517 69.9764 19.8717 69.6119 20.3119C69.2504 20.7492 69.0696 21.3866 69.0696 22.224Z" fill="#00A5DF"/>
<path d="M79 25.3666H75.4919V19.0986H79V19.746H76.2236V21.7653H78.8321V22.4084H76.2236V24.7149H79V25.3666Z" fill="#00A5DF"/>
<path d="M6.19478 35.8937H4.87205V29.212H1.31722V35.8937H0V28.1223H6.19478V35.8937Z" fill="#00A5DF"/>
<path d="M13.321 35.8937L12.5163 33.7355H9.43547L8.64734 35.8937H7.25848L10.2732 28.0904H11.7062L14.7209 35.8937H13.321ZM12.1691 32.6405L11.4141 30.5249C11.3589 30.3832 11.2818 30.1599 11.1826 29.8551C11.087 29.5504 11.0209 29.3271 10.9842 29.1854C10.885 29.6213 10.7398 30.0979 10.5488 30.6153L9.82126 32.6405H12.1691Z" fill="#00A5DF"/>
<path d="M21.1196 30.4718C21.1196 31.2833 20.844 31.9052 20.2929 32.3375C19.7417 32.7699 18.9573 32.986 17.9395 32.986H17.1018V35.8937H15.7846V28.1223H18.1049C19.1116 28.1223 19.8648 28.3207 20.3645 28.7176C20.8679 29.1145 21.1196 29.6992 21.1196 30.4718ZM17.1018 31.9176H17.8017C18.4778 31.9176 18.9738 31.8042 19.2898 31.5774C19.6058 31.3506 19.7638 30.9962 19.7638 30.5143C19.7638 30.0678 19.6223 29.7347 19.3394 29.515C19.0565 29.2952 18.6156 29.1854 18.0167 29.1854H17.1018V31.9176Z" fill="#00A5DF"/>
<path d="M25.5121 35.8937H24.1949V29.212H21.825V28.1223H27.882V29.212H25.5121V35.8937Z" fill="#00A5DF"/>
<path d="M35.4767 35.8937H34.154V32.3907H30.4393V35.8937H29.1221V28.1223H30.4393V31.301H34.154V28.1223H35.4767V35.8937Z" fill="#00A5DF"/>
<path d="M42.1565 35.8937H37.5986V28.1223H42.1565V29.196H38.9158V31.3116H41.9526V32.3748H38.9158V34.8146H42.1565V35.8937Z" fill="#00A5DF"/>
<path d="M49.2386 30.4718C49.2386 31.2833 48.963 31.9052 48.4119 32.3375C47.8608 32.7699 47.0763 32.986 46.0585 32.986H45.2208V35.8937H43.9036V28.1223H46.2239C47.2306 28.1223 47.9838 28.3207 48.4835 28.7176C48.9869 29.1145 49.2386 29.6992 49.2386 30.4718ZM45.2208 31.9176H45.9207C46.5968 31.9176 47.0928 31.8042 47.4088 31.5774C47.7248 31.3506 47.8828 30.9962 47.8828 30.5143C47.8828 30.0678 47.7413 29.7347 47.4584 29.515C47.1755 29.2952 46.7346 29.1854 46.1357 29.1854H45.2208V31.9176Z" fill="#00A5DF"/>
<path d="M54.276 29.1003C53.5191 29.1003 52.9239 29.359 52.4903 29.8764C52.0567 30.3938 51.84 31.1079 51.84 32.0186C51.84 32.9719 52.0476 33.693 52.4627 34.1821C52.8816 34.6711 53.486 34.9156 54.276 34.9156C54.6177 34.9156 54.9484 34.8837 55.268 34.8199C55.5877 34.7526 55.9202 34.6676 56.2656 34.5648V35.6545C55.6336 35.8848 54.9171 36 54.1162 36C52.9367 36 52.031 35.6563 51.3991 34.9688C50.7671 34.2777 50.4511 33.2908 50.4511 32.008C50.4511 31.2 50.6036 30.493 50.9085 29.887C51.2172 29.2811 51.6618 28.8168 52.2423 28.4944C52.8228 28.1719 53.5044 28.0106 54.287 28.0106C55.11 28.0106 55.8706 28.1772 56.5687 28.5103L56.0947 29.5681C55.8228 29.4441 55.5344 29.336 55.2295 29.2439C54.9282 29.1482 54.6103 29.1003 54.276 29.1003Z" fill="#00A5DF"/>
<path d="M60.7849 35.8937H59.4677V29.212H57.0978V28.1223H63.1548V29.212H60.7849V35.8937Z" fill="#00A5DF"/>
<path d="M64.3949 28.1223H66.7868C67.8964 28.1223 68.6974 28.2782 69.1898 28.59C69.6858 28.9019 69.9338 29.3945 69.9338 30.0678C69.9338 30.5214 69.8125 30.8988 69.57 31.2C69.3275 31.5012 68.9785 31.6908 68.5229 31.7688V31.8219C69.0887 31.9247 69.5039 32.1285 69.7685 32.4332C70.0367 32.7344 70.1708 33.1437 70.1708 33.6611C70.1708 34.3592 69.9173 34.9068 69.4102 35.3037C68.9068 35.697 68.2051 35.8937 67.3049 35.8937H64.3949V28.1223ZM65.7121 31.3329H66.9797C67.5308 31.3329 67.9332 31.2496 68.1867 31.0831C68.4402 30.913 68.567 30.6259 68.567 30.2219C68.567 29.8569 68.4292 29.5929 68.1536 29.4299C67.8817 29.2669 67.4482 29.1854 66.8529 29.1854H65.7121V31.3329ZM65.7121 32.3641V34.8252H67.112C67.6631 34.8252 68.0783 34.7243 68.3575 34.5223C68.6405 34.3167 68.7819 33.9942 68.7819 33.5548C68.7819 33.1508 68.6386 32.8514 68.352 32.6565C68.0654 32.4616 67.63 32.3641 67.0458 32.3641H65.7121Z" fill="#00A5DF"/>
<path d="M79 31.9973C79 33.2625 78.6712 34.2458 78.0135 34.9475C77.3595 35.6492 76.4317 36 75.2302 36C74.014 36 73.0789 35.6527 72.4249 34.9581C71.7746 34.26 71.4494 33.2695 71.4494 31.9867C71.4494 30.7039 71.7764 29.7187 72.4304 29.0312C73.0881 28.3437 74.0251 28 75.2412 28C76.439 28 77.365 28.3491 78.019 29.0472C78.673 29.7453 79 30.7287 79 31.9973ZM72.8493 31.9973C72.8493 32.9542 73.0496 33.6806 73.4501 34.1767C73.8505 34.6693 74.4439 34.9156 75.2302 34.9156C76.0128 34.9156 76.6026 34.6711 76.9994 34.1821C77.3999 33.693 77.6001 32.9648 77.6001 31.9973C77.6001 31.0441 77.4017 30.3212 77.0049 29.8286C76.6117 29.336 76.0239 29.0897 75.2412 29.0897C74.4513 29.0897 73.8542 29.336 73.4501 29.8286C73.0496 30.3212 72.8493 31.0441 72.8493 31.9973Z" fill="#00A5DF"/>
<path fill-rule="evenodd" clip-rule="evenodd" d="M102 52.5C102 79.8381 79.8381 102 52.5 102C25.1619 102 3 79.8381 3 52.5C3 47.8199 3.6495 43.2915 4.86329 39H1.75199C0.609042 43.3077 0 47.8327 0 52.5C0 81.4949 23.5051 105 52.5 105C81.4949 105 105 81.4949 105 52.5C105 23.5051 81.4949 0 52.5 0C38.1952 0 25.2267 5.7211 15.7576 15H20.1877C28.8587 7.52182 40.1513 3 52.5 3C79.8381 3 102 25.1619 102 52.5Z" fill="#00A5DF"/>
<mask id="mask0_3759_19694" style="mask-type:alpha" maskUnits="userSpaceOnUse" x="23" y="42" width="86" height="87">
<g clip-path="url(#clip0_3759_19694)">
<path d="M39.0216 99.3588C39.0216 99.3588 38.8175 98.3055 39.0216 98.1551C39.2365 98.0154 39.5911 97.6607 39.6663 97.306C39.806 96.8869 39.7308 95.9519 39.7308 95.9519L38.5274 93.6842L38.3125 92.3408C38.3125 92.3408 36.819 92.7707 37.0339 92.9104C37.2488 93.0501 36.3892 95.3178 36.3248 95.6832C36.2496 96.0379 36.1851 97.5317 36.1851 98.0261C36.1099 98.5957 36.0454 100.369 36.0454 100.369L36.2603 101.788C36.2603 101.788 37.1091 102.712 37.4637 102.003C37.8935 101.293 38.6778 100.863 38.8927 100.584C39.0324 100.229 39.0324 99.3695 39.0324 99.3695L39.0216 99.3588Z" fill="#00A5DF"/>
<path d="M90.3591 54.8223L89.2202 56.3269L87.1572 57.6703L85.1695 58.659C85.1695 58.659 84.3851 59.5833 85.9538 60.2174C87.587 60.9375 88.511 61.5071 88.511 61.5071C88.511 61.5071 88.7904 61.1524 89.145 59.9487C89.4995 58.8095 89.7144 58.1002 89.7144 58.1002C89.7144 58.1002 90.2087 57.896 90.7029 57.1114C91.1972 56.2516 92.046 55.1877 92.046 55.1877L90.3483 54.833L90.3591 54.8223Z" fill="#00A5DF"/>
<path d="M72.3942 44.9564C54.7194 42.9036 37.0447 52.3505 29.3731 69.3849C29.1582 69.9545 28.9433 70.4488 28.7391 70.9432L29.0185 71.1582L31.5757 68.955C31.5757 68.955 32.5749 67.4611 33.3593 66.7518C34.2081 66.0425 35.6264 64.4089 35.6264 64.4089C35.6264 64.4089 37.9687 63.6243 38.1084 63.4094C38.1836 63.2052 39.9564 62.4959 40.3862 62.6249C40.7408 62.8398 44.0071 64.3229 44.0071 64.3229L46.285 64.1832C46.285 64.1832 48.7025 64.6776 48.9818 64.5379C49.2719 64.3229 51.3241 63.3987 51.3241 63.3987C51.3241 63.3987 52.9573 62.5496 51.6787 63.9038C50.4753 65.2472 50.0455 64.957 49.4009 65.6663C48.8314 66.3756 46.4139 66.021 46.4139 66.021L46.1345 65.1075C46.1345 65.1075 43.8567 65.6663 43.5773 65.7416C43.2872 65.8168 42.793 66.8163 42.793 67.2354C42.793 67.6546 42.5781 69.1484 43.2872 69.9437C43.9964 70.653 44.6303 71.6418 44.8452 71.932C44.9849 72.2221 46.5428 74.4253 46.7577 74.8445C46.9726 75.3388 48.2512 76.5425 48.2512 76.5425C48.2512 76.5425 50.529 75.4033 50.9481 74.8445C51.3779 74.3394 51.9366 73.4903 52.506 72.8562C53.0755 72.1469 54.7731 70.653 54.7731 70.653C54.7731 70.653 56.3311 69.5138 56.9006 69.1592C57.47 68.8045 58.6734 68.2994 58.6734 68.2994C58.6734 68.2994 59.3181 67.9447 58.4585 69.6536C57.6742 71.2871 55.7616 73.0604 55.4715 73.3506C55.117 73.63 53.4838 74.9842 53.3441 74.694C53.2044 74.4038 51.5713 75.4786 51.1415 76.1126C50.7117 76.7467 49.0893 77.3916 48.8636 77.5313C48.5735 77.7355 47.5206 78.4448 46.4569 77.3916C45.3932 76.3276 44.2542 75.6075 44.2542 75.6075L43.8997 78.1009L44.0394 82.0881L45.8122 86.9781C45.8122 86.9781 46.3817 89.321 46.0271 89.8261C45.6725 90.3205 44.5336 92.0186 44.0394 92.9536C43.4699 93.8778 42.6103 95.5759 42.6103 95.5759L43.674 99.058L44.1038 100.272L42.8897 102.755L42.9649 104.453C42.9649 104.453 43.3839 105.313 43.3839 105.517C43.3839 105.807 42.8897 107.581 42.8897 107.581L43.5988 109.988L44.2328 111.772C44.2328 111.772 45.651 113.115 45.9304 113.191C46.2205 113.191 46.5751 113.75 47.0693 113.975C47.6388 114.179 47.9933 115.114 48.7025 114.76C49.4116 114.405 49.9811 112.976 49.9811 112.976C49.9811 112.976 50.9696 112.191 52.0333 111.063C53.1077 109.859 53.2367 109.784 54.4508 108.301C55.6542 106.807 56.2344 107.086 56.8683 105.592C57.5023 104.098 58.4263 102.4 58.4263 102.4C58.4263 102.4 58.5015 100.627 59.0602 99.5631C59.7049 98.4992 61.0479 97.0053 61.1232 96.7151C61.1984 96.5002 62.9712 95.5114 62.9712 95.5114L64.4647 93.8026L65.3887 91.2555C65.3887 91.2555 66.807 91.0406 67.3013 91.3093C67.8707 91.5994 69.0741 90.9546 69.3642 90.9546C69.6543 90.9546 71.7065 92.8139 72.7702 93.3082C73.7587 93.8026 74.5431 96.1455 76.1118 95.2965C77.6053 94.4475 79.0988 93.448 79.5178 93.5232C79.9476 93.5769 81.2906 92.3732 81.2906 92.3732C81.2906 92.3732 82.999 91.5242 83.7834 89.8261C84.4925 88.1173 84.9223 87.0533 84.9223 87.0533L85.4918 84.0549L85.2017 81.2928C85.2017 81.2928 84.0627 80.3686 84.2132 79.3691C84.4281 78.3051 84.7074 76.8112 84.7074 76.8112L83.8586 74.8875V73.8235L83.5792 73.0389L83.0098 73.3291L81.8709 72.7703L80.3774 71.8352L79.593 70.7713L78.0995 69.7073L77.3904 69.4279L76.4664 69.0087L75.682 68.5036L75.1878 68.2994L74.6935 68.3639C74.6935 68.3639 74.6183 69.0732 74.4034 69.2881C74.1885 69.5031 74.3389 70.4274 74.124 70.5671C73.8339 70.7068 72.695 70.9217 72.5553 70.9217C72.4157 70.9217 71.9214 70.5026 71.2767 70.7068C70.7073 70.9217 70.9222 71.1367 69.7833 71.1367C68.6443 71.1367 67.7955 71.4913 67.7955 70.782C67.7955 70.0727 68.0104 70.8465 67.8707 69.8577C67.7203 68.7938 68.0856 68.6541 67.0112 68.5036C66.0227 68.4391 65.4532 68.6541 64.0994 68.2134C62.7456 67.719 61.6819 67.1494 61.4025 67.0742C61.048 67.0097 59.6297 66.4401 59.6297 66.4401L59.5545 64.7958L60.0487 63.0977L60.3281 62.3884L63.1646 63.3879L63.4547 63.9468C63.4547 63.9468 64.0994 64.3767 64.7333 64.0112C65.4425 63.7318 65.797 63.3019 65.797 63.3019L66.431 62.3132V61.174C66.431 61.174 67.774 61.8188 68.0641 61.8188C68.279 61.8188 68.9129 61.3137 68.6981 62.023C68.408 62.8076 67.4195 64.2907 67.4195 64.2907C67.4195 64.2907 67.4195 65.2042 67.9137 65.2042C68.408 65.2794 68.1931 66.2037 69.0526 65C69.9014 63.7211 70.256 63.8608 70.6213 63.6458C70.9759 63.4416 71.685 62.3562 71.685 62.3562C71.685 62.3562 73.3182 62.2165 73.8877 61.8618C74.4571 61.5824 74.672 61.1525 75.3812 61.1525C76.1655 61.0987 76.3052 61.1525 76.3052 61.1525C76.3052 61.1525 76.8746 62.152 76.5953 62.4421C76.2407 62.7323 74.8224 63.3664 74.8224 63.3664L72.19 63.7856C72.19 63.7856 71.6206 64.1402 71.8355 64.2047C72.1256 64.3552 72.6843 64.2799 72.6843 64.2799C72.6843 64.2799 72.8992 64.6346 72.6198 64.8495C72.4049 64.9892 72.1256 65.1397 72.0504 65.2042C71.9859 65.2687 72.1148 65.9887 72.1148 65.9887L72.19 66.5476C72.19 66.5476 72.4049 66.9023 72.5446 66.4831C72.6843 65.9887 72.6843 65.4836 72.6843 65.4836L73.3182 64.9248C73.3182 64.9248 73.8877 64.7206 74.1026 64.5701C74.2422 64.4949 74.5968 64.7206 74.9514 64.5701C75.3812 64.4304 75.8002 64.6346 76.3697 64.2154C76.9391 63.8715 76.8639 63.3664 77.2937 63.3019L77.7879 63.2267L78.4971 63.3664C78.4971 63.3664 78.6367 63.7211 78.6367 63.7856C78.6367 63.8608 79.2062 64.4304 79.2062 64.4304C79.2062 64.4304 79.0665 64.7206 79.2062 64.785C79.2814 64.8603 79.4104 64.785 79.7757 64.785C80.1947 64.785 80.6245 65.0752 80.6245 65.0752C80.6245 65.0752 80.7642 65.5696 80.9146 65.5696C80.9791 65.6341 80.9791 65.9243 80.8501 65.9887C80.6352 66.1392 80.4203 66.1392 80.6997 66.3434C80.9146 66.6336 81.1939 67.1172 81.2692 67.3429C81.3444 67.4826 81.4841 67.977 81.5593 68.1274C81.6989 68.3316 81.8386 68.912 81.8386 68.912L81.4841 69.4708L81.6345 70.3951L82.0535 71.1904C82.0535 71.1904 81.6345 71.3946 82.1932 71.6096C82.7626 71.8137 83.4718 72.2436 83.4718 72.2436C83.4718 72.2436 83.1817 72.6735 83.547 72.6735C83.9123 72.6735 84.471 72.5338 84.471 72.5338L84.8901 72.4693C84.8901 72.4693 84.8256 72.7595 85.3199 72.8992C85.8893 72.9637 85.8893 73.3184 86.3191 72.6843C86.6737 71.975 86.4588 72.2544 86.6737 71.76C86.9638 71.2549 87.2431 69.9115 87.3076 69.761C87.3721 69.6213 88.0167 68.912 88.0167 68.912C88.0167 68.912 88.0167 68.6218 87.9523 68.3424C87.8878 67.9877 87.2431 67.4181 86.953 67.3536C86.6629 67.2892 85.61 66.999 85.1157 66.9237C84.6215 66.8593 84.2669 67.2032 83.9768 66.6336C83.6222 66.1392 83.8371 65.6448 83.8371 65.6448L84.471 64.4949C84.471 64.4949 84.7611 64.7098 85.2554 64.3552C85.6852 63.9253 86.1042 63.7103 86.1042 63.7103C86.1042 63.7103 86.7381 63.9253 87.0282 63.8608C87.3183 63.7963 87.3828 63.2912 87.3828 63.2912C87.3828 63.2912 86.3191 62.4421 86.3191 62.5819C86.2439 62.6463 85.7496 62.0875 85.7496 62.0875L86.1687 61.4427C86.1687 61.4427 85.5992 61.5179 85.3843 61.3782C85.2339 61.2385 85.0297 61.0987 84.8149 60.8838C84.6752 60.6689 84.6 60.3142 84.6 60.3142L84.6752 59.5296L84.1809 59.1105L83.4718 58.5516V57.6381L82.9023 56.7783L82.118 56.4237L81.6237 55.9293L81.7634 55.22C81.7634 55.22 82.118 53.8014 82.3329 53.8658C82.6122 53.9303 82.9668 53.2318 82.9668 53.2318L82.537 52.0173C82.537 52.0173 81.6882 52.5224 81.6882 52.8126C81.6882 53.1028 81.9031 53.5219 81.5485 53.6616C81.2692 53.8014 80.4848 54.2312 80.4848 54.2312L78.7764 54.156C78.7764 54.156 78.0673 54.0163 77.6483 53.5219C77.2185 53.0168 76.7242 53.307 76.3697 52.5224C76.0151 51.8131 76.0151 51.6734 76.0151 51.3187C76.0151 50.9641 75.8754 49.9001 75.8002 49.3198C75.725 48.8254 74.7365 48.8899 74.7365 48.8899L74.6613 48.2558C74.6613 48.2558 75.0158 47.6862 75.1555 47.4067C75.22 47.1166 74.6613 46.4825 74.4464 46.4073C74.3067 46.332 73.0281 45.7624 73.0281 45.7624L72.3834 44.9779L72.3297 44.9241L72.3942 44.9564Z" fill="#00A5DF"/>
<path d="M84.6108 48.3631C83.9016 48.0192 83.1925 47.729 82.4833 47.4496L80.0766 46.6006C80.0766 46.6006 79.4319 47.2347 78.3682 47.5893C77.3689 48.0192 78.9377 49.2981 78.9377 49.2981C78.9377 49.2981 78.6583 50.2224 78.5831 51.3509C78.5186 52.5546 79.4319 52.3396 79.4319 52.3396C79.4319 52.3396 80.3559 52.8447 80.3559 52.5546C80.3559 52.2644 80.8502 51.8452 81.0651 51.6948C81.2047 51.5551 81.9139 50.9962 82.2685 50.6416C82.5586 50.2224 83.128 51.2756 83.128 51.2756C83.128 51.2756 83.5471 51.6303 84.8257 52.6298C86.1043 53.6938 85.3199 52.2751 85.3199 52.2751C85.3199 52.2751 86.1043 50.921 86.3084 50.7813C86.4481 50.7168 86.663 49.9322 86.8026 49.4271C86.0828 49.008 85.3092 48.6533 84.6 48.3739L84.6108 48.3631Z" fill="#00A5DF"/>
<path d="M67.5268 129C61.5314 129 55.6971 127.743 50.1744 125.271C39.8059 120.628 31.8657 112.224 27.815 101.627C23.7643 91.0192 24.0974 79.4659 28.739 69.0948C35.5833 53.8552 50.8191 44 67.5376 44C73.533 44 79.378 45.2574 84.9007 47.7293C95.2262 52.3399 103.145 60.7012 107.185 71.2873C111.236 81.9056 110.913 93.4588 106.261 103.841C99.4703 119.123 84.256 129 67.5268 129ZM67.5376 45.3971C51.367 45.3971 36.6363 54.93 30.0069 69.6752C25.5264 79.7024 25.2041 90.8795 29.1258 101.132C33.0369 111.385 40.7192 119.51 50.7546 124.003C56.0946 126.399 61.7355 127.603 67.5268 127.603C83.7188 127.603 98.4173 118.049 104.993 103.271C109.484 93.2332 109.807 82.0453 105.885 71.7816C101.974 61.5503 94.3237 53.4576 84.3313 48.9975C78.9912 46.6008 73.3396 45.3971 67.5483 45.3971H67.5376Z" fill="#00A5DF" stroke="#00A5DF"/>
</g>
</mask>
<g mask="url(#mask0_3759_19694)">
<ellipse cx="53" cy="52.5" rx="47" ry="47.5" fill="#00A5DF"/>
</g>
<defs>
<clipPath id="clip0_3759_19694">
<rect width="86" height="87" fill="white" transform="translate(23 42)"/>
</clipPath>
</defs>
</svg>
